<mxfile host="app.diagrams.net" agent="Mozilla/5.0 (Windows NT 10.0; Win64; x64; rv:131.0) Gecko/20100101 Firefox/131.0" version="24.8.0">
  <diagram name="PÃ¡gina-1" id="MeWs6kVz-QG1tcEUkOYa">
    <mxGraphModel dx="2261" dy="1951" grid="1" gridSize="10" guides="1" tooltips="1" connect="1" arrows="1" fold="1" page="1" pageScale="1" pageWidth="827" pageHeight="1169" math="0" shadow="0">
      <root>
        <mxCell id="0" />
        <mxCell id="1" parent="0" />
        <mxCell id="Ec8AV_Ql3ZaaRcwQEaW2-36" value="" style="rounded=1;whiteSpace=wrap;html=1;fillColor=#e1d5e7;strokeColor=#9673a6;" vertex="1" parent="1">
          <mxGeometry x="105" y="-70" width="135" height="130" as="geometry" />
        </mxCell>
        <mxCell id="Ec8AV_Ql3ZaaRcwQEaW2-1" value="" style="rounded=1;whiteSpace=wrap;html=1;absoluteArcSize=1;arcSize=14;strokeWidth=2;fillColor=#d5e8d4;strokeColor=#82b366;" vertex="1" parent="1">
          <mxGeometry x="-160" y="150" width="880" height="340" as="geometry" />
        </mxCell>
        <mxCell id="Ec8AV_Ql3ZaaRcwQEaW2-4" style="edgeStyle=orthogonalEdgeStyle;rounded=0;orthogonalLoop=1;jettySize=auto;html=1;" edge="1" parent="1" source="Ec8AV_Ql3ZaaRcwQEaW2-2" target="Ec8AV_Ql3ZaaRcwQEaW2-3">
          <mxGeometry relative="1" as="geometry" />
        </mxCell>
        <mxCell id="Ec8AV_Ql3ZaaRcwQEaW2-2" value="" style="aspect=fixed;sketch=0;html=1;dashed=0;whitespace=wrap;verticalLabelPosition=bottom;verticalAlign=top;fillColor=#2875E2;strokeColor=#ffffff;points=[[0.005,0.63,0],[0.1,0.2,0],[0.9,0.2,0],[0.5,0,0],[0.995,0.63,0],[0.72,0.99,0],[0.5,1,0],[0.28,0.99,0]];shape=mxgraph.kubernetes.icon2;kubernetesLabel=1;prIcon=api" vertex="1" parent="1">
          <mxGeometry x="137.09" y="-40" width="70.83" height="68" as="geometry" />
        </mxCell>
        <mxCell id="Ec8AV_Ql3ZaaRcwQEaW2-7" style="edgeStyle=orthogonalEdgeStyle;rounded=0;orthogonalLoop=1;jettySize=auto;html=1;exitX=0;exitY=0.5;exitDx=0;exitDy=0;" edge="1" parent="1" source="Ec8AV_Ql3ZaaRcwQEaW2-3" target="Ec8AV_Ql3ZaaRcwQEaW2-6">
          <mxGeometry relative="1" as="geometry" />
        </mxCell>
        <mxCell id="Ec8AV_Ql3ZaaRcwQEaW2-12" style="edgeStyle=orthogonalEdgeStyle;rounded=0;orthogonalLoop=1;jettySize=auto;html=1;exitX=1;exitY=0.5;exitDx=0;exitDy=0;entryX=0;entryY=0.5;entryDx=0;entryDy=0;" edge="1" parent="1" source="Ec8AV_Ql3ZaaRcwQEaW2-3" target="Ec8AV_Ql3ZaaRcwQEaW2-9">
          <mxGeometry relative="1" as="geometry" />
        </mxCell>
        <mxCell id="Ec8AV_Ql3ZaaRcwQEaW2-3" value="" style="shape=image;html=1;verticalAlign=top;verticalLabelPosition=bottom;labelBackgroundColor=#ffffff;imageAspect=0;aspect=fixed;image=https://cdn0.iconfinder.com/data/icons/long-shadow-web-icons/512/python-128.png" vertex="1" parent="1">
          <mxGeometry x="50" y="190" width="60" height="60" as="geometry" />
        </mxCell>
        <mxCell id="Ec8AV_Ql3ZaaRcwQEaW2-5" value="extract_breweries_data.py" style="text;html=1;align=center;verticalAlign=middle;whiteSpace=wrap;rounded=0;" vertex="1" parent="1">
          <mxGeometry x="-110" y="190" width="155" height="20" as="geometry" />
        </mxCell>
        <mxCell id="Ec8AV_Ql3ZaaRcwQEaW2-11" style="edgeStyle=orthogonalEdgeStyle;rounded=0;orthogonalLoop=1;jettySize=auto;html=1;exitX=1;exitY=0.5;exitDx=0;exitDy=0;exitPerimeter=0;entryX=0;entryY=0.5;entryDx=0;entryDy=0;" edge="1" parent="1" source="Ec8AV_Ql3ZaaRcwQEaW2-6" target="Ec8AV_Ql3ZaaRcwQEaW2-9">
          <mxGeometry relative="1" as="geometry">
            <Array as="points">
              <mxPoint x="150" y="345" />
              <mxPoint x="150" y="220" />
            </Array>
          </mxGeometry>
        </mxCell>
        <mxCell id="Ec8AV_Ql3ZaaRcwQEaW2-6" value="" style="shape=cylinder3;whiteSpace=wrap;html=1;boundedLbl=1;backgroundOutline=1;size=15;" vertex="1" parent="1">
          <mxGeometry x="1" y="310" width="49" height="70" as="geometry" />
        </mxCell>
        <mxCell id="Ec8AV_Ql3ZaaRcwQEaW2-8" value="bronze_layer" style="text;html=1;align=center;verticalAlign=middle;whiteSpace=wrap;rounded=0;" vertex="1" parent="1">
          <mxGeometry x="-4.5" y="380" width="60" height="30" as="geometry" />
        </mxCell>
        <mxCell id="Ec8AV_Ql3ZaaRcwQEaW2-17" style="edgeStyle=orthogonalEdgeStyle;rounded=0;orthogonalLoop=1;jettySize=auto;html=1;exitX=1;exitY=0.5;exitDx=0;exitDy=0;entryX=0;entryY=0.5;entryDx=0;entryDy=0;" edge="1" parent="1" source="Ec8AV_Ql3ZaaRcwQEaW2-9" target="Ec8AV_Ql3ZaaRcwQEaW2-16">
          <mxGeometry relative="1" as="geometry" />
        </mxCell>
        <mxCell id="Ec8AV_Ql3ZaaRcwQEaW2-9" value="" style="shape=image;html=1;verticalAlign=top;verticalLabelPosition=bottom;labelBackgroundColor=#ffffff;imageAspect=0;aspect=fixed;image=https://cdn0.iconfinder.com/data/icons/long-shadow-web-icons/512/python-128.png" vertex="1" parent="1">
          <mxGeometry x="209.99999999999997" y="190" width="60" height="60" as="geometry" />
        </mxCell>
        <mxCell id="Ec8AV_Ql3ZaaRcwQEaW2-19" style="edgeStyle=orthogonalEdgeStyle;rounded=0;orthogonalLoop=1;jettySize=auto;html=1;exitX=1;exitY=0.5;exitDx=0;exitDy=0;exitPerimeter=0;entryX=0;entryY=0.5;entryDx=0;entryDy=0;" edge="1" parent="1" source="Ec8AV_Ql3ZaaRcwQEaW2-13" target="Ec8AV_Ql3ZaaRcwQEaW2-16">
          <mxGeometry relative="1" as="geometry">
            <Array as="points">
              <mxPoint x="330" y="345" />
              <mxPoint x="330" y="220" />
            </Array>
          </mxGeometry>
        </mxCell>
        <mxCell id="Ec8AV_Ql3ZaaRcwQEaW2-13" value="" style="shape=cylinder3;whiteSpace=wrap;html=1;boundedLbl=1;backgroundOutline=1;size=15;" vertex="1" parent="1">
          <mxGeometry x="215.5" y="310" width="49" height="70" as="geometry" />
        </mxCell>
        <mxCell id="Ec8AV_Ql3ZaaRcwQEaW2-14" value="silver_layer" style="text;html=1;align=center;verticalAlign=middle;whiteSpace=wrap;rounded=0;" vertex="1" parent="1">
          <mxGeometry x="210" y="380" width="60" height="30" as="geometry" />
        </mxCell>
        <mxCell id="Ec8AV_Ql3ZaaRcwQEaW2-16" value="" style="shape=image;html=1;verticalAlign=top;verticalLabelPosition=bottom;labelBackgroundColor=#ffffff;imageAspect=0;aspect=fixed;image=https://cdn0.iconfinder.com/data/icons/long-shadow-web-icons/512/python-128.png" vertex="1" parent="1">
          <mxGeometry x="350" y="190" width="60" height="60" as="geometry" />
        </mxCell>
        <mxCell id="Ec8AV_Ql3ZaaRcwQEaW2-21" value="" style="shape=cylinder3;whiteSpace=wrap;html=1;boundedLbl=1;backgroundOutline=1;size=15;" vertex="1" parent="1">
          <mxGeometry x="355.5" y="310" width="49" height="70" as="geometry" />
        </mxCell>
        <mxCell id="Ec8AV_Ql3ZaaRcwQEaW2-22" value="gold_layer" style="text;html=1;align=center;verticalAlign=middle;whiteSpace=wrap;rounded=0;" vertex="1" parent="1">
          <mxGeometry x="350" y="380" width="60" height="30" as="geometry" />
        </mxCell>
        <mxCell id="Ec8AV_Ql3ZaaRcwQEaW2-24" style="edgeStyle=orthogonalEdgeStyle;rounded=0;orthogonalLoop=1;jettySize=auto;html=1;exitX=0.5;exitY=1;exitDx=0;exitDy=0;entryX=0.5;entryY=0;entryDx=0;entryDy=0;entryPerimeter=0;" edge="1" parent="1" source="Ec8AV_Ql3ZaaRcwQEaW2-16" target="Ec8AV_Ql3ZaaRcwQEaW2-21">
          <mxGeometry relative="1" as="geometry" />
        </mxCell>
        <mxCell id="Ec8AV_Ql3ZaaRcwQEaW2-25" value="transform_breweries_data.py" style="text;html=1;align=center;verticalAlign=middle;whiteSpace=wrap;rounded=0;" vertex="1" parent="1">
          <mxGeometry x="162.5" y="250" width="155" height="20" as="geometry" />
        </mxCell>
        <mxCell id="Ec8AV_Ql3ZaaRcwQEaW2-26" value="&lt;div&gt;load_tb_brewery_by_location.py&lt;/div&gt;" style="text;html=1;align=center;verticalAlign=middle;whiteSpace=wrap;rounded=0;" vertex="1" parent="1">
          <mxGeometry x="470" y="205" width="60" height="30" as="geometry" />
        </mxCell>
        <mxCell id="Ec8AV_Ql3ZaaRcwQEaW2-27" value="brewery_pipeline" style="text;html=1;align=center;verticalAlign=middle;whiteSpace=wrap;rounded=0;" vertex="1" parent="1">
          <mxGeometry x="630" y="150" width="60" height="30" as="geometry" />
        </mxCell>
        <mxCell id="Ec8AV_Ql3ZaaRcwQEaW2-28" value="" style="shape=image;verticalLabelPosition=bottom;labelBackgroundColor=default;verticalAlign=top;aspect=fixed;imageAspect=0;image=data:image/png,iVBORw0KGgoAAAANSUhEUgAABxQAAAK8CAYAAADGYookAAAACXBIWXMAACxLAAAsSwGlPZapAAAAAXNSR0IArs4c6QAAAARnQU1BAACxjwv8YQUAAOZCSURBVHgB7P17mFx3fef7fn5V3WpZbUstfJFvoBIDsYUvapHElmCwSpAhmXmMVDIj58KzrRbnbM88JwySmZPkkJ2gVuY5mZnwPLG8j/c5CX9ELc8wmT1O3CWHwJ4bKmfnBAMJajk4MSSDyoBtMAaVJCR1d11++/errrJbstSXVVXrVu/X85RWd6u6u3rVWqtW/T7r+/1JAAAAAAAAAAAAAAAAAAAAAAAAAAAAAAAAAAAAAAAAAAAAAAAAAAAAAAAAAAAAAAAAAAAAABAhs5w7f/enc6PKatR/bKXyQvcdWOD/b3q2XBYAAAAAAAAAAACA2FtSoPjy1rfva8iOuw9H1EOXCymNUcX9R+Wir8l9bsxFX2s0Gi/O/zxrdKphdfpKP9vUVclm537u9EpVNpTKFQEAACBejh8f0bnBgozNNT/PmJNS9Rlt3VwWAAAAAAAAQrFooPjSe95+wNpmmNg35oeP5uKPXw8ym2GlbVTm36fhwk/TCj/nB5ZUZAIAAATw7F/vU0Pj7vzrMhe1mXFtveOgAAAAAAAA0HMLBor9GCb2WMVKF4WQ7ZDy0oByfjjZbh9LMAkAAPrGl54/LNmxRe41pa13bhYAAAAAAAB66oqB4sl8bmRgxhx3d8gJihP7Rhg5tzSm3A4k261eX79PXZXqsMq0dAUAAImxtDBxTsMe1HvvGhcAAAAAAAB65oqB4re35goZmUkhTZoVkpcLIudXRfqKSOaVBAAAkfjy8wdcSDi+jO+oaGV1gzZv5rwFAAAAAACgRwau9B8uWBpdfIZFJMyIe0r9HEQ5/4m1du4pNnNPdKb5sVR3i8EZ6btbNzSrIS8KIBuNF+dXQVIBCQAAumb5YaI3onPZgltOCAAAAAAAAD0xIGABrZa3/jYXQLrwsdH6j2YMObBw+Og/J3gEAACLChYmzjEmJwAAAAAAAPTMQhWKFSoUsRyXCx9bX79s8OhulYbMi1k1TtakF9vtVm96tlwWAADoH52EiQAAAAAAAOi5KwaK1as04QKgRwV0WTt4tM2PrVyoeFG71TeFjtae8G1W61YnfKXjrV8tTwkAAKQDYSIAAAAAAEDsLViD+J2tuUNGZp+A+PGtU6cIHAEASLBuhYkNe1DvvWtcAAAAAAAA6IkF51CsDWl8cFbbZDUqIF5G3C3frHI0ptBoLtXcon2Fo4vKp9x2W7EyJ9otVTM1lQkbAQCICSoTAQAAAAAAEmPRWRJP5nMjg7PmGKEi0qLdTrUdNlLZCABAyLodJtYbe/UP754QAAAAAAAAemLRQNEjVETfMJoyVuWGzItWjZL7uFJbqakNpXJFAACgc72oTCRQBAAAAAAA6KklBYoeoSL6XHPOxvlVjQSNAAAsU6/anBIoAgAAAAAA9NSSA8W2b2/JTWSM2SMA3utBY7ui8a3PlksCAAAX+/LX96ihCfUCgSIAAAAAAEBPLTtQ9AgVgUW0W6dae8J9VqKaEQDQ13oZJnoEigAAAAAAAD0VKFD0CBWBZbuomjFTU/nWr5anBABAmvU6TPQIFAEAAAAAAHoqcKDoESoCHSNkBACkVxhhokegCAAAAAAA0FMdBYoeoSLQdXMho7XPWKOp+pBKtEsFACROWGGiZ0xBW+44KgAAAAAAAPREx4Gi950tuXFjzAEB6AkrlTMuZDSypbrVibc+Wy4JAIC4+vPjo8oOHldYana73ndXSQAAAAAAAOiJrgSKHqEiELpSu1UqVYwAgNjwYWJm4JiMGVFYCBQBAAAAAAB6qmuBokeoCETI+ApGM5UxjZLqeuamZ8tlAQAQpijCRI9AEQAAAAAAoKe6Gih6hIpAPLTbpGYytlif1Ylbv1qeEgAAvRJVmOgRKAIAAAAAAPRU1wNFj1ARiJ9mwGhMiQpGAEDXRRkmegSKAAAAAAAAPdWTQNEjVATirR0w1m3jKHMwAgAC+9LxnOzA8cjCRI9AEQAAAAAAoKd6Fih6hIpAghhNWWuekW0U3/psuSQAABbjw0QNHnMf5RSlrDbrnjtp7Q0AAAAAANAjPQ0UPUJFIJEq7uBQ8vMv0h4VAHBZcQkTm6obtHVzWQAAAAAAAOiJngeKHqEikHBULwIA5otVmOgRKAIAAAAAAPRSKIGiR6gIpEbF7cvFjGmUpgd1lLkXAaDPxC5M9AgUAQAAAAAAeim0QNH77tbcfvcrHxWANCllM3aC1qgA0AdiGSZ6BIoAAAAAAAC9FGqg6H17S24sY8xhAUgfo6mMtRPG6ijhIgCkTGzDRI9AEQAAAAAAoJdCDxQ9QkWgDxAuAkB6xDpMdLbeGck5LQAAAAAAQL+IbPCFUBHoI4SLAJBccQ8TPQJFAAAAAACAnop08IVQEehDLlzMGnuIORcBIAGSECZ6BIoAAAAAAAA9Ffngy3d/OjeqAeMHqkYEoN+Ushk7MT2ooxtK5YoAAPFx/PiIpgePK+5hokegCAAAAAAA0FOxGHwhVARgjJloNBpH3vpsuSQAQLTmwkR/bjaqJCBQBAAAAAAA6KnYDL4QKgLwrFTOGFPKNBoHaYkKABFIWpgoVVyguFYAAAAAAADomVhdzU2oCOASzZaoN/3/y0cEAOi95IWJXtkFihsEAAAAAACAnoldeyhCRQCXomoRAEKQzDDRI1AEAAAAAADosYxi5tavlqey1m72AYIAQM0rH3LW2rG6MSe/u3XDsVfem9sjAEB3JTNMBAAAAAAAQAhiV6HY9sqWXK5mzDEfJAgALkHVIgB00ZeeP+yOrGNKJioUAQAAAAAAeix2FYptPiAYsHY7lYoALmd+1eJL73n74e9syeUFAFi+ZIeJXlkAAAAAAADoqdgGih6hIoCl8MGiMebYd7ZuOEk7VABYhuSHiQAAAAAAAAhBbFuezkf7UwDL4S9CGMjYcdX1DO1QAeAK0hMmlrT1zu0CAAAAAABAz8S6QrGNSkUAy+EvPqg3zIS/EMG3Q/UXJQgA8IZnv/4olYkAAAAAAABYqkQEih6hIoDlunSeRYJFAHC+/PwBWe0XAAAAAAAAsESJCRQ9QkUAQREsAoDmwsSGHVe6lAUAAAAAAICeSlSg6BEqAugEwSKAvpXOMBEAAAAAAAAhSFyg6BEqAugUwSKAvkKYCAAAAAAAgA4kMlD02qGijKYEAAERLAJIvbSHiVanBQAAAAAAgJ5KbKDo+VCxuoJQEUDnCBYBpFI/VCZaWxEAAAAAAAB6KtGBorehVK4QKgLolnnB4gGCRQCJRptTAAAAAAAAdEniA0WPUBFAt7lgcbxmzLFX3pvbIwBIGsJEAAAAAAAAdFEqAkWPUBFAtxkpV2+Yie9s3XCSYBFAYvRbmGgMLU8BAAAAAAB6LDWBoudDxVv/4uTmhrVHBABd0g4WmV8RQOz1Y2Vio0GgCAAAAAAA0GOpChTb3vZseYxQEUC3zZ9f8WQ+NyIAiJMvf30PbU4BAAAAAADQC6kMFD1CRQC94udXHJgxx2mDCiA2mmGiJgQAAAAAAAD0QGoDRY9QEUCv0AYVQGz0e5hoTVkAAAAAAADoqVQHih6hIoBearVBPe7boAoAwkZlIgAAAAAAAEKQ+kDR86GiG/Q/KADojRHfBvU7WzecpFoRQGgIEwEAAAAAABCSvggUvbc+Wx4nVATQS802qMacpFoRQM/9+fFRwkQAAAAAAACExajPfGdLbtwYw2A/gJ6yUnnA2u03PVsuCwC6yYeJmYFjMmZEcKobtHVzWQAAAAAAAOiZvqlQbKNSEUAYqFYE0BOEiQAAAAAAAIhA31UotlGpCCAsVCsC6ArCxCugQhEAAAAAAKDX+q5CsY1KRQBhaVUrHn/lvbk9AoAgCBOvjDARAAAAAACg5/q2QrGNSkUAYXLHm4nZFY1HNpTKFQHAUnzpeE4aPOY+yglvtvXOvj+fBQAAAAAA6LW+rVBso1IRQJjc8WZsYMYcf2VLLicAWAxhIgAAAAAAAGKg7wNFj1ARQJhaLVBPfndrbr8A4EoIE5eCam8AAAAAAIAQECi2ECoCCJ959Ltb3/6oAOBShIlLRaAIAAAAAAAQAuacucS3t+TGMsYcFgCExErlAWu33/RsuSwAIExcjrK23rlBAAAAAAAA6CkqFC/xtmfLEw1r9woAQuJboNaMOfbdn86NCkB/I0xcrrIAAAAAAADQcwSKl0GoCCBsPlTUgDn+0nvefkAA+hNhIgAAAAAAAGKKQPEKCBUBRMFaO06oCPQhwkQAAAAAAADEGIHiAggVAUShGSpu3TB5Mp8bEYD0I0wMztrTAgAAAAAAQM8RKC7Ch4qq2c3uw4oAICRWKgzMmOOvbMnlBCC9CBM7Y8wpAQAAAAAAoOcIFJfg1q+Wp1youF2EigBC5OdVrBlzjFARSKnjx0cIEwEAAAAAAJAEBIpLRKgIIArtUPG7P50bFYD08GHiNGFixxr2RQEAAAAAAKDnCBSXgVARQBR8qKgBQkUgNd4IE9mnAQAAAAAAkAgEistEqAggIiMuVDz+ynv/wR4BSC7CRAAAAAAAACQQgWIAPlTMWrvZSmUBQIjqjcYEoSKQUISJ3WdtWQAAAAAAAOg5AsWAbnq2XB6wdjuhIoCwESoCCUWYCAAAAAAAgIQiUOwAoSKAqBAqAgnzpecPizCx+6wpCwAAAAAAAD1HoNghQkUAUfGh4g//yd0HBCDemmGiHRMAAAAAAACQUASKXUCoCCAqM2fPj58bez+hIhBXhIkAAAAAAABIAQLFLiFUBBCFRq2u0//j2+MzD/8TQkUgbggTe2+gVhYAAAAAAAB6jkCxiwgVAUTBh4o/+ua3CBWBOHn2648SJgIAAAAAACAtCBS7jFARQBTqMzPNULH68QKhIhC1Lz9/QFb7hd5bqYoAAAAAAADQcwSKPUCoCCAKPlQ8861vj9tffZBQEYiKDxMbdlwIx+bNBIoAAAAAAAAhIFDsEUJFAFG48MNTOvviy4SKQBQIEwEAAAAAAJBSBIo95EPF2pDdLKMpAUBIznz7JZ3//muEikCYCBOjUBYAAAAAAABCQaDYYxtK5Up1hd1OqAggTKe/9W3VL8wSKgJhIEwEAAAAAABAyhEohoBQEUDYGrW6fvDXL8hW64SKQC8RJkapLAAAAAAAAISCQDEkhIoAwlafmdGZb78sWeNCxZ9/VAC6izARAAAAAAAAfYJAMUSEigDC9uOXv6fzr/7AhYrab3/l5w8LQHcQJkbP2tMCAAAAAABAKAgUQ+ZDxVv/4uTmhrVHBAAhaM6nOD3jPxwjVAS6gDAxHow5JQAAAAAAAISCQDEib3u2PEaoCCAMfj7FU393sv0poSLQCcLE+LCiQhEAAAAAACAkBIoRIlQEEJaZ02d07uXvtT8lVASC+PLX9xAmxoi1FQEAAAAAACAUBIoRI1QEEJYz336p3frUc6Hig8ft/sKIACyuGSZqQogPYwgUAQAAAAAAQkKgGAM+VLSyjwkAeuiS1qeOGdXgimOEisAiCBPjqdEgUAQAAAAAAAgJgWJMvPVL5f3W2oMCgB7yrU9nTp+d9xVCRWBBhInxNZA9JQAAAAAAAISCQDFG3vpseZxQEUCvnfrmt2RrtXlfIVQELoswMd6qjdMCAAAAAABAKAgUY4ZQEUCv1WdmdPbl71/yVUJF4CJ/fnxUdXtIAAAAAAAAAAgU44hQEUCvnXv5e6pPz1zyVR8qDh23v/YLOQH9zIeJmYFjMoaAPc4GamUBAAAAAAAgFASKMUWoCKCXGrW6znznpcv9V04Ne4xQEX2LMDE5VqoiAAAAAAAAhIJAMcYIFQH00vnvv6aZ02cv91+EiuhPhInJsnkzgSIAAAAAAEBICBRjjlARQC+d/fZLV/ovQkX0F8LEpCFMBAAAAAAACBGBYgIQKgLolZnTZ65UpegRKqI/fOl4TtnBScLERCFQBAAAAAAACBGBYkIQKgLolQWqFD1CRaSbDxM1eEx+W0dyWAJFAAAAAACAMBEoJgihIoBeWKRK0SNURDoRJiaXIVAEAAAAAAAIE4FiwvhQsWHtXgFAFy1SpegRKiJdCBOTzdrTAgAAAAAAQGgIFBPobc+WJwgVAXTTEqoUPUJFpANhYvIZc0oAAAAAAAAIDYFiQhEqAui286/+YCl3I1REshEmpkPDvigAAAAAAACEhkAxwQgVAXTT+e+/JlurLeWuPlQ8bn9l96iAJCFMBAAAAAAAAAIhUEw4QkUA3XT25e8v9a4j7iXkGKEiEoMwMV2sLQsAAAAAAAChIVBMAR8qqmY3uw8rAoAOnHv5e8u5O6EikoEwMX0GssyhCAAAAAAAECICxZS49avlKRcqbhehIoAONGp1zZw+u5xvIVREvBEmplO1cVoAAAAAAAAIDYFiihAqAuiGs99+SctEqIh4On58hDAxpYYM5zoAAAAAAAAhIlBMGUJFAJ2aOX1GtlbTMvlQ8bj91Qf3CIgDHyZOEyamVr3KeQ4AAAAAAECICBRTqB0qWqksAAjg7MvfVyDWTBAqInJvhIlUzabV1s1lAQAAAAAAIDQEiinlQ8UBS6gIIJjz339NgREqIkqEiQAAAAAAAEDXESim2E3PlsuEigCCqM/MaOb0WQVGqIgoECb2i7IAAAAAAAAQKgLFlCNUBBCUn0uxI4SKCNv04KQIE/tBWQAAAAAAAAgVgWIfIFQEEERHbU/b5kLFAwJ67UvPH3b/5gUAAAAAAACg6wgU+wShIoDl6rjtaZs144SK6KlmmGjHhH5RFgAAAAAAAEJFoNhHCBUBLFfHbU/bCBXRK4SJ/cfqtAAAAAAAABAqAsU+Q6gIYDlmu1Gh2EaoiG4jTOxP1lYEAAAAAACAUBEo9iFCRQBL5SsUba2mriFURLc8+/VHCRP7lLVlAQAAAAAAIFQEin2KUBHAUp179TV1FaEiOvXl5w/Iar/QnwaypwQAAAAAAIBQESj2MUJFAEtRPXdeXUeoiKB8mNiw40L/qjaYQxEAAAAAACBkBIp9zoeKtSG7WUZTAoDLmP5hj4qBCBWxXISJ8AZqZQEAAAAAACBURoBzMp8bGZw1x2Q1KgC4xA2b79Dg8LB6wthx8zv/6aCAhRAmom1lda02b64IAIAuGx8f19TU1IjU2JORWfC9cUP2RSkzUSwWywIAAAD6AIEiXkeoCOBK1rz9bbr65hvVM4SKWAhhIubbeifnr32uUCjkpHp+afe2LnweKLsBf7pxAFhQK0zcYGS/6D7NLfHbTlqZ9xMqAgAAoB8wIIOLECoCuJyrrl2rt2x8p3pswnz6f98rYD7CRFys7ALFDUJfckHiqBvof9R9mNfyld2g/3YG/QFcye7du02tOuvDxLyW5+Rk8ejbBQAAAKQccyjiIhtK5Up1hd3OnIoA5ps5fUYhGLO/8vOHBbQRJuLNykJf8lWJLkw8pmBhoue///hcdSMAXMxXJ1ar1REFO8bkCoX78wIAAABSjkARb+JDxVv/4uTmhrVHBABOo1ZXbXpGISBUxBzCRADzuDDQvzaMqDMjrZ8DAJfTwTHG5AQAAACkHIEiruhtz5bHCBUBtM2cPquQECr2O8JEXFlZ6DutqsK8uiNPlSIAAAAAAMtHoIgFESoCaKudO6cQESr2K8JELKRhXxT6jlFjXF3VGBMAAAAAAFgWAkUsilARgFc9d0Ehc6Hig8ft/kKnLe6QFF/++h7CRCzImIrQh8w2dZGR2ScAAAAAALAsBIpYEh8qWtnHBKBvVcOtUGwxoxpccYxQsQ80w0RNCFhIxpwU+kqhcH/BLXLqrhH3c/MCAAAAAABLRqCIJXvrl8r7rbUHBaAvNWp11aZnFD5CxdQjTMRSVRunhb6SUXaPesAoe0AAAAAAAGDJCBSxLG99tjxOqAj0r9q584oGoWJqESZiOYZoedpPCoVCzrqFemPU/XxeUwAAAAAAWCICRSwboSLQv2YjCxS9Vqj4a7+QE9LhL54rECZiWQarZaGP1PPqHRcm1scEAAAAAACWhEARgRAqAv2pPhNFy9P5XKjYsISKafDnx0fd83lYwHJs3kyFYh8xyvS0Lan7+TsFAAAAAACWhEARgREqAv2n+uMLioEcoWLC+TAxM3BMxtBuEMtRFvpGoVDIyx/veytfKNyfFwAAAAAAWBSBIjpCqAj0l/rMtGKCUDGpCBMRXFnoG0aNMYUi06s5GgEAAAAASBUCRXSMUBHoH41aXbXpqNuevo5QMWkIE9EJa08LfaFQKLhjhAmlHamR2TP3+wAAAAAAwEIIFNEVhIpA/7D1mmKEUDEpCBPRMVMW+kTdVw2GdawYMaa+TQAAAAAAYEEEiugaQkWgP8zGYx7F+QgV4+5Lx3PKDk4SJqIj1laEvmCU2aMw2cx+AQAAAACABREooqsIFYH0q8/EpuXpfISKceXDRA0ek3+OgE5YWxZSr1Ao5Nwir2DKCiZP21MAAAAAABZGoIiu86Fiw9q9ApBKMQ0UPULFuCFMRDdZWp72A6PGuAKyMrsUWIMqRQAAAAAAFkCgiJ5427PlCUJFIJ1sra4YI1SMC8JEdNuQoeVpXzCB5jO0UqlYLE65D0sKwMjsEwAAAAAAuCICRfQMoSKQTrXpWcUcoWLUCBPRC4PVspBqhcL9BQU+bpgJ/69V44iCGXG/Py8AAAAAAHBZBIroKUJFIH0atZoSwIeKx+2v7B4VwkWYiN6oaPNmKhRTzihTUDDlYrHYChKzRfntJZDAvx8AAAAAgNQbENBjPlT89pacMsY86j4dEYBEi/Ecipdyx5vMMRcqbjeffnJK6D3CRPSKVVlItUKhkHNP9B4FYOa1OXXBYqVQ2HEkSAtT9z173OMY9z9DfWx8fFxTU1P+nL11q807fx/w66bi1lFZfaa1XnJzn9VyF//v3HrR3Lrp2+3n4nV0+W1Hfb6OrmSR7asstq3F1o/68bgEAAAQNiMgJN/96dyoBowfaCZUBBLu5i3vlhlIzDUpbvClQajYa4SJ6K2Stt65XUitQuFDY0aZwwrAymxuzZ/Y+lmFvJE9pgCsGo8Ui39ySH1kLsxt7MzIjFrJV/a7z5d0vu7XuXuNtSesbEnKltIQeLwRXNTzGWW2tdaJXx+5ZfyYS9fNVJrCjjdC53rBBfGj7rZ+3razFH47KbvBiHLDrSO3/ZVcKDQV5fbT+ps2uGPHt7R81h07PuqOHROL3XFeYO/WW6OwzHXn18/U3Hal41LmmbSFaB2uHy+VxyUAAIC4IFBEqAgVgXRY91ObNLBySAlCqNhLhInovQkXKNJCPcV2FXaeVLBjSHmyeHTDZX6ePybltXwl9/NiFV63AtIDWnj9VNx9Sg1lDi5l8Nz9zNGMCxFdGDum7h67S24Qf8IFHUeTNIg/NjamSqWS9wGGe4vsK2V78V7FB0HPuODJrZrPlZQw7XXktpttPdhu2vz2U2xtP2WFqNeB4hvbWHNfbofU3XDcrbPHkhwuvhEiNva4ANHtg11dP177uJS6ABYAACBsBIoIHaEikHzX3bVRQ2uuUcIQKvYCYSLC0LAH9d67xoVU8uGWG2Q/rgB8sPHG/IkX/czx1sB9kJ95UcVjlAqF+wtG2cllfMuUe/zbrxTmzQsn8+otX33mAk5zMM4D+Lt371a1Ou2rY32ImFd4TsrYg5OTTx9RzEW4jlwIVH/Mha9FhaBXgeK89bfYRQEdc/vcRNz3ufna1cAuyN/fwyD/InPrqH4kiaE+BAAAYiAjIGS3frU8pZr1V37TegRAmPycisftrz4YaI4uXMbx4yOEiQiFtWUhteYGkwN75gpfP6TAfJVaPLgw8dFlfsuoLrM+fVtTX7XZagWbV+/lrDTmf98DhR2Bgt1e8tVibp1sr1VnT7Za7eYVrg2yZsI9J9/atWtHLM9LfBDmWxFHuI7yPkz368gF63klzGW2sZx6rLXPfSuO+9x8Pkh062bkuamvPeoe70nNzXkbysXGc+soe8xtV1+ca/cMAACA5SBQRCTaoaI7oS8LQOLUpmeUWG4Aj1CxC3yYOE2YiJBYUxZSzGxTAL7S5EqVOK0KvZIC/dzm4HbkWoPdOS3f6PxPPlwo7GtVgOYVPhcsmvG5UCj6wftWkLHhdOWUD1e/qOhfw5rB4gOFnYfjEm6015ELwo6FFYQtYoMPgOK0jhbSDsvOVH70aETbmInTPnepj3zkI/rrqSl/TDrpHmcnF5N0ansSwlcAAIC4IVBEZHyoOGAJFQFEgFCxM2+EiaMCwjBk6GqQUr4CSgEH3K3JLNgK0Q1WH1QwI0msiHqDWdP+yA2WP9qQ9dWaUU814FtJfjHK9TovyPiaoglXr6hVWRZ5xVQS1lFcKzq9eW1Tj0cclnn+cXzNt01WDLSC1rUXzv34cEyOSV6sw1cAAIA4IlBEpG56tlwmVASSx9ZrSjxCxWAIExGFwWpZSKXWvGxBlCcnJ48udIdisVhSwBb7RtlEV634Cinf4jQGocZ8vtLsix/etSvU196YBhmX0wqACpG8vv7iL/6iScI6mqvo3PG7iiEXJm5uhbE5xcNat889FXUV3ryg9Ws+GFb8xCp8BQAAiDMCRUSOUBFInkatrlSYCxXjNNgab4SJiEZFmzdToZhCrYqQvAIwS2xn6gK1xxRM3odySiC3bkZCnCtxuUzDNg6HFSq2goy1vrItpkHGpdaGXanYDlynL5xPyjry+/UjLjD/WoyqykxGZlOrxWncjhu+Cu9A2EF+27wwMQ4thhfSDF+jWk8AAABJQaCIWCBUBBAZax51oSLzpyzFhQE/lxJhIsJlOTdIr0bgCzoaS29nWlJgjaRecDKqeB+rfaj4aBiVeC+88DXTCjKS9NrVDhVDCabmraO8kmVzmOtpMa1q4LhehNAM8sNuOZygMLEt1AseAAAAkohAEbFBqAggMtaMEyou4kvPH5YxtIJCBOyLQioZmZ0KwJ0rlorFYnkp9221PS0pAPf4tgm94kOzp3oZBu3evdvMTsu3xkzihTA+hHlKPebbnM5Omz9Qci8W2hCnUDHmjK/AC6uqM4FhYltoFzwAAAAkEYEiYoVQEUiG+syMUodQ8cp8mCg7JiASpiykjhuszSvwILOZWM69rcxRBZMPu6Knz2zIyPZkLjwXJqpanR6L2RySy+W2vw/17PGPFQqauXDhQFLanC5gc0aNTwlL4YP8P1AInnvuOZPAMLGtfcFDTgAAALgIgSJih1ARQGQIFd+MMBHRKwupY9QYU3DLDQgn5OfiDCRDZXYP2Wau1d3Q1ldGVavVDUaZboZMFSMVrexBq8ZeF1Tucrftb9z81+xBfx9175hl/N/Qi+o7H7i6HWKze8ypOOfxwbHbjthXl6anQbXnq4PVqPmLBXLqEl+Z7rbXxy6z//mP9/v/U0ctrt9kQ1jhKwAAQJIYATH1ypZcrmbMMZPMqxqBVFu17jqtfefblVrGjpvf+U9LnZ8rvQgTEQe+1e6WO4JWmCGGfNWHG6g9qQDceeHEU8Wje7VMDxR2TroB6SCBQ8UNVm8oFosBA8ngOllPy+Uv5Mu4wfhGs8WwLc99NeuXLsyqu5vJZWQ22bnWmDl110m3jt/drXXsK+/OuFyxG2GZbQYU5mCrde6StFo95vxDcc+fn4stpw74oLJYfHpcXfTAAw8Y26h/S919Lt2+Yo+4Rzzltp0pzYX4ldHR0YpbHz4UHWn9vk1SY3OrpXBO3XPKbUdvD7odzWvR+S2F4I19zrh1VT/t1llzfSmcfe5Ua58rq8vGxsZUqVS2t6oTO9La/3xIf2Qpz+u8fS9v5vb/nDpjXYD5iWLxTw4JAAAATQMCYspXKrpQcTuhIoDQzVUqqq9DxWe//qgbRhkTELVq47SQMvV80EYpDdWPKAA3aP+YG2AOEij6wX3/fRNKHx+W+qqeiaUGC3OtRKsu4Gjs72IgtMH/PLccV4fmhUL71Bkfcn50OUHi/MeguSrFcRcK+0/GTQfhplvPH3c/51BXA9dGoxthS9Nioav7ul+0w7KyWlVkreCpHfzk1bm1rdann1B8ld125Y9hS34+e7TPuXVl/br6qLrszJkzpguVfadkMo8UJyeXdbyft+9NfOQjH5k4d+7c/tb2FbTKt10lXOxF+AoAAJBEtDxFrNH+FEBk+rn96ZefP+BGCJM87xTS5OralJAqboA2aNhTLhY/V1IArbAjUCDjHu8epYsPEg+2Ki/HlzNQ/uSTT/p1OTU6+u6xuXaDNlDAe6lWaNZxa8/nn39ec4F14ADBVwQealVvldQhH6bdcMMN4+7nPaDAbXebofaYusQ9iA2288DV86Hr9mLx6PYg62piYqK5Xw4MrvBtK33VcVkdmmt9Gst573xANjZZPNre55a8Lbx5nzNdudhtrt1wd9eVD6vVeVh93O9/k8sMEy/12c9+VqOjo819WZ1tW2tpfQoAAPAGAkXEng8Va0N2sxtpYEARQLj6MVT0YWLDjguIh4o2bw691SR6xw1g+/Z9owqg0/CqVY0XRL4X89hFxFdIbV5uqHEpXwnkg8iRkbf4kOP96jwMWtuqUuyUryh6SAG12os+0s0Wt5/5zGc0ODg46dZT0Mo5/zftUJcYNTqp2GrqZujqAzMX/Ey0tqNO3+8Ztx11IyztGhfcHfOtWDsNyNr7nNuWxrsQknl+XY2pS/zja4XVgS/AcN/b3A66VQ3oH5Pbtk52YdvKd3uuVwAAgKQiUEQibCiVK9UVdjuhIoDQ9VOoSJiIuLF0KEgb01FolJlQZzqYB6srYVfU2mFiWV3iq8zcgP2xboSKvkpR3RE0sO76XIVtPjS76qqrJjoIxfOdVpP5cGUuGG+2zQysF6FrF4Mfvx3ticsFAD54LRaPvr+b66oVwB7v1j7XrXVVnpryg0udzBl63B3ju7pdefO2LV8lXFYwLtTPfkoAAAAgUERyECoCiEw/hIqEiYgjo64OLCIOgoUZfp62ToOw1kB1SQG4gfdYVT0FUJ5rT1ns+j7lB+wHBwdPdtjW0xvppArIP45qterDkWUHJEY63Kswse22226zPjBRYPUgc4C+rtUO1v+MnAKaC8h6s55awc+pLgRlI52uq25orasOnu8r6+Y+J9UCBfCXOpPJmA6qE5t/Sy+OT94lgXXQ35GmSnUAAIDACBSRKISKACLjQ8Vf+fnDSiPCRMSV1QkhNQqFD40pcJhhJtQFbkD5qIIZSXLLu1aYWFaP+Kqp4eFhXzX1WwquoyqgVsjiw4LlBganGp097iWZ9/hKWj6TUeZudcZ0OB/oSTd80JX5+67Er6ORkREfKn5Uwfl1dZ+idbJXYWJbt/a5jLKBWwS37d69W41GdUzBju/uT8gc7OXxyfPblltfJztYXyYlleoAAAAdIVBE4rRDRXdGXxSASGSHhtSnxlIXKhImIt7KQmp0EGaU3WBzR/OPzTOhgBUqbuA9kVWKcy0qeztY7332s5/1gZlvK1tScKOdVAHVajU/6l9azveYZvFq79ePt2LFCusCjacVgJXyCqhVvZlT8J/hHnf9E72qIJvPt9F121FJHWxHbl1FWaFoW5VwPdeNfa5L6yrw3KW++rzT+SWXqtP11cW2zAAAAIlFoIhE8qHiLV86uathbShvPgBgnvSEioSJiLu6pSNBSrTmf8srANNZQHURH4gEncfOJrPlXbkLc08u2fDwsO2wYqqjFoybNm2yDZlPaOkXIxxv3T8Us7OzflFSMDkF1Gp3mldAcy2HPxfmxZx+O+rkeRnpdM7JoNzx5bfCCqi9buxzbl0F3uc6DKvdplXveXXwfB2ur0RXqgMAAHQDgSIS7W3PlscIFQFEIPmhImEikmDIMIdieowpoIbqXT7XywQNRvzcbGNKEDdwPh5muNGF6jKXH2d2KiAfbri/9+T1N6zb4P72Xb4688q3xl5fSRZG1V3bHXfc4RdlBRQ0JKvVar4N6A4FY43JhPp+y7fzdNuRv6CkpOCiCP9tmAG+142Kzk7C5g7D6ikXVJcUog7XV0fHJwAAgDQYEJBwPlT89pacMsZ0MicIACyXDxWl6swj5lAxWaEHYSKS4p47qVBMCSPbQbvT7g44uwCptKuw029by67KMXODyYeUDGV3CzpnZGC+rWe1Wn3aPed5BWBktqlDn/nMZ/yiqJhNkeADz18oFCozCixQSGaM8SV/QavQymG1pJzPV5JVKtXfCroduRg19EDRpU0TkyEG+G0d7nMdzc/ZDqutls3PnfiYItDJ+urG8QkAACDJqFBEKlCpCISrj+dQvNSYBlccs/sT1ALv2b/eR5iIhKA6MSUKhUJeAds1+go79YD7uUGDtnxSWt6ZZpvK8C94eec73+kXEwpuNIGtZUOy/JDMh5iNRiOngPtgN1sOL8e8SrKkvBZYazKhB/hea58LHJ5bBQ6bNTAwEHh+T2vtM4pAh8cojk8AAKCvESgiNXyoaGUjucoRQD8zo4kJFb/89T2yJimVNQDViSlh1BhTcL0acO7gWJgpKAG63yp2aXyA5YIgHwKVFFxO6IpyuewXOQUTWUj2+u8PNpdi6K00vagCMr/PZTKZsg3eTjfQOezu3bv9/ImjAb+/XIygmtPr/BgVfJ5XAACApCNQRKq89Uvl/e6N3EEB6KmBlVQoXiwBoaIPExsdVYwAYSsLiTc351uwtvRW9mivBpxblXslBWCUiDb7lSgClTbfUtAFQU8rsDoD9l3iAh+/CLw+3XurFxURP5eic9htS0t+f2ekST83psI3FUVFcJt7nvzgTtALcXIKYO3aC+7fek4BuOP7CUUs+GMwHJ8AAEDfIlBE6rz12fI4oSKA8MU4VCRMRBI1ohvERjfV8wrImOxh9dByQopLjMS97akbKI+kUqptcHDQL4KGGy4TMpuUEr4ayrdIdLfRQuFDY9NqHFCIZmdn3fpsrFcwLpguRlot7n6/RkdHx93+utbdti9w2+zv81Tx6ANRBHtun4v0Ncu3Hm108BjmLv5YnlOnrvL7atA5BaMOFK2CBYodzTkJAACQdAMCUsiHit/ZknMDUSbUN+xAv8gMcD3K5bVCxV/7hV3m3/7HsuKAMBFJlc0cFxLPKLNPwZQnJyd73WrRByU+eFj2hSBGWX+OWVJ8RRoC5XI5TTkKKCOzRgniQ0P35/rtKDdXXWly7m9Y7+emOzF1PGde38bCP3+q1WpqPZZlszFpPe3Xr+b21ZLiKyYBmVGYTLDw3z/WsiLkqytffdUECp47mXMSAAAg6QgUkVqEikDvmCwvH1fmQsWG9aHi9shDxb94rkCYiMSqNk4LiTZX8WIDDbyaEIIDX8VUKOw44gbEg4SeeV91FmWLw4UYk400kPcB0AMPPFBpNOplE6CdYiOGcyi2QsOcmuFgfdRtN/625kqhYZAArxd85VqtOhuwe4LlOLw0PiCL5bFg6Wo5LbPVeDY747YtE2jbMmbglCJ0880/5QJFf9FDoD01/vOmAwAA9Agjwkg1QkWgN7IDWWFBuchDxT8/7isketouEOipq2uxqIxBcEaN8aDVMo3g7UiXKVN0A8oBqygb+90/44qhKOe9a1uxoqaZ6WAVQCbCQHFetaF7HW1syrjgMO6h4ULq9bp/nLmAdWtlYakiDRSHh4dVqVTLYW6V9bqfU302pwCsrSY5rM4JAACgTxEoIvUIFYHuMwO8fCxBdKGiDxMzA8fcgY8rqJFUFW3enPBqD3Qwt9ZUsVgsKwTu95R2FXaW3Id5LZOR2amYBoqKONzwjBl20ca5E76STzE3NjbmwphK3oXgBRccbjOvtzQ0iQgNe4gKRVxRtlpVLVi1njHKHnPHXkXF7ecdNYf1FfhhvU4BAADECZNgoS/4UNFaG9KV7kC6ZYeGhCVrh4o5hYUwEelAdWLCFQofGlPAKg4rc0ghcr8v6FyNo4XC/XnFUBwGuv3cfQoebObUYz5EdKFAfldhx6HTlVOnXHR4THPtb5kfDViEr+SdplIPAACg7xAoom8QKgLdkaE6cbnCCxUJE5EeZSHRMsp0UnryjMI1ocDBV6YgXFa1WvXFfbGqNPYhiJ/78oHCjgOXhIipfd1c0WgEbSHr5wUsC8BlNOecBAAA6DsEiugrhIpA5wzzJwbR+1CRMBFp0oh+/jcE51vBuSQiUNDmgo+JsKvr3O/zoVegqlgjs8cHVMKb+Dnd3NvNwC0zu7le20Hic1NfO+BCxJNWZlwpDhGBXnv++ef9gn0IAACgzxAoou8QKgKdGVi5Qgikd6Hil47nlB2cJExEamQzx4UEq+cVUEP1I4qAC5iCnhu64259THiT2dlZ92+9kwrFrrym7d69W1NTf7WXIBHonrkLBtiXAAAA+g2BIvqSDxUb1u4VgGVjDsWOdD9U9GGiBo+JeWyQJhkqFJPMKHNAwZSLxc+VFIFisVhSwPacprP2rr0QqzajUWlVJW6oVWePuefoD0T4AQAAAAAdYSIs9K23PVue+PaWnDLGHBaAJcvQ8rRT7VBxu/m3/7GsThAmIq3uuTNQ+0lEzwU4ecnmFICRSr5dqiJi1JiwMvu1fHn/uMNu1bqAvg8Ux8bGNDU1td3IPiWCRAAAAADoCgJF9DVCRWD5BqhQ7IbOQ0XCRKSVFWFigrlQbqwZDQZgXQ7kAqAxRcQGfNxz/N+tccVDTn3sIx/5iM5WKvvdtvSo4qHitu1yRppqyJ52W9qJVsUkkFjnzp3zC6qhAQAA+gyBIvoeoSKwPGaAl44u8aHicfsru7ebTz+5vACFMBFpZhigTKpCoTDiwpK4tf8MhZHZp/gEirFQrVbdv2a9AgpS8TlWKOjMuXPjVjZo293A5oWGL7rP3Ot61h/Lpi79O36hUDAzsgSKSLQ77rjDVwH36+t1ZO25AQAAosaoMKBWqLg1V8moGSrSFglYQHZohdA17niTObasUJEwEWlndUJIqHrBHdP69TxqpFC4P88gc3SalYnnzu3vcZjoqw2nfJWh29ZPus/9fK9TMWp3+yb1wUGX7s764If3OEDnrEzmoAAAAPoUgSLQ8rYvlYvf/elcWQPGD9Tzhhu4goGVtDztsqWHioSJ6A9lIZGMMnvUx4yyPsgqCU2Dg4OmWp0J5Zx6fHzcV0tt6EGb04qRig0Z//p8NM7B4ZXU63VfPen/juU+F+5bTE5AD9hkvtaX3T5xsDg5WRIAAECfIlAE5rn1q+UpFypuJ1QELi/L/Im9snioSJiIflG3zKGYQIVCIeeGiPPqb6O+7asLnSJvAxiHx1Gr1ZSRWW8VSHk5d37uueeMCxO/qO7wVYglFxw85tZhSQDexIf4v1AolGcUiNvF6nup6AYAAEiejABcxIeKqtntYpJ54E2yVCf20lyo+C9/If+m/yFMRD+5ukagmEBGjXHBHcfrY4qHyC+MGxgY8KlB0Mex5PPw3bt3q9Gojqnz10gXJJqD7rahWDy6qxdhog9hphN00aILhN8m4Aqa7XQDv2c2OQEAACBxqFAELqMblYovjdyql9bc4m63XvT1W05/V9dMn9EtlZe0euaMgCQZWMn8iT02oow9Zn/1wTHzO//pSPMrhInoLxVt3swFPYlktgm+7etOtzik6EUeWrVabeaMls8uI6Rwv8e49f4pdcA9xsmGzEd7XdX5/PPP+0VOIcpms7KNejnI723IrhVwBR200/XoBgQAAJBABIrAFbRDRTtgJs0S3oCfGVqt4uiH9d9u+0f623Xv0tmVqxf7lmawuPH7f6N7yl/WPS8+q9u/97eEjIg1Wp6GxJoJFyrK/OInj2p6cFKEiegfVCcmUKFwf0Ecp9rybn3ko2/lVx9VhPtTa07DERNwu8gsseWpr06sVqfHXKCYUzDWynxislgMJQQeHh5WpVIJNUjxlaLV6syLRsuPdt33rBdwBdbtPW5fnbLL389NRpm7BQAAgMQhUAQW4EPFV7bktteMOXalAZGvrL9Xj2/b55ZbtFw+dPTfN/e9+5pf88HirhN/7ELGZ3XL6ZcExMmK4VVCSFyo+C++frz8/3nHPTkB/cLqhJA4GWX3BJwnL6UyPmAtKVJmVBEql8t+EfgxNGS/vcS7+urEhxSMDxN9VeKEQlKtVv0i1OfGz2Wp4FM55BQDY2NjPojNGzUKLuRcc7n7WNnT7jh03O1/R+Mwj2k/6CSstiHvBwAAAOgO5lAEFnHTs+XygLXb7SVXSvuKxN/+2d/UQw/9YaAw8Ur8z/rkjk/rAx//P93P/g+a3PTh5u8C4sAMcB1KmP7X5/5zrvDyNwT0kbKQKIVCIefOkQrC69zg+h63XiJt52cibkHbYXBmjckeX+xOvgrS/R6/nvMKwAVQvxVmmOidP3/eZGTvU4hWrFjhdtHMiwpmxO/jitDu3bvN6cqpY0b2mNuy97k/ZuxyN/9/brufcPf7WtSPuY+4VW+DXgg0GvVxEgAAAMtHoAgswaWhop8bcdfDn9MT9+xVL7XDxXt+dcotf6f5e4EorRi+SgjX4b96WrnzXGiPPlG3tDxNnHpeuNSIMfWo55SMdLB+dnbWuGBnhwKy1i4agHVYBXmyWHx6XCEzfq2EXJk1ODjoFx0cW6Pbx8cKBdWr1QNaXmi8wa3lLwohyXawbdWoUgQAAEgYAkVgidqh4nM3byoXHv5TvTRyq8I0uemfvl616NusAmHLDGSpUIzASHVah//yaQF94eoagWLCGGUOCG9mM/sVuUYkj6FVOZhTwMpBp1IsFhc9FnRSBWkiaEnr23Y2Go28Qm4jmsvl/CLosdXPdRdqRWWb344q0loru0fLl3OBOmFVjz355JM+sPbbVpAr39xumNkpAAAAJAqBIrAM7/jNkyMP/t8mR/zch1HxVYu+zeoH/sWfNduhAmEZGB4WopF/7UXteZGp5ZB6FW3eTDlugrgB+7xiMsdaDOVj0PZ0nyLw/PPPq5OqNrvE8MtXQbrQdL2WzzbUeE4hm5mZMUaNIOFYR3wwl8lkKjZgS2nb3NXD35Zb25Fvp5xTIDXaaYYnUGAdh/bQAAAAWB5KTYAlWvkFm3PvqCfdh7F40+MrJH071Mfv26df/y//Sh/4xn8V0Eu0O43W+N/+mY6s3yQgxahOTBgXjow1i0wCfa8mnioe7W3v+C7YVdh5TIEr7ZoVguOKzkihsGNPsfj0EYWoXq+74CzzKQVm/2wp9xoYGFC1OhP0vDzUixd8qDc1NZVzAUokFVlDQ0O6cOHcM27Py2n5Roxp+MedsO0IYfBzdFar1aeNbF7LtzbK42Rrv/THkNzCAfTAkqqmAQAA+gEVisAS+DAxa3XMxPAqfB8s/vKDv+9uv8cci+ip7MohITp+HsX8D8oCUsuKMtwEmasqCR6ONFQPNZwIysocVEBRVQhe8hjGw6wA2r17txqN6piCnzNbt3WUlDLlqSn/xttXJ0ZyYWKtVnPr1T6jYFxWZEKtrOxOe9gBAqAQvPOd7/SLogJyx6iHwq5S9EGi+51rn5s6ftht3Kfc7bhR9tiVb/b4rsLOb9FGFwAAgEARWFScw8T5/vttH2zOsfjJHb9DsIieGKTlaeRoe4pUy5hjQoI0WxEGHQQuF4ufKykBisViScGr2UYKhfvzilYuo0Zo81x2oaosjG3Dndab0Er+W3MBbrCykc03escdd7h/s4FDHzVb+N5fUEjOnDnjtiP7Bwpuyu27tNAOgd++BwcHywo+L+mGsOd7PXHihMm47cul7GPL+LYNbpv8Ii1aAQBAvyNQBBaQlDBxvslN/7Q5xyLzK6LbMgO8ZESt8Mo3BaRWxr4oJIYLjQJXLLlgJRHViW1W5jEFlgkthLkS9/j3hxFsjhXcn9pohpc5BWSWEUpcuHDB5QHB5gU0IQaKzz33nA/HvqgItUIfH7CVFIz7G7K/G0aY0oUqV78dUZ0YIt/21B1nnlZAbn/8uNu2cgqBP04Zaw/4uUG1fCOti2kAAAD6FqPDwBUkMUxsa8+v+IF/8WdUK6IrMgNZKhRjYKQ63Wx9CqTSPXcyAJwQrYHfvALLTChZDikgN1C+Jw4VLS4MmuzlgP3DD9+viuq7OqzCsw2Z/3Wpd3YBmf+WoBci5MMIWV04ZtSo/a5i8H5ieHjYdtLCV3MVWk+ph3zwWa1W3e/J/K6Cc9tR/QkhNK22pxMKXs29tsOK1CXxYfVZY8airBYGAABIOgJF4DKSHCbO54NF3wb18W2RT+GDhBsgTIyNTZXvC0gdSzVJkriEZFwBWalULBbLSpBW68SSgvEVLWOK3ogbsD/Wi1DRD9K/+urAZhcCdRoI+DaVyzwWZIMeO3pececroerV6gFfIaoYmJiY6LSFr7f9gcLOngQ/Pkycmpra0Krm7OR5SUxL5bTwz51zqrNqbr9t7egkSF5Qs/K1Vhtr2MZhdcSWBQAA0McIFIFLpCVMnO/x+/ZRrYiOrBi+SoiHDVQoIpVod5osZpsCMxNKoE4Gyl3QtlPxkHNhzfFCYUfgdrWXag7SV6tjXQiB3CrOLGsdP/nkk75K0QeKQV8YN2dkux5g+HDFBZVrz8gejmMlVIehj78oYK8LFZ/qZjh9SZiYU3B+O+qkChMBjY6O+oXftgKfqPrw3YWKXd9nPvKRj/jj1P7Ow0T/tw1wARQAAOhrBIrAPGkME9uoVkQnsiuHhHjwbU+B9DElIREKhfv9/FE5BVMuFouJmj9xnpKCD5TnXfgyqngYMS7UdYHQ4U4CoVZotqFenZ1suOBMnYWJXnlycjLQttHJnJw+HNtV2PmtboVjY2NjPhjb7oKxr7mfPaZ46ij08dzftsuHf7t2dR5O+7Dnr6em9vl1ps7fg5Wttc8IoetSlaJx3z/ercC6He6fP/fjY+449ag6ZJoF60Wu7AMAAH2NQBFoSXOYOJ+vVnzoof9AtSKWhfkTAfRU3XLFf0IYZQoKyARvGxo5P4jcSXAlNQKvt17wYZcLcE66gftJX7G4lNafrcH5kULhQ2Mnpo67c2b7LfdzuvF3Ba4q8/MCure0R9WZDa11EThk9UGi+9786cqpY12osuspt8586PNb6twGWTMxF8g2t6HcUr+xvS35ajQX9px0YY+fp7TTULq5HSWtpXKazKtSLKsDnQbW7e3ruamvHfDHKXU05+/r3Hbalf0GAAAg0YwA9E2YON8tle/qk//lX+lnvvFfBSzm5i3vlhkYEKJ3cON9Gt/YQbdBII5WVtdq82au+o85Hxj44EUBudH+DUke7PeBkZ+HUMFUJotH1y7nGzpd3wE024e68+FyY14b4ozMercYcYP8Pi3Iqcvczz1eLB59twLavXu3qVVnfYiXV3eUZOyEtZkTV5rTsdWi0wdgoxk1trltO9/F338l1qr+/m7MD9iDddbm1pd9xj2nJ+daWdt5x3WTc7c1bnsabW1L3a7aPen2sbcroHltV7+l5XPPTeOjxeKfTCgiPtSuVCrbW4H2cnVt23r44Yf16quv+kDwKXVH2f2siYYyRxeaY3X+PmmaF3AYH0Z2a45UH1bvDVpFDQAAkCaMDqPvjUzakeqsPWYGTU59xLdA/diDv6+P/dlj+tgzHU2lgpTz1YmEiQB6qEyYmBT1fNAGJy5AKCW9csg9/tKuws6SgoUwI4XC/fluDNj3UDPgcc+VzLzrTq16yv1484A64KsUK5Xqb7nQIa/uyMsaHx7LPd/+87IurrgaOTF1fKR9IaJN4DW6d9xxh3Xhy0dbbUa7Fbp4bhsyo3Nr5PLrpUfbkwvEzPuFyH3mM5/xgXWxWp15zB1HujHXRs63QXXb6rjbH/25wpSZa9n7+nmD26Zybp/MvXFxcHf3SSv7WJEwEQAAoImWp+hrPkysrVDfhYnz+Raohf/5c7RAxRUNrFwhxEdlcKWAlCkLiWCUOaDAzIRSwA1sB26vaZTtYP2lkxuo/61Og+aJiQkNDg6W/KC/eiOnuRC5fetJpWaYfDWXC2JP2pS0cOzGdoTu8YG1G2rybYzL6i4ffud9q2Xftrl909x+mVNvHC8Wn35EAAAAaCJQRN9qh4ludKfb7XYS54Ub36WHHvpD/e26jQIutWLNNUJ8nFzVzUICIAYa9hkh9gqFQqchSqfz3MXFhOZVxixTfilzFfYLFwQccwP14+qCHgYYqfXZz37WB7GHehjEhsI9/kPd2o7QHT6wHh0dPdWqGi0ruU5S+QoAAHAxAkX0JcLEN/MtUHc9/Kd6fFs3OtMgTXzLU8TH6cEhAamSzRwXYs+osV8BGRfCFYvFVLS19X+HCzA6CEeDr8eUOem2jI+qSy4JMGihvERPPvmkveqq4UfcNp3Ido7ucU9QPRZPrX3yZIL3yeP+safltQsAAKBbCBTRdwgTF+ZboP72B39DQNuK4auE+JgauVFAqtjZE0ICmG0KqKF6yuaeykwoINPBelwONxB+UPF1sjVQX1YX+QBjcHAw9gGGn0/ULaYUE3/4h39oBweH9iatUrFVmbhXiK15oeK7laBKRR9U9+IYBQAAkAYEiug7tSEdJkxc2BP3fpR5FdHkqxPNwIAQD+VVa5hDEWlT0dbNZSHWCoX7Cwre7rRcLH6upBRxg8wlddb2tOfnoe4xjrsB8ThWbp3s5UD9k08+6QOM43ENMHxQMTi4InaBp69UdEMD+2MeRLf5StRHqExMhksqFcuKt/a2tZfKRAAAgMsjUERfGf6CPewWBWFR7XkVCRX728DKFUJ8nKA6EekTmyodLCQTOABzg7PjSiH3d3VQzVUP5cI2NyB+yD3O7YrPIP7xMKp+Lgkw4nKMse2gQjHlnhfdcMMNPoh+QPENftrb0CEhMebtk5vjWgnr53T1FyKwbQEAACyMQBF9w4eJxmpMWDI/r6IPFf923UahP61Yc40QH6Xr1gtIlYZ9RkiATCeVGml9jjsZdB5RSHw1pQ8Vo54jz7ennCwefXdYLQR9gOF+VyvAiLzq7vj8oGJgYMCvjxcVyEBPq6Y+85nP+OBnMg7bzCUq/nlsbUO9DIk7WL+2rAidO3fOLzp4/L3dtlr7ZGVwcMhXwvpgvax4OCmTGSsWj9LiFAAAYAkIFNEXCBOD86Hirof/VJObPiz0H9/yFPFRup5AESmTzRwXkiDQAL6RJtI6QOsHxt3fV1Qg2YDfF4x/DorFp8eiGMT38wX6cCqq9pS+6s4FZL7qbkMEAdllQ7BarebbiwYJ2ss9DtOaWsFPeXT03X6bebvm5nyMSnMd+ufPt/FVD7Xm4PShWknLF3lrZ9/u1z1+v30ECQZD2bY8/zjd75qY2yebYX9Z0WhvW++enJxM2Ty/AAAAvUOgiNQjTOyOT+74tB7ftk/oL0NUKMaGnz9xag0tT5EydvaEEHutKrflVnlNNeI5h1/XNAIEdC7UOhhVyOoH8V24tSGMYPGNIPHo9tack5G5JCALI1hcMATzgYoxZmKZgfSpVivS0LSrPDeNbt4+b72FNa/cReswxPnsfGvaT2h5+8ep1vdEbu3atf7xf1TLc6rVHjhU88L+zWFe7DB3bKrvcsfCtSFvWwAAAKlgBKTY1Z+3j7rFfqFrPvZnj+ljz8Ry6gt02Yo1q3X9XbcL8TDxtk3a+1M7BKRIWVvv3CAkRqFQGMvI7rQLtOx0by7KLmibcoO0fXGy4NaJXxeFJa6XI8sJ19zPzhnZkwrADZYv+j7P/fy8i0XHjMw292lOHbLNyi7jK+9iXZnqg7Kpqamc+zDv1u8ev1TnmhWry3mOd+/erWq1uuA+5X5mpdFsj5o5FId1+vDDD+vVV18tuO2m0K3tps02AyV71P2txShD6De2j8Z+9zduutL95j03E2FV9y3F8h6/8Rf1xGJ/be0Po/6Y5B7dNvf4ujXXrAunfZW98QH+EQJEAACAzhAoIrWu/oI94N6ZjgtdR6jYH66+eZ3WvJ0Wm3Gx/X3/k0rX5wSkhnUDx++5qyAAl9XrQLHtjYF8Hw418j6E8AGXmQuLLg26/OC8H5CvZOaqUH2Q4ucDLCVxoL4Vvvi/0QcZ+Yz72xutv9u8OSyb/7eX58Ik6/7+bKkf5167ZLsZzbS2G3dz221zu3lTSGpbVWiZuTbKlaRvP+iNy+2Xi2xbV9o3p+IU9gIAAKQBgSJSiTCx93ad+CP966d/VUivaze+UyuvXStEz7c73fBzHxeQKlaP6D13HhKAyworUAQAAAAAYCmYQxGpQ5gYjslN/1S//ODv6czQaiGdmD8xPkrX5QSkTt1SNQAAAAAAAJAQBIpIFcLEcP332z6ohx76D4SKKTQ4PCwzMCDEw8F33Scgda6uESgCAAAAAAAkBIEiUoMwMRov3PguQsUUGrz6KiEeStetV3nViIBUsZrS5s3MlwUAAAAAAJAQBIpIBcLEaBEqpg/tTuNjYv0mAaljRHUiAAAAAABAghAoIvEIE+OBUDFdhlbzPMZBedUaHSFQRBplVBIAAAAAAAASg0ARiUaYGC+EiumQHRpSduWQEL3xjdsEpJLRCQEAAAAAACAxCBSRWISJ8USomHxDI7Q7jQNfnXj05tsEpFBF99xJy1MAAAAAAIAEIVBEIq06WidMjDEfKn7s539PSCbmT4wH3+q0MrhSQAoRJgIAAAAAACQMgSISZ/jzdk9mMDMuxNpX1m/RJ3f8jpA8zJ8YPV+dOMHciUgrq6MCAAAAAABAohAoIlF8mGikCSERJjf9U0LFhBkcHmb+xBjwcyeWV40ISKW6pUIRAAAAAAAgYQgUkRiEicnkQ8XHt+0TkmHw6quEaPnqxCNUJyLN3ndXSQAAAAAAAEgUAkUkAmFisj1+3z5CxYS46i1rhWj56kQgxUoCAAAAAABA4hAoIvau+bwtECYmnw8Vj9y7V4i3oTXXCNGZWnMj1YlIN6sTAgAAAAAAQOIQKCLWhv/UjlrpsJAK//qDv6nJTR8W4mnFmtUyAwNCdHZt3S0g1TLmmAAAAAAAAJA4BIqILR8mGiM/8DgipMZvu1Dxb9dtFOJnxTDzJ0bpsXfcq/IqDndIuaHZZwQAAAAAAIDEIVBELBEmptfZlav1sQd/Xy+tuUWIl5XXvkWIRnnVGo1vvE9AqllNafPmigAAAAAAAJA4BIqIHcLE9Htp5FY99NAfEirGSGYgy/yJERrfuE2VwZUCUo7qRAAAAAAAgIQiUESsECb2Dx8q/vKDv68zQ6uF6A2t4XmIysTbNunI+k0CUo/5EwEAAAAAABKLQBGxsfILNiejSREm9o0XbnyX/vXP/oYQvZXXsttFwbc6PfguWp2iTzB/IgAAAAAAQGIRKCIWfJiYtTpmpJzQVyY3/VM9vm2fEK2h1VQoRsG3Oi2vIsxFH2D+RCCIoPtMWQAAAAAAdBmBIiJHmIjH79vngsUPC9EYHB5WduWQEC5anaLPUJ0ILFOxWKy48+OilsnKHhEAAAAAAF1GoIhIESai7bc/+Jv623UbhfANrblaCJdvdfrIpg8K6Bt1u+xQBIDUkNm7nIDQ37dYfHpcAAAAAAB0mREQEcJEXOqWynf1xBO/qFtOvySE57q7NrpQ8RohPBt+7l/Q6hT9ZWV1LS1PgeAKhULeJfO5he+VLReLxZIAAAAAAOgBAkVEgjARV3L79/7GhYq/pNUzZ4Teyw4N6cafpu1mmA5uvK85dyLQR0raeud2AQAAAAAAILFoeYrQESZiIS/c+C49vu3jQjiGRqhMDFPxptsIE9F/Gpb5EwEAAAAAABKOQBGhIkzEUjxx70d15N69Qu9d9Za1QjiYNxF9q6GSAAAAAAAAkGgEiggNYSKW419/8Df1lfX3Cr3F3Inh2X7fQ8ybiH5U0fvuKgkAAAAAAACJRqCIUBAmIohP7vi0Xlpzi9AbK9aslhkYEHrvkbt/ljAR/cnS7hQAAAAAACANCBTRcyOTdmSgoUnCRCzXSyO36pcf/H2hN4bXXSv03sGN9+nQO+4R0JeyZlIAAAAAAABIPAJF9JQPE2srdExGowICeOHGd+m3P/gbQvcNrV4t9NbUmnUa37hNQN9qVKlQBAAAAAAASAECRfQMYSK65Yl7P6rJTR8Wuse3O82uHBJ6p7xqjXZtfVBAHytr6+ayAAAAAAAAkHgEiugJwkR0229/8DeZT7GLrrqW+fx6qTI4pO33PcS8ieh3JQEAAAAAACAVCBTRdYSJ6IWzK1froYf+UGeGaNPZDVe9Za3QO7u2/DxhIlCzRwQAAAAAAIBUIFBE19WGdJgwEb3w0sitenzbx4XODA4P0+60hx65+2dVun69gL73vrtKAgAAAAAAQCoQKKKrhr9gD7tFQUCPMJ9i51atu1bojYMb79Ohd9wjALQ7BQAAAAAASBMCRXSNDxON1ZiAHmM+xc4MrblG6D4fJo5v3CYA8meYEwIAAAAAAEBqECiiKwgTESY/n+IvP/j7wvJlh4aaLU/RXUfWbyJMBOZrVJ8RAAAAAAAAUiMroEOEiYjCa1dfrzMrr9H7/sefCUs3vO46rVw7InTP1Jp1+sfv/SUBaLGa0ns2/VsBAAAAAAAgNahQREeGi/VHCRMRFT+f4lfW3yss3SoXKKJ7fJi4/b6HBOAiVCcCAAAAAACkDIEiArv6C/aAWZHZLyBCn9zxaZ0ZWi0sjnan3VVetUa7tj6oyuBKAZinbosCAAAAAABAqhAoIhAfJspqXEDEXhq5VR/7+d8TFkd1Yvf4MNFXJpZX0T4WuERZ77urJAAAAAAAAKQKgSKWjTARcfOV9Vt05N69wsKGbyBQ7AbCRGBBJQEAAAAAACB1CBSxLISJiKvH79unl9bcIlyeb3WaXTkkdIYwEVhEzR4RAAAAAAAAUodAEUtGmIg4O7tytT6589PC5a1ad63QGcJEYFEV2p0CAAAAAACkE4EiloQwEUngW58+vm2f8GZXvWWtEBxhIrAkRQEAAAAAACCVCBSxKMJEJIlvffq36zYKb1ixZjXtTjtAmAgskTEEigAAAAAAAClFoIgFESYiiT724O/rzNBqYc4w7U4DI0wElqyiLXccFQAAAAAAAFKJQBFXRJiIpHpp5FY9vu3jwpyh1YSrQUytWUeYCCwd1YkAAAAAAAApRqCIyxr+P+w+wkQk2RP3flRfWX+v+t1V166l3WkAhInAMtHuFAAAAAAAINUIFPEmw5+3e0xDhwQk3Cd3fLrvW5+uvJZAbLmOrN/UDBMrgysFYElodwoAAAAAAJByBIq4SDNMlCYEpEC/tz7NDGS16obrhaXzYeLYT+4gTASWh+pEAAAAAACAlCNQxOsIE5FG/dz6dOW1a4WlO7jxvmaYCGCZaHcKAAAAAACQegSKaCJMRJr99gd/U/2I6sSl82Hi+MZtArBstDsFAAAAAADoAwSK0Kr/vVYgTESavXDju/T4tn3qJ9mhIQ2tuUZY3N6f3EGYCARHdSIAAAAAAEAfIFDsc8N/akcz12QPC0i5I/fs1UtrblG/uOraEWFhlcEhbX7//6yJ9ZsEIKCaPSIAAAAAAACkHoFiH/NhojE65j4keUDqnV25Wp/c+Wn1i6tvvlG4svKqNdr8gYc1NcJ6AjpQ1vvuKgkAAAAAAACpR6DYpwgT0Y++sn6Ljty7V2m3Ys1qZVcOCZc3tWadtt/3kAsVOfwBHSoJAAAAAAAAfWFA6DuEiehnj9+3Tz/zwn/RLadfUloNr7tWuLwj6zdp/90fVGVwpQB0KKvHBAAAgJ4YHx/X1NSUH7dpjd3Ucm/8r8mp+yruBK9cLBanFKI3/s56Xh2PU9myG+qshP03AADQL4zQVwYPz44OrRskTERf+8A3/ov+t//0z5VWN295t8wA14tc6uDG+zS+cZsAdIHVlN5z52YBAAAgkHmBYc6FaaNGxt/WWGlUc2M2OUXjpIw9ODn5dE/nyh4bG1OlUskb2QPu07y6K5S/AQCAfkOg2EdWfsHmslbHTHQnpUBsPPHEL+qeF7+stFm17jqtfefbhTdUBof0yN0/q4n1mwSgSzIa0713MkADAACwBPPCQxcWNjZlZPKt4DCnmHJB36NPFZ/+hHpgrFDQGbda7FyY2CvW/Q0H3d9wUAAAoCsIFPsEYSJwsVsq39XkZ+7X6pkzSpPr7tqooTXXCHPKq9Zo15YHNTVyowB0U3WDtm4uCwAAAJfVChFzLkDcaWQKeqPyMDHcGNLhp4pHP6ouCilMbCNUBACgi7JC6hEmAm92duVqDdVnUlWlmB0a0sjb3ybMKV23Xru2PqgXrrlOALrI2qN6z6bfEwAAAC7iQ8SRkZHcu27/iX3f+973Jtw4zLgLE39Oc+MxSZzIffT223/i9AsvfPNZdYFfP+XvfW+DO6GcVDjcU2C2bdx4W/mFF75xQgAAoCMZIdUIE4Ere/y+fXppzS1Ki6tvWSfMeewd92r7fQ+pvIrpYoGuy2QOCwAAAK97+OGHVXBOTB134y/2pJUZVzrGYYxR5lPqkm984xvu5zXCqEyczz0lZp8AAEDHaHmaYoSJwOLuefFZPfHELykNbvypTcquHFI/8/MlHtyY16F33CMAPVHW1js3CAAAoM+150XMqLHPBYj7lbB2pstgrervLxY/V1KHHnjgAWMb9W8p/HEq9zeYtxeLxbIAAEBgA0IqESYCS/OV9Vv03277R/qZb/xXJdlV167t+zCR+RKBUJQEAOhIO4RQ98OHihssrwhAT7X34eemvrbPuCDRBVV90BbF5NQFKxoNzUQ0TmWM2SR/cRwAAAiMQDGFkhgm2ppt3pofzzRaX3PLun3TfRut//cyQ5fp2pt1p/QDc183fgvPzn2cWUmHX1zev/7gb+qe8pe1euaMkmrVDf09T2Dxptu096d2qDKYxGlJgCSpHhQAYFkuqWLKn5g6nu9Vq6BdhZ1+MZWRnagrc5RqHKC7xsbG/P683cj+gdufc0JiWFtbKwAA0BECxZSJW5jYDApn6mpMN2RnG82lml9rvB4M2nkBYRiMCyFNM3Q0zY81MPexDyfNULYZQs4t6QjcL14auVVPbNmrjz3zmJIoOzSkldf273ujR+7+WVqcAuEoaevmsgAAS7Z7924fPmx24cNTIYYPow2ZQ+537isU7v9Esfi5ogB0pHVhwIbTlVN/4EYK8gIAAOhDBIopEmWY6IPCxpmqbN2q8WMXIJ6rNwPEdtVhnPgAcymPqhk4rsjMLYezzQpH/3lzSeCYOo/ft0+7pv5It5x+SUkzNHKN+pFvcbr3J3eqdP16AQhBRhMCACxZO4Bwwd4XFc3cau53Z5/68K5de/94cvKIAATiLwz466mpMbcvP6r0zpMIAACwKALFlAgzTGycqzUDw7q7NU7XYhscdmquDWt97pMztTf9f7OqcVX29bAxs2qgWd2YGWa3SqpP7vy0nnjil5Q0q996i/pN6br1zRan5VW8nwdCUta9dzIYDQDL8Nxzz5kIw8Q207CNRwuFwjO0PwWWp92uuF6dOWBl9gsAAKDPkXykwMikHak1NCnT/TDRh2o+QKz9qCrrA8Tz9VSGh0H49VD3QeMlYePlgsbMMBWNSfCV9Vvc7V7d8+KXlRQr1qxWduWQ+gktToFIlAQAWDJf0VStTo+5dwY5RW+tn+/NLd8vAEsyr8LYtyseFQAAAAgUk64ZJq7QMRcmdu0Et366qoYLyeqna3OBGZblikHjUEbZ4bmgMbt6kJAxpj6549Oa/Mz9Wj1zRkkwvO5a9QtanAJRqh4U0GcKhUJOPUbFWHrVajWTUWZHjC7FzLttesRtcxUBWNAl7YpzAgAAQBOBYoJ1K0xsBmA/mp0LEE9VqUDsET93Y83d9KOqqppufq0dMmbWDFDJGBMvjdyqJ7bs1ceeeUxxlx0a0qobrlc/KN50W7PFaWVwpQCEzNqjes/msoCUc2FL3qhRcGdoO9UcQO79OfGugv9VmnJnf1MN1Y8Wi58rCqkwNFTXzLTJKUaMMdvc4qgAXBFhIgAAwJURKCZUp2FiO0SsvTpLG9MIzQ8Z23y7VB8sZtfMBYzMyRi+I/fs1UPPHo59leJV165V2lUGh3RwY54Wp0CU6jokIMVckDjqBo4fdWdmeRe5KAKj7kzcPYbsmAsYy+4sfa8LFktCos3ODrhIuj4Sp0sFra2l/+QR6ABhIgAAwMIyQuJ0Eib6dqbTXz+rC187rZm/P99szUmYGC8+4K39YLb5/Fw4cVbn/8o9Vy/8WNVXppvzWaL3zq5crce3fVxxd/XN65RmU2vWafMHHiZMBKJV1vvuKglIqQ8XCnvcwPEx92Fe8ZBzweKxBwo7DggAEBrCRAAAgMURKCbQrLGHlxMmNs7VVf3OBZ3/SkXTz/+YEDFhmlWMP6pq9uSFuYDRPY8EjL33xL0f1VfW36u48tWJ2ZVDSqvH3nFvM0wsrxoRgAhlNC4gpXxlYkN2wn0YuxcbKzPuw04BAHquFSauJUwEAABYGIFiwgx/wR7OrDCFpdz39WrEE2c0+51pQsSU8M/j5QLG2qszBIxd9vi2fYqr4ZtvVBqVV63R9vc9pP13f1AAIlfWvXceEZBCLkzMuYHjScWYCzsP+ccpAEBPfeMb3zBGjUdFmAgAALAgJmdLEB8mGquxhe7TDJtemVb1lRkCxD7RDhhrrXkYzVBG2dUDyr5lsDn/YmYl1w0E9ZX1W5pVive8+GXFSXZoSENrrlHa+KrE8Y33qTK4UgBioSQgpdzZ0R4b/4HjkUxzbkftEgCgJ8YKBZ25cOGAeydNVTgAAMAiSBoSYrEw0YdKvq2pnxuRasT+1myR6udg/Ma55vbgq1Rn3bZRP031YhCf3PFpxc3q9TcrTeZXJRImAnFSPSgghQqFwoiVHVMC2ObDLdD/GwB6wLc6rUgb3GsC89YCAAAsAYFiAiwUJhIkYjF+zsyq2zamnz+r8391WjN/d26uPep0Q1jcSyO36si9exUnQ6tXKy2KN93WnCuxdP16AYiVCW3dXBaQSnU/fUBOidHYLwBA1z333HOmNW8iFmXLAgAAfY9AMeau/oI9cLkwkSARQbxevfj351+vXqy+Ms3ci4t4/L59OjMUjxBv1brrlF05pKSrDA5p15YHtWvrg1QlArFEdSLSyyiTqLZ2Ria+kzoDQEL5VqdqNHxlYk5YTLlY/FxJAACg7xEoxpgPE2U1Pv9rBInoJl+9OHvSbU8nWtWLJ8/TGvUyzq5crSe2xKNKcfVbb1HS+arEDT/3cRVvvk0AYqlEdSLSqlAo5Nwir2QZKRTuzwsA0BXzWp1ywcbirEyGC80AAEATgWJMXS5MrP1w1gU/ZwgS0RPN6sVXZi5ujeq2Ocw5cs/eyKsUV6xZnejqxPZciVQlAjFXswwaIbWMGuNKoIyyDHoDQJd84xvfMO71wFcnMkftIlzo+tjk5OQRAQAAiEAxli4NExvn6s3WlDPfONcMfYBee701qtvmzn+l8nq42M9Btq9SfHzbxxWl4XXXKqkee8e9zJUIJIHVlN53V0lAapltSiB3BpYvFAoMfANAh3x14oULF3Lu9SBR7a+j4MLEiWLx6UcEAADQQqAYM/PDxNfbm54402xNCUTBb4cXhYsv/Fi1V2f6Mlx84t6P6qU10bQczQ4NadUN1ytp2lWJ++/+IFWJQBJkdUhAShUK9xeU3LmyXJhYHxMAoCPzqhNxeRX3Tr9kZba7MDEe834AAIDYGBBiY36YWD9d1czfn6ciEbFT+1G1eZPOa+Atg8pev0ID165Qv/jkzk/riSd+SWG75pZ1SpqDG7fp0DvuIUgEkqOse++kpRVSK6PsniRfDmWU2ekWhP4AEJCvTpyamsqZBFUnutetckaaasi+6D6bkrIV92V/K6sHisViWQAAAFdAoBgT7TCxXZVYfWVGQNy1w8XZgfPKrnXhogsY0x4ufmX9Fne7V/e8+GWFaeVb1iopStet1yN3f1BTIzcKQIJkLp67GUiTQqGQs7IFJVu+ULg/Xyx+riQAwLK9UZ1oFGO+QtAFh40jLjwsEfABAIA4IVCMgXaY2Jwr8YUfU5WIxGm3RfW32aELyq4e0MANQ8quSech5vFt+0KtUly17jplVw4p7iqDQzq4Md+sSgSQOFQnIuXq+XTM9pDxoWhJAIBlm5nxF27Hdi7dspXx52KHXIhYEQAAQAwRKEasHSbWXpnRzMnzApLOB+LtcNEMZZrh4uDNQ8oMp+dwE3aV4uq3RjNv43JMvG2THtnEPIlAYlGdiJQzyqRivqxWm779AgAsy+7du1WtTo+514Oc4uWUCxJ/y4WItLQGAACxl4bLdBPLh4m2asenv36WMBGp1A4XL5w4qwtTZ1R7dUaN6XRU4PoqxTCsWLM61tWJU2vWafv7HtLen9pBmAgkF9WJSLVCoZB3i5zSYcS3PRUAYFlqtZrJKLNDMWKlYy5MfDthIgAASAoqFCMy/H/YfY2z9XFanKJfNM7XNfP3c8H5XEvUFc22qEkVVpXi8LprFUe0NwVShOpEpJxRYyzm82Uti1HWV1uWBABYkvHxcU1NTY24D2Mzl66VPVgsPj0uAACABKFCMQLDn7d76i/NHJp+/ixhIvpS/UytGS6e/0pFM393TvXTNSVRr6sUs0NDWnXD9Yob3950w899nDARSAeqE9EHzE6lS75QKIwIALAkzz//vPu3TpgIAADQIQLFkPkwsfad6Qnf4tTWrIB+5vcB3xLVh+vn/+p04lqitqsUe2X1+psVJ6Xr1tPeFEgbqhORcoXCh8bcIoXhW4N5FAFgieLU7pQwEQAAJBmBYoiGn7J7Zl/48cTsdy4IwMV8ta6vWrzwtdOaeeHHzXAxCXpVpeirE4dWr1Yc+Pamj9z9s9p+30MqXb9eAFKjRHUi0s4os0cpZNJXdZk62WzWN9otK1ZsWUAfGhgY8PMV5hW9k4SJAAAgyQgUQ7Ly39f2TL9wZqL2o6oALMzvJ82WqH91utkSNc5Vi72qUhwauUbZldHPMfnYO+6lvSmQVlk9IiDFCoVCTvEYQO6F0ULh/rwQW9Vq1VqZZxQfZRerTAnoM2NjY35/zCv6anV/THi/AAAAEoxAMQTZ3z5TmD3544nG+boALJ2vWvQtUX3V4vTXz8a2avGTOz6tblv91lsUJd/edMPP/Qvtv/uDtDcF0mlC99zJwDJSLu1tQTOxmQ8MbzY6OuoXsakCt7JPFIvFioA+48JEvxhVxNw++FtuHywLAAAgwQgUe2zw0R+P2pn6YR+MAAiufqYW26rFl0Zu1eSmD6tbVq27LrLqxKk165rzJPr2puVVKZxyCkBL9aCAlEt7W1D39+0pFAq8WMfU+Pi4BgcHyy5EeEzRO06bRfSr8+fPm4zsfYrWSTf8NiEAAICEI1DspV8/NVr74ewxW7e80Qe6JK5Vi4/f1725FK++eZ3C1p4ncfMHHmaeRCD9JrR1c1lAirmgLe8WOaWbe49RHxNi64477rDuLfdBFypGVqnoHsAxK/OAgD5ljPH7QaQViq0K4bIAAAASbkDoDRcmmow9puj79AOp5asW/W32O9PKrh7Q4FuvUmZlNNdJ+CpFP5fiPS9+WZ1YsWa1BoeHFRYfJD72ji3NORJpbQr0hTLViegHRo0x/2/aGWV8FeYhIZZ8laJzavfu3WPVarXkYo09CmleTxeglIzJTBQnJ2PTdhUIm98Hp6amRky0F5hYqhMBAEBaECj2AmEiEKp21aK/DbxlUAM3rVR2TfiHt8e37dMTT/ySOjG87lqF5bF33KvxjfcRJAL9xOoxvYfqRKRboVDIaS646Qd5//dS+RJvTz75pF9MuHBjwocbmquW8hWmPXi/mC27f8psE4DbEcplv4i6OvFosXi0LAAAgBQgUOy28VM5UyNMBKJS+1G1eTNDGa1460plVg+GVrX4lfVbOqpSzA4NadUN16vXStet196f2sEciUD/Kes9d1LJhD5Qz/fXzA6+GlPjQuy1KhYr7lYSgJ6rVqt+EWWgaI3JFgUAAJASzKHYTT5MrBImAnHgqxZn/v58c67Fmb87p8Z0Q2HwVYpBrV5/s3rJB4nb3/eQtt/3EGEi0I8yBA7oD0aZ7k1snABGpq/+XgBYqtnZWSM1Ip0g3lp7VAAAAClBhWK3tMNEE2lvfgCX0W6H6udZHLhhhbsNqVcurVL8RvYqfTe7Uq9lBnTeZF+/33WNqn6idl631S80P+9ldaIPEg9u3KbS9ZG+lwYQrQndeyfzaCH1CoXCqBu+jbS9XQRGCoX788Xi50oCAFzEyGxSRPxcpsVisSIAAICUIFDsBsJEIBHqZ2rN2+x3pnvaDvX3tvzf9f3v/b3++9BbXIi4+M/fOntaH1nX/XkMy6vW6JG7f1bFm28TgH5XPSigDxg19vt/+41R9oBoowkAF6nX6z7Uy0X3qmD/TAAAAClCoNip8VMjLkycJEwEkqPdDtUbuH6FBt96VVeCxYGZc7plqihNTepPVl635O/70oo1+tIp6Wd0Qb90w5DWrejssfggcXzjNh1ZH9nFuADipGEP6r2bywL6gtmm/jRaKBRGqIQBgDesaLj3fYpsrMZlmY2SAAAAUoRAsUOm1jgsY/qtrRKQGvPbofpgMbsm2GFx5Znv6+4//jWtPPt9BfXfTs3qr8/V9PBNK7Vl9aCWqzI4pIMb8zr0jnsEAC1lvfeucQF9oFD40JiiGzh2I8f2iJHZo2iMSPUxtzwkAIDGx8c1NTU1Em3N+sCUAAAAUqT7vf76SOY3Th1wkWJBABLPt0Kdfv6szv/VadVenVnW93YjTGz7/mxD/+rF8/rs95f+GOaCxG3a8HMfJ0wEcAm7V0CfMMpEFeZ55WLx6TG3jGzw2P39OwUAaHr++ef9IqfoVKgaBwAAaUOgGJAPE63suACkSrsdqg8Wq9+5oMZ0Y8H7dzNMnO8/vDqt/3aquuB95geJ4xvvc593fx5GAIk2oa13lQT0gUKhkHOLvCJiWvMXWpmjik6+ULg/LwCAhoeH/WJEEbERXmACAADQK7Q8DeKTrxUIE4F088Hi7HemJXdbaJ7FXoSJbZ955YLuGs6+aU5FHyQ+9o4tzWpEQkQAV1CWqgcF9I8xRagh81jrQ99y9IAik/HdU0oCgD63YsVr7l8zEt119Pa0AAAAUoYKxeUaP5Uz2cxhAegbfo7FC187rZm/O6f66drrX1//5c/2LEz0ztWtHv3uhdc/L69ao/13f5CKRACLy2hcWzeXBfQJIxtxu9NisxKl1d6upIj4ORwLhUJkFTkAEBenTl3lF1EeD8sCAABIGSoUl8OHiVV7zL1T50060Id8sOhv2dUDuuaa07plalK99tfnavoTe7X++KferyPrNwkAlmBC9955RECfcAFaXrI5RcTKjF/y+UEXcOYVjRFj6tvcMsrWqwAQuRUrVqharY40m49GgwpFAACQOlQoLoOpNR51YWJOAPpa/UxNI1/7PzUwc05h+H//eCVhIoClKtPqFP3GqDGmaD0z/5NisVhyi4qiYjP7BQB97tw5/16tsUbRcCmmLQsAACBlCBSXKPMbpw644YqCAMDJff8LCsu15f+hgekLAoBF0eoUfaZQKOTcOXpk7U6t7FEXIJYv8/Uoq4TztD0FgGgZM3BKAAAAKUOguBSffK3gBgXGBQDOVTM/0FWzP1CYbp36SwHAImh1ij5UzytCxmSvMLd6pqhINahSBIAIWVul5SkAAEgdAsXF+HkTM5lHBQAtqy+8qLCt/t7LAoAFlGl1in5klNmn6JQnJycvO1dhq+1pSRExMlGuFwAAAABAChEoLsJU7STzJgKY75rz4QeKV53+kQDgyuxeWp2i38y1O9WoImIWCQytzFFFZ6RQuD8vAAAAAAC6hEBxAc15E010gxQA4mmwfl5hW1UhUARwBQ17UFvvKgnoM0aNcUWoIbNYVfCEu1UUmQzzvwMAAAAAuoZA8Ur+l1N55k0EEBezK68SAFxGWe+9a1xAXzLbFBErlYrFYnmh+7j/r5ho257uKRQKIwIAAAAAoAsIFC/Hz5soe1gAcBnV7CqFrUagCOBS1lbcEWm7gD5UKHxozC1yioyZWMq9GjKPKTouTKyPCQAAAACALiBQvIxMtT7OvIkAruTC0PUKW3WIQBHAJbJmP/Mmol8ZZfYoWs8s5U7FYrGkCNueuvW0UwAAAAAAdAGB4qV+/bUxayIfoAAQYz+6ZqPC9qPcPxAAvM7Pm3jvnUcE9KFCoZBzi7wiYqSJxdqdzmejrVLMu/XFnPAAAAAAgI4RKM7nW52azAEBwAIurLhetZDbnn7/9jsEAC1TzJuIPldQhBqqLzfMn1CkGpGuLwAAAABAOhAozmNq9jCtTgEsxcl1/1hhOX3jzbow8hYBgFOWqrsE9DEju0/RKReLnyst5xta1YwlRcTIRLm+AAAAAAApQaDYkvmNU/6Ndl4AsJjhH+rb//icalcZheGV7T+rTDYrAFDdhYnMm4g+VigU8m6RU0SsbKBWw1bmqKIzUijcnxcAAAAAAB0gUPTGT+Xc4MC4AGAhLkjMbPl3yu78lOp3fFkv3rdSvTZz7XU6lf9HWrNunYZHRpQdGBCAPmX1iP7h5ikBfcyoMaZIZSYUzIS7VRQRoyzTOgAAAAAAOkKg6GSq9XG3GBEAXM4N31TmA4eaQaJ5+7Ovf/nF+4Z0YW1vD6PP/8vffP3jFatWafUNN+iaa69tfgygjzTsQb3nzkMC+lihUHDn62aPImKlUqt96bK576sErW7skvzc+gMAAAAAIBgCxV9/bcyaTGQDEwBirB0k/sxjMuv+7k3/7Vue/uUvX9Oz1qflB/8nzVx7/Zu+PjA01KxW9FWLBItAXyjpvXeNC+h79YIiZSbUkUxRkWrsFwAAAAAAAfV3oDh+KmdMhvY/AC62SJA434W3ZPTV/0f3Q8XvfOjDeuUD/3jB+/h5FdvB4qrVq5lnEUinslZWdwmAjCK9CLBSLBY7qjB031+yfp+OiJHZJgAAAAAAAurrybh8q1NrMjkBgNeaI3GxEPFSZ2/J6kv/crV+6n87q6tONdSJ2qpV+u79i4eJ8/kgcejqq5u32fPndeHsWTXqdQFIvLJU3a7NmyObdw2Ii0KhkJNsXhExLg9UVxgXStqoLmjMFwr354vFz5UEAAAQI+Pj45qamvLt2d2tPjq3NDl3DjZiZNb4z+3cdFXt21KU/T9mbh7rSkP2Rbc8pebSuq8NlIO2sweAftW/geL4qZytWVqdApgLEu/6/EXzIy6Xr1T07U//wX++oJu/OqsgTv/ERv2PsX9+2TanS+VboPpbbWZGMxcuNANGAAlk3RtcU9uurZvLAuAGghrjzeGgiDRU79b8h34u1Ag7pGR829iSAAAAIjAvOMz54NCFhf62/sTUcbf0X/MubqhnFVhu/veb188lzes/eVdhp/9gyn2l7ALHE+5rU1LWB41TAgC8Sd8GiqZqj0U4JgEgDgbPK/OTf9xRkDifDxW//ovD+vttg3r70z/WurL7FbOLH2h+eJPVS4WHdG506VWJi/HzLPrbVddc06xY9AEjVYtAghjtIkwE5ou0XWe5W1V9bnCq4gauSu7DvCLgBtL2FAqFcf84BAAA0GOtADHnwsO8Dw9dcLjNjZKMzv3vXHDYQWDYLaPuMfhgszAXNjaDRn+u5EJFe8KqUXSjLFOcPwFAnwaKmd84tc/K5gSgP7kg0dx+TJnbS82Pu+2cZvXcNnc66oY+3/KK1bUvG63+oTvgtgoXayuk89dIZ661+v569/mQ+7+rvqpr1L1Asa09z6JtNFSdnqYdKpAIjb3aendJAJoKhft9VV1OEbEy4+oi9/MOmujat/o2Yn59TgiReWNwtbEz4wZX1QVzbdwapX5oaftGdUtjTzfWnxsbOO3O3I+7M+dn4t767o1tp5bzrQDnvjq3dOtivTrU7XUx/7lyQ/QbWm0LQ2L98bYr+1cAxih74IHCTrpiXWI2DtERempeBaIL6BoFFyDunKs8zChh/N+Qd7uzC0Kz+1ohY8kdWZ5xf0uRCsbl6/brd6NZTZo5Stva7nvjuarn3T4wGuQco3VOcbJ1TsH+0mXdPseae76a7yUWneqj/2r0xk/lWtWJOQHoLz0OEj1brav+98EuWrv6tk9p8Jp3qdd8teL0uXPNgBFAzDTsQb33rnEBeJ0bkJ10b0YLiogbkN7QzYGKQqEw4gJF9+Z6yfP/dFtpsnh0uxC61ht/94bf/oF6V6V60qr+0TQGi+31l5H93V4dE9wAyUTDhf5RD07u3r1b1Wp1dH47QDtX0ZNTSNx2+uhTxac/oQBaz9VaFyY86n4SoRriwLqBUnds/JMJoevmh4juGL2ndYyO6jwnLGX3mlHybfGZn3ph7e0jo8YBd169X13mnodJ99r9CYLFzs17rva1nqtu7ccnZezBycmnuzWNRN8K4f2Eey9h3r/Q/tR3gWLmf3ltwpoMJ7RAnzG3uSDx7s/3LEhsq7/8Y9nTMwpiwIWJ17hQMSy+UpF2qECMECYCb+LCt1wrfIuElT1aLD7d9eCiUNhxyAUE+xQR9yZxLW27wjXvzf8X1ftQyGZMZu8fT06mZtAm5PW36EBKt42NjalSqeTdAN4297vzmgsP4zAYf8w9ngeWc7wI+bkClopAsQfaxy5fidi6eCDtIeKVuHDRTjSUOUKodbEQXxNOtl6vqIQLaN5z9ZReb0vcVdb97INPFZ8+KATSuuBsc2t/6uXx9pRV/YErXSyRVT8ZP5Vzm+5hAegb5tYTym7//8qs/yt3xKuql3x1YuOVcwqqMfuDZqiYHbpeYTCZjFasXKmVV1+tbDarRq3WbI0KIAKEicBl3X77Owtz89lEJfNvXnjhhRPqsttv3zht3DicImNnXnjhGyUhFBEELMaF4Tvd/vPMCy98s6wUeMtb3uJWX+NrCmf9rXX7p1t/G4+4/b8nLT38NjHi3H777VvedfttB6anpyfc7/znmgsTc+62UvHgtlvd644XSwqn36hMtH8hwkTEjj3qjomEDR164/j1E/9sZnr637hjxLg7dm1RfI5bURiZa42q/e+6/fbR225/pzvP+uYLQpiv3/61+5/dsfFd5b/twbl72l1yrnq7esM9RWabO+/R377wjWeEZfHP0csvv+yfo8+7T29Ub11llPHnwr9/uXPhvgoUzT/8tUlxUgv0hxu+qcyWf6fMHf9VWnFBYbCvXZC9UFMnfKg4dN02hS07OKih4WENrljRnPGjXu1t+ApgHsJE4Io23r7Rn79HdbV7uVg8ulc94N6YlTfefnteEb038S0UXUDwb4VQ3HTTTaZem320FRaFxZ3RZbb1MhQLi78au16f3WvCbZ25thfBu6/myeVy+e9/7+X9blTt8FyI2KwCiPNAfM4FB6fd4Pizi95xZESz0v9LEbapBq6MQLET7SDx1e+9/Gvu0//YuuArJ1zqdvf6+wvuPG/Pxo23VdzrSN+GWw8/fL9+/OPGLret/DOFw19Q5c99/rM79/mesGQ33rjanauql2FiWzNUXOp5Bd6wdu1ak5lrc7pF4bjqSufCiZsRN7Bff21MvZunAkBcDP9QmQ8cUvZnHpNZ93cKU+PsrDpVO/s3qrpbVAaGhjTsBgLWrFvXXGay/VXIDoSOMBG4okKhkFeEA1V+Xhz1kJU5quiMFAr354VQ1Gr+gjOzU+HLSfUxJVw2O+PD0Y8rZG4A9ON+zlN1gQ8S/THtdOXUMSN7THMtj5PSGnDJ6/9MJuMHc5liBkgRHyT6Y+FzU1874NvQu/OXcfVva9Pl2CBrJnYVdn5r164dfXlcPHv2Gvf6Efr5j6+S/11hyfyFW9PTdky9aXN6Of684lPdOsfqB/45staO2pAv2HL770OX+3rfBIrGZA4IQHoNnpf5yT9SduenQg8SvUZlRqp2p13o9Mt/pKj5IHHFqlXNYPGaa69tfgygywgTgQUZNcYUoYZMr+f3mHC3yOYxzCgb2RyO/aQ110lU8+GZjDJ3K8H8QPb0dMavu7AGueZzv7fW0e9tBYnbXZB4ci5ITOxFzjk/p+1Cd/DPVaPR8M/VgvcDkAwEiV3Tt8Fi64Kq9QpfnrBq6er1ejPgU7hG0nDRW1hW+G5y0ZxD5i63L/VHoOirEw0ntUBambv+VNnCAWVuO6aoNF47r26JukrxUlQtAt2XGcgSJgILmHvjEklFV9tUsVgsq4fcz/dhYmSt1yyDLaEYHh72i8jWcyPh4U65XPaLKMLEFhPod19SkRjW3Jk9Vsst9L/RP1cAusUfw6ampra749dxgsSuaQaLDxR2PrXYBRppkc3O+EVE206d1ttL0LoYKKfwz1N8iLlDWJLZ2Vm3vmxs1lf6A8XxUzmqE4GUuuGbzYrEzF2fb1YoRqWb1YltcahSvBRVi0DnTMa4feeqg42f3jguAAtoDgJENnjlBs8OKQS291WQC+HKYGBhfp6fZR2H2hU9Zyo/ejThFYkA+lDrGLYhXRdDxIuVdrl1+60HCjtSP1ZtzLD7e20Uc0j6Dg33CYv6u79rdniLKnzl4sYl8MflarWaUzTnlFOti2AvkvpAMVPTHqoTgZSZN0+i/zhq9vSMui1uVYqXurRqMTswIAAL86H8qpE1R2Y3/YNxAViQUSbqllDPKATuDVpJEbY9des5yipQIFUuqejZLwBIkI985CP666mpfe4Y9jVxMUSvGV/56dugprlasVarufzUhnJOfSkbXUiWKNFXvlFJupjnn3/e/VvPKwJW9sXLfT3dgeL4qZy1zUlFAaSBnyfRtzeNaJ7Ey7HVuuz5qnohjlWKl2pXLa6+4Qatvv765se0RAXezO8XLnw/cu62W8cEYEGtgZW8ImKkiV63O53PDSg9pujkC4X78wLQkd27d5tWVSIVPQASpVWVuPb8uR8fa8j6Dg1UDIVnQ/qrFbNRtfcf4Rx3YRFXvnm+7elDwoIGBgbcejLbFL4rXhCQ6kAxU62PU50IpIN5+7Nz8yT69qYx0vjBBfVK3KsUL5UdHLyoanFgbtJgoO/5oP3q6649cvYnbhoTgEUZNcYVoYbqRxSuoiKV4cpgIKD2QHytOvtFqhIBJM28ymqqEqPTrlb8YtqqFZ988kkNDg76QDGKbhxGdOJYUJSVb/OM0vZ0YbVazf1rItqWs6XLfTW9gaKvTjSRt0oC0Kkbvtlsb5rZ8u8inSfxcprViT1odzpfEqoUL8cHKNdcd93r4SJVi+hXK6+5RlevXnPkzNtvGBOAJYrkCsy2crH4uZJCVCwW/UBLSRExMrxnAgLwYaIbiN/AQDyAJPItTs9WKvuprI4NH+z6UHFUKWNlw75Yr8lE+54iCeJQIejCxFrqtvlu8Rd9VKvVvKKpHC+33qe+SWoDxWZ1IoDk8u1Nf/KPmvMkxqW96aXsj6bVa0mrUrxUuyWqDxZpiYp+4rfza669VquGrz7yow3XjgnAkhQK9/tquZwi4gY8jioCViaS39tCSyhgmeaFiQzEA0gc36b5wrmzjzZkHxXipHmRSqHwodRUvA8PD1v37jiq89zRNM9R2YkYtDttMxllaXt6BefOnTNSI5LqRLPABa/pDBSpTgQS7fX2prcdU5w1zs4qDEmtUrzU/JaoV69d2wwXgTTy7X59he7A0NAUYSKwPCby9puZQ4rGhKJpB9VklP2UACwJYSKApKJNcyL4qrHfTcu8irlczi+ianvq1GntfxkxaXfa5BJnnqMryGZnoqq0tQ3Vn7jSf6YyUKQ6EUio4R/Gtr3ppRqVGanaUBh8leLMa88oTQavuqoZLo7ceCPzLSJVVq1Z0wwTM9nslG2Y7QKwZHNXEEfXftO9mS0Vi8WyIuB+byWqdlAteeYvARZHmAggqS45fuWFOPPzKh5IQ6jot7vBwUEfJk4pfD6c3SG8Sa1WM5n4rBu6pVyG33empzM592EULWErC00Dkr5AkepEIHl8e9O7/lTZf/JvYtve9FKN18INPNNSpXgpk8m8ab5FwkUkkW9x6tv6Dg0P+0+bYWJlw9rIqo2AZIr6KlkzoUhlioqOb6dDpQKwAMJEAEl1yfGL+cqSwYeK4w8Udv6Bks9aNZ5QNEa5aO5i/nhgrR2JUWWgex+SiaStZ5xFWUXqnpAF35emLlCkOhFImBu+2QwSM3d9PvZViW32fDW06sS2xuwPNP39LyjN2vMtEi4iaXyI6MNE39ZXhIlAYEaZKK/C9vtslPMY+irFkiJte2q4ghtYwAsvfM24wfinRJgIIEG4GCLZXOizN+mh4h133OH+zUZ14ZwLE2uE6PO8/PJfKi7tTttMhF1qYsxX2EYxv6S1ZuF5T9MVKFKdCCSHr0r8yT9S9mcea7Y6TZJmu9MI+CpFWz+nfnBpuLhq9WplBwYExIkPvH2Q6Nuc+mpbESYCgRUKhbwiHOQyzTyvGPm+a2UeU3RGaTcEXN5YoaDZ6eZFDwxKAkgMwsR0SHqoOK/taUnho/rtEmfPXuOCKhO3dULb00tkq1W/yCsC1toF591KVaBIdSKQDObWE3NVibcdU9LYal32dDSBog8T016leDk+XBy6+mqtvuEGKhcRCyZjXp8rsVWV6JVdmLiLMBEIxqgxpgg1VI9y/sL5Dik6DLgAl7F7925VVN9rZRM/l1UvnTvXvPCR8yAgJlph4lrCxHRwoeJYkudUXLFihbUyTysCVL9drFaruX9jFyjyPmSehx++X9OqR9KS1h1rSotdaJueQNFXJyqzTQDia/C8Mvd9pnlLWlViW+MHFxSlGRco9kuV4uXQFhVR8+1N19ywrj1XYlu5VZlYFoCAIn1TW15o0vkwtd68lRQRP+DCPDPAxarV6gajzKeEBc21tCNQBOKi1aaZMDE9/JyKB5IaKr7zne/0i8janrrzWzoMOGNjY/68Jq9mK9h4iWHVZGQirCK1xmQWvdA2PYFitVFwW15OAGLJ3HZM2cKBZnVikjXnT4zy9/dpleLlXC5cHFy5slk9BnSbD66vufba+e1N2wgTgQ4VCh8aU4Rvat3gzLhiJOK2p+55qI8JwOuMGn7wNicsqNXSrixCRSByu3fvNrPT+l3RpjltmqHih3ftSlzFnX+NyGQyZevePyt8bpCoEUm1V9zMzMy4oKoR1+0nR9vTOe55cv+aSArnFmt36qVmQiqX2u4TgPgZ/qEyW/6dzLq/U9I1506sNhQ1X6U4dO02ZYauF+a0w0V/82ruxXfmwoXmslGvCwjKB4lXXXONBoaGLvffhIlAFxhFPgf6om+aQlbS3IB8FCGrG2TI7FC0rVeB2Gi1ScsJzsCSgkIre4TxGSA6fs7XM9XqARc87Ve6VFwYVXHJUNm0QqmG7Gm9+SKGkYzMGr+0c7ecSddx3DRs43ChUDhRLBanlCBZN27TaNSOKoLXCPe6dJ8QaVC1BL7taV4RdmuJA99qv1qtjkZ03Jpyx5XyYndKR6D466+NUZ0IxI+vSszc/flmq9M0sD+Ktt1pm69SPP+dI7r6Hf9P4fJ8+NMOgOrVajNYnJ2eVm12VsBSLBIkeoSJQBe4wZCce2XLKyKtOSLKihHf9rRQ2BHlgHzePy9xWy9ARHJC0xIHrt1h1bfKsgSKQAT8vFuvvlrfZZRJ9Jyvvoot487RGjL+uOPbXJU7OS9pD9CreUxvjLrAcZP7HXnFsO3jEvl2tk+587X3J+l8bXh42FYq1aMRvUb489uRxeaGSzPf7rRSqeTjHLC79z/+wsZx9bEVbiyq1ZY2dFaLVyd6qQgUjUn2CyWQOn6uxK3/PvHtTefzrU7tTHwq3aqVv1T17N9o8Jp3CQvLDg42b0NXX92sVvThYtUFi1Qv4nKWECR6hIlA1zT2Ny9GjYyZUCxlihEOyPu2UGPq8zfzAN7gDgoTS7nfk08+qY985CPHz5079wk32P27AhAa31JyampqQ0L3PV95WGyo4Qazs8Vuhz7+2ORMtW7NefzmhYzb3Drz7TDzShb/XD/llu9WQkxMTPj1XqpVZyPqxFH3z/OE+tQb7U5jPU3QaL9f2Dg7O+svGNih8Fn3HvDoUu6Y/DkUf+M15k4EYsSHiGmYK/FSzXanMTP98h8Jy9NujernW/TzLq6+/nqtWr26GSKhv7XnSPRzchImAuGJaLL5Nn+1+6KTzkfBPa6SImz3456XjwsA5pxqyPzWUu/82c9+1s+l+KiV2ato5soC+tJzzz3nB6G/qARVVvtOEe5Ysd3dNjxVPLq3WPyTibAqyHzI6Cuv3e2xTaObm48hgcetzQ8UdiQqQB4YGPBVUEsKLbrMZJTp67anMW932ta+sLEv+QtDqtVqTtFc4ODeG3+utJQ7Jr5C0ShDKw0gDgbPy9z9eWVuO6a0sdW67On4BYq1s39DlWKH5lcv2kaj2R612RrVnWjVazUh3UzGaMVVqzTkQma/HSwBYSLQRYVCIe9eZXOKiIn5/BxuUOsZE1072JFC4f78Ut9UAkitU+5Y9NHlVgq0qoEmdu/ePeEGxsYysjtbc5n5ipTQqlJMyL9vPkuYekUpm88uFprzJjYavntbTvFXcceVx9zyUFzaT/pBfM3tsxNjY2MTc20hrV+fecWcnyvTnbM9nZRztqGhIXvhwgXfGjv0OdTdcdlXKH5UfSjiefmWpZ/nu3z++efdv/V8FDWAy3lvnOxAcfxUTrXo5lwB0HLDN5Xd+u+l4R8qjey5+AZL50/+/7T6jn8jkx0WOmMymYvmXvTtUOuzs5r14aJbEjCmh69GXLFyZbNa1T/vS0SYCHSZaV59Gl3LncbcYFacHXK3qKZ2MEbZTynmoSuAnjrpBqofWOLciZfVDhYVQYu5ggtY/q/27jY4ruu+8/z/3AZAUrBC0JTlGU9m1XQV1zND2YLk3arJi5Wa2tjjZGWpqRhTk3WtBepF9tXYkt8ktXFZoJw4marEpuaNtvwiainr2BXJBsSyrcTKhvDuG9fGFUHeUFuOnGHLTrRl6wEtUwABdPc9c06jm2qSeOiHe885997vp4xuioJFoh9u33t+5///a4kXzMKkj+OoWbdun2ZTxvX+Q7WqNkXHgsR056Kd7AZgIQsuSNyJbctpLJuQcbnbQvZPJOxg0Z6z/Yk55t2RhfmA5XLZtua1nys+2p4WecOcrfwLvd1pT2HnXU5MTKhW00sVqdYqGrhyONOBYtRsL5gfVgD4oz78TC6rEvvFr69LqOKt12TjZ8/Jofd9QpAs2x41OnRIJs2X1QsYe/MXCRizpVeNaIPEfVqa7oQwEUiYnY3hY2dyn5VxFsldsBfRp6r3LYu/RazZol7MA4Eyi/HSez/aeWOpvDfNf7ceS/tZs+C6JACC1p2beKQbegXLHFeeiEV9NkvnFN2qxYtzc3MnbaV1N7AtS5iORRLbjWCflcDZx9U8po1Wc8ueh1fELfNSjOy4hWUpmLZZz/I8amJI7XnZ3lxZKK3OOqOf52lxcbEAgeLCalm3vC5CAMU2/YaU7vyKyJF/lDzT602RZtgbKDdNoHjwvb9GlWLKrg0Yey1S3wkYm+b3tCAcY4aIPQ3CRCANflq59GhRmbhANX/PMz7bnhb1Yh7wyZxNrpij44pZfLeLra+Yr04lB+E+gGtduHBB2SDJnC+UJUy20vnBxe3Z0JnUq7SuVqs1c78QaiVollqfTk1NaRPSnvNxjqvCnyGYuO7Gg3KG2k0rJdG9UrBrkG61eUV5aNU+7FzT7Jb3bdlFCAA+qA+cl9Kv/2Huw0QrboQ3O/Faur0ml//pGYFbvRaph268UW686SaZ+Wf/XH7pPe+R6ZmZTivN0kTmxxRnkg1+D0xPy41Hj3aekxsOHyZMBAIUwBz070kGLG0vwPkKEXoX8wBSZGftmYWcx8xi8EnzdWRp6dnbv7n07Gnz/n9saVudMBHAtWxIYEKZsg2SJEDmuHbW/N3uWMpwmNjP/BwyMzOzYH6muyXMGam91qde5sYO4/jx4/auJn7MbndKKY6XX37Z3lUlWypZeC0naW1tzbal9VGdqJUqDdWVIrOBolJR6L3BgfyZXBf1K38q0Yef6fw673SzLfqt8ANFa/Pnz0nz0ksCv0qTk50w0YaKv3TzzSbQ+medYOuGX/olmTx4kJAxBbYK0c5EtI/xYfOYH37ve8cNEXt6YWLQLRGBLDIXh7PmblY8MVdqNbtALxmh/c56rNhZMwIgaY1eiGgCxGNLS+cesovuBIcABvXDH/7QBEj6ryU82hzbHjbHtYfzdkyz8xVnZ2fPd0PFEK8Tj5lAIsiAuZ8NwycnJ+1rY1m8aGctXBtLu33JHis+JZnT6ZRSGKXSprcKWq31UJttsxkofu71qnmEywLAnSP/2KlKjI59X4oiK2Fiz8arVCmGplfFeOBd75J3vfvdnZDxyPvedyVktJV0NgyzoRgG0wsQO5Wh5nE8fPN7OxWi9jGOkgtsCROBFCnPCx1aRVmbC7Ys/vRmzQBIRsO2MjZfV0JEAYAhzc3NSRw35yW8Foar3arE3LYqtGGY+fkuHjx0wx1a9JMSGBNIfDoLFXjNZtMGzz46hhSqA4d9vW5sRGXxuJlzRDxPjmhzrTnsZttMBorm4MjsRMChTovTX/uDztzEIslCu9N+rUsvyVbjbwTh64WMtpKu1y61v5qRoPEdtqpz6tChzuNiW8rax8o+ZgdNoGgfRxvaJowwEUid19kl9WEGzoegGzgsiyf22qtoLYeAFPQFiUsLVCICGEe73baL7Z+XsFzshomFuI762te+Ztbho3l7bJewHIlEf0kCNzk5ae98nZPPFuXc9sKFC7I9uz6TeJ7SZ45j8TkZUvYCxYXVsrmsLVRpMuDN5LpEd35lu8VpwehLWyLNWLLm8k+e6sxURPb0VzNeGzTaIO1dR450QjQbrtmwMW/tU+3sQ9sW1oapN9iWseZnttWctqpz2vzs9nEpbV90pIowEUhXtfrxefG4m175rfYbmVms8hmCzijV9hkCA5nWnSNGkAggEfNVsyQax3YMVFnCYcPEu7PUUj4Jdq6isRBaqKg7EwbCbln/9NNPSxRFK9rPPEoTUrWyVrE3Krv5IIPtTjtmCtSe1uPzVFqWIWUuUIya7QUBkL5ui1P1yy9KEcU2UMygeOs12fjZc4L8sEGjDdImTZBo23zacM2Gjb32qXZuoK1stIGjreK7NnS0QZ3/n0FdCQzt383+HW1oaP/Oh3s/x3vf22kLa8PUAzfc4CQ8vJaO49OEiUC6zNHAa6eROLxd5IOqmS9fQYQSHX1GAAxrdXtGYv7miAHww7bFMweTY1p0SJ3bChkm9thQ8dChQ2cCa39qwolSaBWs1yl11iq0j01zhWjpb48XzWazbH5ZkWxSkUR3Ss51nydbiVkR9+qjVJVnrrxBS8TuWCBltsVp9KHvdCoUi0g325mbn9hv0wSKB47eJdGB9wjyz84NHHR2YNxq2WHLNjjr/HO73d7+/e59//ftxwad/e1Ge8FlZC5d7O9f+eeMVFJuh4k31QRAarbnueiKeDLKfIhQ2DCiWr33WY+jHyq25RChCDCwF8wC+/1FXWAHkI76yoqtDHlAh1OduFrkMLHHtj+dm5s73Wpu3SLhhDcVW6W4tPStZQnU9PS0bjSaJlDUzjeudc+pH5Yce6eNZiYn3nVsV9tWP5vna5BXX/2BuVUVH8/TqN17svWK+tzrVfOTlgVAOkyAqD78zHaL04KGiZZe2z9MCZltebpWf1yAa9lwz1b+2daqnfaqN9zQ+bKVj/1ftgpyvy9bSdj//+n9t2wlpf1vDxN0+kaYCDgzL16pmmRaVBN/zPVm/JAA2JcWXWOBHUAafhFFKqDqRG2OdQ9yrNt24sQJ+3jcL35aeO4k+CrFWq1mZykui58uHDOht4VNQJbbnfbkvj3tpUs32m35PipmdSztp2QEmQoUPe7IBfJv+g0p/epjEn3gvBRd/Hr2w9TWpZekab4A7I0wEXBH+V0AswsVPucQjs0s2C2Lv7an9los6wsSQOrMQv+ZpaVzp6nmBZC0ubk5iePmvARSnWiOd48udYcIYrtt4ezsbKdiUzyer12jst0hJFwTExP2teSr7WlFcspzG80k5b497eam7ZCnfHTkbIxawZydQHFhtWwe3KIM4gTcuvnvO/MS7dzEotPrTZFmLHmwfvHxTrUigJ3pWD9MmAi4YRYzKuJxAUx18rjsL/CbRarHxJ9yAXZyAyPrhokLAgApaLfbttooiIozc161yPHuejbEmZyctDMlPythsB0mgp6D3Wq1tPkE/Z54oETldj5ft91pLnKUPBeYbW8UiW0FZlkcs9fHMqLsBIpbtucvgKTZeYm2MrHILU77xY3szk68Vrz1mmz87DkBcD0V6zONY0fPCgAnlMTz4lEs7SclH3wet3K/QxgYlQkTz7K4DiAtv/Vb99jqRBsOlMW/i3E4gVlwnn76aRsq1szngs9NYFfYMMbOwZZAnThxwtyWbLDhY+NfJeTHZhwmqFWRRPdKPuS2Pe3U1JS9q4h7Wqto5CA/M4GiUtEjAiA5dl7ir/zp9rxEdOhmW/Rb+QkUrY1Xn5F48zUB8A4bJr557OiCAHBiu9WS152l9VHbuYSmW2W5LJ6EvigFePKCCRMfFgBIyWuvTdpwIITW41pUdIa5iXuz8xTNkvsZCaP1qTlva89LoLpVnfZxWhEv8lHFd63tVrKZb3fak9tNjVtbW0qJ9hL8aj16q+FsBIq/u1oxL52yAEhGb17ise8L3qHXWpJHa/XHBcA2wkTAB7+dRrTEQewQT4r5eXxWWwa9KAV4YFvb3S8AkBIbuJiF37IJB7wHH+bvsLK4uJiXrg+psc/ZzTffbOcpPij+2Va5QYcxU1NT2jxW58Q9G9Tnru2prWhuNjfs8SI3mwDz2Pa0O+eyLB6CX3MsXx5nHEgmAsWIi1YgOUf+cbvFKfMSr5O36sSe1qWXaH0KCGEi4ItZxPA8u6U08nyIMHlrC2XZRam8tE8CxmUXQO+nUgdAmrqz0Crin1mDZgPFoL7yla/Yyjt7zrYs/lVCbhl5/Phxe1cTD0II6pN26dKN5nxd5a2iL3dtTz0e27VS0VgbQzIRKGqJ7hIAY1PHvr8dJk6/Ibhap93pelPyyrY+1e01AYqKMBHwY7vdqcyKJ93dl3XJEbubVIv2WR1g5814e06BUJj34aPm/eipRRuAoiiVNu1mnk+LZ8oEPmygGM709LTdePKoBCGqSKD62p4ui3u5C6o2N22xhMpblqJCfg2PwuecS631yPMTrfADxf/t9XnanQLjUx/8jkS/8qed2Ym4XvzaZckzGyau/+QpAYqIMBHwR0m8IF6pmuRS5LPq0lzQx7mcNwMM4eLS0rkFAYAUzc3NycZGZDfx+N7Io+NggrHsqNVqNihblgCqFJUo76H0XprNpg1fxwo5RpSr+Xzz8/MSx3HF/LIsbjjrmmJewyHMkU2MxzmXK+NuDgk+UFRR7kp0AeeUCRKjD35bsLs8Vyf2bL3xPWleekmAIiFMBHzzuju2bi6Wcjnnx/xcy+bOW2VU6ItSQMrMmmd0RgAgZSZkMbex93VRqhNHF1CVYtCVeDMznXF/PgJFyVN70M1NW9EcO5s32O2a4ipULOelS4oNfs3xvSIe5lya52zs91nYgeLCatm8rdn9Coxqcl2i//GsRMe+L9hdJ0xsxlIE6xcfp/UpCoMwEfCrWv34vIi/TiMqjJk1qTGLU8+KP7lrDwUMob64uJjLzQoAwnLwYBzCLDSqE8cQUJVi0JV4fY+Tjznh5e6Yhsxz3O5Um9dUzeEohtx0SVlbW1OeNouY5ywe+xoy7EBxK4ihw0A2Tb8hpV//Q1HvfVmwt7ixKUURb70ml//pGQHyjjAR8E9J5Gx37E7M4tdjkm9nxR+zwFn6vADFQ3UiACfsXLmNjagsntud5nEetWuhVClmoRLP35zwduaDKg/tTuszMzMrJl5ytsnRvIbvlBwolTbtz+Kjk099aelbyzKmoANFFfldhAAyy4aJv/pY5x5708226LeKEyhamz9/jtanyDXCRMC/7i7fivhj2516awnqgvn57A7uZfGnYp5n5216AM+oTgTgxIULF8yt90ILrVTEMW9Mnqvv+gVdiWeDV5fhVB+lJLpXMs511ZsJf5/18NquZL2a1OdmkaQ6+IQbKHbanXpdhACy6cg/dioTCRMHo9daUkS29SmQRyZMfJIwEQiB3wUwLWpBCsD8nD4rpeyixUMCFAfViQCcabVaKvIfcrCJIiHNZtNWKQbQPSPcSrxyuWzv7IZAH8HrbNY3yrXbbZdVqFdaZ05MTHTCRXEm29WkHjeLaK2SCezDDRRpdwoMTR37vpR+7Q86sxMxmKJVJ/Z0Wp++SutT5Es3TJwXAN4piR4Rv8YeNp8FS0tLy+Jxt3te2g4Bg9JaF+LYAsC/7UV6v4UWeZ9H7dLsbKcYyXegaEPqD0mgbOXWoUOHGm7DqStMmNjy2l54HHNzc7bdqf37l8WNK60zDxw4YCtLnc1RzEE1qf0ZPiUeJHUeG2ygSLtTYDjqA+cl+pU/FQyu0+50vSlFtWECxfZ6XYA8IEwEwlGtVivi7mL2OnYRokizfvzNmumoVKv3VAQogKIdWwD4Y8OBZrNpwwGfFVM6lvZTgkTYsGxyctJ3u3obUgdd3dVqtcxf0cvmHZOfR8HPmNzN1NSUvauII/2bDTxUlmZ27II9Dphju/27V8Sx7nlsIs9RmIEi7U6BoagPfkeiD1NtNix9qbhhYs9andanyD7CRCAsSuJ58Uip0hNSKNGS+JPpxRdgCNocW3y+1wAUiOtwYBdXKpCQDPO82ran58SvmZBn0J04ccLc+vm8VaIyW9zUbl9SSrSrqrerNhv4qSxtz0sGvfrqD8RXu9Mkz2PDDBRpdwoMrBMmfvDbguHFb16Womuvv0LrU2QaYSIQlu3dol4vxu2sHx9tkrzptj1dFk/s4kvWZ84Ag6DdKQBX1tfXVSTaa1tx2p0m7/jx4/YugM0p4a67e67knMli5w37mG1sRGXzS1ctW6/bbOC4sjSzbU8vXbpROZxzeZUkz2ODDBRpdwoMhjBxdHqzJdKMBbQ+RaatvNn4yUMCICBtr22Uirr4pUX5DFFnfD/vgAMrtDsF4MqBA23bmrIs/mitIjZRJMwGP1EU1c1zWxd/zOmyuk0C5rGS03beqEjGvPzyy/bO2bn4TtdbfZWltD3dw+bmprlVd4l7iZ7Hhhco0u4UGAhh4njiNzYE73j7x38sur0mQIas6FidlNtvd3XCCmAASvxuDIxFnZFiqom7C/hr2V3CrlosAV6o7dlAAJC6brWRXSh3VW20I6qy01Eqlcyt9tpNQ/kJNAbms5LTPDZeK4NHsbW1ZduduqrY23G2al9lqcPzpWxtaLSzceM4tsf1sjimJU50Hm54gSLtToF9qV/5U8LEMel15if2i7dek8v/ROtTZEYnTGwcO0KYCASkO4+lIp5okeWiVhCZn7vhuTozk7uEgQFRqQPAmXq9bu+8honSaWlIVXZKbGvIF8WvsgTMhlMHD8Z18bOZJ1PntPaxajabZXF3DbbXbFWddHC1h8xtaPQ7G7e0LAkKLlCk3Smwt06YeOz7gtF1wkTanV5n8+fPSfPSSwIEjjARCJSSeEG8UjUpsFjUY+KPyTNjWlAjt7RuviIA4IAJB+yd3+pE/4FXbnVbQy6LXzPdjYDB2tiItL+W/tmpfLtw4YK4nIm51wbGvranrsxmKfx1XEnaz24QSTScDytQpN0psCfCxGTEjU3BztYvPk7rU4SMMBEImvf2SYWuIDIXisvir+2pbRH1aQFya4KWpwCcsIvOZtXiFvHHVtBRlZ2SQOYoilJhz1GcmenkRD5ehyqSKEttT11W6tmODbuGvH1tT5fFDfMiafmu5h6Ih0rSK9LoYhNWoEi7U2BXhInJod3p7mh9ioDVTZh4ijARCFO1eo/dyVsWT8yFUo3WXHYF0GuV4ox5HVQEyJ+GbSssAOCIEt9hj2YTRYq01nZB3utjrHXrmASsVqvZcGpZPGyWM2FvJioUPYRUjcXFxT2rRqempmxl6Tlxw4S/pUy0PXVdSdrHzrx8UhIWVKCoInWfALiO+uB3CBMTQrvT/dnWp1uNvxEgIPVuZWJdAATJXMx5HVuQxoVSRtXEH3tRT5Uickd7XvQFUCztdtsed8riFVXZaTKBolnk99pW1lbhfUgyQIv2cY6fiU1yHtqd7tvO9Pjx4/auJo5kJfxttVr2Peej3Wljj5mXIwtshqLKTI9iwJVOmPjBbwuSQbvTwaxf/N8l3nxNgAAQJgKBszNYPF/M1dO4UMqibpXmsnhiXgeVLM0yAQaj3xIAcGQqju3CfVn8oSo7ZZOTk+ZWe53NawLNIxK46elpc2oZ+ZijaN6CUfBFT45Dqj3bnfb4aHuahfB3YmKic50kjumU2leHEyh+7nXCROAahInJo93pYOwcxbX64wJ4RpgIZILfsQWedi4HS4vysfDSY8LE9rwAORKJWhUAcGBubk42RLzOBKMqO30nTpwwt6Vl8ch/W939lctle2dfj84DbvP4BB0o2uBOaz3jclOn+fMGCqdctz0NPfydn5+3rWkr0rlOckorVdq3qnQUwQSKkc5GiSrgCmFi8mh3OpzWpZdk42fPCeAJYSKQEUqiR8SrqCboVxMPCy9dSvlp5wOkJhb9EwEAB6anp+2d10p/s1BcF7jguwo0+I4SfdVuPkLusu3CIoF69dUfiMtNnVr0s4NWLrtue2rCX6+jN/aztrZmQs/YS+g5aAg8rGACRS3RXQKgQ33gPGFiCmh3OrzLP31SmiZYBBwjTAQywlxoV8RjWy4tstxt84kue7HvuWqzkoXWQwAAhGZq6nVz2/Ya9LCJIn02KIuiyJyveQ1vZ7LQpt5xtds12sEWP126dKNyWEU5VKUbbU+vVipt2tDTee6V5nVyGIHiwuqseWTLAkDUL78o0YefESSPdqejWb/4eKcFKuAIYSKQIUriefFK1QQ7iFJpbzMg23qoIgAAYChra4fNbaks/pg1aF0XpK5UKtkTprr4FXyg6LrarU/QXTdarZa5ddeWVWs91EgF2p5us+HqxkZUFvetrM2xPE7t8Q8jUGzGtDsFrCP/KNGv/B+C5NHudHTx1muydpF5inCCMBHIkO1dzV7nizSWlpaYn7gD87gs+9z1rkR9WgAAwFDW1uxG3viweEWg6MLExIRtI/mKeNUqS+A8VLv1mw2xitP1TL5updtQLXq7QbCzDY6hzry8cOGCuGxNe7VSao9/EIGiUop2p8D0G1K68ysik+uC5NHudDzNxg+Yp4i0ESYCmdNpA+TtIls5vEjNJuUzbA269RAAACE6dOiQOb2hg1sRbFeY+Z6jqMqSAR7bnprrnJbryrJ9bW5uKiWxq7mBWqlo6GuKbhBcF3dBcDnQaw9b6fopcW8lzbEg/gPFhdWyua0IUGQ2TPzVxzr3SAftTse38eoz0l6vC5ACwkQgg8zFkasL2R3F0qY6cW9nxR9z8Vz6vAAAgIFtbGyYhVrluUJxoi5InQ3JzLK85wrFbHBd7dYnyFaaJlA0t+6Ks7TW35MRNJtNGwSP9P8dQXAjF2yoah4Du/m2Io5p0ak+7v4DxS1fZZ9AODqViYSJqaHdaTLsHMW3f/zHzFNE0hqEiUD2VKvVsvjdFFhfWvrWsmBX3dZEy+JPJcQ2UQAAhGq7Dab3uXaeq+aKYWtry9y2fT/WmThPs8FMFEV1H+38lSivGyivZdudxnFcEUeVzN12p3UZwexsp7jT2QZQ81zdKQF59dUfiKd2p3Z+4lAzL4flPVCMFNWJKDb14Wc6sxORHtqdJod5ikgYYSKQUUriBfFIi1oQ7Ms8TmfEH2XOHB4SAACQGcPOSsNojhy5bO98PtbmPE1lZuNXqVQytzrVkGQXQbXxz0K70x4bBB88GNfNL1fEjUp302sQLl26UXma7Zj6xlvvgaKWiPmJKCz1we9I9IHzgnTR7jRZzFNEQnphoquTSwCJ8j4D3VX7nKyzx1hvi1XmIvpeAQAAAymVOpuhqe4vgK2tm8xtyXd467m97uCmp6dti1gfgWJQrTSz0u60Z2Mjsm1PHT5v7aoEwvVz1aMcdKjxGyj+7mrF/JRlAQpI/fKLEn3w24J06c0W7U5TcPmnT0rz0ksCjIgwEciwavUee6FWFk+06GfTHDKfJ7bKwDxePmdNzoa0qxsAgJBtbXlveUp1oiNra51RMl4fb//zOgdXq9VkcnJyWTw8ZqG00pybm7PtTm0f0bI4ME67056Zmc7hzNkcRSVREJsZXT9XfbRW6QfvnisUOw8sUDzTb0j04W8I0qd/sSVIx/rFxyXefE2AIREmAhlnLtS87vxUqvSEYAjRkvhjd3X7aPUDAACGR6DoyIkTJ+wdj/cQtmeMeml7GspccDtOIBPtTntsEBxF0bLD+ZdBPFdTU1P2riIejFtVOgivgaJSiotLFM/kupR+9bFOqIj06UsEimmx8xTf/oc/EmAYOm6fIkwEsmt7LoVydSG7k/ri4qKPhYTMWlpaWhYHrW92o8zrJZBFGAAAgJB4DRRjyVbXwAMHDti2p546b/hvpWlbIqsMtTvtiePYPG/K4fPWnhfPtra2lBLtvFqyW1Wa+nHFX6C4sGovKisCFIz60HcIEx3RzbbozbYgPe31V2T9Jz47qSFLdByfbhx7z7IAyLB2RTxSHoOxLHM7u+Q6MyFc2AMAAIRiYWFBDlKhOJRyuWzvfMwHV5FEXtue2tfLxkZUNr901e1xJakRE0Vre2qfq2azWRb3uVciVaWD8BcotvwuRgA+qA+cl8h8wQ291hKkb/Pnz8nGz54TYC/bYeJNNQGQaeYC7RHxKBZ1RjCKmvhbtApmngkAACErlUp28xQzFIEd2KBmcnLSvkaddzzSIl4rFF9++WV75+rvoLXET0lCPMy/9Nr29MKFC+JrE66LdqeWx5anqiJAkXTmJj4jcEe/tSlw4/JPn5T2el2AnRAmAvlgLswq4rc1UmI7ZYum2/rGZ7vpyna7XAAAsJtSs2nvvC2EawJFBG5qasqEXeqcuDdTrd5TEU/ct9AsJT6DXYt22fbUWwDcarVsRauPzZTOrpW9BYoue/4C3vXmJsKdtvmoWm8K3Hn7x38s8eZrAvQjTATyQ0k8Lx6ZxYOzgpFpv9WdSjy/fgAAAEKyFUU2xK2LJ56rYUdy/Phxe1cT98zDFd0nHnhooZl4MDU9PW3nX7oawWC7o3xKPJmYmLDv64o4ZlbBnQXtfgLFhdWyuOv5C3jH3ET3CBPdi7dek7f/4Y9Et9cEsHSsHyZMBPLE+4ZAV7M3csksDCyLx8oDJerTAgAAgFBkLlDsa3u6LI6Zc1kvgaLrFpppBFMe2p7O+mh7Oj8/b8Pfirh/b9nANvGq0t34CRRbbcJEFIZ6//eZm+hBfGlL4F57/RVZ/0lirdaRYSrWZxrHjlJNBOREtfrxefHY7lSZ61DanY5Pi/LZMsNrqygAAABknwlsbNtTHxsNy55a+LusuEs1mHLY9nTGR9vTtbU125XFR/BcN9fKzsZbeAkUI+13kCngjJ2b+MHvCNyjQtGfrTe+J5dfZV5okdkw8c1jRxcEQG6Yi9gHxKNY2g5nbuSas52rO1CRlKhSBAAAwMgmJyftnav2mddwG1J5aHeaWjDluu1pJNGd4li73fZSyaocV+x6CRS1im4ToAA6YSKtTp3Tmy2RZizwZ8MEiluv05muiAgTgfzp7sStiD/mwvZby4KxdRcIlsUTO0/ER/shAABCZ4ODDY/dIKzI4zw/YFBPP/20RFG04mH+pK0UvFcc8tDuNLXAz3XbU925jHV33WGP4XEcl8X9cVzH0nbaKs59oMj8RBSEbXVqv+CeXmsJ/FurPy7t9bqgOAgTgbyKHxKP0rywLSItyufjadsPzQsAAAAwolKpZG69XCM4nc3XarVspZ2rENNWEKbeFcZt29OWswzKdfjbp+F68637QJH5iSgCWp16pZmfGIxLP/qCxJuvCfKPMBHILx9tW64WMY81WTVxtDN4B853dgMAACBfHLfP7DejlLpLHLAVb1rrGVtpJ26kPofPddtT82e5vI51OevyChPQOm8P5zxQZH4iioBWpx61NfMTA6LbayZUfJRQMecIE4H8qlarFfHYfstccS6bC9u6IDHm8Ww43Bm8k0q1ek9FAAAAgBG4bp/ZR2ntpgqtW/HmLEdxMYevXC7bOxtaOnnelKgHxIHurEtbuVoRt7RSpSVxzHmgyPxE5B2tTv0iTAxPvPWavP0Pf9QJF5E/hIlAvimJ58UrVROkIHJ+4dnH9W5hAAAA5MzExISX0QiuQirz8ynzZzmphhRHc/hs8Hbo0KGGw+dtxsVGxldf/YF4andqq1hzXqHI/EQUAK1O/Yppdxqk9vorsv4TpzOC4QBhIpBv1Wq1LI4umHdhd64yPzEFS0tLy+Kv7WlnIcbl/BkAAADkS6vV0uKh3aM4CqnMz2dunY2eqLuaw3fgwAEnsxq7nGxkvHTpRuVjTIivbj5uA0XmJyLnFK1O/dtoCcK09cb3TKjos8MakkSYCBSBn12WPaqTey15C73yTot6TPwxYWKLa0MAAK7GeQ8woBMnTpjbko+uGzakqkiKfuu37pFmc8O2O3WyAc9Fu9OePLY93dzctH+Sq2rSHpMnxufEA8ctT1VFgLwyQWL0wW8L/NHNtujNtiBcmz9/Ti6/+owg2wgTgWJQEn1GPIqlzS6UdJ0Vf5SS0ucFAAB02FaABz0HirHHudnAsOx7ZnJy0r5nlsUxE1LdKSlyXPHmpN1pT9/ztiJupFpROjc3J3Ec242SZXHOS6AuE+KQcp/UAs7Q6tQ/vUZ1YhZsdAPFQ+/7hCB7TJj4JGEikH/VatVcFGmvFWQmcHrkVPW+RwQp0eJZxbY9pQoVAAAAo5iamtLNZvOcEl0Rt1I9j3Vc8eas3WkfrSV+SklUkfT1KkqXJQXm9Wdu4/s6f4xbdR/tTi13geLC6oy0/C5KAKmZfkPU+78v8EuvNwXZYEPF0tR7ZOom9plkSTdMnBcAuackfsjDRdG1KoI8My8w+zqTBQEAAACGdPz4cVlZWamZX35JnGvblqQ1Sdj8/Lw0Go2KclTxpjxUeNp2teZ5WzIrufZ5S72tqxL1KUnpmmNyclK1mlvOFze16GfFE3ctT5tCmIjcojoxDASK2bJWf1y2XvcxPxujIEwEiobOIkhf9+IeAACgcEqlkg1znMzI24kWqUvGeWx7ap66dFqSbm5uKiVx6nP/upy2O+3x0Pa0XK1Wy5Iw+3M0m82yuN8Ia+cnFiBQlLgiQB6992WqEwOgN1sizViQLTZUbF56SRA2wkSgWKrVj88LM3TgRjnNmSYAAGBwPsOtIip1WiXymI/LBDpai3K+Wz2t0W6O2502PLQ77bDtas3zdk7csJ1R5iVhFy5cMLftirhX9/W8Wc4CRaXY5Yx8im79tsA/fbktyKa1H/+xtNfrgjBppZYIE4FiURK52hEL2JkmqezuBgAga7aiyHfVGOEWMmdmpvOy9dH+aibpjXG23Wkcd4qyyuKAORFfEk9su1pJoWXsbkwAfKckrNVqqUiie8UxH21q+zmsUKTlKXLIzk5878sC//TbW4Js0u01ufSjLxAqhmlF2nJaABRGtxVMRQBHzMX9A+Z1xwImAAAAhlar1Wz7zGXzy4a4lfjGuLW1NVtJ52qzndYq8tY200O72krS1xwTExN2E0hF3PL6vFluAsWFVRsmcpGI3GF2Yjj0RkuQXYSKQVrRsTrZOHbE9Uk5AL/mBXDLXCe25wUAAKAgbJiywYiBRGnRT4pjKuE5iu12O/H/5h4ai4uLXoMpx21PJclrDltN2mw2K+Ih89Ja+6jIvcJNoLjVpjoR+WOrE5mdGATmJ+YDoWJQCBOBglKiaXcK15Ty0CoIAADAl+3Za36LbyK/7XUTNT09rc1P5CMcK3c7vIxtbm7Otju1GUpZHDABrNdQynLc9jTRaw7H1aRXmBf68tLSkte1OieBYqRom4T8oToxHMxPzA9CxSAQJgIFZS6GK8JOafhhWxCxCRUAAL/oLueICcDsHY93Qsrlsr1bEfdtT412VRIwNTVl7yrihlaq5G1+Yk+W2546ribtMc9b5LwS91pOAkWtotsEyBlmJ4ZDrzcF+UGo6BVhIlBgSuJ5AfywO3wTWYwBACCrpqZa9gPR57UYAVeBxKJ/IjlhgymlVEO5C6Z6Eqt6a7cvmf+W/pQ4orX22u60J4ttT+3rLY7jsnjYjOu73amVfqC4sGo/jNhtilzptDqdfkMQBgLF/OmFiluNvxE4Uzdh4inCRKCYtlv1KNqdwhsl6tMCAECBtdsH7B3XYwWwtrZmbttlQWImJiZ0LLHDYOqK2XGr3jozNTeisjjKULToZ323zezJYtvTl1/uFBn52Ay5Yp63uniWfqDYJExE/qh/8aIgDLrZZn5iTtlQce3Hfyxbr3vffFME9W5lYl0AFFS7IoBfM9XqPRUBAADeJDUPDsHT5n+5Cq9PnDhhbr208ZxRSt0lY9ieqenseiyIdqc9Htqejh0Ab21t2WpS5zPgQ5h7aTloeRpXBMiT6TdE/csfCgKxwfzEvFurPy4bP3tOkBrCRACiJPqMAH6ZC/PS5wUAgIKamJiwC8avCHKv2bSdttQt4leuAkUPwVSP0nrsMNBWzrlsdxrUzn3zfrBtT139nWbGmXtpX2fm72sDyYq4pU2U531+opV6oGjeDcxPRK4wOzEstDsthss/fVIuv/qMIHGEiQB6O9HpKoIQVMbdMQwAAMbRKgtSZ4IvJd5nVuq65Iz7eXzb1BijI7oBVVkcBVQmlVoOoW1mv9nZzqWoq7DMvPfUfTKiV1/9gXjq7lM3z9uKBMBBhaKqCJAjtDsNi6ZCsTA2TKBIqJgowkQAHUriBQGC0Z4XAAAK6PLly2atX+rilSoLUtdqtcyivPcKxdzpzuPz0vZ01Nb97tudhlHl1q9bXVoXR9WlJgC+a9RNjJcu3ajUGIHkqJT7yttdpRsoLqyWxftuCyBZVCiGhQrFYrGh4vpPgjv3ySLCRAB9xpv5ASTItntyPo8EAIAQTE9Pm9voLfGLdVwHDhxo20qxsng1UZecscFUFEV17T6YN3lPVJHRFLrdaY/7tqetkTr0bG5uiofrZ61V9KwEIt1AsdWmdRLyxYaJU5cFYSBMLKbNnz8nv3jpt0W31wQjIUwEcEW1+vF58b6YAVylMuoObwAAsmxra8vctn3OtVMBzPUrhHb7gL0ri0ehtb1MShzHJk9UzneiK1F3ypBcz+MLsd1pj+u2p5GUhg5x5+fn7eurIu7fu43FxcWCBIpaESgiV9TMPwrCQbvT4mqvvyK/uPA7Em++JhgKYSKAq0QSOW/XAuzD7vDmdQkAKKiS1xlZkajDglT1hUg+q0F9BtepmpnpPKw+qvCGngXebXdaFTeCbHfa47q61Pw5Qz/ujYZ928TOu/toCauqNNVAUSnaJyFf1M1/LwgHFYrFFm+9Jpd+9KgJF+uCgRAmAriKueAtj3IhBaRNiXpg1LkmAABk1YkTJ+yd16DHnBtSHJKyer1u73w/znXJqVqtZufxLYuX99Jws8BbrZaKHLb7D7XdaY/j6tKh514ePBj7mJ9oguCSj7mgu0q3QpEPIeSMetebgoBsUaFYdDZU/MVLvyMbP3tOsCfCRAA7aFcECNOMUm02pwIACsVW6Bz0H/SUBalqNjub472umWvRr0jOmZ/RdTWeGna23gGtxdUGz5DbnfY4ri4dqiuKPT5vbERl8fDeDS0ITi9QXFgtC4N8kTdHaHkajLb50N0kUMS2yz99Ui6/+oxgRw3CRAA7URI9IkCYlOjoMwIAQMFsRZFov6HijO1iIUjN1taWCTJi37Mq65Jj09PT5m0UOZ85p0ygOGiXjd/6rXtkw2G7U/OaOyeBs9WlURQtuzoG2q4og35vtz1tRRwLMQhOL1BstalORL4wPzEoerMlQL8NEyjaFqjMVbwKYSKAHZkL3YqwAx1hq9D2FABQNFpru1jrdY6iUuo2QapMkOHzMTYZRb4rFMvlsr2z7yPXbU/NuWtroEzk0qUbHbfPDKtt5m5KpZK51a7C4IHbnrpuT9sVZBCcXqCoFYEi8uXAZUE49AbVibhe69JLhIrv6IWJXi9GAYRJSTwvQNjs7v2HBACAApmYmJDYb9ijtKYtfppK2y1PK+KVzvU6gW1POTk5acNE1z/nwG00TUBlv91VoLgServTHsfVpQM/X/bYrL28b0vLEpjUAkUTsbObBbmipt8QhEOvNwXYiZ2r+Nb/+x+LPleRMBHArrarvgZv7wL4okR9WgAAKBZbPfaieOS5ei7X5ufnZcN7mGhN5H6tYGpqSmtRzqu7Bqk6tK+DZrNZETfj4szjED8lGWHbnpoweFkcVZcG+Hz1q5sgOLj3KhWKALJpiwpF7M3OVVy7+Ljo9poUDGEigH04m9UBjGvgNkQAAORHyfe1HGu6KWluVyf6fnwbJqRw3QrUuePHj9u7mrhX3m8O6ebmplISO9zgmY12p/206CfFjfJ+1xvun69tSmRZApROoLiwOmN+4rIAQBra5mNlk0AR+9t643vyiwu/U6gWqDqOTxMmAtiLkojqRGSFiqT0KQEAoCBOnDhh7+riFxt6UrK+vm7ObfSd4pH2PKPTlb62p8vi3N4bOE1AZW7VXeJGZtqd9nhoe1rZ6xscP189OpZ2kJWl6QSKTXayAEiP3mwJMKheC9TLrz4jebcdJt6UuZ1nANzp7patCJARuvOyrbpuLwQAgBc2BImiqKH9hor7LrBjNP7msPXT/5cUhKe2p0pJdO9u/9K2z4zjuGJ+WRYHtOjvScZ4aHu6a8hvj8nm+SqLOC+eaywtfWtZApRSy9OYQBH5s3WDIAx6g+pEDG/DBIpv/fA/5rZasRsm1gQA9qAkXhAgW0yY2J4XAAAK4sCBA+bWbwiw1wI7RuNxDls/rVTpBSmIbttTH5uuK7ttiHPcPtNW+rlqHZo4h21PK7u1qX355ZftnfORIcrP63YgE5IC865wXQIKpE6v/gtBIJoEihhNr1rx4Ps+IYfMV14QJgIYnPJ+nm6uapciR7tNkYgZ7eEiuk9vl/dZAQCgAKIosiHAi52zJn86gUgRZu258k6QpMQnrbNXsTYqW112//331+O4XVeOK8yU6lx3Xde203H7zLp5D2eyxa1te9poNM3jpz8jTnTa1F53vbG1tWXet/pecUtrFQX7Pk0lUDRvirIAebN21BxFDolMXRb4RYUixmWrFbde/57c+IHPS3TgPZJlhIkABlWt3mMvksrinXr4mxmb41Fkc3NzqtXcelP87qav2FlOobb9AQAgSbaqamVlxVanfEm86nQIYENPQjzNYbvWStFC4lKpJHHcMsGUchRMdSil4/vkmkDRnFfbKtVZ5a7dqas5hImzbU/N47VsrkPs6zXt65AdNzDaQNoci2eUhzbFJvgP9rlLqeUpMxSRT3r1lwX+6Q1mKGJ8eZitqGP9MGEigEFFUnLVWmdX5mKstkSYmClm0cPOnnlM/GKWEwCgMOwi9uTkZF38dnTYcw4chuN6bt5uzAlVJqvVxmEr3cx5pPNwZpcOH+YpcNnuNM5soGhtzxx1Fqxd16b21Vd/YG7bFXHMPHHLIQf/yQeKC6uEicgt/fP/VuBZ234eem37gZzpzVbcfD1bXT9UrM80jh1ltyiAgdiZEJ7bVnbE0s7sDI+iMgua9s77YoQS9WkBAKAgHC+k72bXOXAYjuO5ebuxbRQzHTCNwla6mfPZZXEf0M/YDhv9v1EqbdpzWoftTrPd3ePAgQOOZ0BePbf90qUbzftW3SduaaXCnnuZfKDYapcFyKufHxf4pTepTkTybLXiev1xufSjRyXefE1CZ8PEN48dXRAAGJj7nZU7yPxFbRE9/fTTdhHG7mZfFr+uW5QBACCv3pmj6JWtpnpIMBZbcXr58uWyeTi9dwvRWvt+TXnhKaC/qsOGfR1sbERlcdTZUfk/dx9buVy2d/Y6xEUYfF1Vtq82xaHPOU0+UNSKCkXklv7Z8c4X/GF+ItLUuvRSpw3q2sXHgw0WCRMBjMJcHD0inpmLeKoTM2pqasq2PT0nfpmL/NLnBQCAArBzFI2aeEaHgPFduHBBQtjc122jWJcCuvHGS+bHd1/xa94/d/Z+/fLLL9s7Vx1jdCztpyTjbAh76NChho+2px7bFK+E/j5NPFBUyvtwWSBV+u/+J4FHTQJFpG/rje8FGSwSJgIYhbkoqojneS3bopogk/oWNX3P8qD1GgCgELpzFO3n7rL4NXPq1Mddt/zLlXa7bSuffG+KsvODfG8O8+Z97/vvzG1pWdyfy145d93a2jKvA+1qLmluOsO0Wi0bBjus2Gt3Qt+1tTVboe382Kcl7OpEK/kKRfNBI0COUaXoFxWKcCmkYHHz/z/XeHPlkzUBgCEpiefFsyLviM6D3qJmAFWmtF4DABRGs9m0HQJ8Ly6bDCT6jGAkc3NzEsfNeQlic19pSQqqL6BfEefa8/bPN+/nsvmHijiQh3anPSdOnJDua9dV29NP2V84nnfZY4P/4OecJhsoLqzaMJGWp8i9+Pv/i0kaDgk8aMcCuNYLFt/+8R9J89JL4tr6T5+S9X/6sxlzJXJeFj9WFgAY0PaOWBXArnJVE2Ta9PS0neXk/QLXXNi72tkNAIBXMzOdmo0QqlUqzDEeTSDViVa96Jv7PLXwV3YGn+O2t7lod9rjIQyetdfQLudd9slEZWmygWKTMBEFsXZU4v/7fxW4pzepUIQ/zcYP5O0fPSpv/fA/ysbPvpN61aL9718yf96m+bO6yoSKAIbTadniu4OIXcBgfmLG1Wo1ezG/LP53PM+yqAkAKAL72XvwYLwsXqqqrmLnGH9JMJSQqhO1xP9ZCs7XXFJb5dZsNo/0Kt8cyE270z4mDI5dhaQz2yP93M89zUplabKBomrT7hSFYduexv/Pb/qeI1MoerMlQAjirdfk8k+f6lQtdgK/17+XaLioW2ty+dVn5Bcv/Y60rq+IJFQEMDBz4fqAeJanljtF52ln97XMSypilhMAoBA2NiL72RtCC7zZavXjtB0fULfF5bFAqhOlyO1OezzOJTUBVWcWX0UcyOO1l/O2pzquRhK57oqitfLfDWYQCc9QVBUBiqMR//3/cFLH+rTAjbYWIDQ28FuvP94JF3/x0m935i1uNf5GWuv1Yf4znRDR/v/e/vEfm//Wp2XDBIq6vbbbtxMqAthXtVoti6ML173Eos4IcqFvZ7fXTXVK1APb7XwBAMi32dlOM7jHxL9O604+fwfzox/9yDxe8SMSRHUis8x7PM0lVaLVI+JGZkKpYbhue2reM1Xt4Tp6cXExE8/dhCTIXNjdJkAxNHSsTsoXj6y0vygrpb/7D6Ii9YQgVXqDdqcIW3v9lc6XnbloqdK0lG64xdzfINHUe0RNTF/1/TZE1O11ab390igVjjZUfEH+/CMn5d8/77sFDoAAmUWMhc4eVY9YwMgXezF/6tSphtJ62V5oiz9mMbM9b+7PCgAAOWY/e+fm5hqt5tay+N8odiSS2FbcfVawK9vq9PLly7N2A5T4p5ll/g47l7TRaPiYS1oWNxpZCaWGZTulmED4nElnK5I+5xsntOjMPG8JVyh6n88CONELE3v/3L7167VOpaJWtEBNU5NAEdliKwxtBaOdvbj58+c6VYf9X/b3bPg4RrvUGSmp8yZUZIYxgB3Y2Q++sYCRN4cPH9axKN9zeGyVhOs2RAAAeDE9PW2rqh6VAJi/x0PMMt5dt9XpERN6fFPCwCzzPnYuaRRFdmNcXXJIieS2ta2vGZiOaKWy05Y4uUBxYdWGiSxoIve0ik/3h4k9NlRUWk4SKqZHN2MBcB1CRQDXMQs9tnqsLH7Zc6Jc7pAtMrsQMzk5uSye254aFdquAQCKIKDPXkspKX2z21of17hw4YLqVnGWJQDMMr9eqVQyt9mpBhtCLtud9nicgemE1tpH5exIkgsUm4SJyL9OmPiFm2q7/fvmrX+2QqiYoi0qFIFdECoCuIqSyGc7yu7fQZYMzolyqDt/xvc8J/MSix8SAAAKIJDP3h5bgfcngqt88pOflLjZ/Iyt4pQw2K4SQVS2hsRW/JpIJJfBW5ZCqVHYtqfm/XVOciZrY0KSCxRVm92hyLX9wsQeQsX0UKEI7Gk7VHz6VysCoNC2d4z7n9kSS5v2Sjk1O9vZv+J9UVOJ+rQAAFAAfZ+9oaw1nby/eu+XBB12buLa2trtsegvSyCUSI1Z5tcLrOI3MXYGX943c+a07anJE+NMhaTJBYpaURWB3Bo0TOwhVExJrAXAnmYkis7LNz8awvB3AN60K+JffWnpW8uCXAqo5dAMc5wAAEVgP3uN1YCqFDvzFE2o+IgUXHdu4rGA5iZaVCfuYWJiohPASX5kagbfqPLb9rS0LBmSWKColNwmQA5prR8eJkzs6YWKeR3065rebAmAAWmpESoCxaUk8r6wYxaYFgS5ZttFaf8LVSqSElWKAIBCCLBK0Sx7qUeKHCragGNlZcWGiX8tgcxNtKhO3Fur1TLLtflqD2rWrwsxuz6HbU/r5r26IhmSXIWiqLIAOWMOxmfk94+elRHZULGtNKFiEtpUJwJDIVQECqlardqVprL4l+v5HTAvsnLZ3tmLX6+LmuYMsWJe94zfAADkXohVilLgUDHUMFGoTtzXiRMnzG1+Kvq6M/gK0SUvb21PVQarLRMMFIWWp8iVbpi4IOP611+vEyomgEARGB6hIlA4SuKHxLPu/I66INd6LYfM8+17VqYJE9vzAgBAAQRYpWgVLlQMOEykOnEAOWudqZWKCjO7Pm/PXSztpyRjkgkUF1YJE5EriYWJPYSKY9PNWACMwIaK3/h33gMGAK6ou8QzpUpPCArBtj01l5S+2yspJdG9AgBAAQRapWjZUHHBhIpfkpybm5uzYeLtIYaJxkWqEweTp9aZZh27UN1hms2mfe7y8DM3lpa+tSwZk0yg2BRazCA3Eg8TewgVx9NsC4BR6S/L4kcLO9cCKIpq9ePz4n9Ro764uFiI+R0QqdVqdofwsvjfIVypVu+pCAAABdBXpViXwJhF/odPVe/722q1WpYc+uQnPylxs/mQCRP/VsILE22nkKeoThxMt3Vm5tuedtud1qVAusfAzFdl6ozO8Uyo5WlMhSJyIbUwsYdQcWSalqfAeGJZIFQE8k1J5L3FcRZnQGA8gezuNi+96D4BAKAAbJXizMyMrVJ8UMLUqd47dere3IzfsI+5CUmPXF57+4nYbtgN08WlpXMLgoF0W2fWJdvXL4Vqd9qTn+cum3M8kwkUVXg7MoBhpR4m9hAqjoaWp8D4CBWB3OruAq+IZ7GoM4JC6e7uronnWU5K1APmfUDnHABAIQTUJWA3x8xyee3+6n1PZL1acX5+3rY4PWmrEs1a3ryEyW7wul8wlDy0zixau9OenDx3mezsk0igaC7ebhMgw5yFiT2EigB8IVQEcir2Piu1iO12cGWHcEOL9r072oSJLTrnAAAK48SJE7pbpeh1U89ebABngrjz1erHvZ+rDqtblXjsrcbq+UDnJV5hzsMeM+fhK4KhzMx09qJlNpQq8vVXTp67YI/de0mo5SkzFJFdzsPEHkLF4TBDEUgOoSKQO0pUAO0eVU1QSNPT0+aUNvK9w1YpKX1eAAAoCBt4mc/giyZUfFTCVlYSfflU9b7/koU2qN0gsfziyt/WTJD4XySALiD7uGjOw+gSMoK+St8sBjuFbHfaY5+7KIqWM7qununnLqlAkZ2gyCRvYWIPoeLAmKEIJIxQEcgNs+BREf87putLS0uFvaAtOntBf/BgvGx+6XtnfIW2pwCAIvnqV79qA5Gzko1ZYp02qCZYvHh/9d4vh9YK1bY2tefVL668YCsSTUinsjAD0lap3p3VSqdQBNBpYyRFbXfaE8exWSxWPHeOjR8oLqwSJiKTvIeJPYSKg4kJFIHEESoCuaAknhfPVDYWsZCijY3ILmh5r1IMof0vAAAudVuf2vl5dcmGsvn7PmRDOxMunq9W733AV7jYq0Y0AecjbzVWL9r2rBJ+ReIVJgh7lJED4wmk08bQGDeR6banK1l+7sYPFJu0O0X2mDDxySDCxB4bKm4euN18GtDvfCdUJwLpIVQEMm178cX/7ulY1GOCQpud7ewz9f46UKI+JQAAFIgNxczC+mp3nmLWVMxnd60vXFyoVu9JreNAN0CcqVY/Xj1Vvffsiysv2BDRto1dkIBnJO7ErJSdX1o6tyAYS7lctnd2PTZLVZ7m6Y/PScFltWWtlmxXlk7I2OLZzkZQICO6YeK8hOb2WqP1wvzJianN8+YtReVvH011IpCu7VBR5NR3mbsAZE67ktwUg5HZHZZsiio4u0A3NzfXaDW3lsXvzv6yXYhcWvrWsgAAUBB2Yd0EZedNMHbGBGRZ3TBqw8WKSOkRu+RuAsYVs+Jcj0W/aP7ZnGtqExpM1M33NfZq8WnPSVZWVsrb/9S262sz5r87a75uMQGiubfBoffz53HZlqxZDJCDY18vp06daiit7Ty+qmRGaUnQYVvWmvf3ZyQbbBicuYrYfuMHiipbuzdQbMGGiT2EijuLYwGQMkJFIJOURN4vnMzC1VkBZLtlVKPRfNQsZFbEH7NOGN0ntOEFABSMCdnkN3/zN89cvrxWVtmY/7efWbPyboPA6jvFLNsbzk3Y2Pueet/326rGGRMa9pW+vBMc5mir+mp3bmJdkIiJiQndbG6cM9dWWQkUM90yM0nd6w8T0OmsBIr1rG98HHs7hjmo3yZABgQfJvbYUHHrwEnan/ah5Snghg0Vv/GRJwRAJlSrVbv5KIQNSJlu2YLkhNJ2yC6iptUqDQCAkH3gAx+w8+AeFinMmlK576sIn/12XuaDhEnJOnHihGSo4s+8BuKnBB1Za3uqcrDpMYn6bi7UELzMhIk9vVBR9LIAgFNqnlARyAYl8UPimbkgqrGggX7NZtMudPmepWiuUdvzAgBAwdj2jbOzs7aC7X65unoPOaBFP7pkS1GRKPu+MaGUDaSWJRNKy4Kr2LanEj6tVZTpdqdWEoEibRkRNlvptxZ5X3Abmg0V/83XT+pYsnBATBcVioBjhIpANqi7xLNY2pyn4CpmEdPe+X5dKCXRvQIAQAF1Q8WLti2mZKRqB/szgcmZpaVzC4JUTE1N2U1x5yR8debXX822PTUxVyaCOq115rv7jBco/vZqWYCQmTBRr6mTcvZIZk+g2rd+bb7woWKbGYqAe4SKQMiq1Y/Pi3ifZZ75+Q9IXneHd1387/CudNsCAwBQON3PY0LFnCBMTN/x48ftXfDVn+a1kPkKt6Rlpe2pST2XTRic+ePxeIHihPdFDGB3OQgTewgVAfhhQ8WPLsoTFdqbA4FREj0gnmmJfbe1RLhCmO2iROKqAABQUE8//bRdZH+BUDHbCBPdsCF8FEV1HXarYFuJx/rwLgJve6qVysdzN16gqNtlAUKUozCxh1ARgCdVuXHqPKEiEI5qtVo2dxXxrsT8FuzoxIkT0n19eD0XV6I+LQAAFBihYrYRJroVx7EJ7FTIa6+0O91FFtqe5qHdqTVeoKhUWYDQ5DBM7LGhosRCNQAAt5TMEioCQZkXz7rtWuoC7KDbZq0RwC7hmWr1nooAAFBgNlScnZ21oeIdEnb1FfoQJro3M9NZ8gg29FH+RwoEq1wu2zsbtoaaB6zk5fp5rEBRKblNgJBoqeuWOpXHMLGndevXHhKtzwgAuESoCARDifbe7tT8LWoC7CGQXcLmkrX0eQEAoODsZh8TKvZmKtYFIdPmeXqYMNG9wGfx6VjavkcKBMse4w4dOtQIdMZkCOMgEjNehaIoFhURju0w8aT8pyN1ybnWia8vFClU1M1YAASAUBHwrlqtVsxdWfyyrXZow4499S3ILItfFfO+4XMLAFB4faHiHUqE1vVhWjXPz/3mXPuswJtAZ/GZa7BvLQt2deDAgYBnTJaWJSfGnKHofTED2FagMLGnaKEigED0QsXFj5UFgHNK4nnxjFY7GNTU1JTdYX9OvGvPCwAA6ISKJqxajUWdMp/RrCmFpRP2mueHsNejUGfxcQ22v4DbnuZq9uWYMxQJFBGAAoaJPYSKALywoWIcEyoCjlWr1bJ5A3pvdxqz+IQBHT9+3N7VxO9FvVIS3SsAAOAKm1ndfPPNC7YaTmiB6p0WXeuGiXWBV4GGUrQ7HYDdMKGUaoQWvuYtDB49UFxYnRXAtwKHiT2FCBVLY3ZnBpCGMqEi4FrL+/m3NhdDLHRgUAFd1Fe2A3kAANDzla98xbZAXbRzFWmB6s1qd17iaXOOHeLcvsKx56+Tk5P2uQipoox2pwOamJgw4WscQIeUK3IXBo++St8U5lDAL8LEK/IeKiryRCBUhIqAU1EAG/pUTYAhHD582FxEq/8snplg8zYBAABX6bZAvXho+l22BerDQrWiM1rkfLcqkXmJgQmnbf822p0O7sSJE+a2ZDdIhBLQN/IWBo++TK/bZQF8IUy8Du1PAXhCqAgUh70oC26eCMJWq9XsLu9l8XxRr3XrmAAAgB199atftdWKZ02IclKLflKQpm5V4rN30/kjTIG07e+h3ekQQqswzWP19+iBolJlAXwgTNwVoSIATwgVgQJQnXE7tGLC8JrNpt3l/Zj4oyKJPiTInLW1NXvn87ijzf847mEEE7xuAqPUxKpgT91qxfrNN/+zeWYrpsOEtTa0fT9ViWHrhVKBhOu0Ox1SQBWmtlPLo5Iz4zQSLAvgGmHivggVAXhCqAikLvK6OBlLm93qGMnsbKdbr89A0bx+9VviQblctnd18Ua/KBm23bbK94K2DmmGEgZkFoLNrX5FPDFhAa+bHWxFkU3p6+KB1v5eD1ljZyua1/DixOTUMbMof1oIFsfWbW96bGnp3MNs0MsGcw5inrbI6/mr2JeOiljjHVIoFabK/B3yWIU8cqColLpFAJcIEwdGqAjAE0JFIF0+FyfZGYuR9bUeWhY/tFIlL+8f+7NHUVT3tIBu/tg4022KA3jtcOzLqL4ZSs5pZl3tqlQqmVvt47hUJ+Qd3tNPP22DxRrB4ujs8cC2kaW9afbYcxDjonn+fK6v1hcXF9nUOaTuc7fquUNKLqsTrXEqFGcEcKdBmDgcGyrqWJ+WPJgqCYDMIFQEUmIWIZbF165+sxAiwBjsLm/zOnpQ/OwUrmutvQVrcRyb9UTlYzEoL2GYfe14mR2kRTOzKKM8htH2/f5ZwY6mp6dtxY/r4zEVPmO6NljUgcwmC1jDViZ1g8ST3XN4ZFBfl426uGfDzLsFIzHvOzl4MLbHfi/HK3MO+WheNxGMEyjOCuBGQ8eEiaNo3/r1Wm5CRQBZQqgIpKS7O9z5n8mOaozLLu6bhWS7MOJ6p25nIdlnezFPi1GreVmEsgvZZkGoJu4XhC4uLZ1bEGSWj40M3QVEwpZd1Go1G/Qum8fJWdWInQFNhU8yesHizMyR221YFsh8uZA0bDWbbW36zaVnTxMkZp89fzXncb1zqrq4Y8+Z7+cabDz/6l/doX3Mg7WzUvN8DjlaoLiwSnUiXNkOE794hBPyEeUiVCwpAZA5hIpACuzCRDdUdLE42uiGiTUBEvDVr37V3n3ZYesou4jwWd8LyR4Wozp/Vp4WoVwvCHVnXVEVkHH2vXfzzTdf7IaKdUlZ3hcQk9KdS3bGRRhl38vx9vOPBNlg2J6Tzs7eMW/eX0e656bLUkwNG5DbgHVx6dkj5nFZYEZivnTP4y66Oo/rnYOwOWV8fc/dHa42QJg/54ydlSo5Ntoq/e+uVpTS5wVIF2Figkp/9x/mVaSekAzSzVjaP14VAJnUkLY+Kf/+eY7lQIKq1WpZJF5Qoh6Q5DW2L7iis+yKRRrsxf3Kykq5+xq+T1IYp7E9w0ydCa06YG5uTprN5rz5G35GJd/1x753a3ahPq+LmSk/fp3XjVJRjWqmfLnmmHOX2I1vCQr1eBO63vtZibbnMhVJEO9l9955n0kljec0ML1zZTundYUAsTiuOW7Z85BEzmG3Z23b9vzREp8l6eg/FzCf2bcleR7Z9/wV4vp5tEDxc69XlUSLAqSHMDEFpR/+ZlWVTKiodLaqjNtaWn//pgDILEJFICUmWLSf6UkuqtcJEeFS3wJkWZJhF/XqoS/udX/uJN+/hXrvpvD4ZeJ1g/El/NrhdZOQ7iJ9EovzPCcBuPp9FlfN8vNdaWwCcaixPTdS2QDxRQIfWAmdw3LM8qDvGFWW8T536uarUbTnb8QKxTceUkp9WYCU6HZ8Sv7gpiVB4ib/7n+e1UrOZy1UbP1/bwiATCNUBAAAAICCuSZgrESibovNQn6oIaMNDyPzFYuy167fo/UkALxj1EBxwQSKjwiQAq3i0/KFm2qC1GQxVLQtT23rUwCZRqgIAAAAAAV3TbWwuY9nbdBowrwZvR02liU9tuKwYf6Muv3aDg7bb4mUlunUAQB7GylQVJ97Y9HcVgVIGGGiO1kLFQkUgdxoiJbT8onvUoUOAAAAALjODi0JzVe7u36lyvv/F6LV7ZDQKtl2hJ3WklLA9oQAkKQRA8U3z0u+h+vCA8JE97IUKrZf+YXo9aYAyAkl83L/d58UAAAAAAAAAMGLZBQ61bJzFBBhoh/NW/9sRWk5qbd3aYVtcrTDFYBAaanJNz/6gAAAAAAAAAAI3mgr9IpAEcnRWj9MmOiPDRXbSgcfKqrSaCNfAQSMUBEAAAAAAADIhOEDxYXVTMxbQzaYMPGM/P7RswK//vXX68GHipMlAZBDhIoAAAAAAABA8EapUCwLkIBumLggCEPgoaKi4ymQXzZU/Ma/e0gAAAAAAAAABGn4JfqmUKGIsREmBirkUPHQhADIM/1lWfzoIwIAAAAAAAAgOMMHirpdFmAMhImBCzVUjChRBHIvlgVCRQAAAAAAACA8w6/QK1UWYESEiRkRYKioJs3hKlICIOcIFQEAAAAAAIDgjBAo0vIUoyFMzJhQQ0UA+UeoCAAAAAAAAARl6NV5JXKLAEMiTMyo0ELFg8xRBAqDUBEAAAAAAAAIxgjlPooKRQyFMDHjAgoVVYmWp0ChECoCAAAAAAAAQRg+UNRSFmBAhIk50Q0Vzft/RTxSB0oCoGAIFQEAAAAAAADvRpmhWBZgAISJOWNCxdbWAb+h4iFangKFRKgIAAAAAAAAeDVcoLiwSrtTDMSEiU8SJubQ7bWGz1BRTVChCBQWoSIAAAAAAADgzbAVimUB9tENE+cF+eQzVCwpUZMjjH4FkA82VPzGR78sAAAAAAAAAJwabmW+KVQoYk+EiQXhM1S8YVIAFNpD8o2PPCEAAAAAAAAAnBkuUFRtAkXsijCxYHqhosiSOKQOMkcRgJonVAQAAAAAAADcGS5Q1KoswA60qCXCxAKyoeK/+dopHcuT4og6yBxFABahIgAAAAAAAODKsMPIqFDE9Wzby7fltKCw2rd+bd5VqKgOUKEIoIdQEQAAAAAAAHBh2ECxLEA/EybqNXVSzh5pCArNWahYUiZUpEoRQI8NFT+6KE9U2PQEAAAAAAAApGSoQFEpdYsAPYSJuIarUFFNTwoA9KnKjVPnCRUBAAAAAACAdAxboQhsI0zELmyoKLE8JilSNxAoAriGkllCRQAAAAAAACAdwwWKmpanEMJE7Kt169ceEq3PSEoIFAHsiFARAAAAAAAASMVwgaIiUCw8LXXdUqcIE7Gf1omvL6QWKjJHEcBuCBUBAAAAAACAxA0eKC6ssjBXdNth4kn5T0fqAgwgzVCROYoAdtULFRc/VhYAAAAAAAAAYxs8ULwsBIpFRpiIEaUVKqobpwQAdmVDxTgmVAQAAAAAAAASMHigOEG708IiTMSY0ggV1YEJcwRTAgB7KBMqAgAAAAAAAOMbboYiiocwEQlJPFS0cxQPTggA7INQEQAAAAAAABjT4IGibpcFxUKYiIQlHSrS9hTAgAgVAQAAAAAAgDEMHigqVRYUB2EiUpJkqBgdPiAAMCBCRQAAAAAAAGBEtDzF9QgTkbLEQkXb9vSGSQGAAREqAgAAAAAAACMYJlAsC/KPMBGO2FAxjtsPy5hoewpgSISKAAAAAAAAwJAGDhSVUrcI8o0wEY7Ft/75WR3r0zIG2p4CGAGhIgAAAAAAADAEWp6ip6G1OkWYCNfat369NlaoSNtTAKMhVAQAAAAAAAAGNHigqGl5mmMNHauT8sUjKwJ4MG6oSNtTACPaDhX//COzAgAAAAAAAGBXgweKSmYEeUSYiCCMEyp22p5GSgBgBGUpKUJFAAAAAAAAYA/DtDwlUMwfwkQEpRMqtuSUaNUY6v9YUhLNMEsRwMhmCBUBAAAAAACA3Q0WKC6sEibmD2EigtT+0NeWlJaTw4aKtD0FMCZCRQAAAAAAAGAXgwWKl6lOzBvdjk8TJiJUzVv/bGXYUFHdMNn5AoAxECoCAAAAAAAAOxgsUJyQsiA3tDJh4h/ctCRAwEYKFalSBDC+7VDxmY9WBQAAAAAAAEDHMDMUkQOdMPELN9UEyIBhQ8Xo8AFzowQAxjQjShblmx99QAAAAAAAAAAMGCjqdlmQeYSJyKJeqKhF6vt+c0lJdPSgAEAitNQIFQEAAAAAAIBBA0WlmKGYcYSJyDIbKraVHihUjI4cEgBIDKEiAAAAAAAAMHDLUwLFDNNaP0yYiMz711+vDxQqlpQo2/oUAJJCqAgAAAAAAICCG7BCkUAxq0yYeEZ+/+hZAfJgwFAxOkqVIoCE2VDxG//uIQEAAAAAAAAKaMAZigSKWdQNExcEyJMBQkV1oCTqhkkBgGTpL8viRx8RAAAAAAAAoGAGChSVUrcIMoUwEbk2QKgYvYcqRQApiGWBUBEAAAAAAABFM+gMRWQIYSIKYZ9Q0VYoMksRQCoIFQEAAAAAAFAwgwaKtDzNCMJEFMo+oWL0nhsEAFJBqAgAAAAAAIACYYZijhAmopD2CBXVZCTRuw8KAKSCUBEAAAAAAAAFMVigqKQsCBphIgptj1AxuukGc6MEAFJBqAgAAAAAAIACYIZiDhAmAnIlVBQtK1f9fklJdJQqRQApIlQEAAAAAABAzu0fKP72alkQLMJEoI8JFVtbB64LFTtVipPsnwCQIkJFAAAAAAAA5Bgr7BmmY/0YYSJwjdtrjZ1CxdL73iUAkCpCRQAAAAAAAOTU/oHiBPMTQ6S1flK+ePQhAXC9HUJFdcOkqMMHBABSZUPFb3z0ywIAAAAAAADkCBWKGdQJE3//6LwA2N0OoWLpvdPmqKcEAFL2kHzjI08IAAAAAAAAkBP7B4qqPSMIBmEiMIReqCiy1PnnkpLo5hsEANKn5gkVAQAAAAAAkBf7B4qxECgGgjARGIENFf/N107pWJ60/xgdOdhpfwoA6SNUBAAAAAAAQD4MUKGoCBQDoEUtESYCo2vf+rX5XqhY+uUbaX0KwBFCRQAAAAAAAGTfIDMUCRR9szPg3pbTAmAsV0LFkpLS+94lAOCGDRU/uihPVDinAgAAAAAAQCYNUKFIoOiVCRP1mjopZ480BMDYeqGiunFKoncfFABwpCo3Tp0nVAQAAAAAAEAW7R8oagJFbwgTgVTYUFG0PhPddIOoAxMCAE4omSVUBAAAAAAAQBbtGygqJYcF7hEmAqlqnfj6gjkCnon+JfMUAThEqAgAAAAAAIAMGmCGomLByzXCRMAJGyqqCXWGeYoAnCJUBAAAAAAAQMYMECjCKS113VKnCBMBNzqh4rsmz0TvOSQA4IwNFX9p6gVZ/FhZAAAAAAAAgMANEiiye96V7TDxpPynI3UB4IwNFaOjh85Ehw8IADhUljg+T6gIAAAAAACA0O0fKGoCRScIEwGveqGiOjAhAOAQoSIAAAAAAACCt3+gqAgUU0eYCAShdfufL6j33nBGJukGDcApQkUAAAAAAAAEjZanvhEmAkGJ//tnFqJ//q4zEikBAIcIFQEAAAAAABAsynB8IkwEgtQJFW8+RKgIwDVCRQAAAAAAAARp79Xy314tq0l9UZA8LRd1W90tf0iYCIQqeu7XF+L11udlv2MlACSrLlF0t8z824tyckEAAAAAAAAA3/auUGQJPR2EiUAmxL/2nQWZVJ8V+64FAHdspeJfS+P7x+T8ggAAAAAAAAC+7R0oHmR+YuIIE4Fsufcvz5o37oNCqAjALUJFAAAAAAAABGPvQLFJoJgowkQgm37j+RqhIgAP3gkV/3xOAAAAAAAAAF9oeerOqtbqfsJEIKMIFQH4sR0qSuN2QkUAAAAAAAD4snegKG0qFJOxqmN1t3zxyIoAyC4bKkb6DpMprgoAuFOWkiJUBAAAAAAAgDd7B4oxLU8TQJgI5Mmp51fMkfNu86uLAgDuzBAqAgAAAAAAwJdIkCbCRCCPOqFiRKgIwDVCRQAAAAAAAHixzwxFVRaMijARyLNTf1EnVATgwTuh4rl7BAAAAAAAAHCBCsV0aN2OHyRMBHKuEypu3WHe8ecFANzZDhW3tk7JeSoVAQAAAAAAkL59KhQFw9NamTDxD25aEgD5d2q5IZ94/m7zzj8rAODOjDlP+6asvjVPqAgAAAAAAIC07R0oaikLhrEdJn7hppoAKJZPPP+wxHJG7JETAFzR8gShIgAAAAAAANJGy9PkECYCRTf33QXR7fuFuYoAXCJUBAAAAAAAQMr2DBSVksOCgRAmAuj4xP+5JFF0txAqAnCpFyouVgUAAAAAAABI2j4VimpGsC8t+gxhIoArTv1FXaKtO8zBoSYA4IoNFWV9gVARAAAAAAAASaPl6Zg6YeLvHV0QAOh3arkhn/juaeYqAnAqlkcIFQEAAAAAAJA0AsUxECYC2JedqxjpO4QWqABcIVQEAAAAAABAwvYOFLWUBTsiTAQwsFPPr3TmKm63QKVaEUD6CBUBAAAAAACQICoUR0CYCGBodq6ibYEq8WeFUBGAC4SKAAAAAAAASAiB4pAIEwGM5Tf+6qxE0fuFFqgAXCBUBAAAAAAAQAL2DhQVLU/7ESYCSIStVvyN777fLPSfEaoVAaSNUBEAAAAAAABjokJxQISJABI3990FifQdQrUigLQRKgIAAAAAAGAMuweKCxTN9BAmAkjNqedXJNq6Q7Q+K1QrAkgToSIAAAAAAABGpHb9NwurM6qlV6XgCBMBOLP4kVmJ1TfNr44JAKQlkjNySJ2Rj/0lmxgAAAAAAAAwkN0rFC/LjBScjvVZwkQAzthqRWYrAkibrVRc01+Sc/coAQAAAAAAAAawe6BY8CUmrXVNvnj0YQEA1zqzFaP3y/ZsRYJFAGl4SJqbf0KoCAAAAAAAgEHsHigeLG6FYidM/P2jpwUAfDn1F/VOtaLoB2U7WASAhKl5QkUAAAAAAAAMYvdAsVnMQJEwEUBQfuP5mkTR3aKlJlQrAkgcoSIAAAAAAAD2FwmuIEwEECRbrfiJ756mDSqAdHRDxW//uhK9IAAAAAAAAMC1CBS7tKhFwkQAQaMNKoDUmFBxs/nX8uTyEUJFAAAAAAAAXGv3QLFIja+0vCBvy4MCAFlg26DaYDGWM+YAtioAkAStKvKuKUJFAAAAAAAAXGf3QDFul6UITJio19TdcvZIQwAgS+a+uyBR6Q7mKwJIjJJZQkUAAAAAAABcq9gtTwkTAWRd/3xFgkUASSBUBAAAAAAAwDWKGygSJgLIk6uCRX1eCBYBjKM/VDy/IAAAAAAAACi2PWYoqhnJKy0XCRMB5FInWHz+bonjuwkWAYzFhoo3Tv2tNL5/jFARAAAAAACg2PaqUMxnoGjDxDZhIoCcm/urZYJFAAkom+PIXxMqAgAAAAAAFFuxWp72wsQ/PFIXACgCgkUA4yNUBAAAAAAAKLjiBIqEiQCK7KpgUWpCsAhgOISKAAAAAAAABbbHDEXJD8JEANjWCRa/e1qi6P0EiwCGRKgIAAAAAABQULsHitosGuUBYSIAXO/UX9SvDhb1qhAuAtgfoSIAAAAAAEAB5bvlKWEiAOztSrBYusMcNB80v3NRCBYB7I1QEQAAAAAAoGB2b2z6u2/UlFIPSFYRJgLAaL7xkXlzDP2UKFWRfDXABpCsukTR3TLzby/KyQUBAAAAAABAfuWzQpEwEQBG9xvP1+QTz98tkb6jb84iVYsArkWlIgAAAAAAQEHsGigqJYcliwgTASAZp55fuTJnkXaoAHb2Tqj453MCAAAAAACAfNq1lZ363JvnzV1FsoQwEQDS9fSvVkRFD5hPj15LbFqiArDq0tb3i8y8IP/+aQEAAAAAAEC+5Knl6arW6n7CRABI0dxfLVO1CGAHZSmpvxZp3E6lIgAAAAAAQP7kpUJxVcfqbvnikRUBALhF1SKAdzSkre+mUhEAAAAAACBf8lChSJgIAD5dqVrcenenalFruyFFC5WLQBHNUKkIAAAAAACQP3tVKL5g7mYlbISJABCixY+VRdr3Saw+I7YVIlWLQNFsVyq+Z+YFOUmlIgAAAAAAQNbtHij+7psXzb8tS7gIEwEgC95piXqXEC4CRdIw7/aH5cjhGqEiAAAAAABAtmU1UNS6Hd8vf3DTkgAAsoNwESgeJacJFQEAAAAAALIti4Gi1ip+UL5wU00AANlFuAgUB6EiAAAAAABApmUtUCRMBIA8IlwE8o9QEQAAAAAAILOyFCgSJgJAEXTCRXVf50uufA4RMAJ5YENFdUNNTtG1HgAAAAAAIEt2DxQ/96aWgJgw8TRhIgAUzOJHZs3tXdIWGzBWur9LuAhkWSRnRG5YIFQEAAAAAADIjkwEilr0Gfm9owsCACiuxY+VJW5XzCfUveaTwd7PCOEikE2EigAAAAAAAJkSfKBImAgA2FGvNaqtYFRqtvu7BIxAVhAqAgAAAAAAZEbQgSJhIgBgIFdVL4oNF8vdf0PACISMUBEAAAAAACATgg0UCRMBACNj9iKQHYSKAAAAAAAAwdt5cXVBi2qtegsUCRMBAIl6pz3qbQSMQIAIFQEAAAAAAIK282Lqb6+W1aS+KB4QJgIAUrVYmZHWxCwBIxAYQkUAAAAAAIBgBRUoEiYCAJzrBYwSVUTpO80no/m1mun+W0JGwCVCRQAAAAAAgCAFEygSJgIAgmFbpE6o2yRWd5l/svMYy91/Q8AIpI1QEQAAAAAAIDhBBIqEiQCAoC1+rCztpq1itAFjf5tUi5ARSJoNFQ+pM/Kxv/Q20xsAAAAAAADv8B4oEiYCADKpv4pR67IJGWe7/4aAEUjGWZmc+qzc+y1CRQAAAAAAAM92XvT8HRMoTqQfKOpYn5UvHn1YAADIuv5ZjJF8SGiVCiRA12TywIOEigAAAAAAAH7tvMC5sDqrWvoFSZHWZoHo94+eFgAA8urakPHqSkaLoBHYF6EiAAAAAACAbzsvZP7uakUpfV5SQpgIACisXsho26W2bbiob2EmI7AfQkUAAAAAAACfnAeKhIkAAOxg8SOz0o7LokuzVDMCOzHnkKVDD8p9d2hRCwIAAAAAAAB3nAaKhIkAAAyhV82o9IxIdJf5ndvM1wxBIwpLy4q8vXW3PFBZJVQEAAAAAABwx1mgqEXOy++9+24BAADj6Q8ad69otAgbkT+EigAAAAAAAM65CRS1vKDX1N1y9khDAABAemzr1JYJGjszGqUstqpRiQka1UzfdxE0ItsIFQEAAAAAAJxKP1AkTAQAwD9b1SiT5StzGpU+LJ2wUZXNffma7yZwRPh6oeL88qoAAAAAAAAgVekGioSJAABkw7WVjUrdst1G1YaNV1U3WgSOCISuybv/xWk5WRMAAAAAAACkZ+cFwc+ZQFHGDBQJEwEAyIf+6sZSdEtf4DizQztVi8AR7sTxSZn7q2UBAAAAAABAaiZ2/N24XZYokpFpuUiYCABATpxatp/nK92vnfUqHLUqd9qo9lqqiszsUuVoETxifEpVze2yAAAAAAAAIDUTkjQbJrYJEwEAKJRTz6/s+z2LlbK0JmzYOHNdpSPBI0amygIAAAAAAIBU7RwoTpZWpK1laL0w8Q+P1AUAAKDfqeW6ua3v+T2d9qomXOwPHlvqiET6vzHnGeXO99gKSOn++nqEj0WzXQ0LAAAAAACAFO266KY+9+aq2AW9QREmAgAAl/rDR6u/3aqSw1cHkLYKUu12XkMImWVaPyafeP4hAQAAAAAAQGp2bXmqRT+mRD0igyBMBAAArm3PdrRf9YH/P7btqkzOdOY92grIOJrpVjxKpwrSho7bLVgHCSJ7CCR90npJAAAAAAAAkKo9F8DU5978W3N3+17fQ5gIAABy79pqyF4YOSmHOy1Ze1WR1wWSHeXB/hCCyaFpWZRPfPd+AQAAAAAAQKom9vqXesIEha34ESXqM3L9IpfWIsvSVg8SJgIAgFwbpRryWr1Q0uoFk5Zt1Wq9E0B2qyU7v/lOQHnV9wxUObmbvASXF6UUfVYAAAAAAACQusEWlH5ntSwT8bz59jvNAlZDYnlFovhZ+b33LAsAAAD86rRy7eoPK61eYGn1Kip7rlRW9r53h2rK/qBz+5vGCTOHsdN5qu7eL0m09WA36AUAAAAAAEDKaK0FAACA8fWHmld051XupNc2djfXBZli+2PUZbK5RJAIAAAAAAAAAAAAAAAAAAAAAAAAAAAAAAAAAAAAAAAAAAAAAAAAAAAAAAAAAAAAAAAAAAAAAAAAAAAAAAAAAAAAAAAAAAAAAAAAAAAAAAAAANjDfwUiLvEsd8FhzQAAAABJRU5ErkJggg==;" vertex="1" parent="1">
          <mxGeometry x="590" y="430" width="122" height="47.13" as="geometry" />
        </mxCell>
        <mxCell id="Ec8AV_Ql3ZaaRcwQEaW2-30" value="" style="shape=image;verticalLabelPosition=bottom;labelBackgroundColor=default;verticalAlign=top;aspect=fixed;imageAspect=0;image=data:image/png,iVBORw0KGgoAAAANSUhEUgAAAkEAAAGxCAYAAABlfmIpAAAgAElEQVR42uzdB4BdZZ028P+pt8/c6S1Tkkx6hUQw9AXsdVHWte1+6q6ii7p2V0FBVFDB3RUQRUAE1FU60gRpIYUQEtIzKZPpfebO7eXU7/2/d4K4q5igoIbnFy6T3DbnnHvuOc95KxEAAAAAAAAAAAAAAAAAAAAAAAAAAAAAAAAAAAAAAAAAAAAAAAAAAAAAAAAAAAAAAAAAAAAAAAAAAAAAAAAAAAAAAAAAAAAAAAAAAAAAAAAAAAAAAAAAAAAAAAAAAAAAAAAAAAAAAAAAAAAAAAAAAAAAAAAAAAAAAAAAAAAAAAAAAAAAAAAAAAAAAAAAAAAAAAAAAAAAAAAAAAAAAAAAAAAAAAAAAAAAAAAAAAAAAAAAAAAAAAAAAAAAAAAAAAAAAAAAAAAAAAAAAAAAAAAAAAAAAAAAAAAAAAAAAAAAAAAAAAAAAAAAAAAAAAAAAAAAAAAAAAAAAAAAAAAAAAAAAAAAAAAAAAAAAAAAAAAAAAAAAAAAAAAAAAAAAAAAAAAAAAAAAAAAAAAAAAAAAAAAAAAAAAAAAAAAAAAAAAAAAAAAAAAAAAAAAAAAAAAAAAAAAAAAAAAAAAAAAAAAAAAAAAAAAAAAAAAAAAAAAAAAAAAAAAAAAAAAAAAAAAAAAAAAAAAAAAAAAAAAAAAAAAAAAAAAAAAAAAAAAAAAAAAAAAAAAAAAAAAAAAAAAAAAAAAAAAAAAAAAAAAAAAAAAAAAAAAAAAAAAAAAAAAAAAAAAAAAAAAAAAAAAAAAAAAAAAAAAAAAAAAAAAAAAAAAAAAAAAAAAAAAAAAAAAAAAAAAAAAAAAAAAAAAAAAAAAAAAAAAAAAAAAAAAAAAAAAAAAAAAAAAABy7FGwCAAD4U/njexsn+g6dOj42vNgrFWKBYDDd2NK2paKl7WmlbvEEthAgBAEAwLEVfopDhv3s4x89uP7hj2YTI7PIKUR9pyjOLjqpZlUi2jb3QPOaU6+tWLLmZ4oxq4gtBn9NdGwCAAB4sca3PHre5GN3XuyPHIjX6T4ZikOaapPimVTIZqszvckT9+SG2tpT6QY/M/IdJdbkYKsBQhAAAPxNc3fc/5Zt9//0E/mDu+KzKkyKGAa5lkO6opGhqqQqHlnZSZpKjjQNFb2PV4ZqB/zs+E+VaL2PrQd/DVRsAgAAOFr+wI6O7ifv/xyNHeisjqoUjQXIU31yyCfX88lyLPLEv0K6TXOqDKKx7qbR9fd/iUb2vwpbDxCCAADgb1aye+vbp7u3nhpX8hQJq5S1slQil7RIiLyAQUVxdrFUjxTNp5DmUYWSo+lD2xZN7Vr/IX9qTzW2ICAEAQDA3xx/ZFvL8L6tbwqU0hQRAYfIo3ypSLZvixjkkueJ8KMoRIZGRiBEhVSWoppKUb9AQzvW/31mYO/rsRUBIQgAAP7m5Ee6T82MdC8PKyppNpHu6RTWw2R43FssR4pdIMVzxU0XdwRIVaNkaiHxHJVKowN12e2b3u8N7WnClgSEIAAA+NsKQZMDKymXqA+bGrm2T67lk6bqJDIOmeJmqB7pike+61ExZ5NpVJLv6yIUORRTbBrduem1U/u2nIstCQhBAADwN8NP9QTTI70rNCsvgo1HmhEQZxKTbO747nni7w4pIuiovk0BcihomFS0HCo5PimGQfFYgNTslJrY+OCnrV2PnIEtCghBAADwt6GYrnOTU21Bv0S67pGnuaRqCumGRp7ikSOCkMthSRGhh7i7PI8bpJCv+WR7JbJEeIrpPuVGDrZPb3/ik97YtlnYqIAQBAAAf/0yyeZCYrIu4IsA5OSpZOfI8y0iEXpIEWFHN8kLhMgXoYh0WwShEqk+jyBdEo/Z4qzjUjiokV6appGd69+Y278N1WKAEAQAAH/97Mx0h5PJVASJcw/3AnNJI5sMzxFhRxH36VR0g5R3dPIVEYTIIUM8bnL1mOKJv/uki9dVhXWyk4PmyLPr/9k6tG4ltiwgBAEAwF+1bHpyjmJZgYCIPqZmUtAUNxGEDNcizfbItQxyvApytWrK2CIeuUQBTRUhyBOPO9xkSCQpj0KGShW6R9OHdqxIbX3i372xXXUv53r4iZ6QP3Ggyk90R/3MAM6Fr1CYNgMAAI4sOOT71J4HbpmreSLQiGBTcH1SVEXEIRFuuDpM/M3zTQrVzZkIV1eODxx4eolVSJOmK+V2QTykkKKQp+iyCi0SUskuZGhi+4Z/CDe2bxGPXvmSLHdhSKV8stZKJdutzHQbTQwcl3jopgWWXYw5mlY0wxUT00/etCfU0L4h0NixWalo9/BpIwQBAAD8ViFdn06MzRGZhnxfI0spN3jW/RKZIuQonkJFT6Waho6n4suX3zJppb86eXDXYtMrUaWhk6qr5Lg62b54nc+RyadKU6HJ8d7Q+PaN/+wOPP0brfWEvX96WBvRxLLGrdTEgkJiZNHU2tsXO5NDK9Ojw535xEhtwEqG7XSCfEWEMFUni0yiWE0h2jyvt3HpiT/zU91XKJVzC/jAEYIAAADKSslmKz0+O6DyGNFEQV0XoccWQShMsi+YZ5GlqVSqrOxR5y25vyafi48PTl1SSvbVKyIAqVxYpGpUFD80RZx+HJsMkaiCAYfGup9ZFdnZ8W9ese+zarC9eNTBJ9EVc6fHFhdSk/Mmn7xtaWl0cFV+amxBLjFW5+SSQU0sm+454iYCm+5Q2HRI04OkqmJ5SwXKpYdC2UJq0d6p0fPN6toe8ZY/xQeOEAQAACB5uck5ama6ngdC5LotU9xXLFqkBCtkKHJFyPDDAfLi0VEltjxbmuy6qXFP92mlHVPv9awSaSIouZpPvqmKvylyXCFX3CIhg7KZMRrf9pt/is3ufEy81e1/NPQk+wJWdqo9NzmytDQ5sHDkwZtWlcb6j89PjjY6+VSQnBL5jkWa78uRqoM8hYfOtXEqOYomwk9YPMUjzXGpUnUoLh7P6zYdGO9tGNi26b1+pvdOJdaRx6eOEAQAAEC50ZEVWiEXNrhNkMKzxbukKwqp4t+q+KMoOrmqZsdq6g7x8wO1C4vFZx+8dmji0BnJgX0t1QGdFL9EhsI9xXw5qKLvuqT6OjUETJoeHY6NrXvifHdi5+Na3bKp3wk9iX0RL5tqtpJTc0vTo4v777v2ZCs1Pj83OTrLTU7EjVKWDHIpJLKVromIJW6uqsjXalxlpxbFEtpygEfFN8gTN0UXNxHf3JJLPNqjoZhUYYaokEy0UT5TI16KEIQQBAAAr3S+NaAM3P7DhUqxVD5xiPDj+uWBEk2eP95VRZzQROIIpyqrG55r1xOYs/jJqmUn39w7Pv451ZrSwmGNfKcgXu6I93FFKBGBxfEpaIQpn7NosmvPysadW9/rD22/XdxRaaeHl+WT40uGH/7ZoszY8JJSYrTJyUzETVeEHq9IMd8Xv1/c+Fdzl3xx87jEiRdRE0uqckWdCD+KK+635XJrnnjcE8vLbZREGPM0VSyLKp4rQpr4Gw+BJBcMEIIAAADILkYykxNt3I7HNzyyVJdcERO4Vxi3s/EcESj8COmR6ik1WtN3+GVKZZvv9D17TfVg/5rp3WtPN/ycHC+IHE8GJ1KNcvgQmSMcMsmy0vHElke/ZPbsObeYnm4oTg+3WYVUoFjMiyRWIkO1KUYOhXh+Ms48/IfbF3HU8bnBNpcwebLXmi4HcBSJxuNSKxG+lLCc44yf6/siBHkiKokwZhqGOBnqlCl5lLc9qq5tOkhmKI0PHSEIAACAKJups7OpBk0RwUH3ReBxyFc1kTF8OTEq9xZzRKCJ1TYfVOLLUr9zomk/rr/4zL3fLUz2LU4Ob6triHD1lEkFLphRA6SZJhVFuFJ1haIi4GSG9zRog3sbfKtIhm9RWNzv80g+4vcqmlueo8x1ZamPL36ny13uFZV8LlkSwUbzXXlyk732xfL5niKXzxe/0xM38m35XMWTLZlIN3RyXJ+SlkdOKJZpmb/0PqV6XhIf+rEPA0QBAMAfZSem27VCoYqny+ARn8nnEFIueeH+7hwyPD3sVze17fx9rw/MWXJ/9dITbreDccqWRNgQL1Y1XYQgTbxe1lKRKwKPqZTI8LJkqFkKmhaFwkRGUCXuXcY9y1TfFIHFIF8TcUkJiQijyrZJ3NZIJYs0lZOVLe4XwYz/+NwrTRXBSCXD9ch0XFkCxJVdpliNgAhJ4hdTxnLICsWofslxm2Odi+/GJ44QBAAAIDnp7CzddkOmCA0qt7jhaidx84hvqgglBrl6OB2rbtr9+16vVM92apaeeF1F2+JeEW8o74gQEjBI1xWy7JIIQ7JptQgoFumaLf4twozuiPckKonAVfI88nx+hkGqEiRPDZKriN/J93GC4gbaarnX2UyuEY/zOEYaKeLGGcpQxLKLoMVTfaiaL/7N7YM0sj2dpi2xVtWNg3Neffr3lbpFk/jEEYIAAACk6bHxBVYxb3A1kq7rMvyIiCGCh0IFR6GSZpIbCOfVytr9f+g99PmnbWk+4cyrrEiDly465HjiZhVJ41Gkubu8IoKQzoMqGiIE8RlKkV3vucTJUBwyPBGWHC4psoiKGTIVrv7iECZ+txqjRFalibRPth8h0qIiCGnlWe3F81zdpaJSJEspkS7WQieboxtZIgSN5cWyNXWmO097/Q3mvOUoBXoFQZsgAAD4o4q5VAMPkcijPnNlE3dB5/ihcDWYaVBJCZBRUZ2icMXYC71PuG3RPU2LTzgnsT1/UslOU9AQccTlKiqVPKU87lDA0GTEKlez+bKkh8ck4gbPXPvGXd+5e3vWEsHGN6nkBalUMtxwpDrXUl+braqNlXKTwx3TQwcVg6vFfFcEI4/7ysvXBri3mOuJ+3TK+EEqVtbkZq8+46c1K0/9byXQ4eDTRggCAACQ/LE9sd133tTqKBYpAYVs1SmXBpXKPcl1M0qFkk7VDS1dFIlNvdB7qW0nHHC7HrjEnhr5cWbf040iP5HGI1DLMYdUOeCibnsU4JIlj+daVWX7HW7hUxKhKy/uKzquHPCQIrX56ralXZW1bZuNSHVPdUvLZrM6knC6t52b6Tv0Bc+2NV2zuECJND1AbiBKti0yjlfgFkk0YWlUjDakWtac9dPqE157sVK5NIFPGyEIAADgt6aGV3jpyXbuCi97Z3HjYqJyKRCX1igK5S2X2urq91Ew9EcHGFTbl/w6Mm/FvYnevf+SKmWpKmqSWrLJUFXSgzEq5UtU8nWyfJVyDpc8iRATMkiNVrhqrGq0MlbT2zZ/8RNU1bBDq27dqoSqBrSGxUU/0a0U9m0959D27e+wp6e0elMn0y3JgRy5JVMmZ8keZeKXUFasQy5QYzWuXHNvwylv+IpWu3QKHzRCEAAAAPnFgwFnpH+lPTiwZvKZtWdrk4OdupUnQ0QSbsPjuh75GpfciL87JfIUww/Eq7uV2Kw/OgO7Emrzvf4nv29N9p48uXPjonyxQKorwpTjUVEEn4IfpIxlkFJZmwnWto5U1tf3VdbUHow1tG6kuo4NSkVVr1bT6f7v9833bX/zvvX3X5If6lrQqPtiWQWHR7TmnxYFrSKZsWpKFFWaVmJUt+Lk+1tOf/MFOgIQQhAAALzCg0+uz3TH+5dO9+1804Hbv//qzPDwfC+RrA2XSvGgnaWAbsvpMniMH5kvuN0O+eQUixQMRUuhWGzwSH+X2nbqs8mnf37lQN/AZRP9+yrqojEyA2FSgrFcpH7WQEvHgscDda1P643t65Sqml61stN+ofcr7bv35EOP3fPlzMCuRTVqiUzPEkGtJEeR5p5iZiBIYZGKUqUSjZdCVLvyhHVtp7zxYqNlVS8+eYQgAAB4JQafyW11Tn/3mVN9+8/a+5NLjysmhtud3Eidn0tQxFMopOgU8HQK8bwUpsEDPVPR1WQJkCICkaEq5Fg5qqmutPXK2PjR/O5Y5+k/ajnZrszP3f93DY31+wPReE+wom63MmvuWrVyfuFI38fa//DygSfu+Wp6/7YTG7wsVSoeaa4tB0H0fI1KYjlLmkGW4tJYzqGqRa/a0n7K2y4yOk/Zhj0AIQgAAF4poafQrzqJqZb02Oiy3MC+U7pu/O7brdR4SyEzXaE5RYqYPkUMm8yQR6pIPAbPcFGyqFQsT5Lqcu8wHiiRNPGYT6qhka0YFK1uHKdQbOJolkWrbuaeWJf50/u/T+FgVgm0eUe7Pl5yd3B67T0fGNyx7jXVfp5qwyZ5+azsxcYNq0uuQ74RpIKtUtJRKTR7ad/sN5z7KXPRmU9ibwCEIACAY5w3uSPmZcYW+uNDqybuvubskUMHTrRTiVrDzgW1YpoiIjBUGjrxfKM8rRdZ3PldL/faEv/zeaYJ15elQKoIP7oIPp7lkCGeVXJ8ymgxqq5t30WBoysJOkypmv+i5ulyEjvigw/8/Kq+zQ+/u9YsUkzxySoVSROhx9E08n1HLCtX2GmUzYkQ17Cob+5Z7/18YNFZCECAEAQAcKxyh3Y0+KmxeaWpwVW99//0jPG+fSu81HhzwM4FgnaRoj7P3K6QHuIqI0+2n/HKXb5E+FFJ1wxybIs0hauVTFJ5PB/HJbvIgw86cnRm1zAoVSIqBCs8itX2KrHO4ssW7JK7Y4kND10wtWfLO6J2Vg0Heb4wsexaedToglWUZzhfMWk6bVOgfl668+xzLjMXvepW7B2AEAQAcIyxh3bWeyOHTioNHjhz6O5rTk1PDrfmE2M1TjEnw0xdyKRYUCPDCJDi2bLreY4nItU0EXJU8RwiVQQi33XIdSz5b56DopTPkyJCka4FSc4/4ctZumg0WxQBKE7B+o6+QG3zzpdrPf3sQTX39KOfHNj8xAfc0f5gVVhWzsn5zBSZ40oUNnwqiPWaLLlUqmzOt5941vXmyhNuUGJNPvYUQAgCADhGOP1bOlL7d55z8J7r35Tu71rmpMfqgm6BgppL9UERXMJcQmKQwanGLpFlFcoBxzDkoIcuj/Xj2OKnJwcm1HhSDJ6PS9XI13TydI248itvK1TgGdnNCKmhikzdovaBUFPrjljr/IejHYvvebnWN7fv2XcdWHvvvxuJgeqaoCLWU4QyEdx4ZGkeHdrn0aHFsk8XHcqYtd6CU153U/Upr79Qic22sLfA8ynYBAAAf5vcTFcgs3X9+al9W9431rtvkZ0eC0SoSGHVpoBIOYYhAo6jiHCjyGkpFFUhVeGpLhwZdLhKS6QcWX0kZ6mQfxQ5NYUnAkXO9qjgioChiCAVqrLNeONYuL5td0373E3xhpZntbrq/RSLDyuxRcmXa53zux88s+tXP7nW7d46d1ZYo6jO027YVKJyNR55Dnli3TMu0aRZQXWrzr6t/ex3f9yoWT6KPQb+N5QEAQD8DfJEABrZ9NDnB5984JPaRH9NQMSA2ohBsaBJvqOSa1uyMbPqqyLslNv0KHJYH5tc1y1Xedk+6YohGw7bikaWp1CRJx0Vz3fUIKmVFQWjonaioqFtd1Vr54aq5tlPUm3LdqVmYfIvsc6lHQ+f0fPoHVcUBvbObQn7FFAtshy+idRmqLL0ylN1StpE00qIGpac+nj7qW+9SEcAAoQgAIBjR2LHxg/1rbvv/PD0UE2t4ZHG1VYi2OTTIgEoM8FHMUn8hRQRhHzLJdfn4Q09OfmpbhiyxKdkcWcwjYpkks3VXBX10+GGtm6tpnlXQ8eCxyKNrZsozo2e55T+kuvr7nvi+L4Hb/t2av8zKxtMhyK6T5Zti9BjkGdo/Aw5KGJBrEtKDVN07urNTSe++SK9ec1u7C2AEAQAcIzI9zw1v/vea/+fNnqoPqZ5ZOq6CDw8x5YIPLpJCs+PJeKOI0KCLgKQxxVevkKqbshZ1IuuRQURfkockkJVbijeOBytb9kfrGvZH2lq3xJrmv0k1TQdUMKtfxWNiK3BJ5eN3nvH99L7t7yqRi1SRHXIEYHPVnicIh69WpXrWvBUSvlBCs9bvaXzzHd+Jrzw79AVHhCCAACOqRA0PrTKGT60tEG1KCICkCNijs1zeGki8CiabBjMvbxUDkjE7X488QyNLFUEJSPIc3I5kVjNaLim7dlg25KHKxtat0ZrG/cqdX99s6gXxzYsGv7Nnd9J7H7y5Fpu72QQOY5Fjs4tuANy3T0R8GwlQEnPoEDzou6OU99yYXgxAhAgBAEAHHPcTHKWYZdCUUUEHcUhR+Hw45Mrgo4sulG5mzgHISLLypGuGzIslMTjgXiV07Bo+a+N+ctvpqYFTyjx1X+17WXcxK541wM/vSS9Y+PrWoIlCpaK5LkK+TMlXfIPt30SAajgBCjWNH989ulv+WZkxesfwF4CCEEAAMcgTddtXyQdHrzQ5KnSOe3IAXKIO7fLqi8OQzy3l6/zfY4ISD7ZnkWlXFp1R0bmB0LVx4e8iml/cn9aqZ2f/2tcz8LExJLRrl2nmVMjFK4zyROBx1VM4r5txL3dPJvMcmUfGWaYmhYe93B4wXG/wB4CCEEAAMeoQGVNjx2qnM7mwlUVqhzRUPYCU3xNtgGimQDESSigBchzXeKncff4dHZSndybmuf3HPycWfnM+2MNnZunfn3dxsr2zse0+lm7lOrO3F/LeiqkO9XxuryXilDJLsku8GJNuHZPrKtPpq5xpzByLId8RzyuaznSNRt7CCAEAQAco0INs7YaTXO6JqeH1/DYzQERDbgHmMYNo3m0Q78cgHjMH8fxSFF9GYpMxaZqRaUK1SErX1CK2ammVP++t6Z3V711qr51JNq+YF164633R5tnr1NqGrqV6F+2YXSoqXXLnBWvuuvgVN8nU+lBqg6HROCx5ZQeiu2TwQM92hYprkNkZWh8344zzfkrXi1euhZ7CRxZ0AYAgL85Y0/e9KmDj972pVCqp7aS8mRwCFK4JEiRDYV5uguXm0MbCveYl72pXNcmQ9PJ5KkvHJ8sV/wQ18IlT6WiYpBthEmJVuciDa3dkab2Z+sXLr9dr2naS+HKYSU69y9SZeaPbJ6/9+4bb7X3PLW81iiR6xTINEzZNkhReXqPHOmqCENugEa8GNWc8pab2l/3ro+pVYty2EsAIQgA4BjkZA5Ghtbf87X+x27/dDg/RpWGQSFVJdPzZKNoj0OQ4pNn6Jx35N9VRZFNpzXXJUP+W+MyJDk7PP8seQrlxD8scb8ajJFZ1ZCM1Ld1V7UvfDTesfwOapi7WYk1uy/3umaf+tnHD9x90xWh1IARDzrizMUtnAwq2EUKhlRSbZsCqghBOYUKdXMn5p3zkfMqVr79DuwlgBAEAHCMslMHKkceu+OyxI4N782N9cVivk0NIZ0CfklOgOpy73gzSDzKocNTSnCvcs8RocEhnScb1TTyFF0EJm5arMr5thzfJ9uxyVG4KzpPoxEgs6KR7HDduFPbubFl1anX160++1cv53r6iX2VI/f+/NaeDfe+pjWcoaBSIt83yBJL7eoi1InQZ3CQczRKumGKrH7jna1v/tD7tdq5KA2CF4Q2QQDHiEI+reRyuQrP8zTTCNiKqjuV8XgBW+bYZVTOS7mpns/Ga1v39zzzxAfTA/vnucWpQEQEnKiuUNA0KJ3LEpkB0sWNB1TkUZV9z6XydGEqeSLtcPDRVNmzXp4UdI1HnPYpGAhQKlOizPgQTfmJeqXgn9S6bOWvXu71VKoXpOyn7//R4KGuBanpZ9uMgEqKTXLyV9vjyWEVst2SCHg2Rd0CZQ/tOT3dte1c8dIbsZfAC+5b2AQAf5tKxbze3d29oq+/f8HwwMDs3t5DnUNDw23ZbKbCdn01Eolkm5qaB2fPnn1gzpzZXR0dHXsWLlqyA1vu2FTs37x4+uC2d052PfP32aGueUpyNBKwctRcXSnnxvA9TwQdXc6v5boe+Rx0+A+3HzJVsmX7GksOsmhwLzMKUMFSaSznkhNvLs1afdpjFcvWXBtunrtRq53zso8t5E0digw+dtv3+tb/8oN1ao4iPBmsCHS2q5BpiDDnW+RZNmlKiCadGEXmnvB0xzn/9F69ffVB7B2AEAQvmjW6v3Gqa/cb3MRUmyabELjiuGnrnuJqciIiVbc9HqmNVI/KfVJkZxRSPEUO5iFuju3qpGiuqhuWagTz4lLT0U0zHwgEMpHKeL9RU9dNkYqkEmy3sMVf2MBAf+tjjz5y7qZNm87avXv3cT29PU25dI6sUkk2fOVJMrnRhqpq4gpZI8MwKB6PO/PmzRt49Zo1j6xcuXLt299+zs3YksdoGBpct8oa2n92Yt/2N6R6u5b6idGasG1RSISGsC5CEI8a5HJJkPiKyp3F5W8o2bojxxvi+zxLp2JJp5wfo5rO4/bVrDj5xtC85fdoHcft+d19caiptbVl5GUL/rt/c/b2u6+7wRnZ29oSVslwSuTYHummLg5DfrknnBKgfE4hS49T61veeWns1NddrAQ7S9gzACEIXpTswadX7b3np1eV9m1+dcQQh1BFXEUq4spyJvOoPHGjx9mnPFEjyatLKuch/pfiiszjkyuuMF3FIEc1fMvTbFfTxF9NKxKL5WJ1DT0VjbP21LR2Pqm1zFtHVU19itboY+v/VnJ6ququu+764E9/ctOHt+/YMd+ySuLq15Njp5hmQIQdfeYbzae5mV7SPp8YXOLn8szhInSKQFSVed/73n/L+9///u/Nm7+wC1v22ORM7Gx2x/uPH9+77W2pvv0npQcPtZulTKTK9Clm8FDSIhfwiNO6JkKRLQKzSraiUqJQooISI622Y6J12Wl3VC05+cdaw9ztSryhePi9ewcGZ91400++2jm7Y8/73vPe/3y51slP9gQm1t5zedcjt/1bszathH2LNJ4clrOcwdV8mjgW6WS4CuVKHhmLlg83ve0f/9XsePP92CPg90GbIPijPM+Khrx0fYWWoajmyAIfX5Y18PgjfOWllhtVKuUAJIOQojyXsRVxoHILWfmwpwdFGDIV29dMm4d+9fSwWxyNJwe7WqaM8Cl9lXX/EGOV2LsAACAASURBVJ21YGtt59IH3P5N92ptJ77iT9KFfFZ75JFH3/PBD33oExvWrV9dyOYoFA5SVVWl3MYcbjzuESS2uaqVtzl/Enw/N3QNhULisRjZtk2lUommpxOxK674z49u3br15IceevDrr33t62/FXn4MHtzrlg2LH8Nurv++hsTg8syBHeeM7dn6pqn+rqXT2YkAT7kRMFXSFY0006Si41Oq4FAp0EBVC1fuaFp52g/CrcvuVZuWDzz/fe+47Z4P/9M//9OFmzc/Neuyb172rZf1qj0+u2R3b/hRfde216YOrpuv6yWqCIXJ9l2xf3vyGMSDReriuBQ0HZoY2t8c3bPlfX5y/2NKfD7axwFCELyIA4+mOh45vq3YcvB9jjxcD8aXX4q46uITru8q5eDj8RxGqiwV8hV15oTsU9CIkqoq5HCXXB7PRByvglxiIa5G+bRdE9DJ01zKpUfjiWfHzkzs2X5y87yl5zjrf3aT1nncL5WGRYlX4rZPjI/Eb7z+uk/ceOON/7Z9+4567uJcW1tLurh6LxbLF+aqqsoqL0VsX273Ua7q8MqNX+Xs2iS7RvOnwSVBHIry+QI98MCvl09MTPznHbffVnHOO955Pfb0Y5MWaeMS1e18c0Y33l7o3vPmqe5dr0n27lueTo5Xm65HVsGjohakaGvHYOfyNXdXLD/hBq1u9rNK4Lelsft3Hlh88y03/scnzz/vfcNjIxSNhaijrXXfy37Samjc3b76xJ/vH9vzVTs7TJ5ry/DPl2Y8ThK3ZnJ5PjWxw9vFFA137Twj3Hri6eKlD2JvAIQgOHqup8lyHm5IqSuy+oVDEM9UzaPTyjYE5aZA5OvlAMStgXwqhyD+abmqDEN8fuaDliJP3NrMFIieuM8i1ypQWDMoEBYnaScdyO57es3WQ7uXLH7NubX+4LM/UWYdN/BK2uwTI4N1l1566Xd/9KPr3sdzRDU1NcqQwyU6nDc5+HB1F5fEeSLwuHZ5+BZTXNXL3s6qLbs4c72YxzfPk7MscTuhUChIbe1RenrzlpaLLvrqN+6/977CG9/8pp9hZz/GD/iNa7hh/A4vsf3mWcM9p0zv2/Xmnt3PnuWKU0Hj7AVPt64+5Zpg+8LHlHDbc1Vficnp8K/uuftj737PuZ/f3bW7LhoOUn1NFYUjYWqor+9/2S/KonNcZ/SZW+J7nn5X9mBxoe3zYIlKuYE3lwiJ44tuKPLiQCuVKDsy0JTv3f0Wf+LgE0pdJ0qDACEIjnYn4eH2Re5xHTnaLM/b4/jlajA+0HBPE3FmJcuyxMHHkF1rPYfnrPbkSVrVxLFJ92RbIsV3iJtQc3CyfFs+zm1XFEMlxdRmqtEsCug+6dzexS1UbL/35i/OT022+8md/6HEl02+IgLQ2EjdJz9+/i/vufuuM8LhMFXFK8TmL0+JxIHHsjxZqsPbvxyKFNkuyOHtzr2ARGAtlcTnoZvEr89ms7J6LBgIySoxXbzWLhRpVksT7d69p+FrX/vaN5/a+NTYq9e8+hHs8cc+tXoFX1D83E/2/qp6xZlLyLJjSmPzDrV63vjzn7fpsUfe+OmPfugrDz/y8Im5fFaEnlqxr2kiGKVEiJ6TqqmuG/5zLZM/0a8odW1H1A5Qb1x9MPv0L7891N9zhZouVNWYuqx25yp62y9RqeiSEdCpPhajsUyK9j3z6DuWzpr9hHjCL/HpA0IQHP3VF9+4/xeXKMiqMK7u0soj0vIAbFxUxGGHHBlkRBaSeUbhwCSek3dL4qAUEM9TyHdcEZJccdHmixO7CEoqT4JolNsVyd/BY9e6xHNFBxQRmjwrMrT18feUAmreHX/mm1r96rFjeVtPTUxUXXLxRd+791f3nMEhp6KiQoYbDow8LgqX9HAAzefz8r5IJCKDEN/4MX5uqWhTTJwASiWbkskkBYNB+Vp+jKvD+HX83KwIQh0dHfTMM8+0f/XCC793YN/+c+YtmL8Pe/wr5Hsd78hy1vnf9+87cKDz1p/+9PMf/8TH33Fg7/5qX3wPY9UR+f3lax4u+a2rbZgSATvzpy6DOzao9Wx75p+f/MV1b99/27cTjXPb10baO55Qg/EBJbzgD/YWDcxZfmfj0lPOymz99XtzdrY8j5hnUzAckhPJ2laJVFuhCl2l6dx4Q/7g0+/1ErsfUquXJPHJA0IQHM01mlKOQJqs2uIQxMFHNpDmxs6yOssmzxc3x5Y94w1xkta4qoxDE4ciNUDco94WJ+XyWB5EQTNImmmQyENUrskpV5lxAOKKMm7gyFVl0aBPvRPd4Z5N6ruijbO4bcMNx+qWTiWSwWu+f/WXrr766n+srIhSTU21DDdcysbVWNwLzxchkQ/2fMmscgmcbZdjqsK9fHy5BU2RQgu5ouwmHwqEyLEdGXrMkEm5XF42Ig0ETAoHguSK946Gw7Rx48bF37/qqstGhof/tam5eRL7/SvTHXfe/YFPfepTn378sUeX8rc7Fo9RxBTh29ApmylwPasI10Wa1d7SHY1F0y/qd9xxx6dV3TPe/tZ3fktrmOX2PXBT7fSeDW/yurLq1JbA+8PxmoH6ts5nM/d/92C4rmEvNXRsUqpm7VNj7c7h9zBqFyYL2++7Zbpnx6mp0f1tLQFTtll03bycDkT1HNmBo0LcX8qO0+Suja+r6Fj5dsIAioAQBEd5vciVVoqvujLQ+DIW+bLkRpWdsR1507gbvFMOMzwUP7dH0RQenE2X7Yg8cUAyNJPUgPj3TMkSzwjti7DDJUG+fONyzyaVftu7TBe/t75Co0J2vKF3y1Pvt/s2Pmm0rzlwLG7pZ5999qxrr/3hB7m7ezQaleEnl8vJ0pvfhiBfbhmuesxls/I5MjryBFDl0EqxaISCwYAsATrcc0yWEInn8nsFAtyrzJH38XYOiOdOJZPU09s7P5vJ1ok7EYJegW768U2f+dTHP/H14dGRYDReSabYL3SxsxVKJdmOz+QLF0MjQ1epc3bb/nAokD3a33Hffff/82c/95krzn792buTydEfxeONiWgsPF0XVtQazyI3nVCd7Fh738D+dtJDFAxF7FBl/Wiked5TqcduXB9pmbOOqhu69doFyWBzy/a5Cxbs6J/ubyvkshQwPNko2peXa/yt8Lken2LioiE1NhSY3L3p3c7Y1kf0huMH8GkDQhAcYTmQ4nGnL185PEYQFwJ5M0GmXDLBB0hfVcjmmakpIA4+IcraLjmeIU7eLqlWgfgRTZyMdb5x0BFvFNB00rkpENnykMVjLnIWsmXY0sXJ2xNXnQVx0g5SXDw2sn/nyeOznv6Qlxv6khpp8Y6l7dx/qGf2hRde+O+9/f3Vc2d3kGOXZONzbvvDAYh7g2lie4nLXCqWLFm6IwKNu2zZit62jtm9oVA4x1NmDA8NtHXt2dM5MT4RCgYtGabKYziVg6fH80F5rgxS3D6Ib1VVVc773/2PG/7t/H+7eN6C+Xux17/yJBOT6rcv/dbKybGRYEVFjMKhCJX4O6xqcjZ6SzHk9BRWMS8DdzwSShqB0FF9B5944om3fO6zn/3W3j176YyzXh/0lSgfRkgLBsR76cWQ7QZ1cWxRefBGLsFxiuRmJg030ds63b+zNbW96ly1oirlVdQPjN713YfsvZuHIrFovq66hoojKRLXW8T9w1y+UNBU2TbOEd+VqC4uskTenzqwY03Vgm1cGnQlPnFACIIj5nFnMA4myuG2QV45yLiq7PLO5QnciievBKiivjUdrZ+9XbX1vKtE0qrGZUGZuO8Uo65VrCxmM1X5bKbCLWbDmpUXccmjkC47c1O5tYEiS5z4fct1PiSH86/Qo5QpFoyprt1valyx5sfikWOq7crGjRtff9ttt51dVyMO6Nzeh8oNnLkUh6vEuE0PB6JcviBHh165cuWhf/zHd9/w2te+7pfiavi5krH+nt6WdWvX/v0tN9103lObnlqSSCREWArLBtKqV27IzqVDst+eCK8tLS2JD3zgAzd/5LyPXlhZXZ3B3v4KDUHJ6eZ0OlkTDgd55lTSeYgFdabnJw9v4diyeon3xXjIoPq6+qNqFL127do3fuELX/zBtm3bGrgat+9Qb/Xo8Mh88dBEMBoeC0cjRWfMDgYccSQRAcgqunIOs1g4JGe8JxHeC84kZccnKvPjPZX7encuiQQiubk18ahmF+X3g49RMuh75RDEF26uZ1HIiIggZNLk9GhsZPfmc62hLbebLauG8akDQhAcAcXzfdX1ZJugcldUHiya2/XwhIw8WDS3EyooISqY4XzT3FUPVr/q766qDtcfIr0yJS/rnEKYfFejUj5mp5JNheT4vMzQwVdP7N/yhsLUwKwqv6QGySaDq9XU8phDrlK+olONgDjwOjIsVakiTk0Ot9NI30nHUgjKpNLBT5x//ttLVonaa9spnUqKE4AuR4HmKivu2WWYQUqlM5QWt7e//W3rPv3pz1xwwkknP/G/36ttdseQ+HFV17ad66697kefu/nmm99jWTZFxUV3oVikYCBI2VyObMuiU08/edenP/PZC8446+y7P/+lL2NXfwVzfUUbHh1pzWfT1FBTR6q48NC5hJfKnRs4YGgiSGQzaaqIVFIoKr7bR2jTpk2nffmCL1+5ceOG5sbGRiqIkN93aF/l9Fh/u3h4faCqcjBWVVnID3nxkGuIQ0VInJ3CZMuZ7HPiYqtExkyvx2jYoLA4ANW604qdGonmE1zFbpJn+FRSNXHNVB4igsMbBzZVXJhZ4sjiimNHRByKJvbvfFVsSfcZ4vdiSAhACIIjS0GKnG5xplhGFgepsupKzg42E4Z8kYZscaT0zcpJqpv9tBKd8/z5eg6POzIhbof4wOcnD95a27n40cFnH//nzJ6nXqM6JSOglRv2KnJ4aUX2MOPpORRdhCIrT5q4OlWLmVhutO8kP919s1Ix1zkWNvChQ/tXrHvyidXhUJCm0+lyMb7LXdzV8vg+4sZteHj6i6VLF4+ed9553/p9Aej5Fq5ctq3vUM8FyXQqfvvtt7/R4kbr4n3HJieouqY6+5HzPvLzD5/3rxe3ts8ewi4OyVSqYXx8qlkR4ZurX7nKlL+NNg/uReUxwDRdXJA4LlXX1acaZ7XuP5L33b5t66oLLvjy1Y8/+sic+vpq2cDaMTQR9FPq4MDgMvmkcDilxar6bTXU5Cvlhv6+U5SjzKvEJUKKDGRceul6PMyGTTGuMI+FqZQTSxkwRBDidm6+nF1edqngKWM8Hk8rQAUeLku8LmbqNJWYCqYGe9ZYiUO/MKvnuPjkEYIAXpCvuLrieXybSTx6ubpK/vHlAUvzXQoqGul2MaT4njgGBf/oRKhKvDMnfvzSOvjI4GA62ZI7sGlFRLyHwjNd+1yHzz2i+ORvyaJuxXHI1A3S3RwN9x9cOd/3ef+VIchLHdTk79VMV4l1/E47BT89LI6IubDIYRFXi6T02Jw/22SKfrpfIy8fFwsnjsJGliiSU2KznhvrxE8OKkp81h8d+2T7tmdOnpoar45G+Qq4PLhhuc0OtwMy5dhLlvg7l96sWbPmqdWrVx/ReD7tc2b3dB88+Kme/v75jz3+WGd1vIqWLFvW+4mPf/y7b33b235QUVlhYw8H5lhO0LIsU+NBOMXNdRRZJevzd48f5++f2C/zpRK1drQnKqqq/+hQFXv37Fx80Ve/cuWD9z+wtLa2msLBkAhRtmxPmC9aNDw61VrMTKgULOS0itqDlhk50XazZIgko1OJNKX8PVD9cvtDj8rzhCnc4cLlKyuN7IhGlloeiNXw+Fjky+ORHKmM2zBxhw0uRRLHrICrUJUZpNxw3yo/NzVLvHUfPnmEIIA/GoO4JEgGFyoXBPmyAXO5/Y5scCsPTy6VS4v4TvWI392om/1M3fJTfl6YGm3PJHrjEV2c9DURdrhXEzmy9xh3QlPc8sCNqlciv5Cqpcx0nTt1YKx/24aPDjxxT3ul6otjn0dj9/x3RlNUT7WdkKJq7tTjt4ofxXjJztaUjKq+XP+m6yNtJ+75k6+cux4/Y+jR298aVop1nsYF93pO8QO58XuuzPu+5iq6p449eWtw9Ffft9OOUajsXPhQw7JTN/2+9+o61LsomytQOBKTXZAdj3vSiUAo5wVzZbsgRY6/ZFA0Eslrun7E4WVuZ+f+W2655btj42OXnXDCCes/8clPfOX4445/5qXcY8ZGRuK5bLY2nc7U9vf3L5qYGG/J5fMx27ZNVXw2mqbZ4XAoW1NTO9bS0tzd1Ny8P1ZRMR6vqrL+mvb8TCptJhJTswqFYqyv79DSZDJZl0hM1xUKhQiXSojPoxQMBnIVFZXTra3t+xsbGg5Fo9Hx+qam1F/rtzk1nVUqq6L/J5inxLpls9kwf8H5KsKVI7yXZ5vnIRcC3DuRZPMgqqyKT1bXvHAIOrh/T+ell3zjv+695941FRVRCgUCcmwr2dBf1Sg5nafxsWSTVfTCgWCgVFPXvns0UEmFVE48znMUiuOJuHEPU9lbVP7HEzE7ss2PLQep1+RUPJ6solfk2GO+Ux7LTNPLI9dzCSpP2cPVy75vyel8HCtf5TulGI7tgBAELxWZl47oiZVzLKt/yy/0fTvPzianzg6Ig5zOU2tw1Rc3DOZSIZfnKVPFwVGXV4l2MRWnUqqKgsFU7+Z1/1Ts33t8kyHOn06RbI273OvkFQqkmwGy+MrQ9Kgo3rMYri+ETNPy8z1fVsKzX3TvMnd6b/Whh29/z8HH7v1/ccMyVM2SV7c8dxrPZM1UrsYTgSbnhikfahhdGDG55Ov3hqC+wYnZ3NSce3+5PCKTLHUrN+7kkxKfjDgEcTVFd3f3wqHBwdniZUc8TMDb3va2a2trawfnz5+/c86cOb0vxQeeGJuI9g8NLNn6zOYzv33ZN1914MBBnpusim+ZTEb5bbWe+9ygj9xzra6uLt3e3t4zq6Vl39133vbAsuUrnpwzd173X2rHzWWy6vDg4JIDBw6s+tall75m797dJ4rlr+jt6a3LF/IkApAsFVFmTrRcZRkO85hOtcXaurqp9ra2vT/6wTWPv+rEEx5pb5/9bFV1demlXuZsKq2MjIwsGBsdnTs8MjJ7OpWoLZVKQbGtDTmYF++zjquqmuZed921/t133rPrbX//1p/8TnAdH29LpVIqf+fKX11f7nP+zJQr3Iieq2P5q10jAlAsFvuD69Xbvb/9u5dffun//OIXrwkEgxSvqCx/7rKazZPjV/Ggi11dBxdOJzJtseravbpZMUB6rJix1KAi9g8e8Zm/67wkBpEsFeIOGZ64OeKKiG8KD7RKpvgj3pev03gyZ41kdbLLFw/id0bE+ziezcGHXNUnR1xg+aYhkpZZwmEaEILgpQxBR8xsW9Xbe/t3t+YO7jjd9qYNcovyWlTVTW6wKXs1OTMnHQ5HllfQfb8UUMNmcX5nx45DQ7uPr6C8uGItUlE8HjaC4qBbEAdRi1yl3K6mIMLVdG4qZA0cfJ2fTV0rfkHPi105a2JgVa5n72vrdcuoVEukq1zE75XnT+Pww6UEPE2IatBw0aZoQ5te39z0e9tQTBcc9SMf+mAoIEIBH+RVx5YHeu6GrIgQp8xMjcEBiCdOXb9+/fF333X3hwqF/JdCofARBTlxwuK2D796KT7ooYGBhu3btp/1zW9+4+83bHjylO5DhxrFyVT2QuOxijjw8EmPG3nzTZ6QxcmJexuJgESDgwMVT29+eoXYYVb89H9+/g9r1py0+9of/OCXa9asuW/ZihVbXq4ddmJ8rPJA176Trr7ye2/esGHDG3fu3NkxMDAgq1KCAVNsw6hcbj7Bmma4PF/wTC+7VCpJIoQEHcdrEfe33H3XXWfPX7jwE2ec+Xe/fuzR39y+fMXKh0RI+rPPWzU6OlrVtWvXGVd+77/fuGH9hrN7entaxLIY3ACe9yEuAVFkhwYqjyclAg03sD/3nec+kk5mb6qI/7ZEaHx0tJVLajTuZTVTHavKXprlEiEOQY7lyBKdxsamPzhn2FB/b/3l3/7Wt2748Y3v5B6J9fW1sjF/eWoXU3ZyULiUU+wKh0Z6q8eTiY52rXOPP/jsM43HnfTLqWj0DZmpkTrHSomLgRIFPYfEt5nCPM6Y4sx0z+CFM2QnDc3VZHtETwQdOcshD2ykiX/bfFEkgpejcKGSeJ0pv0vFoktVNc379EjlGA7TgBAELwX/xbzIrK47KI7QRa/oGbJ6baZnipwgVFze+SJU8DHOFVeABTtvFG0rGgkvsJwdd941vuOpN/rJRL2pu2TziNOaI0644mApTrQBJSiuBD15FSpOUpQe7JlXPTm67E8JQe5I//HF0YG2Wo0Pzh434xEnDF+Ooi0nV+MBA7hdguPJ3iqNs9q7zcZZW3/fe1WFdO9fPvzhtCoO4qpTkvOmlTwemFKVDT2Nmckg+STCVQkTE5N0000/+ZeOObO76C84+i2HhnXr1/395z/7mQ+JYLZ6OjEV5Ko7nragqio+E35UeUKVqVgtT5frz4yKyaEuGo2I9Yo/N+1HNpWh+++7b8kTTzx+8bLlyz90/XXXXv3mt7zluoaGpsRLVoqSzWrbt287+5KLLjp/06ZNpxw4cCDOpT1c9djQUC+3OZeAcLtcX85H6z+3XhyC+CcH2Hhlpfw7B4ZsLk+bnnqqfvfu3e+/9dZbz3nHO97xi717dv3XosVLd/65lvuRRx455xtf//oHH3rwgTNHh4ZDvP0M0xA3s1wSyd8er9y+jD8Lw5zpaSi+ExUVscLzA5AMQWNjrY54j0AgMjMxr1IeaJNLYdTyPIH8OLfraZ3Veuj3LdPI4EDtD675/sU333zzuwIiwFdWVlAmk32uKtd1yv0YLBFQVN2j2paqcbUiIKsOlVnHdXkTe75YuXjlLcXJsWUTQz3HuamJudbESEcqMVqfLyS1EBUowBOjaooIZL4sATL5Iomr50XSsUVIKql8kVQuRebWTK64CDF1sU6eQumCQ6pZQw0dC9bpNQvSOFQDQhC8FIU95SnljzYEmYqtkavycPcmxyBNk2MF8VjT6kwvND4LcUkQlRzdKvqGPNg3zFlf0zp/Rz7Vf7btlK8yHUccAJVAOfzoRnnMITl9h0rT05PRwrDslXLPi1lrb3pP1eQD/7OS8hnFCCmyvZLra+XRtGV7KZcUnjJEBLeMJU5F0YZ8tGPxHVrt4j84LsncjrZ9GtHreVqRaFCcdLnqQJw0LJ5bTXYN1mbmDjN4YEPq2rev5vLvXP7NXz9w//Tr3vDGu1/uT37t2sdf/5ULv/yx3/zmN2f39/aFePJWnuaDT3Zy9m7+7DjIueWTEfcedGZOgHxC5tIUHgjSkiMRK7KNCIcNHuG6UCiKC3iXNq5f19bVte9bu3fvOn73rh2XLVm6fNufez0OdR+c//2rrzrv9ttve9+hAwfrcrmsHE+pob5OlgDpM8vJwcZ/3i4tqyef/01QlOfu58BQWVEh53TjgSgHevsiV37vyg/u2rXrpDvuuOM755xzzp807UsmnTZvu+3WT3/lKxf++5YtWxo4gIfFdjscPB05ECbvf77cjnwRIT8PGdDK34d58zp/Z0DMwb7+qi998YtzOPTwHFyy+kvxnwtDXILC93FDfbH/FZqaG/9PdWU6mQp+7z+vuOjaa689j1/HAy5yQ34OPlwlJif3FaG+KO5L5zL0d689u/vjn/zYRZ0dHU8dfg+1bvEIZylxe9jPjaqUmW7MjvW/KjvS82pnpOeU3ER/5+T0SG0pn9a5vWBYrHuFOEJEOKjxkYLX0XZkeybd0GR1mcfVeHqQJnMW5cTPWcefuLFi9vyHcfwGhCB4EaFn5tAvTwhqeeTE31sK5B91aZDu5eIhvxjRPFseuP2ZOTRU2xfhhcjmMYrU8mjThidCjquVZxxrWDGZe+i6h5P7N59ZsGw1qBlyPixV1ckSB0pLvEI19JnJXUWosHOUG+tf6U4eiGm18456cEA/k5yVnRpZaHAJkPgdIq3xOG5yehCZ1sTVqKzOEr834YgQUNVyUJk1/9cv9J5LFi/eGgxFRbaz5PJyaRevvM5h0J0ZQNIr99DhsFBdXU3btu9ouuLyy7+zft0TqZNPOf3xl2MPGB8br7zrzts+9uUvfemjT63f0BoOB6ipsUEGBf7E+STMJ0qSbTd8WWWkqepMUCiXonA1mD5zovVmeu3w58psWRJhUkQ8HgkFKZPL0w9/eO279u3bv2LTpo0fPfHENX+29fzNbx5653/8xxe/9Ohjjx6Xnk7LGdLDoUB54l+l/FFyyRYvL6+PMhOkD7eTkfve4WlkZkqAytVjJEdR5zAYDkfkyMupTIYeeujXC7v2HbjihhtuiH/wgx/87otZ5lRyOnT99dd+9XtXXv2J0ZHhUDhoUjwWJ9XjvduR3ce5pIeoHEblRQP3KxD3O5ZHtuvI0BmvqvydQJ4vFCoTiam475fb68i5AJVyAJJT3sw0kObPqbo6nmlubjn4O8s1mQhdc/VVX//BNT84r5gXQam6Ula/GQpPsWHMVOfqskQtm83RGaeddug/Pve5z59++tl3/MGjTaSRNyYv591+buQeyk83FacHV2Qmhpblp0cWZIa6T3KSU40TE4mKRDqtmmIdA6b4zgTC8riR5wsIVxXfKYUyJYu8aFWhbeVxWxtPfc3FWsvqgzieA0IQHFn0KddJec+FH3/mLPH7nisuPxV+rqIcdQhS7XS9xu14Zmaqdv1yCRDJE6c4eBumvI+Dhwg6fkDEoMOvDczpfECrrP50aWK6ISwO2Cb3CrF5sDfOKJZsLEl8kDR8CoiQNT1ycFVNcmiJuPepo13OYmJ0kbg67YyJS3AObNrhLMhVddxyiVdf/Ck5Ktl6gJpnL9hs1jS84FQUCxcve7p17oLBHdu3zwprEbLEe/F24IDg+eWTLVcB2Ha5U1hQlrwoPMr0vEsu+fr3161de/4pbTJG/gAAIABJREFUp5326Eu5Hxzo6pr3za9fcsktP/vZu0qFHMXjFbLkphwKyst3OARwuxJPLKvnlauMDpcCcZsQDgtcQsKlE7Kab6bNEwcJvo93rVKxPFFndVUFTU4l6fFHH104NTV587r1a//llJNP+/Wfsh7J6UT0F7/4n3//wmc/98murr21XEpRw6UoWjlolqu4nOdCGlfj8HryMip/YL/3ZkrrDlcBytdyqRCPbyV25qrqKhE0ctTb2xO/5GsXX/TDH/7Q/MhHPnLZ0ZUApfQbfnzDBVdcfsWnh4dHjPa2drFdLRk6ecJiVezsruPKOf04hJfDXHlZZOhUHNlTKhaLZRobGn5noNF0KtkwNTUVlScFnpRXhCAOQ3xNI0di9klO1MtTtdTU1Gbq6mqfG1sqk0wGrv/RdReKPP7JYqGo1dZUi6+aK6vNytOy8NQtMTlvXTKTolNPPrX7ggu++tlTTz/jriM+BkWa/JlAxLcH/GK/biVGFpemx+cXBwZWFQd7Xp2fHO7MpSfjVikVcX1b4e8N6UFHr6jKBKtn9dXNW/Zg0/LVt2jtJ+7GUR0QguDFFAP9378+7yTAjRGfe/AoC4L8/LZg9tHbmhWn3PvEU7XyyZXKPay4bQ1fwcorWZ5w1QzauhZ4rneHUlt/MNzcejAx0dPgeVa5UTJfjfOcR1yGJBt6erJaJiiO7en0WKOTGF74YkJQdrRveSk5Ho1r/L6evFKWy8qDR3qWvFpWFYNy4uRnRKtT8baOZ/T47Bfs+t3cMuvA697y1ns279j9scl8iWKhsDjh5GVja98rb0u+kuYTrDszeF1QBApHbI+1Tzyx6Dtm8PIN6zf8+0knn7T2pfjwtz27bfWXv3zB9x584L41PGBCbW2tXHe+2rdnJmjVZDWkI6tTZKidqRaTYzzNlJ4cDgmHH/fLjWyea4gr94WZnkhcHVUqliheGZMn063PPDPrsq9/48otWzZ/cNWqV617MesxMjJU9/2rr7rwR9dd96+jQyPBeLxShpzf9nwqL5c+0zhYVuGI5ZAjD88sNzdO1zT9udKfw8873G6L2834M0Vfh9sMyUAvXlNXV0PDw0OxKy7/zhduu+3WiXe+89zrj3TZ16594t03XH/9RycnJo3G+nr+0snQo8rrEk82ReNtx22yuGG0XCZdk19FGUJ59GVxIVBdXZ2uq6v7nfZwk+PjHal0KiJDKHdIUA9Xa6pyzjoORPz58PqKzz5jaNpzFyDX/vCar1195dXn53N5jccC4lInQ6xrsZAnX7xHrKKCstk8JdNpOvXU07u/8tWvfubUM07/k6pwlWAbp+odfPPTQ3dTJtFkpYaXFDgYpadarUK61rFd0whXToRqWnZHmuetDdS27VZiDT4O5YAQBH96Dvq/JUDy8eddKR/VwcbJZlpykxML+aDObYFULUAqj+nh8yjHYjdVeOg0nsxRkW2DtGA0T+HIczOda/HFheknr3lw6MC21SV7OmA6fBXOTYZKsrs9l6jwGCJcimVwZ/ZcPlQcHHqVl+y9RY13HPGo0/bkzppDt//geK5S00JKeQJZOYgRz6FmyzFMuC2S5/OkkwbFG5rSZl3tHy16j0ZC7patu264/fbb3rZ3766WyvYWefLiE6fC3XodV57IDrcNOlwdE+HZ5cW6PfTQQ8fZjn3lxg3rz19z0slP/jk/9e3Pblv1tYsvvubOu+5cHY9GuSSBXKtc9WKaxnMhoFwapM+06ynIEhCe6JVLKtyZtimHwzG3dyrPZm/K9kCu58vqz8ONpv2ZUkDOHbxH8Tg1NdXV9Mgjj82rrfnPiyYnx8+tra2fPpr1GBoabPzv//qvb914w4/fJ5ZP5UBSDpfl9ko8n5U6Uxfmz4QhnsOK10M23BaBzBLrYz8XeEhW9eiGWGczKPctLu3g52sifPC4NIeHNnC45EuVg9bIIHTgwMH4ty77xkWbNm3sPpIqvkPdB+Z98Ytf/MS+vV1VVfG47GVXLBXkcoTMmRIXHhGcg85MTy4edJTk2KYa8XQsgUCI8vkC1dXXJ5uam3uf//7DIyNzMplMhD9PDtbl6xjvuZKx8nbS5Ng88Xh8Wnx+Vimf0W76yc1f+NrXvnb+6MhouL1tlvwu2JYrPzhug6TPhMvJqSk644wzDnztkks+vuaUk3/9Zz0qVbRw8Wj/zO0BPzvCraZN33M1RTdKSkUrRoUGhCD4U/jlYo4ja+s8M4Xh0ckPD6+aHBiYb/Cw94GQHOzM40kc+QqXe1zJcFUeTZqv1yPRioz43+/0GArPXXaP2dj2j+ne5BJDLEGQxwzh5pJy3CFu50ByLJGAapJSsCjV13d8VSbTwOfHI11Ob3JsfnKwZ2lI80kzNHkl7pZXmvj635MTTopltFQqKUFqaJm9x6ipP6LxfFYdv3TLty/99o0Xf+PiL0+Nj1FtZYUMAFyldLiKhU+osvGrLX6v78qTbTgSIVs855FHf7NcPHzVhvVPfvKkk099/M/xye/r2jf/S1/44jX33Xff6pamJnlSO1y9wqP4Hi4JUWcaRPNjielpGYK4SsaQYSdshcPhospN3h1HvMzXi8VieFo8j9eNG9ByIJInbv9wu5rfFihyuxz+N1fTVMQi9MD995316pNP/pi48xtHuh7TianY5Vdc/o0bfvzjf8plMtRQXy9rbAvFgiz14N/By1ou8SmHuVw+T+l0Vj6P22FxQ/fKeLwgnmd75XXWxPqEksmkmsvlZQkYN4auqIxTUbyvKz83RVZBcTXS4YbSHKwa62tpy5Zts6656qqvTE2Nb6+peeFA9+CDD77nsUcfXR0Jh2UPMH5PDkK8rSzxPbEtm8yQSYFgeUDCbDYrd0peHzMUlFVZAdMWjxW5x9Z0vKq6+Pz3Hxsfb+JhDcLh0HOFuBxKZbuemZIyWR0oHuzs7Nzne555x513fuSb37z0AvG6UFNTvfy85Wcnfi9v16D4TDm8Dw6P0umnn9pz6WWXfnj1ia9+/KU+WilRWXWGMYAAIQhexpg0UzrBJxPXd0Ti8I54sERr6Jm2wUd+8e7S1FRVhMfK4ca1zuGqJkWO98EnGO4nVhInQ8vTqSpWM6oEw7nnv0+g+ZQdffd8+zcDh/YsifBrKSBClCa7mpe72PtyhFldDVJQLGdxbKjDnhpdcDQhyB/sO9FJJOoi4mTjiYDmqUb5ypsHNOQrbz6ReiZlLLH68fqE2Tz/PrXm+CMemv99733nlZs3r/3/7Z0HgBxV/cffbO/19nrJXS69h9BJKEEpf4WIfxUV/GOjC4IgBqQqKBaagCC9ichfEEIXSCAhvRCSkF6uJHu3t3u3e9t3Z2f+7/dm53KhJoFoyP/70eFyZWffvJmd951fnfb0My9MZR4K0dDdX1rQMTEgPISbkArGKSKmhRravv3WW+NluXjX0qVLvz9lypTFn+Wc7ujsCN5w3fU3z3rxhYO9LidzWKzCNULuHtGwkoJxSwqzO21Mq5XTLxb5NBeY48eO7jrooCmrJkwYv2TUyFErKkIVnVQlulRSTMlkf3Dz5s1jlixZcsSSJUunbN68qT4a7WXkmrKYDSKmysD0gGNFs+AxzSTkcbtYe0cHe+yxx859d/nS2RMnT5n/aceRTqeMD95/388ff+TRMzLJFAvwuSqVikJhmQxGcTx63Bkt+DSnsVivqGdTW1ub5sfQPnr06HcPPfSwNyqrqtocLndMlUtGLnS8PT099fxYxvL5njpv3rxxXV1dDnJFaVYuazlWSMsU1ItEkjXJ53NzoZBhs9/417HPP/vM2XyYN3/c+Ldu3tT6s0su+VqKi7fqqirR08tEsVUi1kqL3XFyIUn/pnksygUhuPj757lwkfhnycTFk2qy2FSrzaZUVdV8RGZXn5+y8rxut7D40AMIRftb+Xzkcnlh7SJhVVsdKoweNeq9V1955azrb7jhuq6uHfZgMChivUj40nVJlkDaB1nFYrE4m3rUEW3XXnf9T/8dAggAiCDwHxVBkubC2O3AaLVzwbDIktcvjKxZfpxHlZmLLx6FkiyCSm3UPkOSRVaXUVFFyFGO/65odDB3dd1KqWJo7oP7C7aMeblrsf8HuXiP2yb6kHHRYNRiTIRtX9Kq4VIX6kyqu7rUuWEq/8FuBRQr0Y322D8emGYv5G1mJ60RXIxwEVRStIJy2rHTokqxFybmrmzeZK1t3SPXVG1jS/c7s1+7MdzVffeKZctb3G4Po6d/XfjoIki49SiFngtEekI3la0QtDjOmfPW6F//+ld/mjNnztXHHHPMa3tzPlOpfunO2+/4xV+ffHKGhwsgSvmmRY6sMUZa3EuKcB85rBQwnGORnphwXY0aNXLbmWee9fhhhx02p7m1dUVlVfXH1fd5KdrT4+zYtnX8rFmzvsO309aseb/Wbjczp80kRA/NJVmYKEuJlYPDaQzkFlu54t36p//xjx/wP/xUEcTn4Vv33f/AeZFIjyUY8JctVlqKu56lRhYPB7/24n19LJnKkPjpP+GEE+bOmDHjr2PHjZvrdLmivkDwY4sddoW7KpYtXXrCIw89ePGc2W8enOSCxVgO+iaxSKKgIFxSVhFFn81kmZuf1/7+fvb440/8sDvc9VBVTXXko/a9ZcvmsRvWrx9qFUHlmqtKKV8PxnLwMlkIqSAhP57Sl750/LsnnPjlWT6fv1uVqF4DXfmqVCyULPzaUYeNGLny5pt/N7D/WE/U9MuZv/APBKYbpJ2xWoo60Eme5snj8RoXLVp02ttz547ZsGmrj4siYe2i+SMhJEQfH1M6kxYWwYkTJ3Zed8P1Fx997HHP4y4JIILAAYtIFRbuDJE6r0jOuk8UQWrvOmdp+6qTOt786/mRNe9OcyT7jD6+AFr5HZsaLBpEwUMjU/lNX2Qaib1qAaZGryvlbqr7yMXPVlW9tmZITW9s5XY3NVkkZ5UsaUHRRloPJKrGnGMeC99Xjt+oO96dnm+f/4S18YhPjdtRerpa+9rbx3r5k72RUo6puCEXVWah90iYyEyiDtdFLuZMDhaqHzrfEmzc4+J4Rx775VefeOpvv7rq8st+v6Nze4Vo/MifrsnKQsKHNhJBwtVhtgjXDQUQk5uFFnh6Mn/xxZcO4T+/fu7cufLUqVP3OGvsrdmzv/XkXx/7H2pV4HbaWVE0cuXCxCja5Wp1ZPj32WyG9SX6uGioS3z9G19/+owzz7yrob5pvT8Y+NTqyBWhEFnyFiT64sunHHLYvHvv+fPPly1ZMFmWtcKEevaYJv4kMdf8R6KOTzTWx958883j29q2NTY1DfnY6sWbNmwcOfPKmRdv2rQx6HQ6hJWCCjul0/mBejhkQaFq0J3bu5iZz+GJJ5+0/Pvf//6fpk47+tlAsGK3eoBV11RTfNoTG9etX/74E09c/OijD5+xI7zdWVlRqdXoKRUHxAu9L9XOET2t+Mdl1cqVw+a9886p/Nf3feQxbNo8Jtbb69Iy5zSBQtYmqsZN58TIhXg4HKaAZ/m888578LtnnnFzQ3PLlt091/2JeG0kEqkx6i7NkjLQq44sf9TahD5/JLIzmYzxscceO74vHmcNddVCCGuNfrV6TyYLxSrlGLnWJowf3/Hb3/72omOO+9JzuEMCiCDwBUYUDKGCq2X/lmjprAUEMy1USKVsGYr2oKq1ctqvxlfVMMkdp+o/rJQ3MWOeiulIalL2xjs3H7Fp1qP/3d/x3lFyvLPKyxeIgMvMjBR8KueEC8wknkK1WjOUZlwoqVQ1hxUkvoi5Qu3GmqaPzA4yOpw93sYhCztXLWuihkNKiSxJJRFjROkzFB/ElAKzmo3MnC+yVM/WUaVEeBStNZ82C9lYeHS2N1xby/dbJAFEQTEUHEy9iEpaPASlBpMn0OxwyZaq+hWSv2avgjJPOvkrj8S6uqtuuObq6wsF2ep00rEXxMJEbhA9g4oycYQINTCRLk1VevN8Hmtrq9mLL7xwmFwo3rxq1arvjxs3bvXuvvfWzRuHzPz55Re+v3ZDKBT0aQKXYnq5WKBaSKLuDxUR5GOgdhE1NTXdV1z5i9996/Rv3e31BnJ7eqxev4/iN57iQmXFBef8+NnFixaMdjjM4pwZVMNA9phucSS3FQmhSDjcOP+deafwH9/5UfuN9/bZ7rrrznPfeONfh5CA8rjdXPykxTVL7irdmiKqcEdjzGgxl/7nrLOe+slPLvxV67CR6/bmvA0bOWJtvC/+M7Kb3P6n288jkeh0OAdqKGkxQiUuYAtCxFjNJhbr62dvvv7GKdlM7iG7w7ZLkH4i3mu57ZbbGii4XK/7QyLKYi5XfyYXGxduOS5Cxo8fv+F73z/rxtqGxvY9GXMy1R+KxWIhPfaH9qULIpqbLLXSsFjK2X9F4S50cUGklxDYWdrAwMV4gfX19bKRI0du/9Vvbrr0mONP+CfunwAiCHyhUUU45M7u8QMCiGJihCnewEq0OPPN7TCy8Hvzvtmxfs1UfrvO8dujbJCKVpNJtiqFoi1flCUln3exQsJmUvPMIZWY3UhBl3kRQ2CmhqlUdFAtiSdlm93K0vl+ZrV5WTrjZFnmSQ0fM/3vxtBRH/mkKzlHZnNrnnrO1/j+cdEta0N+K4UpUzNWypSxaC0AjCVWkCl8x8lykWhFsaPtMPYpfbVK2a3S5qfvOdmgRp3MkBf9i4yMMsAMrJCTmdVkE3NTLBVYXDWxUH3zetuQ5nl7O+cBt0vt6+27NR6L+2/+zY1XKGqC+X18DtJJEadBrREolkUyaJl5VNmY3Ea0uFrNFrFAhoIB9torL09J9Pf9Y9XK9/573ITxu2WVeuXll777xuuvH+l1O8vVthWRkWfgAkvEIdHix9+rKxxhI0aO7Lznnj+fcdS0aW+dfc55n+k6a20dtmHpksXnXXLRRQ8tWrSopb6+Vlvo+fvbbTYRqKy5r0rMzcfGxYZE4uHjRNB77644/u9/e/IMqiAc8Pm0VHJlZ/o3WS8o0627u5tq2ai33fmnmSed9F9PNDQ07vgsx+Hz+9KxaGxme0dn89NPPXkiWeus1p2urJ0p+FrYHLmRVixbNrFty1aqW7Vy8L64IHF3de1oJFcateWgfWiFKVWtLYTFzEVMktm5KDz62OPeDPiDezz2vlisMhLp8pKVj0SOboGjBxASipLJqHVwF83SuIAsu73o8UJUxRCfX1lUZqa4odHjxrffcccdPzj8iKlv4O4J9nsvBqYA7LY9qPwfrRigIqSRiWshk0oxATIr8kVFzaf4I3iXxRpe22Tf8d4Ix46VY6w7VrdaO9c22CPrQ+7eTRXedIfNp6SYz8AXM36DNdNTJ3V+J1eFUQtgtvEnUCNfOJLZPJPMNpbIy6wrXWKhlolL/SOmPPaJyj7QuMwWal6RoewlymSi1H3RlF3Sej8pkkhhNxgszFziN/No1zi1e537E4VgPDwkH98x2kyFF0Vna81Fo1XUNfN9UmsILj4kM8tZ3cxYO2SR5PFt/yzz7Q/4C+ddcN6vfnLRJXdS2nI01su8Hq0/VTaTFiKILAQkIIsikJyJINx8IcssFICbzbJQqIKtenfl8BtuuOHu1e+tGvdp77lm9bsTXn3l5W/k+GudDvtASr7WOkHS2jDwcxbu6mYHTZmy/YqZv/gNCaDP6xqbcvAhb5/xvbPur6qqLiWTaS3XkK/ORXmngUSPPyMXU3dXV11PVzj04YW91zFn9pyv7giHg3aRhs9ETA5lP5FLrJDLCfHR1dXFXC6P8pOLL374v07+ymOfVQDpBCuCiW/89zce4ceR1ApB7trndqCMVtni0hPpqeho7xjxwf3w8+Dti8erVCq8SGJXZDyWBYmkBY4XRRVxG6uvr99icznlPR1rX19fVSaTtovAe2nn/IqNMSGGKOZHZH7p/1ZlUcNKxAAxracdZaWNHj02cf31v7p6zJgJb+OOCSCCwAFjDFIHlz+kxZZcPiUDs8p8KzLmVs3MxW+Hbtr4Yunmj4guk8ocZv7kaJLKCc9UZM7Mn4ItouozuTokRas2LHxtFAxrsnIRZGbZQoll8/yJ12hlssnFolkuaLyhSM2kyX8zDJv8ifEORl/F5mB9yyKLxcdv0ibNskRZYlQ0jurRaBWwxdVv5uPs2dExJt/XPfyT9lnoaDs8F4s1UAyEwsdOK41ctoyZzeQaKorxK4qF2TzBtL2JiyDfkM+cphuqqkxfcuklV/3ohz+6j57KI9EeVqKh83FQDJCF5lIyifmVRd8qo8isoid6h1NLO6dg5ueff/6oO++88+pPe7+35sz5rzlz5kyg1HuyYOgxKDsD3yURzOtyOdXTv3P6/aeddtq9n/fFduKJJ/11wsQJq2mxFefTqGVWkQtLH49eu6azs7O2va1t1Af3sXH9+kNnvTBrRoqPlUSP/hq9CKK22DOWSGXZscce99Yll1xyVV19Q9fneRzTp09/aspBU1bScYiK55I0IOJ2uQmLfna9to0bN35IpPK5DkR7ekKiBUm5iakeryOKFyqaCOLnI9fU1LRXLjwSkul0ykyiUBpU4HHADlzu/i7ceWaTcL/xDyor8c+tXhNKHw9/rVJXX7fR4/UUcdsEEEHgQNFAlKhuZIOqMItNW0tEeriZ3zSpm7OFrEPixqlvJRE7Y+ELmdVoYma+SOtPs5R5IheKWjoupdbLBdGziInGm7J4D6p7EkvKLG8PFUYccexzlhFj//GpFiv7sJKtoXVOoGpoV0G28H0ZNBOWUWsEKfqSlQWMwaiwvp7tdbmujsmftM/etk1HyfFYlZmLOJmK3zHNPUiNGqmOEaWpF2WF5Usm5q5q7HTXDVn4ec1+VV11/2WXX3bFueedcw8FXlGtF0vZHaanytNiRAUFdXFAdWqExYMvwHxBEkGtzzzzzDcevP+Biz/ufTo7tlXOnTvvy/2pnFYQsRwzM3hhpK+U+TRjxoyXTz75vx7n+/3cC9E1NTe1UVYbBeSSFYUWer3VxkDPrrJLqaury8eF0NAP7mPhwoXHrV27ttJqsYmAar2LOQX66plM/Yl+NnJYa+8PfvD926tr68Of93FY7TZ1+vHTX9Jbbgy2ZA3uP6ZljhVYW1tb64euu97eUE9Pj1sPimYq28Uyx8pVq/n5yoRCoY69GWdPNFpJ6fF6CQZWtjTpDXuZJm7EMegWIXpPPYZocAD1tm3b/L+76Te3dIe7qnDfBBBB4MBA4iJIko1GlVxB/OlcKorS+iQiSF+UKEWWiyMKFqavtOXIZcPv2HkqfseFjbmUZ5YSX7y50DGWCsxET+X89Saqusu0PlkWuhqLWUb9w7xWiblNRZZNxFhWsrCasYe+6T/smJsN1eOiuzNkS6B+RbBxzII8c7BCyaAVNDRorR2ot5IqepMVRV2aUr7fmgxvOaLUs875UftSIiuDme3bDrLk0yJTTaasM0nryi1Eh6K1LsgX+OJgdDNXQ+vbRn/Fxs/zFNQ0NPRdevllvzj73B//2WQ0yJFolBms5nLhvJIQk9RwTQ/2pcUrHo8zj8fFRUs/czn4QpzPsj/+8Y9Xrlzx7kcKvo0bNkxZsWz5eGoiKhZuUQV6p+gQlgkuHBrqG/q/+93v3jd8+PB91oRy8uTJ7/h8vrRovFkO0NXFmL5IU+d6qoDMjzMw+LXtW7YO4SLoGMqY83IBKCLYlNJAwT8R/JvLi+P71je/+Y8phx7y8r46jsMOPez16qrqqCwPbq6q7tKDjCx1FGOX6O/zffD14XB4SDQW9YiMQLoWVWWQpcZQvpYVFvAHMmarNbun44tFI86+3t5KvRCnUg6418+3lj2nZWrqQkwvK1Dic0pWIGqLQfMrsgf5B2HWiy8d9uhjD1+GGyeACAIHiAYqx0KLMARRdkS4ZGgrUoCpkd8sTfxmrHmdyOvFWPl7vUEmFStUxC8M4qIzULVj0WKCBERJWJjIQmO0OljJ5GDxgsRiOYnFmZ01HXTMa8OO/upMc+0hm3d7zMGxfcam4S+ZPKGUrJYtQQPLhkFvaS7S5m2SzPq72w4uxbaP/qh95cIdk3I97SOdBlmrLszKLjwRl6GNnVRVgb+P1V8TdTUMf0NyDMt+3uehurY+celll/3ihz/60b1cFMixaK+oBCwqSPMFXfS5KgfMkqVDD/7VA13p65YtWyofeujBSz9q/+++u/KIcHiH30GFEIs7Q0tIZIkCelxkUdzHUUcduXD8+PFz9+U1V1VV1RYMBpO61YEWX92tpbuDaNEl00ixKJsHv3bH9h2t77///hgSiEI8iUI56kDbEbvdxijFu76+vu/UGTMedrm9hX11HBWhUGdVdVWfqldTLgu4XVxjJD4oY0yWTR8hgurifXGDdhxswCk92EVJ1NXXd3GhtMeZecn+ZOWOcLhRH5NuWdTHqdWg0qZXa4aaF/MorIz5gvj7fC4n5lmzsJmZ3Wpit99+x4WPP/bIT3D3BBBB4ICQQSJZWasBJLLAqApzkVpY0Ea9iYz8iVGiqjzkoimJ+jzUxpm6rFMiWV6ys5yBuqNbhBWFbuaipo5CNaD5As4XiQz/u6TBwaIGP9turFSytQeFq6d98281x37tUmPL0e/u6aitdS3z3HXNW/J68WqKji4LFqpHrPWlkpnDIrFUd3uL3LP9Iy0k8c5Nh+cTXR6HRRNRimIUao+sSULQka2B3HlmO3PVtqx3VTYt2ldnorK6NsmF0Mxzzj3nbqvVXqQO6wq5eixWsViRnUstapl1FARM6c2UzqwLIZfbwV559ZWTly9dfsguwqG9Lfj+6tWTqeO3cLWJ+KKdi6EQVAWyrHjZ0Ucf/XpVdW1sX15xfJHN+Hy+rO6GIXcLLcAD1rlBqdlcDO3iklu3fu3Ezs52v+4e1K0cugsnXyiKhfywww5b0dA85P19eRxWiyVbUVHRMyB49E9UWQQNFkZmk+lDcTTxeNxP50TEMomrWBJxX6KgYfnY6EKdnIw6AAAgAElEQVSub2zcZLfb43s6vkQiEdi2bVvzYGE2eFz0viQ2qRCjPxCU6xsa0+lMVlQKN1GNKi56MqKGlFY7SnOLual4pO3OO/50+dJFS6bi/gkggsAXXQQpqmouqIqV34TNIjlci/zhG8XXMKkcX6MK15aWPq7dVE2M2l1oXTRKuh1JFFbULCkqBRlzQZGTzCzBbKxLtrJeS0WPZejBc+qO+tq1tSee+X1zw1Fr9mbU5kDVJmd98zzZaBOp7CoXXZRlo3dlNxhF8Rtm4eMuJmL2YmzHQWpyo3HwPtTeTaZsd8coqZBkNmpIpjUgE3FQ9OExqpKQiLJiYIrNw0xVjYuYq6p9X56NUFVN8uJLLrv67HN+dK/X6y5SoDIJBL3nlt7Di57MKRaIatWQ24IEDC3+sVjU//bbb39l8D6z+by3o6OzleKaSCgYy7EeuuVFj8mpqa3pHzNm7LJ9fcUVC0Urf28DVY0W8U5cmA12I+n1gmiRtlisA+qoP9Zr2rJlyzCqB2SzWYTLizLrDIOCiul3VGdo3ITxS21Wa2qfiiCbNeNyuRJaDzTlQyJIPxaD1nj2Q9ZDLoBsg/9eiBVyO0laFWfdSlZbW9PmDwbSezq+VCrp6e6O+KitB1k59fEMFmd07VBxxmnTpi0/66yzHgkGg4kEv+Z0KyFZgUThTn6OaEunU6x5SBNZFhvuuP2263Z0bkd8ENhvQZ0gsDvQM7esqPRkrfVwklS6ERuFq4zEhYV/dZFbhi+URYWLHgv1vKJ4H2rozJ/EraqIwVH4VijLISpyQwnssmpiWYOdKc5Qn7duxOq60Yc+4h0x6e9S5YjkZ5Ju3jo5895Lr9pXhH6Yi22xehySSJdXlXKfM1kRT7mKUmQOfrOPbFl/pPPQ/mo2qJeYGusakmjfPMnj0ArdFcpBycKYRZYFchnkZZYt2ZnRE4rYmoa/KblrlX19QkJV1f3JePwy6tF5z913ny9TcLSFKjsXRIyJ6LtG1rpioWwxMYhiipRh1dvbyxYvWXDU4P1Fwl1N4XA4SEX4RDYWiShRh0hzo5nKGVr1dfU9NTU1W/b18fH3MsdiMQfV1xFuFspKMpkGFmWb3cF6enr44l+famioH3CTZvJ5d3tbe7NSLAmhQ8evuc1YuY+XVtTP6/GoY8eOXe5ye+V9eoM1mmQuKgvkDtPF6Qezw2iM1AzV7/fvYl3rCm/3z5w5s9ZglAaCosm1R81YTeX5oLgn+l1ra+vqvRlfPJEIJJP9dqvVtIuA1l1i5KozUXuWguh7Fuci6JpIJGK97fY//ZBcjCajNKjhrVavSuXjyqaTzO12sBdefOG4ESOHz0z2J3/u9rgLuJUCiCDwRdVB5XrRlBWmFUnjD+pabIyBagXxX1HPRZkvvGYny1q8aqqolDL8PqlaKafeJLqsi6d5k0E2Wq1Zk82ZNFicSZsvtL2mrmWFq3rIAmN18wKpZsKOz2vUFl9og72yoaM31t5KPcgosFTEHom6byURTEyd6m2GEsv1R2uKXZ1jB4ugUsfmY43ZeI2kFrVFgpWngWKYqE2GsGyZWY5ZmSVYu8FZUb3q33VG3D5fPtzZeXWsJ1r9v//79GnUqiAUrKDaMuWFVv2AklW1YpEGI+vo6GjZumVTY3NLq7BaRaNR6iLupAWXLCy0BA64YPjrRJA0X/T4QpYwW8zZfX1svX29Vel02kruFY/Hw4rleBMSRHrtIrIQVVdX9zU3Nw9YCov5vCOdTnkkw66WFmH5KwdG06JNneAdTlf/vjeiMpXPp1mPSfugFUgfH4m82trazsE/7+vrq+NCr0azYkniWlPLfdT0RxPR9NVCrVQsub0ZXn+iPyiqTpeDnnXX4eDSCDR2h8PKfH5/l9lqTf7whz/64/wFCw5fvGjR6KrKKhEjaBAVxFWtfUY5eJosiul0lj3y8CPnDh06jBIF7sJ9FEAEgS+iAOJrv8zvkjm+OBY1Z5hqFtYGcmcponuEwgr8Zl0wOZircWTMOXT8c06jPW4mf1mJ/pgMP8aiZLakzQ53xOL2ddo9gW0Gl3cHs7oTkq95nyysRn/VZmfTqFcim9+7sCD3ac45utlrcd5abBK1TjBJLBqP+GPbNhzLf/rqgIVk89pjWDrhpdYd+tpjEAuF5hYjl15eNbGC2aNWNI6YY6sb3/7vPDM19fW9q99beW1b27YRb7/99piCtyjS9rWQYWVnOnbZEmIQT+tGsgZ5+VbLfyzGG4l0kwiyUosHqkFEZjy9KJ/uHqHNbrdn+O/lfX1c77///kGxWMyju7G0YoNa0K4IABdZSzKrqqwMV1VVDaSGZzMpbyLeF9Lq1ki7pKIPzi4zmoyqxWzJ7+vjkOWSKZPJOD+gez5o9aIsvlzL0OZd4pOisVhtV1dXrclo2hlMrexUV3QohUKR+YMVebfb3bc344t0d9fRPFot9p1CWQT86yJIEtlhVGursaFpi9PtI2vO2ueee/bX5599zl/i8X4XPwciS4/m1ma3i0Bp2idZTCkIfeu2bdb777vn50sXLVyDTvIAIgh8UYWQSh3dJSkvgopNonyipKXoMkqRV0Qqet5gZ7VNo94wTv3KrwPuijZGSfDkHyPPlyKpkqOu9O8cteRuLKZWvfqStaL2G+lwb5WVPzVTPjvVITKK7tiKaMxq4z8uJRMstn3LxGLPe05zaHxa7VxesfqBGycb5SwzWYyi4rQmJ0rComRg2pqU4RrRGKjp9DS0zv5PnJmx4yesfvpvT966YeOmu5LJfis1CiULl7aIkWvDVK52Wa5LIwmXoLEkyxZ9H7He3lAqnWaVoQpmEhWaS0J07CzQp70+lUp5iwUtTmVfEe2Jui+68PzjqR6R3+8dcGOR+4UWVrIG6YJm/IQJiy2OnbWK5IJsyecLdjYohkYXPoMLDeZyOUsmnXHt63OTzWbd/Dh8gwOPB8daaWJGoTo/6drq6q2DX5vir+vv73fSsWuOMGkX256IiyoWWShUlfD5fJE9HVssGrX+7re/aaJMQO09Pmip0lri0Ps4XU45FKocqKV06qlfe/Lnl1827c7b7jiXhJiW/VbiD0i28vVTHChHUBkKUN2mxrvvuvvq9ra2LY1NTe24n4L9BQRGg93SEqK0oKrdGEWWFd9UsWm1giTKxDFbWEayylmTN8IcoTbJ3KhI5tqS5KgvSLZ6+d8tgHTsVU1L/A0jl8mqVdixSuVqt5JqYkaqAalSrJDCrFzkZaLhYWq8q4lel49snpLt76qxmym+hlLEtYwyVSqJY1eMKivw1xWMVuasG7raHqpf8Z86QcceP/2pQw47fHEmmxeZXTu9L5oLU9LC1wfOn9VsLlpMZmEJScb7pEQi4StSrJSsiHggVnZdKuXFmjrVUxXpjo6O2nhfX82+PJb58+d/deGChZO1hqNaLJJe6VmrgWQSbheXy1WYfvzxuzTo5GOUrVZrVsucUpkk7ep+0mNruDCR+LG07uvzwkVMiG9+3bry4UcLzcpGNZHcHs8uNbD6k8lAJpOxDXZPiTYbkmHgtVSrqqGhYbvb59ljEcQFmr8rHB4i5tRg2KVKtCaajQMC0ul2ZT1+7y7jO++8C24+9thjl4TDXVxUUkNYO8sk0/yzYtIKopaDwUULHKpa/sKs4/721F8vTKWSZtxSAUQQ+IJhLirMzpdTG7V8ZCVm5ptJLK9ad3kuEEziSdsk1h5bg7K/jNxYOTLqHTLyDYvTx3J8cCSEmGjSSs/WRi2tvFRkbisXR5lEhdKzfZKaWGGJdG6ZppSSXotFYlrDeFVrWMo3xaAKAVhQZGZweZinZcSbUu3IvXJJrF69evxdd931s8WLFx+yt8dYUVGZmjh50lJqrKrFPamDYjt2WkK0nlsKC4VCPYFAQDzZ5wsFZywWqzKVe7iJRp9aKMhA3Antx25zsI72juDq1WsO2VfnKtoT9c56/vnTuyMRt8Ph/FClZRJEdBxkJRo9evTGCePHLxj8eofD0R8I+LvomEtUgkGVBnre6fsgEUWxRsuXLz+ipzvi25fXXiwWre7r63NL5bpUH6wWrY+psrIy5na7dxEZ4XC4IZ1OG3QBODhjayBexyCx5ubmjU6HM7HHIiiT8UW6Iw1k7dGvjcHWKX1sFGNmtVjy/JrZpRdec0vztit+MXNmZWVVXzqdETFAInW/LNYo2FsrrVBgwWCA7yfD7r33L+e/9NILZ+F+CiCCwBfJEKSoqqWoqg6+wDr5ZucCyMYFkFkUQdRv57SIMrnIDKWSVc3s2K9crbbq+kU2byiVpcLKKhP9y8hSIGofKTRsypziQy5m3MVoeDzL9Vf1R9rHSCzPTKKpPV+EiuWsGaNmTaBlIk8ZMi5P1Fc3ZI8bRq5Zs2bs3Xfffe0VP7/if2+44YY/PPW3p875LMfosNvzTodNBKiWylYQbSEru2EGRJDK6uvr2vjCKwJxU8lkqL29vdlUrsys1Z6RBhZG0bpC9O6yicyyeXPnHh+Px/aJS+wf//jfs19++aUvUdd4k8koBNwulhAmDQijL335hBecXl9ml/PsdPT5/L6IiFNTRHOTDwX62mxW4bpZuGD+kdu3d47Yl9cdF0Chvr64c8AKNdhAt9PMyqqra7Z7gxUDKe69vVFLZ2fnECpOSZYUcd6UUvk8SgOB75QBWFVVtd3v9+9xYHQqlfLFemMePXtOPMgYBtcvogByi8jGq66ujno8ng/Vhpp23DFvXHDBhXc6nS6V74s5nE5R+FG4L2VFuJvN/ANE108w4Ged7e3Ou+6885cLF84/DvdVABEEvhhQ7DArmSRW4GujVq6frD9atrwqYmqMFBMgl8TTtyIiWM3q/nQIxkD1GlvLhBeLJjeTqG6MWhA3ebKYULCwZLCJitYGJS8pqch41rd9vNLXPcxGizA9hTOZSUYtKkPiYsismFlJNrMcF4b26pZl5mDN2t0dy8Z164Y/8eijP730ooueuf7qq697Z+7bw/qiUTZ/3twTV767YtLeHF86lTKEOzqHUBVfEncUsE0xTHa7g+npyyR+6KvRZGYtQ1vX2Vxu8bgf6+mpC4fDNSIgmpYtsqJQ0HvZejSQNl1upLngnflHv7tsxbGf9zl6e/acEx579OELeiJdNpdTS28fnNYuRKvByBKpDBs+cmT45K+e8rcP7sNidWQqq2q20+JNFi9WrlhukLTigloPMSMJRrZ504bq2bPfmLEvr7twV3hIOpOxkNuK6vuI6umqZkUU7TxUrRR7qLp6l8ywXDbr6w6Hm0QZhnJpAN0NJpVrU5UKJeawOciKtFd9zxLxRDCRiDskg+YypYKfO0WnWs4U4w8I/NctLUM32my2j8ym+58fnHXbl0864aVoIsEKpSIzmk2aS5Vi72St6KawJvIjDfh9XHwubHzkoYcu7olEAri5Aogg8AUwBJEpIecwsCx/8uQCQqK2GVzwGIQzjCoIiawrupeqfJGSqQ+G/En5MP+BC71iVNw54pBHzb6aboUsCQoFbSqiujX5t4wWB6P2W2YSO9nYwWz7lpON/bEGp2iNXaI+H/xvDKJ1hEI1Uxg1ZuUCw1pdCAwZ8y+patin1jRq27K14f57/3LltVde+ezMyy67df7bc4eV8nnmdbtYZUUFW7N6Ve0D99/3i0Q8bt3T41v17opjFi9cfBSlktu4ACBXn1zSAluFu8No1qwo/Fy5vT558kEHD7S9iPX2Vvb397usVvOAtUHrUaXpWN0dQ0/zXo+HbVi/PvDg/ff/bOO69Z9bTM28OW996aYbf33Le8uXNVUHA2JRLslF0RSWBAwFalNV7HQ2J0TDt7793YfGjRv/oSriXr+3NHzU6FX+YJDlCjJTynFsIvBX1co7kCXJ5XKwXC7DHn/koXNefv6f3/68jmPjxo2tCxbsrMG0cfPmUTK55UiImXaKuXKwkrBKqvx3DU1Nu/SaS/UnQ93hrnqjsMqUxGfLoDeyJTHI/yfni/za8bCKYEX33oyVi5D6VDLpoAbHKtPiwETxRUoWIGsTxbsVcuI3gWAg4nA4PtLlVlVb3Xv+Bef//qAJE7eGu7tFuo1MY+aiz8rPH8231aKJUhv/auM/e/aZZ055+qm/XcjFHtYgABEE9n8ZVK7vPCg/RWsoJn4pTEWSbjQqe4qk/e4gHBW177kq6zem+TqvcFFAlh1ZLTDFoDWDpHXJwheEQioeZJHw14yZlMtMmVWKdlz0xKyFO2j1kWTJxuzBxk5n7Se7wjZt2tj82COPXHz1L696eubMmTe+OOuF0Tm+mFeGQrSAiQwfh8MmZm/WP/956gsvPP+jPTmuSNcO79+f+tuPli5bVu92urSst7LrJ5VK72x4yRe4ZDrDhra0bJl80EFv6q/v6+urTKfTNr2LuNahvJxkX150RZVsSTzcC2vQCy++NP3hBx/4eaS7y/tZz8szTz/9vV/dcP1dC+YvGO1yOJndahtocUHvRUHQtICSdacnFmNHHHH4u9/61un3ftz+Ro4ataKuvn47tXfQ3EhaOj01v2WDmoR6PF62fv16/6233vLb+XNnf+mzHsf8+fOPu+22236/cuXKgVYR4e076ulYSMyRIiNxSZ8b+uiIqtyqyHgrDq51pImgfn9PT7db73GnlyjQzw+Nn+bE4/FQenx8b8bb2dnZQtWzqf2FynZmhCniItcqqpMAM/NLwe1yJUxm08cWOzxy6lFvXXTxxTc7Hc5CNNonClVqAfoGkc2nn08au9/nZ4m+BLvn7j9f8q9XXzkTt1cAEQS+EOYg3a2ym6j72xFYG8d3ehuHzs+ZnSxX0so/lvhhFQ0lrtqK/AG2xKxU66i/n2V3dNRIxaxwv1ADVrFIULkkSWFUMygvl1hGMTJrdfNSU6jhvY97z1defvm0a67+5WNXXjXztqef/vuh5HIIVVWJys20MFOArtlCgbpZLogCrC/eZ73jtluvfGHWP0/fnWPatnVzzR233vK7p5762zfJXGCz2zQXksE4kBKulHtsUWwHnb3p06e/WF1T3avvIxqNkiXIoMcACRcY2xlUTW4k0SZEuGRUFgpVsBIf+wMPPvjjG66//t5N6za07M356Ohor/z9zb/59S+vuvKWd96ZO4xcVFQAkVo00PhJlNEiTQG29PPuSA+rrqpKnX322Xdw0fCxadYNDfVrx40bt7BYDuimfVGtGwOJwbJwpzmihZqE0NKlSxuvvebae9+aM+fL8URijzOX+Py5nn322e9dddVVDz3//KwZoVBowDIT6YlUiJo5JrNWXV0d1DqjXP3ZYbPlKysr2wbvM18oWOPxfhvFL1Fm3gerTNNxFQp5FgwG+/nWtcdWoO6Ie8uWzSNTXCiaTTsPWWSFMa30hRBa/Hp1Oe0USN/tcnk/8TN9woknPvnNb37j6X4utOl6Fo196dop9xUje5MmRo38Wg+ytevW+W679bZrVy5beiTurwAiCOzPfCCM0/BJYkgd0Ez7Ic6G1jdMgbpwf5FavXLxY6SK16popGpQiowK5yiZNEv3dgvXmOj5RJlkklanxmzSYmqyfFHNGW05e8Pwt6TgiI8tutfe0db62mv/OpJaPPgDfv4U7GPFIgVbG8TiXioVtXpD5dgXEkfvvrui9vprr7n14Qfuv7Rt65b6j1zEImHPC8898+3rr7n64fvuu+/sZDJp9Pu8olCdVlG5HEtTFgAU8JwvFtjEiRO3nXLKKU8M3ld3d3ctNRWlQOQBS5Aw9Kll6atZ/SRhCTKKTvKBgE+04XjskYe/demlF//jkYceunDL5k2Nu3MONm/e2HzfvX/+2UUXXPD872/+/VVt29qCFRUhMR8FvkiW1J1FESmA3W53CjFEx/bDH/3wLyedfPITn7T/qqqq5HHHT3+xvr4hH+9PkklDWIFEde/SzuwsEqA032SheOedd5ovuOD8p2/5w+9v5/M/ZXeOo6trR3DWrOe4+JlJNXPumT17dqPH48zX1dUIQdPX22NJJhJutdzfSx2YT+2zQ9YRsgJ6PZ6M8wOuJgpazmYzFj0eiHrtMUka+NSJ3nAlmQvqyrDP59vjmCA+t7bu7p46kSRAVio2qC+bIkyfwuVGNYC8Xp/MRdqnVnGvrq3pP/vcc249eMrkTeHuqBBQhnLbFVX7IIljp1YfdD2SJXTRwoXN/Pq9IhbprsBtFvwnQLFEsNumoF3/+WkiR90vVZC9snGpr2HEomisbUaxRDEnmpNP9NoqaXERXC0whWWZzSg6gYgmsdQrjXqk0VM5VWQuUC2UQFWbv2nUvz7p/caPH7+4ZejQ3k0b1gWsVEeJPyXLhSz1idLSvcvtBsgFpNdUqagIsnVr11VfffU1fzzm9de/ccctf5zT0NCw0e119cbjiYqtmzePuuzSSyYvWbJsStvWbS5qFBrkT9Z63RjRK4wvnqJYndEsxM32cFictu9973t/njh50kAD1Gh3l/Xyyy5rkspuLs39pQWD66dRZR9o4GnQQlq8HjfrT/azN954Y+LqNWv+dNBBB/3Pdddds+SQyQe9VV1ds626pnozXwRLmUza0xkOD9+4YcOEDRs2jL3g/PMPWff+2lE93d3MarGJVh/CWlOUhdVA9DkryeI4XG4Xozo0iWSSnfHt05/78Y9//AePx/epPaimTZv20vTjp7/88MMPz6CWFFqgdbEcZK1ZuEhk0eZyuajRKdu6eYvngQfuP2/OnNmnXvSTCxby43mHn7tVVZWVbR6vN8bnxtDd1dXS3tExav26dQdd8tOfHrZq1apJmzZtMtJiT3EvNqstx+dRVD/v6u5qLRTyDomp5YBjwy4fJLKmkYustra254PNU9s7O1u5SDPR2BU9WJlpcUF0amjcFL1VEQp1Ol3O3j39HFChTH5efFZ+bRiFxUfWbFN6Fp34VHARlC9wwRtIVYQqdsvaNOmgg5c98cSjN11+6aV/ivTEnKFgQHOFWcxlKyMtOYo4F1z4CWH75JNPfrW5ufnyTDp5lcPplnGrBRBB4IsulqT9dXDG2rG9sTmPvpbasuIEOZmym00GEfQsstykkpYRQ/3Q1EK57pF+SMZyqwyZ5WSVKfYg8w0ZscBa1bjpE0XQuLHzph8z7ZWNa9d+h+qtkNCwmp1iwdcXekk0sy9SkMhAvEplVYgl4kk2a9Zzh73+r9cO87jdzGg2yrlc3pTLZBjFu9ALg0G/cDuIJqN839RnKxGPMwdf2LPZPLOZNRdXiouvk046aeGMGTP+cu755w2Mrz+RqGlvbx9CjS8H17JhA73HpF1q/NGCbDYahQWD3Es+r48PO8Vi0R425803psye/caUoD9wns/n6/d43AmumBRZLlpS6bQ3Go06qL+Z3v2dasfQ15IQI6VyDSatEJOo5M3fp7+/nx9rmouaqSt/cdWVMxubmnfL6sFFY/dz//znkwsXvDOto709YDFbRJVwi9UsKkNRPI3WkFWbc2pNEfB7hBvn3eXLaletfPe055595rRgsCLn83njXKSkaSZ6enoq+DF4UukUS/ZrsfBBv09kfkVjMVZTVdnnslnFL7Zs3DSBn4sAWZuE1JbUgV5slNpOY6Bz3TRkyBab3T7QzT4S6bbd8oc/jhLiwWEf1MOLjClCUrFiScvWqwgEui0Wa2ZPPwdpfj6SyX6XSI8XcyAJ8UnuXqX8XrqoDlVVd/N52G2X20knnvTUskWLj7j//gd+RAHtFrOV0QMAWd5IbJnKAp0sim5+Xe/gAv3ee+89d8KkiYv4y5/BLRRABIH93BK0W6j764G4alvm271VYTnR0aKW04BpUaIFXhSlY1rfLaNYuCyaqlMNIihY5WIlneNP4SFP3FPXskjyVH7icTqcHvn1V1/6x/8+/fRX+ALqofgfSTKyfCHP7Da7+KpbKNRylWa1nKXj5QtENqcF9yYScQo0NenNKR18cSTRYyx3dydoP1TM22Kzsgy5HGyadSna08MmT5q89dprrv1ZdW3NLkG06VTKz8cVEMUFyzE0Ujm1WTvp0odOKwkgqdyygf6exqI3LKXxxGJRFo32ePjfetRyv0/dLULZQhT7IzLOFEWkwetWJjPVBZLICqRwsWITRfq2d0fYcVwA3XHXnd8dPXb82j05z1OnTp116qmnHH3XnXedTxYNu8MhagdRCIxBNP9lIguKBKReCoDaqljLFrEkF2B8o4rN1aKpbDnGSqtkbWDUnoTcOvR9fyoperI1NTVsdHu06s183utTqZSdzo9o2kqxMeWxGcrHTK+tqanZ7vH4Biwg/L2s4a7ttTRvZNFTRICxVJ5HzRIk2rbQ3LtcCbfXs8eftb54PBSPx+1aPSlp50dcBP2XBkQQnbNARUW3fky7QyAYyqx/f80ta9a8P/n12XMm11VXcUGeGyhUqced0bzQVlNdQ5XIPb/57W9/s27tmo0jR41Zhdst+HeBmCCwG2pG5fdbjmFQM0pmGHB4iQKCu3q/JMkZ2m9FkKWidp0tWLemWOJPpLJoCC8qKOp1aAxmSvOnDLJywT3RdbzcvoFcNQYTM/lrNwVbx7y0O+93+OGHz5oxY8bzFGpBwbpFqsdC9Veo+hD/t1LuiymCRkko8EVYtxRRvAotHCa+cju4MHByAWE1aQs1zTst4PrrxPdcpOltL6hey46ubtbY3Nx19dVXX3Xo4YfN/+DY+CLtiUQibnIJCfHDx1MsysJCosUUaYs+QZV/abxi/KLmjejBpTXLpEwuGms5romCjqniM+2X71y4PqgAohANJPjKNXv0nlV0sRTLiyK5xki49fX1sa+f9rU3fn3TjReNHTdhzZ6e50AwmP3+D39861dPmfFSIpViyXSKGS1W4ejRF2ByRZK7kOKR1LJFiI6D5t3pdDKywLn4V9roGOhnFKRNbkvaSD6I2kwk3CzklqwIO5xOITS7u7vrSfzQz2k+aV7F9WUwDggBorGhYdvgcfPXmGKx3pIf5swAABmqSURBVIpSOSNMcxFqmy5KyZXr9XlZZWjvagRx0dHS1dXtIQGrfWC1z7O4jqgA6qBecyEugsgStif7HzF6zNrLLr/il9XVVXGykNG1QtXMtfcSYVoDhRnpkMg9PG/evOF/+MMfbk4mEy7cdQFEENjPlBDZ8o0iNXyXTBUtYGSXmJH93qQVaMm7apuXGJ1B/g01fDQzVaZietqTPsX8UGk3mfwzdKOmRb9sbclTurXZyezVQ1YY/aHO3Xk/p8df/PHZZ//2yCMOXxuLxUWqt54xY+ELKQkDiknRqzXLFKRcjl3RrSu2soAwSNoTtGieWQ64JdGhW4Ioxoj+3sz/fvuOHWxoa0vkmmuvuWbGaV978qPGlkqn3cViwUwiQI8HsVg0QaMFgpu0WBQSCnyMdK5pHBZhATGXF3hpIAVfF8WGgcarEhvcPFRv/6DXHdKrUesijgRXTzQq0uK/8d///c8brr/+J0ccNe3tvT3XI0eM3PSTn/zkt8ccc+xyEqDUboOsH2QlIzLZjHBL6cegDnIHGsrjFvPJ50MXcHq9HhJ/worH50Y/X9VVVZ1ef4UIlN+xfXs9uXw0EbtzE9dYWYTx81qqrKrapR1FIpGoisfjfv296auIASpblKSyS4y/rtjc2rJmb+Zlx44dTRRsbjTo11PZClpSBs4lxeuQYPP5fL18HMU9fY+DDzn4X+ecc/af6TpN83koFAsD/ejoeAZizfj/SSCZ+bU9a9bzJ/3lL3+5OpdD/SAAEQT2J2PQhy6bQSb0cq+gQQteaX8/IF/TqFeclc1tskRP82bRLFJi2oJDWS0lLiaKTKuXQwJIkXMilThd5Mfr9BcpHkjyNO12f7Tho8au+Z8f/uBP9UMa+ZNxVAtcpoWNLzjZXJ7EiNbqlOKy+VN+ueyScFFRl+8SX2z1hVBYZrTgEi0NmRZjir2w2rUmllxEbWvrYFOmTNly3fW/uvI73z3zvo8bV1dPpC5fLJq0HDB1QMSQS4rGRoX8ivxrJptj6VRaFCwk8UNjpkVUdyWRQDAL4aQMLNa6KB4sgAYsiaJys1kIOHotHQO5/ra1d1IMSu/Mq375u+t/fdP5Y8btmQvsozjiyCPn3vz73/146lFTF6ZSKbJ+8XFr3icScSQA6Vh04aaPc/BGx0NWLz1mS3eJsbIFj4SU0+5SK2trB6w6vf1Jr1ZiSRLzSV8p20q0/aB55fPkcrkzVeX2JTrRaLSWiyDfQEYZ/1sSCTRzJChIRKRTGWpRkfL6vJG9mZNEPF5BMUAWfj5LonijFu0uld2WZKrJUfq+08nq6+vb+fHusQjyBQLy6ad/54Gjjz52cSLRL2pSaNYsxs+5ZSDWTLhe+bxWhEKst7ePPXD/A+cvWDD/VNx2AUQQ2L9sQbsKHXH5aP82DPqZwvbjcKCdF35N0wrLkBGv5CQLFxAUHMKf0MXNXzSYEC4Z8lOJcv8GlRnoK9WtYXZmCTZsCTS07rF14vRvn/HnSy+55A8etzvd3hkuW10swspDc0jBwSJN3mYfEBQkOPQ0ab1gXqlca4XEg2598fn8wk21pb2DxWIx9tWvnLzopptuOu/b3/72A580pm3btg2juCRaA9WycMnnC1pVZbdbLNRkteILVIZEEV+chWAjAeD2eLTU+/xOQaTHzugCQbeY0KYLI91qJVLEqYBjJs3iyX6W5fs56eSTFt1x++3nXXrpz2YOaWkOf17ne9KkScvvvOvu039y4cX3KIqU37EjLDL99Dkkt5DBIH2oKKEu3nSrjLFswaNj1USUWSzqRbnI3F5P3u1yiya6He3bqiORSM2AqBQtZejcab20bHaneHbwenyZgH/XOj/RaKyGCzW3Hj+jz59uMaNrgyw3gWCw1+3+cD+vT6M31msJh8ONdJ5pXPpp2bVJqya4PB6P0tzcvMHl8uzVh3r4iBGbL7/ssutbh7ZG+vsTAxYwel86Dn1OhVuSf60MBFnbtm2uG3/96z9s2LBuNG67ACII7BdIlDbCtEDZna6vgV8K3TPoSV/Z74/H3yR7mke9Ils9vek8CR2T9gQsF0RrEItoA8I/HlxjmCmOQ6KFW2UZk5fZ60fMkypqt+7N+55x5pl//PnMK28eM3Z0V19/knVHY0zmC5rD7RqojUO1bOSCXHYdKKwoenlpVh+r1cYXXjuTiyQu+IJqsbE8/9u2tg4W3tHNRo4Y1fXLq6+97e4/33PK0ccc99onjSUa7TZ3dLQ1kw3IJNpKaOeQXGomLs4ymTwLh7tZ67AR3TfeeNOFV1zxizsCFRXx/nSK9fEFjVxLZD0iEWcvFzokUaEH8eqtIWhedbEnLC/8OChIOZfPi/T3VCrDpkw5aMMNv7rh2nvuvXfGKTNO/TsXFJ/7NTS0dWjb5Vf8/Ipb77j1p4cdefj6cCTKuiIRsfBTF3TRXkTi14GBYpssYqPvqZMIbfQ9WQvp9xazTXwVLlRGhSgLZK3J2ex2kRnWE4029PT01NJBGMwmzWVG7jBKFZeMLMf/vp8ft93lydidmnDSaW9vb00k4kb6e73KcmlQraEcF60y/+oP+MP6++0JuWzWz8dXT/vXBLj2QKO5uiURuE9xQXQ98vMqBwKByGeZ98OOPOLVM886636Fz28/Vagup8tTMkIxlxcWTRpDJpsV14XD6WBvzn6r5ZZbbvk9vz4bcPcF+xJkh4HdsgLpcRI706f1LGqt4L54gmbKLi6P/R1nQ8s77pr6zbn+jgDZ+q1c7Ehymlko7kZUStaahRiNfONPrikuNqRA1Q5/AxdB9tq9WqR9vgB1+/7VG6+/9t5NN91048qVK8d0dXUzNxdBdot1oFmpiBfiC6Ae/0NWCppn+r7ARRul71PrjWQqKdwjldU1vcdOnz7vu9/57n1f+vKXXrjuuus+fTHM5T3hcLhBLM7lqsT6kzkt+OS6UUTgsCk1Ztz4Oad+/RsPzZn9rxcff/zxc9+Z/87Uts3bKmK9CWa3mkSHeWu51pEufAbcRcWisBbprjKKkyEPjMfjlo//8vGrTjn11L9OPXray6NHjV9zySU/36fnvKqqipqA3rP2/dVzn3vmme8+/fTfz3h/zboGo1EVgka3hJBY0+N3dNFP1i59jgg6Djou+n7c+LEdZ3zvew+MGDFiMf2ubdu2EdForzPJhY4QWFSUkMSlyaIJGgpC5kJj2LBhq2obGwYqTHd3d9tuuOH6lngixX/P35MLTeoBZzLujLUrlYO5Q6FQGxdJe9w9vqOjo7Wzs7Mxk88xqbdPFL3ULUEDSQ58rNl8kVVUhKIulyv+Webc4/GUNm3Y+OCSxYsP/+es548tFfPCKlbMFzWnerkNiFx29VJiAvWqefyxx09uaWm+KB6PX+nz+Yq4DQOIIPCfVEEW4dqgwMxy9Igiaa0kVE0FiZYEZRFk/iIck1Q9rqfvhd8v7G5/9+BiMcvMlP2mFEXsj0QWGYkvWCJQusQoIkOmruwV9Vs9dUPf/qzvPf34Lz8Xi/XMe+mll858+u9/P2v58uWtsVjMSZYgyvyyl1PEVbF4moVISefSrKAX/CPrlMlUmHLwoVu/+tWvPnvc9On/mHzwlKUPP/zwbo8hmUyG+KJbraevy3JR1LKhMeRzReEGozRwv9+/gy+2Itj3mGO/9FoqmfjXqlWrjpo7d+5JSxcvPmrNe6vH8LEHspm8iJsxlCtP6+4VarlBxfJEHSOfr//II6ZuPvqYo187aMqUt4YOa32voal5+7/73I8aPZYCiq9s27zhvjmzZ5/yzjvzvrR4yfJDenv7gqlU0pBI9g8I+gGXTTmYm/7NF+XsiFEjtx9yyCHzDz300Nmjx4xdNmrs2FU//emlYv+BYCj8jW9+82EuAB0UacPnQaLCkVRagAsna9myqkyfPv3lex68f+cNmZ/TQw897O1iIW9zOZ1FiZR42cfM39vEx2DIFYpmsgAdd9xxL1ZWVu+xJYjabJxyyikPTpowYbjValFEGFxZ/PEx8n8qIvo7k81aJ02atJif/87POt+tw4dtXrpo0ZVDmhrOKZVkt8VsKpWKJYPdYsvligULF/JGib9nUZYtXIBJVqs11x2J+GW5ZOIiqI7vYhvuwgAiCPxHKBkdyZTF216wBqoLZpFOWyLLuaJKVOGOax9JNZlkB6WOJ422WM7kjH9Rjs1X27Cs1+ZihVyKWagWENNaZMhi3dE6qZO4KxnMfHMwc0Xd+yxQ1fZ5vHcwGKJ4jtv6E333r1279uAlS5YcvWDBgmnr1q1rzfIFiGo4UtVgUZvGaBILYcDvTw8fNmzTQQcfPG/ipMnzWpqbV9c2NXbtzfunkv2BeF+fiw3KitI8WJIIXKWUbrLi8AW/xz7I7eJyix5S1IV+bk+ky71ty9ZxXeFw07Zt20Zs3LhxRKSnp7ooF818kTPx/eQrK6vCw4a1rm9paVlfU1u7raG+fmNlbV3P/nD+m4YOJ7fm7alE71/CO7pa2jo7hm7esHHMlrZtQyPhrpreRMKvFGWzwWwsVVaEIs1DWzYOb219v76hYXNdbd3WUGWo3eZwfcj0efTRR7/Bv7whLEjJlNHpdn0oWaA/njB6fN7SBwQKnef74n2xR3z+4CdWxr79jjv3WpDwL8Lkls9kDVaHXfn4ayQhlc/3Z2bKoYcu5F8WJmJRl8likZ1uz4AVq5jNSJLWl4UUGf1btVjtajTa46yoCKVxFwYQQeA/hj3UvHz4Cd+5rNB71DizVKLQ4WJ5o05MCpWe4zrBkJdVS53ZGXdU1L7/hbFwMXPOYHbkirJqo5L+BouTFalYoUQyqCC6u2fTGdbPlyrZ688OGTNhluSu/1yz3zxeP1ULnk0bFz+GfD5vKxaKFqrhQwn6En86NxoMMj0dW6yWAhdEBb6ofuaYmXgsVpnpTzooCFzUyJE0C45SLpxItYoo24yK+dltttRH7SOkWSLmlzfNwtSfFKFjbrdb+aJcBy5vgNpWrClvz+s/z2QyRkUuUdogtfAo7M2+P0oAifP+AQG0izj/FAH0efFJAmiQ4P1c8QYrPnQtme0OdZePZRkIIAARBP7jmN0hRX/yP9COLRntHpXLZGwWapHB+MKvlNsTMEXEYZRkzb2TLpmYs2rINluwep8KPLtdLEqZ8rZPLWqRSKShUCxaKfaIgnQUvYM8F0MUr5IqpIVLzOvx9rl9/t1eDN0et8q+CCmCu4HD4RClNHEXAODABNlh4P8tamKTtXfH1kmFbIJZTVwAqEUmlfJ8KzJTSWZWyhunwGTJzBWJlYUah8+X/BXtB8rxb9y4cTSlu+sFD/VUcCoWSfY+Cl71er2soaF+C64WAABEEAAHEKVw26R0V9t4g5xiVoPMJLkoPhBGSo9XJJHBYzCYWU4xMNkeTLgbW2dLziEHRJZKPNZj3bRp08hCoaSJIMYGMqNE1eByVlpFKBSvbajfiqsFAAARBMABgtq3xdS7buXX5d5wk8OsMJMqM5Uq+VJcDBWpYyZW4uKH0qZzipE5aoduZdUt7xwox6/wA43F+qqo/pGJUvGpGGN5k8od5akAoMPhyDhdrgSuGAAARBAABwhy+4aj4+uWf92Qj0t2CwWwlERjTdVgZEUqkCdZWUm1sIysMtnsYFXDJ7zKvDVtB8rxFwsFWyaTcVLFY63c0852FqZyjR+q6kup2GaTKY8rBgAAEQTAAYDatdofe2/+j7LhTc12lmdGQ0mrcmw0i1T4fEliJYmLA4OVZUompjoCvcGWMbMkZ616oMxBb0+0jlozGIwmUQZAFGMUcUFazzDqFk+1fQLBQMThcMASBACACALgi47Ss97et2bxWZF1y060FvqZw1ROCVdFxzBWVLTEJirQS60qUrLEnFWN602VDasOpHno3LG9OZ6Ie0UvLGruKX4qCesPGYWoEjI17aytr2t3edy9uHIAAAciSJEH/28oti1uCi949dzOxa9/3xTr8AXMKnUH4MKHiX5JKgXIlKixo4FZFYUliyorWlyFuhGTXpCCrf0HlAgKb2+O9fUabFYL03oXGJnBqDUQpX5SmWyGmSwm1tDQsNXvr4A7DAAAEQTA/kxs85KxxdiOkS67MW33+jolizWlFNL+QqqvqdDVdVD7y08cF968epIl22urchmZTZFZXlZYiasAapVhMfCPQ6EgAqSpRUZesbKG0ZNWORpa3zrQ5irS3VOXTmeZ5DAws4Uyw4qigSh186bGpvmizLw+HwtVVOzAlQUAgAgCYD+mGG83r3/z2fN2rHjnW1VmxePze+Oy1RFRSlmPnIxW5eJxi5xKMZeSY26zKmoASQaVKSUDOb9EXIzKZGY2lFhJKYm4oKzByVrGH/6YsaZ14YE2X5s2bh5WlEssmUpz0VMQLTKsFjOj6tFFLoiyuTyrrqlRvH5/N64uAABEEAD7MYZSweZIxUZbox1Bs5JihS4plGGmkGSiBp55ZpMUZjGZmN0kMZNaYrKcF81gKfjZYrYwtZTjQqjEzNSotKiwnNXD/E0T37MMm/CM5G464CoGjx07dunp3/xWhcVioaacllKpZDAZjUXqC0e93nO5rGloa+vKxsbG9bi6AAAQQQDsx0gGSfUYmDloLLFKtcBMiswKRhszmoysqMqiFk6R/4xRp3RqDWGiZqlmUQtIUkko8U1SWb6kslheYtaq5u010756k1Q1seNAnK8zzjjj1lNOPfUJ6g6vKjQJUom+UgdxPmdFRS0Z+O+ytbX1fbi6AAAQQQDsx6gGY7FgYL2yUev+bqCu6JT6Tn3hKfOLi58C/5nFIDH+LcuTFchkEi1g1XyeCyCZyVwEpUv87wMNOe+4aU/YJp321IE6X8FQBfUm24YrBwDw/xmkyIMDAyOTC0wtkLgpktCxWphsZCynyExVtQrQlP2uqtQo1UD/KHdO598ZuBgy2ViqZGT9BierGz/1mZrDT/odJhUAAA5sYAkCBwZKwWooyS6zSk4uIxc41OKrxMURF0OKhRkNBmbn8sfIf27mwojrI1bg/7ZYrSxZUlk0JTPFU5+qGX/EyxVHnHijMTQyhkkFAACIIAD2eyRJMZqYyWRgVqZIcrkPVpE6oDJZVZlRJquPSrFDTCV/GG2KgXXH06xfsjNrzfAdzVOOedQ7cdrdxvrJHZhRAACACALgC4FaMrKMYk715rkUYmZmtxlZwWRhJi6AzAaZFUoUE6Rw7aOyksr4vxnLGyxM9nuLnrph6+snTv2La8zh90uB0VnMJgAAQAQB8MXBaM8zT9UGY6ihM19I+WRDUSoaS7LZKFtNSsEqWRRVNRrzskEqFphUVK2upMHpi7aMmfgv77Dxz5srGhdLzhEKJhIAAP7/IGEKwIFCetPS8Wpf13CzpEhMlY2qkRWZ8IpR9LMkM5Mpr0gGJc+ve5PD3mf2BdqsoQkRzBwAAAAAAAAAAAAAAAAAAAAAAAAAAAAAAAAAAAAAAAAAAAAAAAAAAAAAAAAAAAAAAAAAAAAAAAAAAAAAAAAAAAAAAAAAAAAAAAAAAAAAAAAAAAAAAAAAAAAAAAAAAAAAAAAAAAAAAAAAAAAAAAAAAAAAAAAAAAAAAAAAAAAAAAAAAAAAAAAAAAAAAAAAAAAAAAAAAAAAAAAAAAAAAAAAAAAAAAAAAAAAAAAAAAAAAAAAAAAAAAAAAAAAAAAAAAAAAAAAAAAAAAAAAAAAAAAAAAAAAAAAAAAAAAAAAAAAAAAAAAAAAAAAAAAAAAAAAAAAAAAAAAAAAAAAAAAAAAAAAAAAAAAAAAAAAAAAAAAAAAAAAAAAAAAAAAAAAAAAAAAAAAAAAAAAAAAAAAAAAAAAAAAAAAAAAAAAAAAAAAAAAAAAAAAAAAAAAAAAAAAAAAAAAAAAAAAAAAAAAAAAAAAAAAAAAAAAAAAAAAAAAAAAAAAAAAAAAAAAAAAAAAAAAAAAAAAAAAAAAAAAAAAAAAAAAAAAAAAAAAAAAAAAAAAAAAAAAAAAAAAAAAAAAAAAAAAAAAAAAAAAAAAAAAAAAAAAAAAAAAAAAAAAAAAAAAAAAAAAAAAAAAAAAAAAAAAAAAAAAAAAAAAAAAAAAAAAAAAAAAAAAAAAAAAAAAAAAAAAAAAAAAAAAAAAAAAAAAAAAAAAAAAAAAAAAAAAAAAAAAAAAAAAAAAAAAAAAAAAAAAAAAAAAAAAAAAAAAAAAAAAAAAAAAAAAAAAAAAAAAAAAAAAAAAAAAAAAAAAAAAAAAAAAAAAAAAAAAAAAAAAAAAAAAAAAAAAAAAAAAAAAAAAAAAAAAAAAAAAAAAAAAAAAAAAAAAAAAAAAAAAAAAAAAAAAAAAAAAAAAAAAAAAAAAAAAAAAAAAAAAAAAAAAAAAAAAAAAAAAAAAAAAAAAAAAAAAAAAAAAAAAAAAAAAAAAAAAAAAAAAAAAAAAAAAAAAAAAAAAAAAAAAAAAAAAAAAAAAAAAAAAAAAAAAAAAAAAAAAAAAAAAAAAAAAAAAAAAAAAAAAAAAAAAAAAAAAAAAAAAAAAAAAAAAAAAAAAAAAAAAAAAAAAAAAAAAAAAAAAAAAAAAAAAAAAAAAAAAAAAAAAAAAAAAAAAAAAAAAAAAAAAAAAAAAAAAAAAAAAAAAAAAAAAAAAAAAAAAAAAAAAAAAAAAAAAAAAAAAAAAAAAAAAAAAAAAAAAAAAAAAAAAAAAAAAAAAAAAAAAAAAAAAAAAAAAAAAAAAAAAAAAAAAAAAAAAAAAAAAAAAAAAAAAAAAAAAAAAAAAAAAAAAAAAAAAAAAAAAAAAAAAAAAAAAAAAAAAAAAAA4cPg/3LyIwRzC0KAAAAAASUVORK5CYII=;" vertex="1" parent="1">
          <mxGeometry x="326.7" y="140" width="106.61" height="80" as="geometry" />
        </mxCell>
        <mxCell id="Ec8AV_Ql3ZaaRcwQEaW2-32" value="" style="shape=image;verticalLabelPosition=bottom;labelBackgroundColor=default;verticalAlign=top;aspect=fixed;imageAspect=0;image=data:image/png,iVBORw0KGgoAAAANSUhEUgAAAkEAAAGxCAYAAABlfmIpAAAgAElEQVR42uzdB4BdZZ028P+pt8/c6S1Tkkx6hUQw9AXsdVHWte1+6q6ii7p2V0FBVFDB3RUQRUAE1FU60gRpIYUQEtIzKZPpfebO7eXU7/2/d4K4q5igoIbnFy6T3DbnnHvuOc95KxEAAAAAAAAAAAAAAAAAAAAAAAAAAAAAAAAAAAAAAAAAAAAAAAAAAAAAAAAAAAAAAAAAAAAAAAAAAAAAAAAAAAAAAAAAAAAAAAAAAAAAAAAAAAAAAAAAAAAAAAAAAAAAAAAAAAAAAAAAAAAAAAAAAAAAAAAAAAAAAAAAAAAAAAAAAAAAAAAAAAAAAAAAAAAAAAAAAAAAAAAAAAAAAAAAAAAAAAAAAAAAAAAAAAAAAAAAAAAAAAAAAAAAAAAAAAAAAAAAAAAAAAAAAAAAAAAAAAAAAAAAAAAAAAAAAAAAAAAAAAAAAAAAAAAAAAAAAAAAAAAAAAAAAAAAAAAAAAAAAAAAAAAAAAAAAAAAAAAAAAAAAAAAAAAAAAAAAAAAAAAAAAAAAAAAAAAAAAAAAAAAAAAAAAAAAAAAAAAAAAAAAAAAAAAAAAAAAAAAAAAAAAAAAAAAAAAAAAAAAAAAAAAAAAAAAAAAAAAAAAAAAAAAAAAAAAAAAAAAAAAAAAAAAAAAAAAAAAAAAAAAAAAAAAAAAAAAAAAAAAAAAAAAAAAAAAAAAAAAAAAAAAAAAAAAAAAAAAAAAAAAAAAAAAAAAAAAAAAAAAAAAAAAAAAAAAAAAAAAAAAAAAAAAAAAAAAAAAAAAAAAAAAAAAAAAAAAAAAAAAAAAAAAAAAAAAAAAAAAAAAAAAAAAAAAAAAAAAAAAAAAAAAAAAAAAAAAAAAAAAAAAAAAABy7FGwCAAD4U/njexsn+g6dOj42vNgrFWKBYDDd2NK2paKl7WmlbvEEthAgBAEAwLEVfopDhv3s4x89uP7hj2YTI7PIKUR9pyjOLjqpZlUi2jb3QPOaU6+tWLLmZ4oxq4gtBn9NdGwCAAB4sca3PHre5GN3XuyPHIjX6T4ZikOaapPimVTIZqszvckT9+SG2tpT6QY/M/IdJdbkYKsBQhAAAPxNc3fc/5Zt9//0E/mDu+KzKkyKGAa5lkO6opGhqqQqHlnZSZpKjjQNFb2PV4ZqB/zs+E+VaL2PrQd/DVRsAgAAOFr+wI6O7ifv/xyNHeisjqoUjQXIU31yyCfX88lyLPLEv0K6TXOqDKKx7qbR9fd/iUb2vwpbDxCCAADgb1aye+vbp7u3nhpX8hQJq5S1slQil7RIiLyAQUVxdrFUjxTNp5DmUYWSo+lD2xZN7Vr/IX9qTzW2ICAEAQDA3xx/ZFvL8L6tbwqU0hQRAYfIo3ypSLZvixjkkueJ8KMoRIZGRiBEhVSWoppKUb9AQzvW/31mYO/rsRUBIQgAAP7m5Ee6T82MdC8PKyppNpHu6RTWw2R43FssR4pdIMVzxU0XdwRIVaNkaiHxHJVKowN12e2b3u8N7WnClgSEIAAA+NsKQZMDKymXqA+bGrm2T67lk6bqJDIOmeJmqB7pike+61ExZ5NpVJLv6yIUORRTbBrduem1U/u2nIstCQhBAADwN8NP9QTTI70rNCsvgo1HmhEQZxKTbO747nni7w4pIuiovk0BcihomFS0HCo5PimGQfFYgNTslJrY+OCnrV2PnIEtCghBAADwt6GYrnOTU21Bv0S67pGnuaRqCumGRp7ikSOCkMthSRGhh7i7PI8bpJCv+WR7JbJEeIrpPuVGDrZPb3/ik97YtlnYqIAQBAAAf/0yyeZCYrIu4IsA5OSpZOfI8y0iEXpIEWFHN8kLhMgXoYh0WwShEqk+jyBdEo/Z4qzjUjiokV6appGd69+Y278N1WKAEAQAAH/97Mx0h5PJVASJcw/3AnNJI5sMzxFhRxH36VR0g5R3dPIVEYTIIUM8bnL1mOKJv/uki9dVhXWyk4PmyLPr/9k6tG4ltiwgBAEAwF+1bHpyjmJZgYCIPqZmUtAUNxGEDNcizfbItQxyvApytWrK2CIeuUQBTRUhyBOPO9xkSCQpj0KGShW6R9OHdqxIbX3i372xXXUv53r4iZ6QP3Ggyk90R/3MAM6Fr1CYNgMAAI4sOOT71J4HbpmreSLQiGBTcH1SVEXEIRFuuDpM/M3zTQrVzZkIV1eODxx4eolVSJOmK+V2QTykkKKQp+iyCi0SUskuZGhi+4Z/CDe2bxGPXvmSLHdhSKV8stZKJdutzHQbTQwcl3jopgWWXYw5mlY0wxUT00/etCfU0L4h0NixWalo9/BpIwQBAAD8ViFdn06MzRGZhnxfI0spN3jW/RKZIuQonkJFT6Waho6n4suX3zJppb86eXDXYtMrUaWhk6qr5Lg62b54nc+RyadKU6HJ8d7Q+PaN/+wOPP0brfWEvX96WBvRxLLGrdTEgkJiZNHU2tsXO5NDK9Ojw535xEhtwEqG7XSCfEWEMFUni0yiWE0h2jyvt3HpiT/zU91XKJVzC/jAEYIAAADKSslmKz0+O6DyGNFEQV0XoccWQShMsi+YZ5GlqVSqrOxR5y25vyafi48PTl1SSvbVKyIAqVxYpGpUFD80RZx+HJsMkaiCAYfGup9ZFdnZ8W9ese+zarC9eNTBJ9EVc6fHFhdSk/Mmn7xtaWl0cFV+amxBLjFW5+SSQU0sm+454iYCm+5Q2HRI04OkqmJ5SwXKpYdC2UJq0d6p0fPN6toe8ZY/xQeOEAQAACB5uck5ama6ngdC5LotU9xXLFqkBCtkKHJFyPDDAfLi0VEltjxbmuy6qXFP92mlHVPv9awSaSIouZpPvqmKvylyXCFX3CIhg7KZMRrf9pt/is3ufEy81e1/NPQk+wJWdqo9NzmytDQ5sHDkwZtWlcb6j89PjjY6+VSQnBL5jkWa78uRqoM8hYfOtXEqOYomwk9YPMUjzXGpUnUoLh7P6zYdGO9tGNi26b1+pvdOJdaRx6eOEAQAAEC50ZEVWiEXNrhNkMKzxbukKwqp4t+q+KMoOrmqZsdq6g7x8wO1C4vFZx+8dmji0BnJgX0t1QGdFL9EhsI9xXw5qKLvuqT6OjUETJoeHY6NrXvifHdi5+Na3bKp3wk9iX0RL5tqtpJTc0vTo4v777v2ZCs1Pj83OTrLTU7EjVKWDHIpJLKVromIJW6uqsjXalxlpxbFEtpygEfFN8gTN0UXNxHf3JJLPNqjoZhUYYaokEy0UT5TI16KEIQQBAAAr3S+NaAM3P7DhUqxVD5xiPDj+uWBEk2eP95VRZzQROIIpyqrG55r1xOYs/jJqmUn39w7Pv451ZrSwmGNfKcgXu6I93FFKBGBxfEpaIQpn7NosmvPysadW9/rD22/XdxRaaeHl+WT40uGH/7ZoszY8JJSYrTJyUzETVeEHq9IMd8Xv1/c+Fdzl3xx87jEiRdRE0uqckWdCD+KK+635XJrnnjcE8vLbZREGPM0VSyLKp4rQpr4Gw+BJBcMEIIAAADILkYykxNt3I7HNzyyVJdcERO4Vxi3s/EcESj8COmR6ik1WtN3+GVKZZvv9D17TfVg/5rp3WtPN/ycHC+IHE8GJ1KNcvgQmSMcMsmy0vHElke/ZPbsObeYnm4oTg+3WYVUoFjMiyRWIkO1KUYOhXh+Ms48/IfbF3HU8bnBNpcwebLXmi4HcBSJxuNSKxG+lLCc44yf6/siBHkiKokwZhqGOBnqlCl5lLc9qq5tOkhmKI0PHSEIAACAKJups7OpBk0RwUH3ReBxyFc1kTF8OTEq9xZzRKCJ1TYfVOLLUr9zomk/rr/4zL3fLUz2LU4Ob6triHD1lEkFLphRA6SZJhVFuFJ1haIi4GSG9zRog3sbfKtIhm9RWNzv80g+4vcqmlueo8x1ZamPL36ny13uFZV8LlkSwUbzXXlyk732xfL5niKXzxe/0xM38m35XMWTLZlIN3RyXJ+SlkdOKJZpmb/0PqV6XhIf+rEPA0QBAMAfZSem27VCoYqny+ARn8nnEFIueeH+7hwyPD3sVze17fx9rw/MWXJ/9dITbreDccqWRNgQL1Y1XYQgTbxe1lKRKwKPqZTI8LJkqFkKmhaFwkRGUCXuXcY9y1TfFIHFIF8TcUkJiQijyrZJ3NZIJYs0lZOVLe4XwYz/+NwrTRXBSCXD9ch0XFkCxJVdpliNgAhJ4hdTxnLICsWofslxm2Odi+/GJ44QBAAAIDnp7CzddkOmCA0qt7jhaidx84hvqgglBrl6OB2rbtr9+16vVM92apaeeF1F2+JeEW8o74gQEjBI1xWy7JIIQ7JptQgoFumaLf4twozuiPckKonAVfI88nx+hkGqEiRPDZKriN/J93GC4gbaarnX2UyuEY/zOEYaKeLGGcpQxLKLoMVTfaiaL/7N7YM0sj2dpi2xVtWNg3Neffr3lbpFk/jEEYIAAACk6bHxBVYxb3A1kq7rMvyIiCGCh0IFR6GSZpIbCOfVytr9f+g99PmnbWk+4cyrrEiDly465HjiZhVJ41Gkubu8IoKQzoMqGiIE8RlKkV3vucTJUBwyPBGWHC4psoiKGTIVrv7iECZ+txqjRFalibRPth8h0qIiCGnlWe3F81zdpaJSJEspkS7WQieboxtZIgSN5cWyNXWmO097/Q3mvOUoBXoFQZsgAAD4o4q5VAMPkcijPnNlE3dB5/ihcDWYaVBJCZBRUZ2icMXYC71PuG3RPU2LTzgnsT1/UslOU9AQccTlKiqVPKU87lDA0GTEKlez+bKkh8ck4gbPXPvGXd+5e3vWEsHGN6nkBalUMtxwpDrXUl+braqNlXKTwx3TQwcVg6vFfFcEI4/7ysvXBri3mOuJ+3TK+EEqVtbkZq8+46c1K0/9byXQ4eDTRggCAACQ/LE9sd133tTqKBYpAYVs1SmXBpXKPcl1M0qFkk7VDS1dFIlNvdB7qW0nHHC7HrjEnhr5cWbf040iP5HGI1DLMYdUOeCibnsU4JIlj+daVWX7HW7hUxKhKy/uKzquHPCQIrX56ralXZW1bZuNSHVPdUvLZrM6knC6t52b6Tv0Bc+2NV2zuECJND1AbiBKti0yjlfgFkk0YWlUjDakWtac9dPqE157sVK5NIFPGyEIAADgt6aGV3jpyXbuCi97Z3HjYqJyKRCX1igK5S2X2urq91Ew9EcHGFTbl/w6Mm/FvYnevf+SKmWpKmqSWrLJUFXSgzEq5UtU8nWyfJVyDpc8iRATMkiNVrhqrGq0MlbT2zZ/8RNU1bBDq27dqoSqBrSGxUU/0a0U9m0959D27e+wp6e0elMn0y3JgRy5JVMmZ8keZeKXUFasQy5QYzWuXHNvwylv+IpWu3QKHzRCEAAAAPnFgwFnpH+lPTiwZvKZtWdrk4OdupUnQ0QSbsPjuh75GpfciL87JfIUww/Eq7uV2Kw/OgO7Emrzvf4nv29N9p48uXPjonyxQKorwpTjUVEEn4IfpIxlkFJZmwnWto5U1tf3VdbUHow1tG6kuo4NSkVVr1bT6f7v9833bX/zvvX3X5If6lrQqPtiWQWHR7TmnxYFrSKZsWpKFFWaVmJUt+Lk+1tOf/MFOgIQQhAAALzCg0+uz3TH+5dO9+1804Hbv//qzPDwfC+RrA2XSvGgnaWAbsvpMniMH5kvuN0O+eQUixQMRUuhWGzwSH+X2nbqs8mnf37lQN/AZRP9+yrqojEyA2FSgrFcpH7WQEvHgscDda1P643t65Sqml61stN+ofcr7bv35EOP3fPlzMCuRTVqiUzPEkGtJEeR5p5iZiBIYZGKUqUSjZdCVLvyhHVtp7zxYqNlVS8+eYQgAAB4JQafyW11Tn/3mVN9+8/a+5NLjysmhtud3Eidn0tQxFMopOgU8HQK8bwUpsEDPVPR1WQJkCICkaEq5Fg5qqmutPXK2PjR/O5Y5+k/ajnZrszP3f93DY31+wPReE+wom63MmvuWrVyfuFI38fa//DygSfu+Wp6/7YTG7wsVSoeaa4tB0H0fI1KYjlLmkGW4tJYzqGqRa/a0n7K2y4yOk/Zhj0AIQgAAF4poafQrzqJqZb02Oiy3MC+U7pu/O7brdR4SyEzXaE5RYqYPkUMm8yQR6pIPAbPcFGyqFQsT5Lqcu8wHiiRNPGYT6qhka0YFK1uHKdQbOJolkWrbuaeWJf50/u/T+FgVgm0eUe7Pl5yd3B67T0fGNyx7jXVfp5qwyZ5+azsxcYNq0uuQ74RpIKtUtJRKTR7ad/sN5z7KXPRmU9ibwCEIACAY5w3uSPmZcYW+uNDqybuvubskUMHTrRTiVrDzgW1YpoiIjBUGjrxfKM8rRdZ3PldL/faEv/zeaYJ15elQKoIP7oIPp7lkCGeVXJ8ymgxqq5t30WBoysJOkypmv+i5ulyEjvigw/8/Kq+zQ+/u9YsUkzxySoVSROhx9E08n1HLCtX2GmUzYkQ17Cob+5Z7/18YNFZCECAEAQAcKxyh3Y0+KmxeaWpwVW99//0jPG+fSu81HhzwM4FgnaRoj7P3K6QHuIqI0+2n/HKXb5E+FFJ1wxybIs0hauVTFJ5PB/HJbvIgw86cnRm1zAoVSIqBCs8itX2KrHO4ssW7JK7Y4kND10wtWfLO6J2Vg0Heb4wsexaedToglWUZzhfMWk6bVOgfl668+xzLjMXvepW7B2AEAQAcIyxh3bWeyOHTioNHjhz6O5rTk1PDrfmE2M1TjEnw0xdyKRYUCPDCJDi2bLreY4nItU0EXJU8RwiVQQi33XIdSz5b56DopTPkyJCka4FSc4/4ctZumg0WxQBKE7B+o6+QG3zzpdrPf3sQTX39KOfHNj8xAfc0f5gVVhWzsn5zBSZ40oUNnwqiPWaLLlUqmzOt5941vXmyhNuUGJNPvYUQAgCADhGOP1bOlL7d55z8J7r35Tu71rmpMfqgm6BgppL9UERXMJcQmKQwanGLpFlFcoBxzDkoIcuj/Xj2OKnJwcm1HhSDJ6PS9XI13TydI248itvK1TgGdnNCKmhikzdovaBUFPrjljr/IejHYvvebnWN7fv2XcdWHvvvxuJgeqaoCLWU4QyEdx4ZGkeHdrn0aHFsk8XHcqYtd6CU153U/Upr79Qic22sLfA8ynYBAAAf5vcTFcgs3X9+al9W9431rtvkZ0eC0SoSGHVpoBIOYYhAo6jiHCjyGkpFFUhVeGpLhwZdLhKS6QcWX0kZ6mQfxQ5NYUnAkXO9qjgioChiCAVqrLNeONYuL5td0373E3xhpZntbrq/RSLDyuxRcmXa53zux88s+tXP7nW7d46d1ZYo6jO027YVKJyNR55Dnli3TMu0aRZQXWrzr6t/ex3f9yoWT6KPQb+N5QEAQD8DfJEABrZ9NDnB5984JPaRH9NQMSA2ohBsaBJvqOSa1uyMbPqqyLslNv0KHJYH5tc1y1Xedk+6YohGw7bikaWp1CRJx0Vz3fUIKmVFQWjonaioqFtd1Vr54aq5tlPUm3LdqVmYfIvsc6lHQ+f0fPoHVcUBvbObQn7FFAtshy+idRmqLL0ylN1StpE00qIGpac+nj7qW+9SEcAAoQgAIBjR2LHxg/1rbvv/PD0UE2t4ZHG1VYi2OTTIgEoM8FHMUn8hRQRhHzLJdfn4Q09OfmpbhiyxKdkcWcwjYpkks3VXBX10+GGtm6tpnlXQ8eCxyKNrZsozo2e55T+kuvr7nvi+L4Hb/t2av8zKxtMhyK6T5Zti9BjkGdo/Aw5KGJBrEtKDVN07urNTSe++SK9ec1u7C2AEAQAcIzI9zw1v/vea/+fNnqoPqZ5ZOq6CDw8x5YIPLpJCs+PJeKOI0KCLgKQxxVevkKqbshZ1IuuRQURfkockkJVbijeOBytb9kfrGvZH2lq3xJrmv0k1TQdUMKtfxWNiK3BJ5eN3nvH99L7t7yqRi1SRHXIEYHPVnicIh69WpXrWvBUSvlBCs9bvaXzzHd+Jrzw79AVHhCCAACOqRA0PrTKGT60tEG1KCICkCNijs1zeGki8CiabBjMvbxUDkjE7X488QyNLFUEJSPIc3I5kVjNaLim7dlg25KHKxtat0ZrG/cqdX99s6gXxzYsGv7Nnd9J7H7y5Fpu72QQOY5Fjs4tuANy3T0R8GwlQEnPoEDzou6OU99yYXgxAhAgBAEAHHPcTHKWYZdCUUUEHcUhR+Hw45Mrgo4sulG5mzgHISLLypGuGzIslMTjgXiV07Bo+a+N+ctvpqYFTyjx1X+17WXcxK541wM/vSS9Y+PrWoIlCpaK5LkK+TMlXfIPt30SAajgBCjWNH989ulv+WZkxesfwF4CCEEAAMcgTddtXyQdHrzQ5KnSOe3IAXKIO7fLqi8OQzy3l6/zfY4ISD7ZnkWlXFp1R0bmB0LVx4e8iml/cn9aqZ2f/2tcz8LExJLRrl2nmVMjFK4zyROBx1VM4r5txL3dPJvMcmUfGWaYmhYe93B4wXG/wB4CCEEAAMeoQGVNjx2qnM7mwlUVqhzRUPYCU3xNtgGimQDESSigBchzXeKncff4dHZSndybmuf3HPycWfnM+2MNnZunfn3dxsr2zse0+lm7lOrO3F/LeiqkO9XxuryXilDJLsku8GJNuHZPrKtPpq5xpzByLId8RzyuaznSNRt7CCAEAQAco0INs7YaTXO6JqeH1/DYzQERDbgHmMYNo3m0Q78cgHjMH8fxSFF9GYpMxaZqRaUK1SErX1CK2ammVP++t6Z3V711qr51JNq+YF164633R5tnr1NqGrqV6F+2YXSoqXXLnBWvuuvgVN8nU+lBqg6HROCx5ZQeiu2TwQM92hYprkNkZWh8344zzfkrXi1euhZ7CRxZ0AYAgL85Y0/e9KmDj972pVCqp7aS8mRwCFK4JEiRDYV5uguXm0MbCveYl72pXNcmQ9PJ5KkvHJ8sV/wQ18IlT6WiYpBthEmJVuciDa3dkab2Z+sXLr9dr2naS+HKYSU69y9SZeaPbJ6/9+4bb7X3PLW81iiR6xTINEzZNkhReXqPHOmqCENugEa8GNWc8pab2l/3ro+pVYty2EsAIQgA4BjkZA5Ghtbf87X+x27/dDg/RpWGQSFVJdPzZKNoj0OQ4pNn6Jx35N9VRZFNpzXXJUP+W+MyJDk7PP8seQrlxD8scb8ajJFZ1ZCM1Ld1V7UvfDTesfwOapi7WYk1uy/3umaf+tnHD9x90xWh1IARDzrizMUtnAwq2EUKhlRSbZsCqghBOYUKdXMn5p3zkfMqVr79DuwlgBAEAHCMslMHKkceu+OyxI4N782N9cVivk0NIZ0CfklOgOpy73gzSDzKocNTSnCvcs8RocEhnScb1TTyFF0EJm5arMr5thzfJ9uxyVG4KzpPoxEgs6KR7HDduFPbubFl1anX160++1cv53r6iX2VI/f+/NaeDfe+pjWcoaBSIt83yBJL7eoi1InQZ3CQczRKumGKrH7jna1v/tD7tdq5KA2CF4Q2QQDHiEI+reRyuQrP8zTTCNiKqjuV8XgBW+bYZVTOS7mpns/Ga1v39zzzxAfTA/vnucWpQEQEnKiuUNA0KJ3LEpkB0sWNB1TkUZV9z6XydGEqeSLtcPDRVNmzXp4UdI1HnPYpGAhQKlOizPgQTfmJeqXgn9S6bOWvXu71VKoXpOyn7//R4KGuBanpZ9uMgEqKTXLyV9vjyWEVst2SCHg2Rd0CZQ/tOT3dte1c8dIbsZfAC+5b2AQAf5tKxbze3d29oq+/f8HwwMDs3t5DnUNDw23ZbKbCdn01Eolkm5qaB2fPnn1gzpzZXR0dHXsWLlqyA1vu2FTs37x4+uC2d052PfP32aGueUpyNBKwctRcXSnnxvA9TwQdXc6v5boe+Rx0+A+3HzJVsmX7GksOsmhwLzMKUMFSaSznkhNvLs1afdpjFcvWXBtunrtRq53zso8t5E0digw+dtv3+tb/8oN1ao4iPBmsCHS2q5BpiDDnW+RZNmlKiCadGEXmnvB0xzn/9F69ffVB7B2AEAQvmjW6v3Gqa/cb3MRUmyabELjiuGnrnuJqciIiVbc9HqmNVI/KfVJkZxRSPEUO5iFuju3qpGiuqhuWagTz4lLT0U0zHwgEMpHKeL9RU9dNkYqkEmy3sMVf2MBAf+tjjz5y7qZNm87avXv3cT29PU25dI6sUkk2fOVJMrnRhqpq4gpZI8MwKB6PO/PmzRt49Zo1j6xcuXLt299+zs3YksdoGBpct8oa2n92Yt/2N6R6u5b6idGasG1RSISGsC5CEI8a5HJJkPiKyp3F5W8o2bojxxvi+zxLp2JJp5wfo5rO4/bVrDj5xtC85fdoHcft+d19caiptbVl5GUL/rt/c/b2u6+7wRnZ29oSVslwSuTYHummLg5DfrknnBKgfE4hS49T61veeWns1NddrAQ7S9gzACEIXpTswadX7b3np1eV9m1+dcQQh1BFXEUq4spyJvOoPHGjx9mnPFEjyatLKuch/pfiiszjkyuuMF3FIEc1fMvTbFfTxF9NKxKL5WJ1DT0VjbP21LR2Pqm1zFtHVU19itboY+v/VnJ6ququu+764E9/ctOHt+/YMd+ySuLq15Njp5hmQIQdfeYbzae5mV7SPp8YXOLn8szhInSKQFSVed/73n/L+9///u/Nm7+wC1v22ORM7Gx2x/uPH9+77W2pvv0npQcPtZulTKTK9Clm8FDSIhfwiNO6JkKRLQKzSraiUqJQooISI622Y6J12Wl3VC05+cdaw9ztSryhePi9ewcGZ91400++2jm7Y8/73vPe/3y51slP9gQm1t5zedcjt/1bszathH2LNJ4clrOcwdV8mjgW6WS4CuVKHhmLlg83ve0f/9XsePP92CPg90GbIPijPM+Khrx0fYWWoajmyAIfX5Y18PgjfOWllhtVKuUAJIOQojyXsRVxoHILWfmwpwdFGDIV29dMm4d+9fSwWxyNJwe7WqaM8Cl9lXX/EGOV2LsAACAASURBVJ21YGtt59IH3P5N92ptJ77iT9KFfFZ75JFH3/PBD33oExvWrV9dyOYoFA5SVVWl3MYcbjzuESS2uaqVtzl/Enw/N3QNhULisRjZtk2lUommpxOxK674z49u3br15IceevDrr33t62/FXn4MHtzrlg2LH8Nurv++hsTg8syBHeeM7dn6pqn+rqXT2YkAT7kRMFXSFY0006Si41Oq4FAp0EBVC1fuaFp52g/CrcvuVZuWDzz/fe+47Z4P/9M//9OFmzc/Neuyb172rZf1qj0+u2R3b/hRfde216YOrpuv6yWqCIXJ9l2xf3vyGMSDReriuBQ0HZoY2t8c3bPlfX5y/2NKfD7axwFCELyIA4+mOh45vq3YcvB9jjxcD8aXX4q46uITru8q5eDj8RxGqiwV8hV15oTsU9CIkqoq5HCXXB7PRByvglxiIa5G+bRdE9DJ01zKpUfjiWfHzkzs2X5y87yl5zjrf3aT1nncL5WGRYlX4rZPjI/Eb7z+uk/ceOON/7Z9+4567uJcW1tLurh6LxbLF+aqqsoqL0VsX273Ua7q8MqNX+Xs2iS7RvOnwSVBHIry+QI98MCvl09MTPznHbffVnHOO955Pfb0Y5MWaeMS1e18c0Y33l7o3vPmqe5dr0n27lueTo5Xm65HVsGjohakaGvHYOfyNXdXLD/hBq1u9rNK4Lelsft3Hlh88y03/scnzz/vfcNjIxSNhaijrXXfy37Samjc3b76xJ/vH9vzVTs7TJ5ry/DPl2Y8ThK3ZnJ5PjWxw9vFFA137Twj3Hri6eKlD2JvAIQgOHqup8lyHm5IqSuy+oVDEM9UzaPTyjYE5aZA5OvlAMStgXwqhyD+abmqDEN8fuaDliJP3NrMFIieuM8i1ypQWDMoEBYnaScdyO57es3WQ7uXLH7NubX+4LM/UWYdN/BK2uwTI4N1l1566Xd/9KPr3sdzRDU1NcqQwyU6nDc5+HB1F5fEeSLwuHZ5+BZTXNXL3s6qLbs4c72YxzfPk7MscTuhUChIbe1RenrzlpaLLvrqN+6/977CG9/8pp9hZz/GD/iNa7hh/A4vsf3mWcM9p0zv2/Xmnt3PnuWKU0Hj7AVPt64+5Zpg+8LHlHDbc1Vficnp8K/uuftj737PuZ/f3bW7LhoOUn1NFYUjYWqor+9/2S/KonNcZ/SZW+J7nn5X9mBxoe3zYIlKuYE3lwiJ44tuKPLiQCuVKDsy0JTv3f0Wf+LgE0pdJ0qDACEIjnYn4eH2Re5xHTnaLM/b4/jlajA+0HBPE3FmJcuyxMHHkF1rPYfnrPbkSVrVxLFJ92RbIsV3iJtQc3CyfFs+zm1XFEMlxdRmqtEsCug+6dzexS1UbL/35i/OT022+8md/6HEl02+IgLQ2EjdJz9+/i/vufuuM8LhMFXFK8TmL0+JxIHHsjxZqsPbvxyKFNkuyOHtzr2ARGAtlcTnoZvEr89ms7J6LBgIySoxXbzWLhRpVksT7d69p+FrX/vaN5/a+NTYq9e8+hHs8cc+tXoFX1D83E/2/qp6xZlLyLJjSmPzDrV63vjzn7fpsUfe+OmPfugrDz/y8Im5fFaEnlqxr2kiGKVEiJ6TqqmuG/5zLZM/0a8odW1H1A5Qb1x9MPv0L7891N9zhZouVNWYuqx25yp62y9RqeiSEdCpPhajsUyK9j3z6DuWzpr9hHjCL/HpA0IQHP3VF9+4/xeXKMiqMK7u0soj0vIAbFxUxGGHHBlkRBaSeUbhwCSek3dL4qAUEM9TyHdcEZJccdHmixO7CEoqT4JolNsVyd/BY9e6xHNFBxQRmjwrMrT18feUAmreHX/mm1r96rFjeVtPTUxUXXLxRd+791f3nMEhp6KiQoYbDow8LgqX9HAAzefz8r5IJCKDEN/4MX5uqWhTTJwASiWbkskkBYNB+Vp+jKvD+HX83KwIQh0dHfTMM8+0f/XCC793YN/+c+YtmL8Pe/wr5Hsd78hy1vnf9+87cKDz1p/+9PMf/8TH33Fg7/5qX3wPY9UR+f3lax4u+a2rbZgSATvzpy6DOzao9Wx75p+f/MV1b99/27cTjXPb10baO55Qg/EBJbzgD/YWDcxZfmfj0lPOymz99XtzdrY8j5hnUzAckhPJ2laJVFuhCl2l6dx4Q/7g0+/1ErsfUquXJPHJA0IQHM01mlKOQJqs2uIQxMFHNpDmxs6yOssmzxc3x5Y94w1xkta4qoxDE4ciNUDco94WJ+XyWB5EQTNImmmQyENUrskpV5lxAOKKMm7gyFVl0aBPvRPd4Z5N6ruijbO4bcMNx+qWTiWSwWu+f/WXrr766n+srIhSTU21DDdcysbVWNwLzxchkQ/2fMmscgmcbZdjqsK9fHy5BU2RQgu5ouwmHwqEyLEdGXrMkEm5XF42Ig0ETAoHguSK946Gw7Rx48bF37/qqstGhof/tam5eRL7/SvTHXfe/YFPfepTn378sUeX8rc7Fo9RxBTh29ApmylwPasI10Wa1d7SHY1F0y/qd9xxx6dV3TPe/tZ3fktrmOX2PXBT7fSeDW/yurLq1JbA+8PxmoH6ts5nM/d/92C4rmEvNXRsUqpm7VNj7c7h9zBqFyYL2++7Zbpnx6mp0f1tLQFTtll03bycDkT1HNmBo0LcX8qO0+Suja+r6Fj5dsIAioAQBEd5vciVVoqvujLQ+DIW+bLkRpWdsR1507gbvFMOMzwUP7dH0RQenE2X7Yg8cUAyNJPUgPj3TMkSzwjti7DDJUG+fONyzyaVftu7TBe/t75Co0J2vKF3y1Pvt/s2Pmm0rzlwLG7pZ5999qxrr/3hB7m7ezQaleEnl8vJ0pvfhiBfbhmuesxls/I5MjryBFDl0EqxaISCwYAsATrcc0yWEInn8nsFAtyrzJH38XYOiOdOJZPU09s7P5vJ1ok7EYJegW768U2f+dTHP/H14dGRYDReSabYL3SxsxVKJdmOz+QLF0MjQ1epc3bb/nAokD3a33Hffff/82c/95krzn792buTydEfxeONiWgsPF0XVtQazyI3nVCd7Fh738D+dtJDFAxF7FBl/Wiked5TqcduXB9pmbOOqhu69doFyWBzy/a5Cxbs6J/ubyvkshQwPNko2peXa/yt8Lken2LioiE1NhSY3L3p3c7Y1kf0huMH8GkDQhAcYTmQ4nGnL185PEYQFwJ5M0GmXDLBB0hfVcjmmakpIA4+IcraLjmeIU7eLqlWgfgRTZyMdb5x0BFvFNB00rkpENnykMVjLnIWsmXY0sXJ2xNXnQVx0g5SXDw2sn/nyeOznv6Qlxv6khpp8Y6l7dx/qGf2hRde+O+9/f3Vc2d3kGOXZONzbvvDAYh7g2lie4nLXCqWLFm6IwKNu2zZit62jtm9oVA4x1NmDA8NtHXt2dM5MT4RCgYtGabKYziVg6fH80F5rgxS3D6Ib1VVVc773/2PG/7t/H+7eN6C+Xux17/yJBOT6rcv/dbKybGRYEVFjMKhCJX4O6xqcjZ6SzHk9BRWMS8DdzwSShqB0FF9B5944om3fO6zn/3W3j176YyzXh/0lSgfRkgLBsR76cWQ7QZ1cWxRefBGLsFxiuRmJg030ds63b+zNbW96ly1oirlVdQPjN713YfsvZuHIrFovq66hoojKRLXW8T9w1y+UNBU2TbOEd+VqC4uskTenzqwY03Vgm1cGnQlPnFACIIj5nFnMA4myuG2QV45yLiq7PLO5QnciievBKiivjUdrZ+9XbX1vKtE0qrGZUGZuO8Uo65VrCxmM1X5bKbCLWbDmpUXccmjkC47c1O5tYEiS5z4fct1PiSH86/Qo5QpFoyprt1valyx5sfikWOq7crGjRtff9ttt51dVyMO6Nzeh8oNnLkUh6vEuE0PB6JcviBHh165cuWhf/zHd9/w2te+7pfiavi5krH+nt6WdWvX/v0tN9103lObnlqSSCREWArLBtKqV27IzqVDst+eCK8tLS2JD3zgAzd/5LyPXlhZXZ3B3v4KDUHJ6eZ0OlkTDgd55lTSeYgFdabnJw9v4diyeon3xXjIoPq6+qNqFL127do3fuELX/zBtm3bGrgat+9Qb/Xo8Mh88dBEMBoeC0cjRWfMDgYccSQRAcgqunIOs1g4JGe8JxHeC84kZccnKvPjPZX7encuiQQiubk18ahmF+X3g49RMuh75RDEF26uZ1HIiIggZNLk9GhsZPfmc62hLbebLauG8akDQhAcAcXzfdX1ZJugcldUHiya2/XwhIw8WDS3EyooISqY4XzT3FUPVr/q766qDtcfIr0yJS/rnEKYfFejUj5mp5JNheT4vMzQwVdP7N/yhsLUwKwqv6QGySaDq9XU8phDrlK+olONgDjwOjIsVakiTk0Ot9NI30nHUgjKpNLBT5x//ttLVonaa9spnUqKE4AuR4HmKivu2WWYQUqlM5QWt7e//W3rPv3pz1xwwkknP/G/36ttdseQ+HFV17ad66697kefu/nmm99jWTZFxUV3oVikYCBI2VyObMuiU08/edenP/PZC8446+y7P/+lL2NXfwVzfUUbHh1pzWfT1FBTR6q48NC5hJfKnRs4YGgiSGQzaaqIVFIoKr7bR2jTpk2nffmCL1+5ceOG5sbGRiqIkN93aF/l9Fh/u3h4faCqcjBWVVnID3nxkGuIQ0VInJ3CZMuZ7HPiYqtExkyvx2jYoLA4ANW604qdGonmE1zFbpJn+FRSNXHNVB4igsMbBzZVXJhZ4sjiimNHRByKJvbvfFVsSfcZ4vdiSAhACIIjS0GKnG5xplhGFgepsupKzg42E4Z8kYZscaT0zcpJqpv9tBKd8/z5eg6POzIhbof4wOcnD95a27n40cFnH//nzJ6nXqM6JSOglRv2KnJ4aUX2MOPpORRdhCIrT5q4OlWLmVhutO8kP919s1Ix1zkWNvChQ/tXrHvyidXhUJCm0+lyMb7LXdzV8vg+4sZteHj6i6VLF4+ed9553/p9Aej5Fq5ctq3vUM8FyXQqfvvtt7/R4kbr4n3HJieouqY6+5HzPvLzD5/3rxe3ts8ewi4OyVSqYXx8qlkR4ZurX7nKlL+NNg/uReUxwDRdXJA4LlXX1acaZ7XuP5L33b5t66oLLvjy1Y8/+sic+vpq2cDaMTQR9FPq4MDgMvmkcDilxar6bTXU5Cvlhv6+U5SjzKvEJUKKDGRceul6PMyGTTGuMI+FqZQTSxkwRBDidm6+nF1edqngKWM8Hk8rQAUeLku8LmbqNJWYCqYGe9ZYiUO/MKvnuPjkEYIAXpCvuLrieXybSTx6ubpK/vHlAUvzXQoqGul2MaT4njgGBf/oRKhKvDMnfvzSOvjI4GA62ZI7sGlFRLyHwjNd+1yHzz2i+ORvyaJuxXHI1A3S3RwN9x9cOd/3ef+VIchLHdTk79VMV4l1/E47BT89LI6IubDIYRFXi6T02Jw/22SKfrpfIy8fFwsnjsJGliiSU2KznhvrxE8OKkp81h8d+2T7tmdOnpoar45G+Qq4PLhhuc0OtwMy5dhLlvg7l96sWbPmqdWrVx/ReD7tc2b3dB88+Kme/v75jz3+WGd1vIqWLFvW+4mPf/y7b33b235QUVlhYw8H5lhO0LIsU+NBOMXNdRRZJevzd48f5++f2C/zpRK1drQnKqqq/+hQFXv37Fx80Ve/cuWD9z+wtLa2msLBkAhRtmxPmC9aNDw61VrMTKgULOS0itqDlhk50XazZIgko1OJNKX8PVD9cvtDj8rzhCnc4cLlKyuN7IhGlloeiNXw+Fjky+ORHKmM2zBxhw0uRRLHrICrUJUZpNxw3yo/NzVLvHUfPnmEIIA/GoO4JEgGFyoXBPmyAXO5/Y5scCsPTy6VS4v4TvWI392om/1M3fJTfl6YGm3PJHrjEV2c9DURdrhXEzmy9xh3QlPc8sCNqlciv5Cqpcx0nTt1YKx/24aPDjxxT3ul6otjn0dj9/x3RlNUT7WdkKJq7tTjt4ofxXjJztaUjKq+XP+m6yNtJ+75k6+cux4/Y+jR298aVop1nsYF93pO8QO58XuuzPu+5iq6p449eWtw9Ffft9OOUajsXPhQw7JTN/2+9+o61LsomytQOBKTXZAdj3vSiUAo5wVzZbsgRY6/ZFA0Eslrun7E4WVuZ+f+W2655btj42OXnXDCCes/8clPfOX4445/5qXcY8ZGRuK5bLY2nc7U9vf3L5qYGG/J5fMx27ZNVXw2mqbZ4XAoW1NTO9bS0tzd1Ny8P1ZRMR6vqrL+mvb8TCptJhJTswqFYqyv79DSZDJZl0hM1xUKhQiXSojPoxQMBnIVFZXTra3t+xsbGg5Fo9Hx+qam1F/rtzk1nVUqq6L/J5inxLpls9kwf8H5KsKVI7yXZ5vnIRcC3DuRZPMgqqyKT1bXvHAIOrh/T+ell3zjv+695941FRVRCgUCcmwr2dBf1Sg5nafxsWSTVfTCgWCgVFPXvns0UEmFVE48znMUiuOJuHEPU9lbVP7HEzE7ss2PLQep1+RUPJ6solfk2GO+Ux7LTNPLI9dzCSpP2cPVy75vyel8HCtf5TulGI7tgBAELxWZl47oiZVzLKt/yy/0fTvPzianzg6Ig5zOU2tw1Rc3DOZSIZfnKVPFwVGXV4l2MRWnUqqKgsFU7+Z1/1Ts33t8kyHOn06RbI273OvkFQqkmwGy+MrQ9Kgo3rMYri+ETNPy8z1fVsKzX3TvMnd6b/Whh29/z8HH7v1/ccMyVM2SV7c8dxrPZM1UrsYTgSbnhikfahhdGDG55Ov3hqC+wYnZ3NSce3+5PCKTLHUrN+7kkxKfjDgEcTVFd3f3wqHBwdniZUc8TMDb3va2a2trawfnz5+/c86cOb0vxQeeGJuI9g8NLNn6zOYzv33ZN1914MBBnpusim+ZTEb5bbWe+9ygj9xzra6uLt3e3t4zq6Vl39133vbAsuUrnpwzd173X2rHzWWy6vDg4JIDBw6s+tall75m797dJ4rlr+jt6a3LF/IkApAsFVFmTrRcZRkO85hOtcXaurqp9ra2vT/6wTWPv+rEEx5pb5/9bFV1demlXuZsKq2MjIwsGBsdnTs8MjJ7OpWoLZVKQbGtDTmYF++zjquqmuZed921/t133rPrbX//1p/8TnAdH29LpVIqf+fKX11f7nP+zJQr3Iieq2P5q10jAlAsFvuD69Xbvb/9u5dffun//OIXrwkEgxSvqCx/7rKazZPjV/Ggi11dBxdOJzJtseravbpZMUB6rJix1KAi9g8e8Zm/67wkBpEsFeIOGZ64OeKKiG8KD7RKpvgj3pev03gyZ41kdbLLFw/id0bE+ziezcGHXNUnR1xg+aYhkpZZwmEaEILgpQxBR8xsW9Xbe/t3t+YO7jjd9qYNcovyWlTVTW6wKXs1OTMnHQ5HllfQfb8UUMNmcX5nx45DQ7uPr6C8uGItUlE8HjaC4qBbEAdRi1yl3K6mIMLVdG4qZA0cfJ2fTV0rfkHPi105a2JgVa5n72vrdcuoVEukq1zE75XnT+Pww6UEPE2IatBw0aZoQ5te39z0e9tQTBcc9SMf+mAoIEIBH+RVx5YHeu6GrIgQp8xMjcEBiCdOXb9+/fF333X3hwqF/JdCofARBTlxwuK2D796KT7ooYGBhu3btp/1zW9+4+83bHjylO5DhxrFyVT2QuOxijjw8EmPG3nzTZ6QxcmJexuJgESDgwMVT29+eoXYYVb89H9+/g9r1py0+9of/OCXa9asuW/ZihVbXq4ddmJ8rPJA176Trr7ye2/esGHDG3fu3NkxMDAgq1KCAVNsw6hcbj7Bmma4PF/wTC+7VCpJIoQEHcdrEfe33H3XXWfPX7jwE2ec+Xe/fuzR39y+fMXKh0RI+rPPWzU6OlrVtWvXGVd+77/fuGH9hrN7entaxLIY3ACe9yEuAVFkhwYqjyclAg03sD/3nec+kk5mb6qI/7ZEaHx0tJVLajTuZTVTHavKXprlEiEOQY7lyBKdxsamPzhn2FB/b/3l3/7Wt2748Y3v5B6J9fW1sjF/eWoXU3ZyULiUU+wKh0Z6q8eTiY52rXOPP/jsM43HnfTLqWj0DZmpkTrHSomLgRIFPYfEt5nCPM6Y4sx0z+CFM2QnDc3VZHtETwQdOcshD2ykiX/bfFEkgpejcKGSeJ0pv0vFoktVNc379EjlGA7TgBAELwX/xbzIrK47KI7QRa/oGbJ6baZnipwgVFze+SJU8DHOFVeABTtvFG0rGgkvsJwdd941vuOpN/rJRL2pu2TziNOaI0644mApTrQBJSiuBD15FSpOUpQe7JlXPTm67E8JQe5I//HF0YG2Wo0Pzh434xEnDF+Ooi0nV+MBA7hdguPJ3iqNs9q7zcZZW3/fe1WFdO9fPvzhtCoO4qpTkvOmlTwemFKVDT2Nmckg+STCVQkTE5N0000/+ZeOObO76C84+i2HhnXr1/395z/7mQ+JYLZ6OjEV5Ko7nragqio+E35UeUKVqVgtT5frz4yKyaEuGo2I9Yo/N+1HNpWh+++7b8kTTzx+8bLlyz90/XXXXv3mt7zluoaGpsRLVoqSzWrbt287+5KLLjp/06ZNpxw4cCDOpT1c9djQUC+3OZeAcLtcX85H6z+3XhyC+CcH2Hhlpfw7B4ZsLk+bnnqqfvfu3e+/9dZbz3nHO97xi717dv3XosVLd/65lvuRRx455xtf//oHH3rwgTNHh4ZDvP0M0xA3s1wSyd8er9y+jD8Lw5zpaSi+ExUVscLzA5AMQWNjrY54j0AgMjMxr1IeaJNLYdTyPIH8OLfraZ3Veuj3LdPI4EDtD675/sU333zzuwIiwFdWVlAmk32uKtd1yv0YLBFQVN2j2paqcbUiIKsOlVnHdXkTe75YuXjlLcXJsWUTQz3HuamJudbESEcqMVqfLyS1EBUowBOjaooIZL4sATL5Iomr50XSsUVIKql8kVQuRebWTK64CDF1sU6eQumCQ6pZQw0dC9bpNQvSOFQDQhC8FIU95SnljzYEmYqtkavycPcmxyBNk2MF8VjT6kwvND4LcUkQlRzdKvqGPNg3zFlf0zp/Rz7Vf7btlK8yHUccAJVAOfzoRnnMITl9h0rT05PRwrDslXLPi1lrb3pP1eQD/7OS8hnFCCmyvZLra+XRtGV7KZcUnjJEBLeMJU5F0YZ8tGPxHVrt4j84LsncjrZ9GtHreVqRaFCcdLnqQJw0LJ5bTXYN1mbmDjN4YEPq2rev5vLvXP7NXz9w//Tr3vDGu1/uT37t2sdf/5ULv/yx3/zmN2f39/aFePJWnuaDT3Zy9m7+7DjIueWTEfcedGZOgHxC5tIUHgjSkiMRK7KNCIcNHuG6UCiKC3iXNq5f19bVte9bu3fvOn73rh2XLVm6fNufez0OdR+c//2rrzrv9ttve9+hAwfrcrmsHE+pob5OlgDpM8vJwcZ/3i4tqyef/01QlOfu58BQWVEh53TjgSgHevsiV37vyg/u2rXrpDvuuOM755xzzp807UsmnTZvu+3WT3/lKxf++5YtWxo4gIfFdjscPB05ECbvf77cjnwRIT8PGdDK34d58zp/Z0DMwb7+qi998YtzOPTwHFyy+kvxnwtDXILC93FDfbH/FZqaG/9PdWU6mQp+7z+vuOjaa689j1/HAy5yQ34OPlwlJif3FaG+KO5L5zL0d689u/vjn/zYRZ0dHU8dfg+1bvEIZylxe9jPjaqUmW7MjvW/KjvS82pnpOeU3ER/5+T0SG0pn9a5vWBYrHuFOEJEOKjxkYLX0XZkeybd0GR1mcfVeHqQJnMW5cTPWcefuLFi9vyHcfwGhCB4EaFn5tAvTwhqeeTE31sK5B91aZDu5eIhvxjRPFseuP2ZOTRU2xfhhcjmMYrU8mjThidCjquVZxxrWDGZe+i6h5P7N59ZsGw1qBlyPixV1ckSB0pLvEI19JnJXUWosHOUG+tf6U4eiGm18456cEA/k5yVnRpZaHAJkPgdIq3xOG5yehCZ1sTVqKzOEr834YgQUNVyUJk1/9cv9J5LFi/eGgxFRbaz5PJyaRevvM5h0J0ZQNIr99DhsFBdXU3btu9ouuLyy7+zft0TqZNPOf3xl2MPGB8br7zrzts+9uUvfemjT63f0BoOB6ipsUEGBf7E+STMJ0qSbTd8WWWkqepMUCiXonA1mD5zovVmeu3w58psWRJhUkQ8HgkFKZPL0w9/eO279u3bv2LTpo0fPfHENX+29fzNbx5653/8xxe/9Ohjjx6Xnk7LGdLDoUB54l+l/FFyyRYvL6+PMhOkD7eTkfve4WlkZkqAytVjJEdR5zAYDkfkyMupTIYeeujXC7v2HbjihhtuiH/wgx/87otZ5lRyOnT99dd+9XtXXv2J0ZHhUDhoUjwWJ9XjvduR3ce5pIeoHEblRQP3KxD3O5ZHtuvI0BmvqvydQJ4vFCoTiam475fb68i5AJVyAJJT3sw0kObPqbo6nmlubjn4O8s1mQhdc/VVX//BNT84r5gXQam6Ula/GQpPsWHMVOfqskQtm83RGaeddug/Pve5z59++tl3/MGjTaSRNyYv591+buQeyk83FacHV2Qmhpblp0cWZIa6T3KSU40TE4mKRDqtmmIdA6b4zgTC8riR5wsIVxXfKYUyJYu8aFWhbeVxWxtPfc3FWsvqgzieA0IQHFn0KddJec+FH3/mLPH7nisuPxV+rqIcdQhS7XS9xu14Zmaqdv1yCRDJE6c4eBumvI+Dhwg6fkDEoMOvDczpfECrrP50aWK6ISwO2Cb3CrF5sDfOKJZsLEl8kDR8CoiQNT1ycFVNcmiJuPepo13OYmJ0kbg67YyJS3AObNrhLMhVddxyiVdf/Ck5Ktl6gJpnL9hs1jS84FQUCxcve7p17oLBHdu3zwprEbLEe/F24IDg+eWTLVcB2Ha5U1hQlrwoPMr0vEsu+fr3161de/4pbTJG/gAAIABJREFUp5326Eu5Hxzo6pr3za9fcsktP/vZu0qFHMXjFbLkphwKyst3OARwuxJPLKvnlauMDpcCcZsQDgtcQsKlE7Kab6bNEwcJvo93rVKxPFFndVUFTU4l6fFHH104NTV587r1a//llJNP+/Wfsh7J6UT0F7/4n3//wmc/98murr21XEpRw6UoWjlolqu4nOdCGlfj8HryMip/YL/3ZkrrDlcBytdyqRCPbyV25qrqKhE0ctTb2xO/5GsXX/TDH/7Q/MhHPnLZ0ZUApfQbfnzDBVdcfsWnh4dHjPa2drFdLRk6ecJiVezsruPKOf04hJfDXHlZZOhUHNlTKhaLZRobGn5noNF0KtkwNTUVlScFnpRXhCAOQ3xNI0di9klO1MtTtdTU1Gbq6mqfG1sqk0wGrv/RdReKPP7JYqGo1dZUi6+aK6vNytOy8NQtMTlvXTKTolNPPrX7ggu++tlTTz/jriM+BkWa/JlAxLcH/GK/biVGFpemx+cXBwZWFQd7Xp2fHO7MpSfjVikVcX1b4e8N6UFHr6jKBKtn9dXNW/Zg0/LVt2jtJ+7GUR0QguDFFAP9378+7yTAjRGfe/AoC4L8/LZg9tHbmhWn3PvEU7XyyZXKPay4bQ1fwcorWZ5w1QzauhZ4rneHUlt/MNzcejAx0dPgeVa5UTJfjfOcR1yGJBt6erJaJiiO7en0WKOTGF74YkJQdrRveSk5Ho1r/L6evFKWy8qDR3qWvFpWFYNy4uRnRKtT8baOZ/T47Bfs+t3cMuvA697y1ns279j9scl8iWKhsDjh5GVja98rb0u+kuYTrDszeF1QBApHbI+1Tzyx6Dtm8PIN6zf8+0knn7T2pfjwtz27bfWXv3zB9x584L41PGBCbW2tXHe+2rdnJmjVZDWkI6tTZKidqRaTYzzNlJ4cDgmHH/fLjWyea4gr94WZnkhcHVUqliheGZMn063PPDPrsq9/48otWzZ/cNWqV617MesxMjJU9/2rr7rwR9dd96+jQyPBeLxShpzf9nwqL5c+0zhYVuGI5ZAjD88sNzdO1zT9udKfw8873G6L2834M0Vfh9sMyUAvXlNXV0PDw0OxKy7/zhduu+3WiXe+89zrj3TZ16594t03XH/9RycnJo3G+nr+0snQo8rrEk82ReNtx22yuGG0XCZdk19FGUJ59GVxIVBdXZ2uq6v7nfZwk+PjHal0KiJDKHdIUA9Xa6pyzjoORPz58PqKzz5jaNpzFyDX/vCar1195dXn53N5jccC4lInQ6xrsZAnX7xHrKKCstk8JdNpOvXU07u/8tWvfubUM07/k6pwlWAbp+odfPPTQ3dTJtFkpYaXFDgYpadarUK61rFd0whXToRqWnZHmuetDdS27VZiDT4O5YAQBH96Dvq/JUDy8eddKR/VwcbJZlpykxML+aDObYFULUAqj+nh8yjHYjdVeOg0nsxRkW2DtGA0T+HIczOda/HFheknr3lw6MC21SV7OmA6fBXOTYZKsrs9l6jwGCJcimVwZ/ZcPlQcHHqVl+y9RY13HPGo0/bkzppDt//geK5S00JKeQJZOYgRz6FmyzFMuC2S5/OkkwbFG5rSZl3tHy16j0ZC7patu264/fbb3rZ3766WyvYWefLiE6fC3XodV57IDrcNOlwdE+HZ5cW6PfTQQ8fZjn3lxg3rz19z0slP/jk/9e3Pblv1tYsvvubOu+5cHY9GuSSBXKtc9WKaxnMhoFwapM+06ynIEhCe6JVLKtyZtimHwzG3dyrPZm/K9kCu58vqz8ONpv2ZUkDOHbxH8Tg1NdXV9Mgjj82rrfnPiyYnx8+tra2fPpr1GBoabPzv//qvb914w4/fJ5ZP5UBSDpfl9ko8n5U6Uxfmz4QhnsOK10M23BaBzBLrYz8XeEhW9eiGWGczKPctLu3g52sifPC4NIeHNnC45EuVg9bIIHTgwMH4ty77xkWbNm3sPpIqvkPdB+Z98Ytf/MS+vV1VVfG47GVXLBXkcoTMmRIXHhGcg85MTy4edJTk2KYa8XQsgUCI8vkC1dXXJ5uam3uf//7DIyNzMplMhD9PDtbl6xjvuZKx8nbS5Ng88Xh8Wnx+Vimf0W76yc1f+NrXvnb+6MhouL1tlvwu2JYrPzhug6TPhMvJqSk644wzDnztkks+vuaUk3/9Zz0qVbRw8Wj/zO0BPzvCraZN33M1RTdKSkUrRoUGhCD4U/jlYo4ja+s8M4Xh0ckPD6+aHBiYb/Cw94GQHOzM40kc+QqXe1zJcFUeTZqv1yPRioz43+/0GArPXXaP2dj2j+ne5BJDLEGQxwzh5pJy3CFu50ByLJGAapJSsCjV13d8VSbTwOfHI11Ob3JsfnKwZ2lI80kzNHkl7pZXmvj635MTTopltFQqKUFqaJm9x6ipP6LxfFYdv3TLty/99o0Xf+PiL0+Nj1FtZYUMAFyldLiKhU+osvGrLX6v78qTbTgSIVs855FHf7NcPHzVhvVPfvKkk099/M/xye/r2jf/S1/44jX33Xff6pamJnlSO1y9wqP4Hi4JUWcaRPNjielpGYK4SsaQYSdshcPhospN3h1HvMzXi8VieFo8j9eNG9ByIJInbv9wu5rfFihyuxz+N1fTVMQi9MD995316pNP/pi48xtHuh7TianY5Vdc/o0bfvzjf8plMtRQXy9rbAvFgiz14N/By1ou8SmHuVw+T+l0Vj6P22FxQ/fKeLwgnmd75XXWxPqEksmkmsvlZQkYN4auqIxTUbyvKz83RVZBcTXS4YbSHKwa62tpy5Zts6656qqvTE2Nb6+peeFA9+CDD77nsUcfXR0Jh2UPMH5PDkK8rSzxPbEtm8yQSYFgeUDCbDYrd0peHzMUlFVZAdMWjxW5x9Z0vKq6+Pz3Hxsfb+JhDcLh0HOFuBxKZbuemZIyWR0oHuzs7Nzne555x513fuSb37z0AvG6UFNTvfy85Wcnfi9v16D4TDm8Dw6P0umnn9pz6WWXfnj1ia9+/KU+WilRWXWGMYAAIQhexpg0UzrBJxPXd0Ti8I54sERr6Jm2wUd+8e7S1FRVhMfK4ca1zuGqJkWO98EnGO4nVhInQ8vTqSpWM6oEw7nnv0+g+ZQdffd8+zcDh/YsifBrKSBClCa7mpe72PtyhFldDVJQLGdxbKjDnhpdcDQhyB/sO9FJJOoi4mTjiYDmqUb5ypsHNOQrbz6ReiZlLLH68fqE2Tz/PrXm+CMemv99733nlZs3r/3/7Z0HgBxV/cffbO/19nrJXS69h9BJKEEpf4WIfxUV/GOjC4IgBqQqKBaagCC9ichfEEIXSCAhvRCSkF6uJHu3t3u3e9t3Z2f+7/dm53KhJoFoyP/70eFyZWffvJmd951fnfb0My9MZR4K0dDdX1rQMTEgPISbkArGKSKmhRravv3WW+NluXjX0qVLvz9lypTFn+Wc7ujsCN5w3fU3z3rxhYO9LidzWKzCNULuHtGwkoJxSwqzO21Mq5XTLxb5NBeY48eO7jrooCmrJkwYv2TUyFErKkIVnVQlulRSTMlkf3Dz5s1jlixZcsSSJUunbN68qT4a7WXkmrKYDSKmysD0gGNFs+AxzSTkcbtYe0cHe+yxx859d/nS2RMnT5n/aceRTqeMD95/388ff+TRMzLJFAvwuSqVikJhmQxGcTx63Bkt+DSnsVivqGdTW1ub5sfQPnr06HcPPfSwNyqrqtocLndMlUtGLnS8PT099fxYxvL5njpv3rxxXV1dDnJFaVYuazlWSMsU1ItEkjXJ53NzoZBhs9/417HPP/vM2XyYN3/c+Ldu3tT6s0su+VqKi7fqqirR08tEsVUi1kqL3XFyIUn/pnksygUhuPj757lwkfhnycTFk2qy2FSrzaZUVdV8RGZXn5+y8rxut7D40AMIRftb+Xzkcnlh7SJhVVsdKoweNeq9V1955azrb7jhuq6uHfZgMChivUj40nVJlkDaB1nFYrE4m3rUEW3XXnf9T/8dAggAiCDwHxVBkubC2O3AaLVzwbDIktcvjKxZfpxHlZmLLx6FkiyCSm3UPkOSRVaXUVFFyFGO/65odDB3dd1KqWJo7oP7C7aMeblrsf8HuXiP2yb6kHHRYNRiTIRtX9Kq4VIX6kyqu7rUuWEq/8FuBRQr0Y322D8emGYv5G1mJ60RXIxwEVRStIJy2rHTokqxFybmrmzeZK1t3SPXVG1jS/c7s1+7MdzVffeKZctb3G4Po6d/XfjoIki49SiFngtEekI3la0QtDjOmfPW6F//+ld/mjNnztXHHHPMa3tzPlOpfunO2+/4xV+ffHKGhwsgSvmmRY6sMUZa3EuKcB85rBQwnGORnphwXY0aNXLbmWee9fhhhx02p7m1dUVlVfXH1fd5KdrT4+zYtnX8rFmzvsO309aseb/Wbjczp80kRA/NJVmYKEuJlYPDaQzkFlu54t36p//xjx/wP/xUEcTn4Vv33f/AeZFIjyUY8JctVlqKu56lRhYPB7/24n19LJnKkPjpP+GEE+bOmDHjr2PHjZvrdLmivkDwY4sddoW7KpYtXXrCIw89ePGc2W8enOSCxVgO+iaxSKKgIFxSVhFFn81kmZuf1/7+fvb440/8sDvc9VBVTXXko/a9ZcvmsRvWrx9qFUHlmqtKKV8PxnLwMlkIqSAhP57Sl750/LsnnPjlWT6fv1uVqF4DXfmqVCyULPzaUYeNGLny5pt/N7D/WE/U9MuZv/APBKYbpJ2xWoo60Eme5snj8RoXLVp02ttz547ZsGmrj4siYe2i+SMhJEQfH1M6kxYWwYkTJ3Zed8P1Fx997HHP4y4JIILAAYtIFRbuDJE6r0jOuk8UQWrvOmdp+6qTOt786/mRNe9OcyT7jD6+AFr5HZsaLBpEwUMjU/lNX2Qaib1qAaZGryvlbqr7yMXPVlW9tmZITW9s5XY3NVkkZ5UsaUHRRloPJKrGnGMeC99Xjt+oO96dnm+f/4S18YhPjdtRerpa+9rbx3r5k72RUo6puCEXVWah90iYyEyiDtdFLuZMDhaqHzrfEmzc4+J4Rx775VefeOpvv7rq8st+v6Nze4Vo/MifrsnKQsKHNhJBwtVhtgjXDQUQk5uFFnh6Mn/xxZcO4T+/fu7cufLUqVP3OGvsrdmzv/XkXx/7H2pV4HbaWVE0cuXCxCja5Wp1ZPj32WyG9SX6uGioS3z9G19/+owzz7yrob5pvT8Y+NTqyBWhEFnyFiT64sunHHLYvHvv+fPPly1ZMFmWtcKEevaYJv4kMdf8R6KOTzTWx958883j29q2NTY1DfnY6sWbNmwcOfPKmRdv2rQx6HQ6hJWCCjul0/mBejhkQaFq0J3bu5iZz+GJJ5+0/Pvf//6fpk47+tlAsGK3eoBV11RTfNoTG9etX/74E09c/OijD5+xI7zdWVlRqdXoKRUHxAu9L9XOET2t+Mdl1cqVw+a9886p/Nf3feQxbNo8Jtbb69Iy5zSBQtYmqsZN58TIhXg4HKaAZ/m888578LtnnnFzQ3PLlt091/2JeG0kEqkx6i7NkjLQq44sf9TahD5/JLIzmYzxscceO74vHmcNddVCCGuNfrV6TyYLxSrlGLnWJowf3/Hb3/72omOO+9JzuEMCiCDwBUYUDKGCq2X/lmjprAUEMy1USKVsGYr2oKq1ctqvxlfVMMkdp+o/rJQ3MWOeiulIalL2xjs3H7Fp1qP/3d/x3lFyvLPKyxeIgMvMjBR8KueEC8wknkK1WjOUZlwoqVQ1hxUkvoi5Qu3GmqaPzA4yOpw93sYhCztXLWuihkNKiSxJJRFjROkzFB/ElAKzmo3MnC+yVM/WUaVEeBStNZ82C9lYeHS2N1xby/dbJAFEQTEUHEy9iEpaPASlBpMn0OxwyZaq+hWSv2avgjJPOvkrj8S6uqtuuObq6wsF2ep00rEXxMJEbhA9g4oycYQINTCRLk1VevN8Hmtrq9mLL7xwmFwo3rxq1arvjxs3bvXuvvfWzRuHzPz55Re+v3ZDKBT0aQKXYnq5WKBaSKLuDxUR5GOgdhE1NTXdV1z5i9996/Rv3e31BnJ7eqxev4/iN57iQmXFBef8+NnFixaMdjjM4pwZVMNA9phucSS3FQmhSDjcOP+deafwH9/5UfuN9/bZ7rrrznPfeONfh5CA8rjdXPykxTVL7irdmiKqcEdjzGgxl/7nrLOe+slPLvxV67CR6/bmvA0bOWJtvC/+M7Kb3P6n288jkeh0OAdqKGkxQiUuYAtCxFjNJhbr62dvvv7GKdlM7iG7w7ZLkH4i3mu57ZbbGii4XK/7QyLKYi5XfyYXGxduOS5Cxo8fv+F73z/rxtqGxvY9GXMy1R+KxWIhPfaH9qULIpqbLLXSsFjK2X9F4S50cUGklxDYWdrAwMV4gfX19bKRI0du/9Vvbrr0mONP+CfunwAiCHyhUUU45M7u8QMCiGJihCnewEq0OPPN7TCy8Hvzvtmxfs1UfrvO8dujbJCKVpNJtiqFoi1flCUln3exQsJmUvPMIZWY3UhBl3kRQ2CmhqlUdFAtiSdlm93K0vl+ZrV5WTrjZFnmSQ0fM/3vxtBRH/mkKzlHZnNrnnrO1/j+cdEta0N+K4UpUzNWypSxaC0AjCVWkCl8x8lykWhFsaPtMPYpfbVK2a3S5qfvOdmgRp3MkBf9i4yMMsAMrJCTmdVkE3NTLBVYXDWxUH3zetuQ5nl7O+cBt0vt6+27NR6L+2/+zY1XKGqC+X18DtJJEadBrREolkUyaJl5VNmY3Ea0uFrNFrFAhoIB9torL09J9Pf9Y9XK9/573ITxu2WVeuXll777xuuvH+l1O8vVthWRkWfgAkvEIdHix9+rKxxhI0aO7Lznnj+fcdS0aW+dfc55n+k6a20dtmHpksXnXXLRRQ8tWrSopb6+Vlvo+fvbbTYRqKy5r0rMzcfGxYZE4uHjRNB77644/u9/e/IMqiAc8Pm0VHJlZ/o3WS8o0627u5tq2ai33fmnmSed9F9PNDQ07vgsx+Hz+9KxaGxme0dn89NPPXkiWeus1p2urJ0p+FrYHLmRVixbNrFty1aqW7Vy8L64IHF3de1oJFcateWgfWiFKVWtLYTFzEVMktm5KDz62OPeDPiDezz2vlisMhLp8pKVj0SOboGjBxASipLJqHVwF83SuIAsu73o8UJUxRCfX1lUZqa4odHjxrffcccdPzj8iKlv4O4J9nsvBqYA7LY9qPwfrRigIqSRiWshk0oxATIr8kVFzaf4I3iXxRpe22Tf8d4Ix46VY6w7VrdaO9c22CPrQ+7eTRXedIfNp6SYz8AXM36DNdNTJ3V+J1eFUQtgtvEnUCNfOJLZPJPMNpbIy6wrXWKhlolL/SOmPPaJyj7QuMwWal6RoewlymSi1H3RlF3Sej8pkkhhNxgszFziN/No1zi1e537E4VgPDwkH98x2kyFF0Vna81Fo1XUNfN9UmsILj4kM8tZ3cxYO2SR5PFt/yzz7Q/4C+ddcN6vfnLRJXdS2nI01su8Hq0/VTaTFiKILAQkIIsikJyJINx8IcssFICbzbJQqIKtenfl8BtuuOHu1e+tGvdp77lm9bsTXn3l5W/k+GudDvtASr7WOkHS2jDwcxbu6mYHTZmy/YqZv/gNCaDP6xqbcvAhb5/xvbPur6qqLiWTaS3XkK/ORXmngUSPPyMXU3dXV11PVzj04YW91zFn9pyv7giHg3aRhs9ETA5lP5FLrJDLCfHR1dXFXC6P8pOLL374v07+ymOfVQDpBCuCiW/89zce4ceR1ApB7trndqCMVtni0hPpqeho7xjxwf3w8+Dti8erVCq8SGJXZDyWBYmkBY4XRRVxG6uvr99icznlPR1rX19fVSaTtovAe2nn/IqNMSGGKOZHZH7p/1ZlUcNKxAAxracdZaWNHj02cf31v7p6zJgJb+OOCSCCwAFjDFIHlz+kxZZcPiUDs8p8KzLmVs3MxW+Hbtr4Yunmj4guk8ocZv7kaJLKCc9UZM7Mn4ItouozuTokRas2LHxtFAxrsnIRZGbZQoll8/yJ12hlssnFolkuaLyhSM2kyX8zDJv8ifEORl/F5mB9yyKLxcdv0ibNskRZYlQ0jurRaBWwxdVv5uPs2dExJt/XPfyT9lnoaDs8F4s1UAyEwsdOK41ctoyZzeQaKorxK4qF2TzBtL2JiyDfkM+cphuqqkxfcuklV/3ohz+6j57KI9EeVqKh83FQDJCF5lIyifmVRd8qo8isoid6h1NLO6dg5ueff/6oO++88+pPe7+35sz5rzlz5kyg1HuyYOgxKDsD3yURzOtyOdXTv3P6/aeddtq9n/fFduKJJ/11wsQJq2mxFefTqGVWkQtLH49eu6azs7O2va1t1Af3sXH9+kNnvTBrRoqPlUSP/hq9CKK22DOWSGXZscce99Yll1xyVV19Q9fneRzTp09/aspBU1bScYiK55I0IOJ2uQmLfna9to0bN35IpPK5DkR7ekKiBUm5iakeryOKFyqaCOLnI9fU1LRXLjwSkul0ykyiUBpU4HHADlzu/i7ceWaTcL/xDyor8c+tXhNKHw9/rVJXX7fR4/UUcdsEEEHgQNFAlKhuZIOqMItNW0tEeriZ3zSpm7OFrEPixqlvJRE7Y+ELmdVoYma+SOtPs5R5IheKWjoupdbLBdGziInGm7J4D6p7EkvKLG8PFUYccexzlhFj//GpFiv7sJKtoXVOoGpoV0G28H0ZNBOWUWsEKfqSlQWMwaiwvp7tdbmujsmftM/etk1HyfFYlZmLOJmK3zHNPUiNGqmOEaWpF2WF5Usm5q5q7HTXDVn4ec1+VV11/2WXX3bFueedcw8FXlGtF0vZHaanytNiRAUFdXFAdWqExYMvwHxBEkGtzzzzzDcevP+Biz/ufTo7tlXOnTvvy/2pnFYQsRwzM3hhpK+U+TRjxoyXTz75vx7n+/3cC9E1NTe1UVYbBeSSFYUWer3VxkDPrrJLqaury8eF0NAP7mPhwoXHrV27ttJqsYmAar2LOQX66plM/Yl+NnJYa+8PfvD926tr68Of93FY7TZ1+vHTX9Jbbgy2ZA3uP6ZljhVYW1tb64euu97eUE9Pj1sPimYq28Uyx8pVq/n5yoRCoY69GWdPNFpJ6fF6CQZWtjTpDXuZJm7EMegWIXpPPYZocAD1tm3b/L+76Te3dIe7qnDfBBBB4MBA4iJIko1GlVxB/OlcKorS+iQiSF+UKEWWiyMKFqavtOXIZcPv2HkqfseFjbmUZ5YSX7y50DGWCsxET+X89Saqusu0PlkWuhqLWUb9w7xWiblNRZZNxFhWsrCasYe+6T/smJsN1eOiuzNkS6B+RbBxzII8c7BCyaAVNDRorR2ot5IqepMVRV2aUr7fmgxvOaLUs875UftSIiuDme3bDrLk0yJTTaasM0nryi1Eh6K1LsgX+OJgdDNXQ+vbRn/Fxs/zFNQ0NPRdevllvzj73B//2WQ0yJFolBms5nLhvJIQk9RwTQ/2pcUrHo8zj8fFRUs/czn4QpzPsj/+8Y9Xrlzx7kcKvo0bNkxZsWz5eGoiKhZuUQV6p+gQlgkuHBrqG/q/+93v3jd8+PB91oRy8uTJ7/h8vrRovFkO0NXFmL5IU+d6qoDMjzMw+LXtW7YO4SLoGMqY83IBKCLYlNJAwT8R/JvLi+P71je/+Y8phx7y8r46jsMOPez16qrqqCwPbq6q7tKDjCx1FGOX6O/zffD14XB4SDQW9YiMQLoWVWWQpcZQvpYVFvAHMmarNbun44tFI86+3t5KvRCnUg6418+3lj2nZWrqQkwvK1Dic0pWIGqLQfMrsgf5B2HWiy8d9uhjD1+GGyeACAIHiAYqx0KLMARRdkS4ZGgrUoCpkd8sTfxmrHmdyOvFWPl7vUEmFStUxC8M4qIzULVj0WKCBERJWJjIQmO0OljJ5GDxgsRiOYnFmZ01HXTMa8OO/upMc+0hm3d7zMGxfcam4S+ZPKGUrJYtQQPLhkFvaS7S5m2SzPq72w4uxbaP/qh95cIdk3I97SOdBlmrLszKLjwRl6GNnVRVgb+P1V8TdTUMf0NyDMt+3uehurY+celll/3ihz/60b1cFMixaK+oBCwqSPMFXfS5KgfMkqVDD/7VA13p65YtWyofeujBSz9q/+++u/KIcHiH30GFEIs7Q0tIZIkCelxkUdzHUUcduXD8+PFz9+U1V1VV1RYMBpO61YEWX92tpbuDaNEl00ixKJsHv3bH9h2t77///hgSiEI8iUI56kDbEbvdxijFu76+vu/UGTMedrm9hX11HBWhUGdVdVWfqldTLgu4XVxjJD4oY0yWTR8hgurifXGDdhxswCk92EVJ1NXXd3GhtMeZecn+ZOWOcLhRH5NuWdTHqdWg0qZXa4aaF/MorIz5gvj7fC4n5lmzsJmZ3Wpit99+x4WPP/bIT3D3BBBB4ICQQSJZWasBJLLAqApzkVpY0Ea9iYz8iVGiqjzkoimJ+jzUxpm6rFMiWV6ys5yBuqNbhBWFbuaipo5CNaD5As4XiQz/u6TBwaIGP9turFSytQeFq6d98281x37tUmPL0e/u6aitdS3z3HXNW/J68WqKji4LFqpHrPWlkpnDIrFUd3uL3LP9Iy0k8c5Nh+cTXR6HRRNRimIUao+sSULQka2B3HlmO3PVtqx3VTYt2ldnorK6NsmF0Mxzzj3nbqvVXqQO6wq5eixWsViRnUstapl1FARM6c2UzqwLIZfbwV559ZWTly9dfsguwqG9Lfj+6tWTqeO3cLWJ+KKdi6EQVAWyrHjZ0Ucf/XpVdW1sX15xfJHN+Hy+rO6GIXcLLcAD1rlBqdlcDO3iklu3fu3Ezs52v+4e1K0cugsnXyiKhfywww5b0dA85P19eRxWiyVbUVHRMyB49E9UWQQNFkZmk+lDcTTxeNxP50TEMomrWBJxX6KgYfnY6EKdnIw6AAAgAElEQVSub2zcZLfb43s6vkQiEdi2bVvzYGE2eFz0viQ2qRCjPxCU6xsa0+lMVlQKN1GNKi56MqKGlFY7SnOLual4pO3OO/50+dJFS6bi/gkggsAXXQQpqmouqIqV34TNIjlci/zhG8XXMKkcX6MK15aWPq7dVE2M2l1oXTRKuh1JFFbULCkqBRlzQZGTzCzBbKxLtrJeS0WPZejBc+qO+tq1tSee+X1zw1Fr9mbU5kDVJmd98zzZaBOp7CoXXZRlo3dlNxhF8Rtm4eMuJmL2YmzHQWpyo3HwPtTeTaZsd8coqZBkNmpIpjUgE3FQ9OExqpKQiLJiYIrNw0xVjYuYq6p9X56NUFVN8uJLLrv67HN+dK/X6y5SoDIJBL3nlt7Di57MKRaIatWQ24IEDC3+sVjU//bbb39l8D6z+by3o6OzleKaSCgYy7EeuuVFj8mpqa3pHzNm7LJ9fcUVC0Urf28DVY0W8U5cmA12I+n1gmiRtlisA+qoP9Zr2rJlyzCqB2SzWYTLizLrDIOCiul3VGdo3ITxS21Wa2qfiiCbNeNyuRJaDzTlQyJIPxaD1nj2Q9ZDLoBsg/9eiBVyO0laFWfdSlZbW9PmDwbSezq+VCrp6e6O+KitB1k59fEMFmd07VBxxmnTpi0/66yzHgkGg4kEv+Z0KyFZgUThTn6OaEunU6x5SBNZFhvuuP2263Z0bkd8ENhvQZ0gsDvQM7esqPRkrfVwklS6ERuFq4zEhYV/dZFbhi+URYWLHgv1vKJ4H2rozJ/EraqIwVH4VijLISpyQwnssmpiWYOdKc5Qn7duxOq60Yc+4h0x6e9S5YjkZ5Ju3jo5895Lr9pXhH6Yi22xehySSJdXlXKfM1kRT7mKUmQOfrOPbFl/pPPQ/mo2qJeYGusakmjfPMnj0ArdFcpBycKYRZYFchnkZZYt2ZnRE4rYmoa/KblrlX19QkJV1f3JePwy6tF5z913ny9TcLSFKjsXRIyJ6LtG1rpioWwxMYhiipRh1dvbyxYvWXDU4P1Fwl1N4XA4SEX4RDYWiShRh0hzo5nKGVr1dfU9NTU1W/b18fH3MsdiMQfV1xFuFspKMpkGFmWb3cF6enr44l+famioH3CTZvJ5d3tbe7NSLAmhQ8evuc1YuY+XVtTP6/GoY8eOXe5ye+V9eoM1mmQuKgvkDtPF6Qezw2iM1AzV7/fvYl3rCm/3z5w5s9ZglAaCosm1R81YTeX5oLgn+l1ra+vqvRlfPJEIJJP9dqvVtIuA1l1i5KozUXuWguh7Fuci6JpIJGK97fY//ZBcjCajNKjhrVavSuXjyqaTzO12sBdefOG4ESOHz0z2J3/u9rgLuJUCiCDwRdVB5XrRlBWmFUnjD+pabIyBagXxX1HPRZkvvGYny1q8aqqolDL8PqlaKafeJLqsi6d5k0E2Wq1Zk82ZNFicSZsvtL2mrmWFq3rIAmN18wKpZsKOz2vUFl9og72yoaM31t5KPcgosFTEHom6byURTEyd6m2GEsv1R2uKXZ1jB4ugUsfmY43ZeI2kFrVFgpWngWKYqE2GsGyZWY5ZmSVYu8FZUb3q33VG3D5fPtzZeXWsJ1r9v//79GnUqiAUrKDaMuWFVv2AklW1YpEGI+vo6GjZumVTY3NLq7BaRaNR6iLupAWXLCy0BA64YPjrRJA0X/T4QpYwW8zZfX1svX29Vel02kruFY/Hw4rleBMSRHrtIrIQVVdX9zU3Nw9YCov5vCOdTnkkw66WFmH5KwdG06JNneAdTlf/vjeiMpXPp1mPSfugFUgfH4m82trazsE/7+vrq+NCr0azYkniWlPLfdT0RxPR9NVCrVQsub0ZXn+iPyiqTpeDnnXX4eDSCDR2h8PKfH5/l9lqTf7whz/64/wFCw5fvGjR6KrKKhEjaBAVxFWtfUY5eJosiul0lj3y8CPnDh06jBIF7sJ9FEAEgS+iAOJrv8zvkjm+OBY1Z5hqFtYGcmcponuEwgr8Zl0wOZircWTMOXT8c06jPW4mf1mJ/pgMP8aiZLakzQ53xOL2ddo9gW0Gl3cHs7oTkq95nyysRn/VZmfTqFcim9+7sCD3ac45utlrcd5abBK1TjBJLBqP+GPbNhzLf/rqgIVk89pjWDrhpdYd+tpjEAuF5hYjl15eNbGC2aNWNI6YY6sb3/7vPDM19fW9q99beW1b27YRb7/99piCtyjS9rWQYWVnOnbZEmIQT+tGsgZ5+VbLfyzGG4l0kwiyUosHqkFEZjy9KJ/uHqHNbrdn+O/lfX1c77///kGxWMyju7G0YoNa0K4IABdZSzKrqqwMV1VVDaSGZzMpbyLeF9Lq1ki7pKIPzi4zmoyqxWzJ7+vjkOWSKZPJOD+gez5o9aIsvlzL0OZd4pOisVhtV1dXrclo2hlMrexUV3QohUKR+YMVebfb3bc344t0d9fRPFot9p1CWQT86yJIEtlhVGursaFpi9PtI2vO2ueee/bX5599zl/i8X4XPwciS4/m1ma3i0Bp2idZTCkIfeu2bdb777vn50sXLVyDTvIAIgh8UYWQSh3dJSkvgopNonyipKXoMkqRV0Qqet5gZ7VNo94wTv3KrwPuijZGSfDkHyPPlyKpkqOu9O8cteRuLKZWvfqStaL2G+lwb5WVPzVTPjvVITKK7tiKaMxq4z8uJRMstn3LxGLPe05zaHxa7VxesfqBGycb5SwzWYyi4rQmJ0rComRg2pqU4RrRGKjp9DS0zv5PnJmx4yesfvpvT966YeOmu5LJfis1CiULl7aIkWvDVK52Wa5LIwmXoLEkyxZ9H7He3lAqnWaVoQpmEhWaS0J07CzQp70+lUp5iwUtTmVfEe2Jui+68PzjqR6R3+8dcGOR+4UWVrIG6YJm/IQJiy2OnbWK5IJsyecLdjYohkYXPoMLDeZyOUsmnXHt63OTzWbd/Dh8gwOPB8daaWJGoTo/6drq6q2DX5vir+vv73fSsWuOMGkX256IiyoWWShUlfD5fJE9HVssGrX+7re/aaJMQO09Pmip0lri0Ps4XU45FKocqKV06qlfe/Lnl1827c7b7jiXhJiW/VbiD0i28vVTHChHUBkKUN2mxrvvuvvq9ra2LY1NTe24n4L9BQRGg93SEqK0oKrdGEWWFd9UsWm1giTKxDFbWEayylmTN8IcoTbJ3KhI5tqS5KgvSLZ6+d8tgHTsVU1L/A0jl8mqVdixSuVqt5JqYkaqAalSrJDCrFzkZaLhYWq8q4lel49snpLt76qxmym+hlLEtYwyVSqJY1eMKivw1xWMVuasG7raHqpf8Z86QcceP/2pQw47fHEmmxeZXTu9L5oLU9LC1wfOn9VsLlpMZmEJScb7pEQi4StSrJSsiHggVnZdKuXFmjrVUxXpjo6O2nhfX82+PJb58+d/deGChZO1hqNaLJJe6VmrgWQSbheXy1WYfvzxuzTo5GOUrVZrVsucUpkk7ep+0mNruDCR+LG07uvzwkVMiG9+3bry4UcLzcpGNZHcHs8uNbD6k8lAJpOxDXZPiTYbkmHgtVSrqqGhYbvb59ljEcQFmr8rHB4i5tRg2KVKtCaajQMC0ul2ZT1+7y7jO++8C24+9thjl4TDXVxUUkNYO8sk0/yzYtIKopaDwUULHKpa/sKs4/721F8vTKWSZtxSAUQQ+IJhLirMzpdTG7V8ZCVm5ptJLK9ad3kuEEziSdsk1h5bg7K/jNxYOTLqHTLyDYvTx3J8cCSEmGjSSs/WRi2tvFRkbisXR5lEhdKzfZKaWGGJdG6ZppSSXotFYlrDeFVrWMo3xaAKAVhQZGZweZinZcSbUu3IvXJJrF69evxdd931s8WLFx+yt8dYUVGZmjh50lJqrKrFPamDYjt2WkK0nlsKC4VCPYFAQDzZ5wsFZywWqzKVe7iJRp9aKMhA3Antx25zsI72juDq1WsO2VfnKtoT9c56/vnTuyMRt8Ph/FClZRJEdBxkJRo9evTGCePHLxj8eofD0R8I+LvomEtUgkGVBnre6fsgEUWxRsuXLz+ipzvi25fXXiwWre7r63NL5bpUH6wWrY+psrIy5na7dxEZ4XC4IZ1OG3QBODhjayBexyCx5ubmjU6HM7HHIiiT8UW6Iw1k7dGvjcHWKX1sFGNmtVjy/JrZpRdec0vztit+MXNmZWVVXzqdETFAInW/LNYo2FsrrVBgwWCA7yfD7r33L+e/9NILZ+F+CiCCwBfJEKSoqqWoqg6+wDr5ZucCyMYFkFkUQdRv57SIMrnIDKWSVc3s2K9crbbq+kU2byiVpcLKKhP9y8hSIGofKTRsypziQy5m3MVoeDzL9Vf1R9rHSCzPTKKpPV+EiuWsGaNmTaBlIk8ZMi5P1Fc3ZI8bRq5Zs2bs3Xfffe0VP7/if2+44YY/PPW3p875LMfosNvzTodNBKiWylYQbSEru2EGRJDK6uvr2vjCKwJxU8lkqL29vdlUrsys1Z6RBhZG0bpC9O6yicyyeXPnHh+Px/aJS+wf//jfs19++aUvUdd4k8koBNwulhAmDQijL335hBecXl9ml/PsdPT5/L6IiFNTRHOTDwX62mxW4bpZuGD+kdu3d47Yl9cdF0Chvr64c8AKNdhAt9PMyqqra7Z7gxUDKe69vVFLZ2fnECpOSZYUcd6UUvk8SgOB75QBWFVVtd3v9+9xYHQqlfLFemMePXtOPMgYBtcvogByi8jGq66ujno8ng/Vhpp23DFvXHDBhXc6nS6V74s5nE5R+FG4L2VFuJvN/ANE108w4Ged7e3Ou+6885cLF84/DvdVABEEvhhQ7DArmSRW4GujVq6frD9atrwqYmqMFBMgl8TTtyIiWM3q/nQIxkD1GlvLhBeLJjeTqG6MWhA3ebKYULCwZLCJitYGJS8pqch41rd9vNLXPcxGizA9hTOZSUYtKkPiYsismFlJNrMcF4b26pZl5mDN2t0dy8Z164Y/8eijP730ooueuf7qq697Z+7bw/qiUTZ/3twTV767YtLeHF86lTKEOzqHUBVfEncUsE0xTHa7g+npyyR+6KvRZGYtQ1vX2Vxu8bgf6+mpC4fDNSIgmpYtsqJQ0HvZejSQNl1upLngnflHv7tsxbGf9zl6e/acEx579OELeiJdNpdTS28fnNYuRKvByBKpDBs+cmT45K+e8rcP7sNidWQqq2q20+JNFi9WrlhukLTigloPMSMJRrZ504bq2bPfmLEvr7twV3hIOpOxkNuK6vuI6umqZkUU7TxUrRR7qLp6l8ywXDbr6w6Hm0QZhnJpAN0NJpVrU5UKJeawOciKtFd9zxLxRDCRiDskg+YypYKfO0WnWs4U4w8I/NctLUM32my2j8ym+58fnHXbl0864aVoIsEKpSIzmk2aS5Vi72St6KawJvIjDfh9XHwubHzkoYcu7olEAri5Aogg8AUwBJEpIecwsCx/8uQCQqK2GVzwGIQzjCoIiawrupeqfJGSqQ+G/En5MP+BC71iVNw54pBHzb6aboUsCQoFbSqiujX5t4wWB6P2W2YSO9nYwWz7lpON/bEGp2iNXaI+H/xvDKJ1hEI1Uxg1ZuUCw1pdCAwZ8y+patin1jRq27K14f57/3LltVde+ezMyy67df7bc4eV8nnmdbtYZUUFW7N6Ve0D99/3i0Q8bt3T41v17opjFi9cfBSlktu4ACBXn1zSAluFu8No1qwo/Fy5vT558kEHD7S9iPX2Vvb397usVvOAtUHrUaXpWN0dQ0/zXo+HbVi/PvDg/ff/bOO69Z9bTM28OW996aYbf33Le8uXNVUHA2JRLslF0RSWBAwFalNV7HQ2J0TDt7793YfGjRv/oSriXr+3NHzU6FX+YJDlCjJTynFsIvBX1co7kCXJ5XKwXC7DHn/koXNefv6f3/68jmPjxo2tCxbsrMG0cfPmUTK55UiImXaKuXKwkrBKqvx3DU1Nu/SaS/UnQ93hrnqjsMqUxGfLoDeyJTHI/yfni/za8bCKYEX33oyVi5D6VDLpoAbHKtPiwETxRUoWIGsTxbsVcuI3gWAg4nA4PtLlVlVb3Xv+Bef//qAJE7eGu7tFuo1MY+aiz8rPH8231aKJUhv/auM/e/aZZ055+qm/XcjFHtYgABEE9n8ZVK7vPCg/RWsoJn4pTEWSbjQqe4qk/e4gHBW177kq6zem+TqvcFFAlh1ZLTDFoDWDpHXJwheEQioeZJHw14yZlMtMmVWKdlz0xKyFO2j1kWTJxuzBxk5n7Se7wjZt2tj82COPXHz1L696eubMmTe+OOuF0Tm+mFeGQrSAiQwfh8MmZm/WP/956gsvPP+jPTmuSNcO79+f+tuPli5bVu92urSst7LrJ5VK72x4yRe4ZDrDhra0bJl80EFv6q/v6+urTKfTNr2LuNahvJxkX150RZVsSTzcC2vQCy++NP3hBx/4eaS7y/tZz8szTz/9vV/dcP1dC+YvGO1yOJndahtocUHvRUHQtICSdacnFmNHHHH4u9/61un3ftz+Ro4ataKuvn47tXfQ3EhaOj01v2WDmoR6PF62fv16/6233vLb+XNnf+mzHsf8+fOPu+22236/cuXKgVYR4e076ulYSMyRIiNxSZ8b+uiIqtyqyHgrDq51pImgfn9PT7db73GnlyjQzw+Nn+bE4/FQenx8b8bb2dnZQtWzqf2FynZmhCniItcqqpMAM/NLwe1yJUxm08cWOzxy6lFvXXTxxTc7Hc5CNNonClVqAfoGkc2nn08au9/nZ4m+BLvn7j9f8q9XXzkTt1cAEQS+EOYg3a2ym6j72xFYG8d3ehuHzs+ZnSxX0so/lvhhFQ0lrtqK/AG2xKxU66i/n2V3dNRIxaxwv1ADVrFIULkkSWFUMygvl1hGMTJrdfNSU6jhvY97z1defvm0a67+5WNXXjXztqef/vuh5HIIVVWJys20MFOArtlCgbpZLogCrC/eZ73jtluvfGHWP0/fnWPatnVzzR233vK7p5762zfJXGCz2zQXksE4kBKulHtsUWwHnb3p06e/WF1T3avvIxqNkiXIoMcACRcY2xlUTW4k0SZEuGRUFgpVsBIf+wMPPvjjG66//t5N6za07M356Ohor/z9zb/59S+vuvKWd96ZO4xcVFQAkVo00PhJlNEiTQG29PPuSA+rrqpKnX322Xdw0fCxadYNDfVrx40bt7BYDuimfVGtGwOJwbJwpzmihZqE0NKlSxuvvebae9+aM+fL8URijzOX+Py5nn322e9dddVVDz3//KwZoVBowDIT6YlUiJo5JrNWXV0d1DqjXP3ZYbPlKysr2wbvM18oWOPxfhvFL1Fm3gerTNNxFQp5FgwG+/nWtcdWoO6Ie8uWzSNTXCiaTTsPWWSFMa30hRBa/Hp1Oe0USN/tcnk/8TN9woknPvnNb37j6X4utOl6Fo196dop9xUje5MmRo38Wg+ytevW+W679bZrVy5beiTurwAiCOzPfCCM0/BJYkgd0Ez7Ic6G1jdMgbpwf5FavXLxY6SK16popGpQiowK5yiZNEv3dgvXmOj5RJlkklanxmzSYmqyfFHNGW05e8Pwt6TgiI8tutfe0db62mv/OpJaPPgDfv4U7GPFIgVbG8TiXioVtXpD5dgXEkfvvrui9vprr7n14Qfuv7Rt65b6j1zEImHPC8898+3rr7n64fvuu+/sZDJp9Pu8olCdVlG5HEtTFgAU8JwvFtjEiRO3nXLKKU8M3ld3d3ctNRWlQOQBS5Aw9Kll6atZ/SRhCTKKTvKBgE+04XjskYe/demlF//jkYceunDL5k2Nu3MONm/e2HzfvX/+2UUXXPD872/+/VVt29qCFRUhMR8FvkiW1J1FESmA3W53CjFEx/bDH/3wLyedfPITn7T/qqqq5HHHT3+xvr4hH+9PkklDWIFEde/SzuwsEqA032SheOedd5ovuOD8p2/5w+9v5/M/ZXeOo6trR3DWrOe4+JlJNXPumT17dqPH48zX1dUIQdPX22NJJhJutdzfSx2YT+2zQ9YRsgJ6PZ6M8wOuJgpazmYzFj0eiHrtMUka+NSJ3nAlmQvqyrDP59vjmCA+t7bu7p46kSRAVio2qC+bIkyfwuVGNYC8Xp/MRdqnVnGvrq3pP/vcc249eMrkTeHuqBBQhnLbFVX7IIljp1YfdD2SJXTRwoXN/Pq9IhbprsBtFvwnQLFEsNumoF3/+WkiR90vVZC9snGpr2HEomisbUaxRDEnmpNP9NoqaXERXC0whWWZzSg6gYgmsdQrjXqk0VM5VWQuUC2UQFWbv2nUvz7p/caPH7+4ZejQ3k0b1gWsVEeJPyXLhSz1idLSvcvtBsgFpNdUqagIsnVr11VfffU1fzzm9de/ccctf5zT0NCw0e119cbjiYqtmzePuuzSSyYvWbJsStvWbS5qFBrkT9Z63RjRK4wvnqJYndEsxM32cFictu9973t/njh50kAD1Gh3l/Xyyy5rkspuLs39pQWD66dRZR9o4GnQQlq8HjfrT/azN954Y+LqNWv+dNBBB/3Pdddds+SQyQe9VV1ds626pnozXwRLmUza0xkOD9+4YcOEDRs2jL3g/PMPWff+2lE93d3MarGJVh/CWlOUhdVA9DkryeI4XG4Xozo0iWSSnfHt05/78Y9//AePx/epPaimTZv20vTjp7/88MMPz6CWFFqgdbEcZK1ZuEhk0eZyuajRKdu6eYvngQfuP2/OnNmnXvSTCxby43mHn7tVVZWVbR6vN8bnxtDd1dXS3tExav26dQdd8tOfHrZq1apJmzZtMtJiT3EvNqstx+dRVD/v6u5qLRTyDomp5YBjwy4fJLKmkYustra254PNU9s7O1u5SDPR2BU9WJlpcUF0amjcFL1VEQp1Ol3O3j39HFChTH5efFZ+bRiFxUfWbFN6Fp34VHARlC9wwRtIVYQqdsvaNOmgg5c98cSjN11+6aV/ivTEnKFgQHOFWcxlKyMtOYo4F1z4CWH75JNPfrW5ufnyTDp5lcPplnGrBRBB4IsulqT9dXDG2rG9sTmPvpbasuIEOZmym00GEfQsstykkpYRQ/3Q1EK57pF+SMZyqwyZ5WSVKfYg8w0ZscBa1bjpE0XQuLHzph8z7ZWNa9d+h+qtkNCwmp1iwdcXekk0sy9SkMhAvEplVYgl4kk2a9Zzh73+r9cO87jdzGg2yrlc3pTLZBjFu9ALg0G/cDuIJqN839RnKxGPMwdf2LPZPLOZNRdXiouvk046aeGMGTP+cu755w2Mrz+RqGlvbx9CjS8H17JhA73HpF1q/NGCbDYahQWD3Es+r48PO8Vi0R425803psye/caUoD9wns/n6/d43AmumBRZLlpS6bQ3Go06qL+Z3v2dasfQ15IQI6VyDSatEJOo5M3fp7+/nx9rmouaqSt/cdWVMxubmnfL6sFFY/dz//znkwsXvDOto709YDFbRJVwi9UsKkNRPI3WkFWbc2pNEfB7hBvn3eXLaletfPe055595rRgsCLn83njXKSkaSZ6enoq+DF4UukUS/ZrsfBBv09kfkVjMVZTVdnnslnFL7Zs3DSBn4sAWZuE1JbUgV5slNpOY6Bz3TRkyBab3T7QzT4S6bbd8oc/jhLiwWEf1MOLjClCUrFiScvWqwgEui0Wa2ZPPwdpfj6SyX6XSI8XcyAJ8UnuXqX8XrqoDlVVd/N52G2X20knnvTUskWLj7j//gd+RAHtFrOV0QMAWd5IbJnKAp0sim5+Xe/gAv3ee+89d8KkiYv4y5/BLRRABIH93BK0W6j764G4alvm271VYTnR0aKW04BpUaIFXhSlY1rfLaNYuCyaqlMNIihY5WIlneNP4SFP3FPXskjyVH7icTqcHvn1V1/6x/8+/fRX+ALqofgfSTKyfCHP7Da7+KpbKNRylWa1nKXj5QtENqcF9yYScQo0NenNKR18cSTRYyx3dydoP1TM22Kzsgy5HGyadSna08MmT5q89dprrv1ZdW3NLkG06VTKz8cVEMUFyzE0Ujm1WTvp0odOKwkgqdyygf6exqI3LKXxxGJRFo32ePjfetRyv0/dLULZQhT7IzLOFEWkwetWJjPVBZLICqRwsWITRfq2d0fYcVwA3XHXnd8dPXb82j05z1OnTp116qmnHH3XnXedTxYNu8MhagdRCIxBNP9lIguKBKReCoDaqljLFrEkF2B8o4rN1aKpbDnGSqtkbWDUnoTcOvR9fyoperI1NTVsdHu06s183utTqZSdzo9o2kqxMeWxGcrHTK+tqanZ7vH4Biwg/L2s4a7ttTRvZNFTRICxVJ5HzRIk2rbQ3LtcCbfXs8eftb54PBSPx+1aPSlp50dcBP2XBkQQnbNARUW3fky7QyAYyqx/f80ta9a8P/n12XMm11VXcUGeGyhUqced0bzQVlNdQ5XIPb/57W9/s27tmo0jR41Zhdst+HeBmCCwG2pG5fdbjmFQM0pmGHB4iQKCu3q/JMkZ2m9FkKWidp0tWLemWOJPpLJoCC8qKOp1aAxmSvOnDLJywT3RdbzcvoFcNQYTM/lrNwVbx7y0O+93+OGHz5oxY8bzFGpBwbpFqsdC9Veo+hD/t1LuiymCRkko8EVYtxRRvAotHCa+cju4MHByAWE1aQs1zTst4PrrxPdcpOltL6hey46ubtbY3Nx19dVXX3Xo4YfN/+DY+CLtiUQibnIJCfHDx1MsysJCosUUaYs+QZV/abxi/KLmjejBpTXLpEwuGms5romCjqniM+2X71y4PqgAohANJPjKNXv0nlV0sRTLiyK5xki49fX1sa+f9rU3fn3TjReNHTdhzZ6e50AwmP3+D39861dPmfFSIpViyXSKGS1W4ejRF2ByRZK7kOKR1LJFiI6D5t3pdDKywLn4V9roGOhnFKRNbkvaSD6I2kwk3CzklqwIO5xOITS7u7vrSfzQz2k+aV7F9WUwDggBorGhYdvgcfPXmGKx3pIf5swAABmqSURBVIpSOSNMcxFqmy5KyZXr9XlZZWjvagRx0dHS1dXtIQGrfWC1z7O4jqgA6qBecyEugsgStif7HzF6zNrLLr/il9XVVXGykNG1QtXMtfcSYVoDhRnpkMg9PG/evOF/+MMfbk4mEy7cdQFEENjPlBDZ8o0iNXyXTBUtYGSXmJH93qQVaMm7apuXGJ1B/g01fDQzVaZietqTPsX8UGk3mfwzdKOmRb9sbclTurXZyezVQ1YY/aHO3Xk/p8df/PHZZ//2yCMOXxuLxUWqt54xY+ELKQkDiknRqzXLFKRcjl3RrSu2soAwSNoTtGieWQ64JdGhW4Ioxoj+3sz/fvuOHWxoa0vkmmuvuWbGaV978qPGlkqn3cViwUwiQI8HsVg0QaMFgpu0WBQSCnyMdK5pHBZhATGXF3hpIAVfF8WGgcarEhvcPFRv/6DXHdKrUesijgRXTzQq0uK/8d///c8brr/+J0ccNe3tvT3XI0eM3PSTn/zkt8ccc+xyEqDUboOsH2QlIzLZjHBL6cegDnIHGsrjFvPJ50MXcHq9HhJ/worH50Y/X9VVVZ1ef4UIlN+xfXs9uXw0EbtzE9dYWYTx81qqrKrapR1FIpGoisfjfv296auIASpblKSyS4y/rtjc2rJmb+Zlx44dTRRsbjTo11PZClpSBs4lxeuQYPP5fL18HMU9fY+DDzn4X+ecc/af6TpN83koFAsD/ejoeAZizfj/SSCZ+bU9a9bzJ/3lL3+5OpdD/SAAEQT2J2PQhy6bQSb0cq+gQQteaX8/IF/TqFeclc1tskRP82bRLFJi2oJDWS0lLiaKTKuXQwJIkXMilThd5Mfr9BcpHkjyNO12f7Tho8au+Z8f/uBP9UMa+ZNxVAtcpoWNLzjZXJ7EiNbqlOKy+VN+ueyScFFRl+8SX2z1hVBYZrTgEi0NmRZjir2w2rUmllxEbWvrYFOmTNly3fW/uvI73z3zvo8bV1dPpC5fLJq0HDB1QMSQS4rGRoX8ivxrJptj6VRaFCwk8UNjpkVUdyWRQDAL4aQMLNa6KB4sgAYsiaJys1kIOHotHQO5/ra1d1IMSu/Mq375u+t/fdP5Y8btmQvsozjiyCPn3vz73/146lFTF6ZSKbJ+8XFr3icScSQA6Vh04aaPc/BGx0NWLz1mS3eJsbIFj4SU0+5SK2trB6w6vf1Jr1ZiSRLzSV8p20q0/aB55fPkcrkzVeX2JTrRaLSWiyDfQEYZ/1sSCTRzJChIRKRTGWpRkfL6vJG9mZNEPF5BMUAWfj5LonijFu0uld2WZKrJUfq+08nq6+vb+fHusQjyBQLy6ad/54Gjjz52cSLRL2pSaNYsxs+5ZSDWTLhe+bxWhEKst7ePPXD/A+cvWDD/VNx2AUQQ2L9sQbsKHXH5aP82DPqZwvbjcKCdF35N0wrLkBGv5CQLFxAUHMKf0MXNXzSYEC4Z8lOJcv8GlRnoK9WtYXZmCTZsCTS07rF14vRvn/HnSy+55A8etzvd3hkuW10swspDc0jBwSJN3mYfEBQkOPQ0ab1gXqlca4XEg2598fn8wk21pb2DxWIx9tWvnLzopptuOu/b3/72A580pm3btg2juCRaA9WycMnnC1pVZbdbLNRkteILVIZEEV+chWAjAeD2eLTU+/xOQaTHzugCQbeY0KYLI91qJVLEqYBjJs3iyX6W5fs56eSTFt1x++3nXXrpz2YOaWkOf17ne9KkScvvvOvu039y4cX3KIqU37EjLDL99Dkkt5DBIH2oKKEu3nSrjLFswaNj1USUWSzqRbnI3F5P3u1yiya6He3bqiORSM2AqBQtZejcab20bHaneHbwenyZgH/XOj/RaKyGCzW3Hj+jz59uMaNrgyw3gWCw1+3+cD+vT6M31msJh8ONdJ5pXPpp2bVJqya4PB6P0tzcvMHl8uzVh3r4iBGbL7/ssutbh7ZG+vsTAxYwel86Dn1OhVuSf60MBFnbtm2uG3/96z9s2LBuNG67ACII7BdIlDbCtEDZna6vgV8K3TPoSV/Z74/H3yR7mke9Ils9vek8CR2T9gQsF0RrEItoA8I/HlxjmCmOQ6KFW2UZk5fZ60fMkypqt+7N+55x5pl//PnMK28eM3Z0V19/knVHY0zmC5rD7RqojUO1bOSCXHYdKKwoenlpVh+r1cYXXjuTiyQu+IJqsbE8/9u2tg4W3tHNRo4Y1fXLq6+97e4/33PK0ccc99onjSUa7TZ3dLQ1kw3IJNpKaOeQXGomLs4ymTwLh7tZ67AR3TfeeNOFV1zxizsCFRXx/nSK9fEFjVxLZD0iEWcvFzokUaEH8eqtIWhedbEnLC/8OChIOZfPi/T3VCrDpkw5aMMNv7rh2nvuvXfGKTNO/TsXFJ/7NTS0dWjb5Vf8/Ipb77j1p4cdefj6cCTKuiIRsfBTF3TRXkTi14GBYpssYqPvqZMIbfQ9WQvp9xazTXwVLlRGhSgLZK3J2ex2kRnWE4029PT01NJBGMwmzWVG7jBKFZeMLMf/vp8ft93lydidmnDSaW9vb00k4kb6e73KcmlQraEcF60y/+oP+MP6++0JuWzWz8dXT/vXBLj2QKO5uiURuE9xQXQ98vMqBwKByGeZ98OOPOLVM886636Fz28/Vagup8tTMkIxlxcWTRpDJpsV14XD6WBvzn6r5ZZbbvk9vz4bcPcF+xJkh4HdsgLpcRI706f1LGqt4L54gmbKLi6P/R1nQ8s77pr6zbn+jgDZ+q1c7Ehymlko7kZUStaahRiNfONPrikuNqRA1Q5/AxdB9tq9WqR9vgB1+/7VG6+/9t5NN91048qVK8d0dXUzNxdBdot1oFmpiBfiC6Ae/0NWCppn+r7ARRul71PrjWQqKdwjldU1vcdOnz7vu9/57n1f+vKXXrjuuus+fTHM5T3hcLhBLM7lqsT6kzkt+OS6UUTgsCk1Ztz4Oad+/RsPzZn9rxcff/zxc9+Z/87Uts3bKmK9CWa3mkSHeWu51pEufAbcRcWisBbprjKKkyEPjMfjlo//8vGrTjn11L9OPXray6NHjV9zySU/36fnvKqqipqA3rP2/dVzn3vmme8+/fTfz3h/zboGo1EVgka3hJBY0+N3dNFP1i59jgg6Djou+n7c+LEdZ3zvew+MGDFiMf2ubdu2EdForzPJhY4QWFSUkMSlyaIJGgpC5kJj2LBhq2obGwYqTHd3d9tuuOH6lngixX/P35MLTeoBZzLujLUrlYO5Q6FQGxdJe9w9vqOjo7Wzs7Mxk88xqbdPFL3ULUEDSQ58rNl8kVVUhKIulyv+Webc4/GUNm3Y+OCSxYsP/+es548tFfPCKlbMFzWnerkNiFx29VJiAvWqefyxx09uaWm+KB6PX+nz+Yq4DQOIIPCfVEEW4dqgwMxy9Igiaa0kVE0FiZYEZRFk/iIck1Q9rqfvhd8v7G5/9+BiMcvMlP2mFEXsj0QWGYkvWCJQusQoIkOmruwV9Vs9dUPf/qzvPf34Lz8Xi/XMe+mll858+u9/P2v58uWtsVjMSZYgyvyyl1PEVbF4moVISefSrKAX/CPrlMlUmHLwoVu/+tWvPnvc9On/mHzwlKUPP/zwbo8hmUyG+KJbraevy3JR1LKhMeRzReEGozRwv9+/gy+2Itj3mGO/9FoqmfjXqlWrjpo7d+5JSxcvPmrNe6vH8LEHspm8iJsxlCtP6+4VarlBxfJEHSOfr//II6ZuPvqYo187aMqUt4YOa32voal5+7/73I8aPZYCiq9s27zhvjmzZ5/yzjvzvrR4yfJDenv7gqlU0pBI9g8I+gGXTTmYm/7NF+XsiFEjtx9yyCHzDz300Nmjx4xdNmrs2FU//emlYv+BYCj8jW9+82EuAB0UacPnQaLCkVRagAsna9myqkyfPv3lex68f+cNmZ/TQw897O1iIW9zOZ1FiZR42cfM39vEx2DIFYpmsgAdd9xxL1ZWVu+xJYjabJxyyikPTpowYbjValFEGFxZ/PEx8n8qIvo7k81aJ02atJif/87POt+tw4dtXrpo0ZVDmhrOKZVkt8VsKpWKJYPdYsvligULF/JGib9nUZYtXIBJVqs11x2J+GW5ZOIiqI7vYhvuwgAiCPxHKBkdyZTF216wBqoLZpFOWyLLuaJKVOGOax9JNZlkB6WOJ422WM7kjH9Rjs1X27Cs1+ZihVyKWagWENNaZMhi3dE6qZO4KxnMfHMwc0Xd+yxQ1fZ5vHcwGKJ4jtv6E333r1279uAlS5YcvWDBgmnr1q1rzfIFiGo4UtVgUZvGaBILYcDvTw8fNmzTQQcfPG/ipMnzWpqbV9c2NXbtzfunkv2BeF+fiw3KitI8WJIIXKWUbrLi8AW/xz7I7eJyix5S1IV+bk+ky71ty9ZxXeFw07Zt20Zs3LhxRKSnp7ooF818kTPx/eQrK6vCw4a1rm9paVlfU1u7raG+fmNlbV3P/nD+m4YOJ7fm7alE71/CO7pa2jo7hm7esHHMlrZtQyPhrpreRMKvFGWzwWwsVVaEIs1DWzYOb219v76hYXNdbd3WUGWo3eZwfcj0efTRR7/Bv7whLEjJlNHpdn0oWaA/njB6fN7SBwQKnef74n2xR3z+4CdWxr79jjv3WpDwL8Lkls9kDVaHXfn4ayQhlc/3Z2bKoYcu5F8WJmJRl8likZ1uz4AVq5jNSJLWl4UUGf1btVjtajTa46yoCKVxFwYQQeA/hj3UvHz4Cd+5rNB71DizVKLQ4WJ5o05MCpWe4zrBkJdVS53ZGXdU1L7/hbFwMXPOYHbkirJqo5L+BouTFalYoUQyqCC6u2fTGdbPlyrZ688OGTNhluSu/1yz3zxeP1ULnk0bFz+GfD5vKxaKFqrhQwn6En86NxoMMj0dW6yWAhdEBb6ofuaYmXgsVpnpTzooCFzUyJE0C45SLpxItYoo24yK+dltttRH7SOkWSLmlzfNwtSfFKFjbrdb+aJcBy5vgNpWrClvz+s/z2QyRkUuUdogtfAo7M2+P0oAifP+AQG0izj/FAH0efFJAmiQ4P1c8QYrPnQtme0OdZePZRkIIAARBP7jmN0hRX/yP9COLRntHpXLZGwWapHB+MKvlNsTMEXEYZRkzb2TLpmYs2rINluwep8KPLtdLEqZ8rZPLWqRSKShUCxaKfaIgnQUvYM8F0MUr5IqpIVLzOvx9rl9/t1eDN0et8q+CCmCu4HD4RClNHEXAODABNlh4P8tamKTtXfH1kmFbIJZTVwAqEUmlfJ8KzJTSWZWyhunwGTJzBWJlYUah8+X/BXtB8rxb9y4cTSlu+sFD/VUcCoWSfY+Cl71er2soaF+C64WAABEEAAHEKVw26R0V9t4g5xiVoPMJLkoPhBGSo9XJJHBYzCYWU4xMNkeTLgbW2dLziEHRJZKPNZj3bRp08hCoaSJIMYGMqNE1eByVlpFKBSvbajfiqsFAAARBMABgtq3xdS7buXX5d5wk8OsMJMqM5Uq+VJcDBWpYyZW4uKH0qZzipE5aoduZdUt7xwox6/wA43F+qqo/pGJUvGpGGN5k8od5akAoMPhyDhdrgSuGAAARBAABwhy+4aj4+uWf92Qj0t2CwWwlERjTdVgZEUqkCdZWUm1sIysMtnsYFXDJ7zKvDVtB8rxFwsFWyaTcVLFY63c0852FqZyjR+q6kup2GaTKY8rBgAAEQTAAYDatdofe2/+j7LhTc12lmdGQ0mrcmw0i1T4fEliJYmLA4OVZUompjoCvcGWMbMkZ616oMxBb0+0jlozGIwmUQZAFGMUcUFazzDqFk+1fQLBQMThcMASBACACALgi47Ss97et2bxWZF1y060FvqZw1ROCVdFxzBWVLTEJirQS60qUrLEnFWN602VDasOpHno3LG9OZ6Ie0UvLGruKX4qCesPGYWoEjI17aytr2t3edy9uHIAAAciSJEH/28oti1uCi949dzOxa9/3xTr8AXMKnUH4MKHiX5JKgXIlKixo4FZFYUliyorWlyFuhGTXpCCrf0HlAgKb2+O9fUabFYL03oXGJnBqDUQpX5SmWyGmSwm1tDQsNXvr4A7DAAAEQTA/kxs85KxxdiOkS67MW33+jolizWlFNL+QqqvqdDVdVD7y08cF968epIl22urchmZTZFZXlZYiasAapVhMfCPQ6EgAqSpRUZesbKG0ZNWORpa3zrQ5irS3VOXTmeZ5DAws4Uyw4qigSh186bGpvmizLw+HwtVVOzAlQUAgAgCYD+mGG83r3/z2fN2rHjnW1VmxePze+Oy1RFRSlmPnIxW5eJxi5xKMZeSY26zKmoASQaVKSUDOb9EXIzKZGY2lFhJKYm4oKzByVrGH/6YsaZ14YE2X5s2bh5WlEssmUpz0VMQLTKsFjOj6tFFLoiyuTyrrqlRvH5/N64uAABEEAD7MYZSweZIxUZbox1Bs5JihS4plGGmkGSiBp55ZpMUZjGZmN0kMZNaYrKcF81gKfjZYrYwtZTjQqjEzNSotKiwnNXD/E0T37MMm/CM5G464CoGjx07dunp3/xWhcVioaacllKpZDAZjUXqC0e93nO5rGloa+vKxsbG9bi6AAAQQQDsx0gGSfUYmDloLLFKtcBMiswKRhszmoysqMqiFk6R/4xRp3RqDWGiZqlmUQtIUkko8U1SWb6kslheYtaq5u010756k1Q1seNAnK8zzjjj1lNOPfUJ6g6vKjQJUom+UgdxPmdFRS0Z+O+ytbX1fbi6AAAQQQDsx6gGY7FgYL2yUev+bqCu6JT6Tn3hKfOLi58C/5nFIDH+LcuTFchkEi1g1XyeCyCZyVwEpUv87wMNOe+4aU/YJp321IE6X8FQBfUm24YrBwDw/xmkyIMDAyOTC0wtkLgpktCxWphsZCynyExVtQrQlP2uqtQo1UD/KHdO598ZuBgy2ViqZGT9BierGz/1mZrDT/odJhUAAA5sYAkCBwZKwWooyS6zSk4uIxc41OKrxMURF0OKhRkNBmbn8sfIf27mwojrI1bg/7ZYrSxZUlk0JTPFU5+qGX/EyxVHnHijMTQyhkkFAACIIAD2eyRJMZqYyWRgVqZIcrkPVpE6oDJZVZlRJquPSrFDTCV/GG2KgXXH06xfsjNrzfAdzVOOedQ7cdrdxvrJHZhRAACACALgC4FaMrKMYk715rkUYmZmtxlZwWRhJi6AzAaZFUoUE6Rw7aOyksr4vxnLGyxM9nuLnrph6+snTv2La8zh90uB0VnMJgAAQAQB8MXBaM8zT9UGY6ihM19I+WRDUSoaS7LZKFtNSsEqWRRVNRrzskEqFphUVK2upMHpi7aMmfgv77Dxz5srGhdLzhEKJhIAAP7/IGEKwIFCetPS8Wpf13CzpEhMlY2qkRWZ8IpR9LMkM5Mpr0gGJc+ve5PD3mf2BdqsoQkRzBwAAAAAAAAAAAAAAAAAAAAAAAAAAAAAAAAAAAAAAAAAAAAAAAAAAAAAAAAAAAAAAAAAAAAAAAAAAAAAAAAAAAAAAAAAAAAAAAAAAAAAAAAAAAAAAAAAAAAAAAAAAAAAAAAAAAAAAAAAAAAAAAAAAAAAAAAAAAAAAAAAAAAAAAAAAAAAAAAAAAAAAAAAAAAAAAAAAAAAAAAAAAAAAAAAAAAAAAAAAAAAAAAAAAAAAAAAAAAAAAAAAAAAAAAAAAAAAAAAAAAAAAAAAAAAAAAAAAAAAAAAAAAAAAAAAAAAAAAAAAAAAAAAAAAAAAAAAAAAAAAAAAAAAAAAAAAAAAAAAAAAAAAAAAAAAAAAAAAAAAAAAAAAAAAAAAAAAAAAAAAAAAAAAAAAAAAAAAAAAAAAAAAAAAAAAAAAAAAAAAAAAAAAAAAAAAAAAAAAAAAAAAAAAAAAAAAAAAAAAAAAAAAAAAAAAAAAAAAAAAAAAAAAAAAAAAAAAAAAAAAAAAAAAAAAAAAAAAAAAAAAAAAAAAAAAAAAAAAAAAAAAAAAAAAAAAAAAAAAAAAAAAAAAAAAAAAAAAAAAAAAAAAAAAAAAAAAAAAAAAAAAAAAAAAAAAAAAAAAAAAAAAAAAAAAAAAAAAAAAAAAAAAAAAAAAAAAAAAAAAAAAAAAAAAAAAAAAAAAAAAAAAAAAAAAAAAAAAAAAAAAAAAAAAAAAAAAAAAAAAAAAAAAAAAAAAAAAAAAAAAAAAAAAAAAAAAAAAAAAAAAAAAAAAAAAAAAAAAAAAAAAAAAAAAAAAAAAAAAAAAAAAAAAAAAAAAAAAAAAAAAAAAAAAAAAAAAAAAAAAAAAAAAAAAAAAAAAAAAAAAAAAAAAAAAAAAAAAAAAAAAAAAAAAAAAAAAAAAAAAAAAAAAAAAAAAAAAAAAAAAAAAAAAAAAAAAAAAAAAAAAAAAAAAAAAAAAAAAAAAAAAAAAAAAAAAAAAAAAAAAAAAAAAAAAAAAAAAAAAAAAAAAAAAAAAAAAAAAAAAAAAAAAAAAAAAAAAAAAAAAAAAAAAAAAAAAAAAAAAAAAAAAAAAAAAAAAAAAAAAAAAAAAAAAAAAAAAAAAAAAAAAAAAAAAAAAAAAAAAAAAAAAAAAAAAAAAAAAAAAAAAAAAAAAAAAAAAAAAAAAAAAAAAAAAAAAAAAAAAAAAAAAAAAAAAAAAAAAAAAAAAAAAAAAAAAAAAAAAAAAAAAAAAAAAAAAAAAAAAAAAAAAAAAAAAAAAAAAAAAAAAAAAAAAAAAAAAAAAAAAAAAAAAAAAAAAAAAAAAAAAAAAAAAAAAAAAAAAAAAAAAAAAAAAAAAAAAAAAAAAAAAAAAAAAAAAAAAAAAAA4cPg/3LyIwRzC0KAAAAAASUVORK5CYII=;" vertex="1" parent="1">
          <mxGeometry x="186.7" y="140" width="106.61" height="80" as="geometry" />
        </mxCell>
        <mxCell id="Ec8AV_Ql3ZaaRcwQEaW2-37" value="&lt;div&gt;web&lt;/div&gt;" style="text;html=1;align=center;verticalAlign=middle;whiteSpace=wrap;rounded=0;" vertex="1" parent="1">
          <mxGeometry x="180" y="-70" width="60" height="30" as="geometry" />
        </mxCell>
      </root>
    </mxGraphModel>
  </diagram>
</mxfile>
